<svg xmlns="http://www.w3.org/2000/svg" viewBox="0 0 21.624 28.8">
  <path d="M6.60 24.50C7.15 23.62 8.40 21.79 9.91 19.66C10.08 22.27 12.10 24.41 15.26 24.41C18.41 24.41 20.66 22.56 20.66 19.10C20.64 16.20 18.77 13.78 15.43 13.78C14.90 13.78 14.40 13.85 13.94 13.94C15.86 11.23 17.64 8.78 18.48 7.61L14.16 6.19C13.46 7.13 12.55 8.38 11.52 9.79C10.94 7.68 9.19 6.10 6.50 6.10C3.02 6.10 0.96 8.38 0.96 11.57C0.96 14.35 3.02 16.73 6.36 16.73C6.43 16.73 6.53 16.73 6.60 16.70C4.61 19.56 2.90 22.03 2.40 22.92ZM6.36 13.32C5.16 13.32 4.42 12.46 4.42 11.47C4.42 10.32 5.16 9.50 6.41 9.50C7.61 9.50 8.28 10.37 8.28 11.40C8.28 12.65 7.46 13.32 6.36 13.32ZM15.26 21C14.09 21 13.34 20.16 13.34 19.15C13.34 18 14.09 17.18 15.34 17.18C16.54 17.18 17.21 18.05 17.21 19.10C17.21 20.33 16.39 21 15.26 21Z" transform="translate(0, 0)" />
</svg>