
    <svg xmlns="http://www.w3.org/2000/svg" viewBox="0 0 40.512 28.8">
      <path d="M12.84 24.89L12.65 20.33L10.37 20.23L10.27 6.98L6.50 6.50L0.67 9.74L3.19 13.73L4.75 13.46L4.75 20.06L2.18 19.97L2.04 25.01ZM17.64 24.38C18.91 24.38 19.97 23.35 19.97 22.06C19.97 20.76 18.91 19.73 17.64 19.73C16.34 19.73 15.31 20.76 15.31 22.06C15.31 23.35 16.34 24.38 17.64 24.38ZM31.68 24.91C37.30 24.91 39.79 20.76 39.79 15.65C39.79 10.51 37.22 6.34 31.68 6.34C26.11 6.34 23.57 10.51 23.57 15.65C23.57 20.76 26.47 24.91 31.68 24.91ZM31.68 18.74C29.93 18.74 28.94 17.33 28.94 15.65C28.94 13.92 29.81 12.50 31.68 12.50C33.53 12.50 34.42 13.92 34.42 15.65C34.42 17.33 33.55 18.74 31.68 18.74Z" transform="translate(0, 0)" />
    </svg>
  