
    <svg xmlns="http://www.w3.org/2000/svg" viewBox="0 0 36.72 28.8">
      <path d="M12.84 24.89L12.65 20.33L10.37 20.23L10.27 6.98L6.50 6.50L0.67 9.74L3.19 13.73L4.75 13.46L4.75 20.06L2.18 19.97L2.04 25.01ZM17.64 24.38C18.91 24.38 19.97 23.35 19.97 22.06C19.97 20.76 18.91 19.73 17.64 19.73C16.34 19.73 15.31 20.76 15.31 22.06C15.31 23.35 16.34 24.38 17.64 24.38ZM35.69 24.89L35.50 20.33L33.22 20.23L33.12 6.98L29.35 6.50L23.52 9.74L26.04 13.73L27.60 13.46L27.60 20.06L25.03 19.97L24.89 25.01Z" transform="translate(0, 0)" />
    </svg>
  