
    <svg xmlns="http://www.w3.org/2000/svg" viewBox="0 0 85.872 28.8">
      <path d="M12.84 24.89L12.65 20.33L10.37 20.23L10.27 6.98L6.50 6.50L0.67 9.74L3.19 13.73L4.75 13.46L4.75 20.06L2.18 19.97L2.04 25.01ZM35.78 17.11L29.59 17.11C29.59 16.92 29.57 16.70 29.54 16.49C31.49 16.51 33.36 16.56 35.02 16.58L34.61 12.02L28.70 12.02C28.49 11.35 28.27 10.73 28.03 10.22C29.54 9.79 30.91 9.24 31.90 8.59L28.90 5.02C26.69 6.50 21.34 7.34 18.74 7.73L19.39 11.71C20.26 11.69 21.84 11.54 23.64 11.23C23.74 11.50 23.86 11.78 23.95 12.07C21.65 12.12 19.27 12.17 16.94 12.24L16.94 16.75C19.01 16.58 21.84 16.51 24.82 16.49C24.82 16.70 24.84 16.94 24.84 17.16C21.79 17.18 18.60 17.23 15.53 17.33L15.53 22.01C17.78 21.84 20.86 21.77 24.10 21.74C23.98 22.08 23.83 22.42 23.69 22.73L23.09 22.44L20.52 24.82L23.83 26.88L26.26 26.59C27.86 25.39 28.80 23.66 29.26 21.74C31.73 21.74 34.15 21.79 36.24 21.82ZM59.57 5.71C56.50 5.59 45.26 5.66 41.98 5.83L42.26 9.05C45.70 8.88 55.46 8.81 59.57 8.93ZM54.77 20.86C56.45 20.86 57.98 20.86 59.02 20.88L58.80 17.88L54.14 17.88C54.22 17.33 54.24 16.73 54.24 16.13L50.14 15.96C50.14 16.68 50.11 17.33 50.04 17.90C48.38 17.93 46.94 17.95 46.10 18L45.98 20.93C46.75 20.90 47.88 20.88 49.15 20.88C48.38 22.13 47.04 22.99 44.93 24.24C45.65 21.82 45.91 18.67 46.10 15.86C48.74 15.79 52.25 15.77 54.91 15.79C54.89 15.86 54.86 15.94 54.86 15.98L58.92 15.98C59.30 14.16 59.74 12.70 59.86 11.62L57.38 9.12C54.19 9.36 46.78 9.41 43.99 9.38L41.71 11.81C41.71 16.46 41.14 21.82 39.89 25.54L44.28 25.99C44.47 25.58 44.66 25.10 44.83 24.62L47.14 26.74C49.25 25.78 50.88 24.58 52.03 23.11C53.40 24.62 55.27 25.80 57.41 26.76L59.86 24.43C57.94 23.71 55.99 22.51 54.77 20.86ZM55.42 12.22C55.42 12.46 55.39 12.72 55.39 12.96C52.92 12.94 49.15 12.96 46.32 13.01C46.32 12.74 46.34 12.50 46.37 12.26C49.18 12.26 53.83 12.22 55.42 12.22ZM78.48 7.54C78.43 6.91 78.38 6.31 78.36 5.74L73.37 6.02C73.44 6.58 73.51 7.10 73.56 7.63L65.26 7.82L65.26 12.53L74.02 12.29C74.04 12.62 74.06 12.94 74.06 13.22C73.42 12.94 72.72 12.77 72 12.77C69.67 12.77 65.62 14.64 66.22 18.86C66.72 22.46 71.38 25.20 74.95 23.16C75 24.14 75 25.10 74.95 25.94L80.23 25.37C80.23 23.18 79.56 20.35 78.34 17.95C78.74 16.18 78.82 14.18 78.77 12.17L82.75 12.07L82.75 7.44ZM72 19.30C69.84 19.30 70.32 16.54 72.07 16.78C72.74 16.87 73.25 17.28 73.66 17.88C73.34 18.79 72.82 19.30 72 19.30Z" transform="translate(0, 0)" />
    </svg>
  