<svg xmlns="http://www.w3.org/2000/svg" viewBox="0 0 85.872 28.8">
  <path d="M12.84 24.89L12.65 20.33L10.37 20.23L10.27 6.98L6.50 6.50L0.67 9.74L3.19 13.73L4.75 13.46L4.75 20.06L2.18 19.97L2.04 25.01ZM35.78 17.11L29.59 17.11C29.59 16.92 29.57 16.70 29.54 16.49C31.49 16.51 33.36 16.56 35.02 16.58L34.61 12.02L28.70 12.02C28.49 11.35 28.27 10.73 28.03 10.22C29.54 9.79 30.91 9.24 31.90 8.59L28.90 5.02C26.69 6.50 21.34 7.34 18.74 7.73L19.39 11.71C20.26 11.69 21.84 11.54 23.64 11.23C23.74 11.50 23.86 11.78 23.95 12.07C21.65 12.12 19.27 12.17 16.94 12.24L16.94 16.75C19.01 16.58 21.84 16.51 24.82 16.49C24.82 16.70 24.84 16.94 24.84 17.16C21.79 17.18 18.60 17.23 15.53 17.33L15.53 22.01C17.78 21.84 20.86 21.77 24.10 21.74C23.98 22.08 23.83 22.42 23.69 22.73L23.09 22.44L20.52 24.82L23.83 26.88L26.26 26.59C27.86 25.39 28.80 23.66 29.26 21.74C31.73 21.74 34.15 21.79 36.24 21.82ZM45.67 22.54C46.34 20.98 46.87 18.34 45.17 17.71C45.84 16.44 46.20 15.72 46.66 14.83L47.59 16.06L47.95 15.65C47.95 18.29 48 20.86 48.14 22.37L51.31 22.37C51.31 22.22 51.29 22.10 51.29 21.96C53.98 21.86 57.82 21.84 59.71 21.96L59.71 18.38C59.04 18.34 57.74 18.31 56.26 18.31L56.26 17.78C57.36 17.78 58.37 17.81 59.06 17.83L59.06 15.17C58.51 15.14 57.46 15.12 56.26 15.12L56.26 14.59C57.36 14.59 58.37 14.62 59.06 14.64L59.06 11.98C58.51 11.95 57.46 11.93 56.26 11.93L56.26 11.35C57.53 11.35 58.68 11.38 59.50 11.42L59.50 7.85C59.02 7.82 58.20 7.80 57.24 7.80C57.34 7.58 57.46 7.37 57.55 7.15L54.46 5.69C54.12 6.53 53.78 7.20 53.47 7.80C52.94 7.82 52.44 7.82 51.96 7.85L52.39 6.43L49.37 5.78C48.41 8.21 47.59 9.84 46.22 11.86L46.20 11.64C44.54 11.86 41.59 11.98 39.74 11.98L39.74 15.41C39.74 15.41 41.93 15.36 42.77 15.22C41.98 15.98 41.42 16.22 40.51 16.66L40.90 19.56C44.47 20.30 42.74 23.14 39.96 23.64L42.17 26.21C47.50 25.08 55.39 26.83 59.50 26.28L59.98 23.02C55.99 23.26 49.44 22.10 45.67 22.54ZM43.20 11.66C44.81 11.66 46.13 10.34 46.13 8.74C46.13 7.13 44.81 5.81 43.20 5.81C41.59 5.81 40.27 7.13 40.27 8.74C40.27 10.34 41.59 11.66 43.20 11.66ZM51.17 12.02C51.17 11.81 51.19 11.62 51.19 11.40C51.79 11.40 52.42 11.38 53.06 11.38L53.06 11.98C52.39 11.98 51.74 12 51.17 12.02ZM51.12 15.22L51.12 14.64C51.72 14.64 52.39 14.62 53.11 14.62L53.11 15.17C52.39 15.17 51.72 15.19 51.12 15.22ZM51.14 18.41C51.14 18.22 51.14 18.02 51.12 17.83C51.72 17.83 52.42 17.81 53.14 17.81L53.16 18.36C52.44 18.36 51.77 18.38 51.14 18.41ZM75.41 21.14C74.21 20.83 73.61 19.63 73.01 18.36C72.98 16.94 72.96 15.24 72.91 13.42L74.47 13.39L74.47 9.19L72.79 9.22C72.77 8.23 72.74 7.25 72.70 6.31L68.90 6.31C68.88 6.86 68.93 7.92 69 9.26L65.18 9.31L65.18 13.54L69.22 13.46C69.22 13.87 69.24 14.30 69.26 14.71C69 14.69 68.71 14.69 68.42 14.74C63.17 15.36 63.26 22.30 65.98 24.29C68.04 25.80 71.06 25.01 72.38 23.33C73.01 24.12 73.85 24.77 75.10 25.03C80.04 26.09 82.54 24.48 83.71 20.40L80.66 18C79.58 20.83 77.95 21.84 75.41 21.14ZM83.71 13.34C82.27 11.40 80.50 9.43 79.18 8.35L76.42 10.97C78.24 12.94 79.15 14.02 80.74 16.20ZM68.21 20.95C67.30 20.35 67.37 18.53 68.64 18.41C68.88 18.38 69.10 18.41 69.29 18.48C69.26 18.60 69.26 18.72 69.26 18.84C69.19 20.81 69 21.46 68.21 20.95Z" transform="translate(0, 0)" />
</svg>