
    <svg xmlns="http://www.w3.org/2000/svg" viewBox="0 0 43.68 28.8">
      <path d="M15.94 24.89L15.55 20.33L11.98 20.30C18.05 16.32 15.94 8.18 11.21 6.96C6.94 5.86 3.50 7.70 0.94 11.26L3.60 14.95C5.66 12.46 8.98 11.64 10.42 13.70C12.12 16.15 6.12 19.75 2.09 20.23L2.33 24.89ZM20.81 24.38C22.08 24.38 23.14 23.35 23.14 22.06C23.14 20.76 22.08 19.73 20.81 19.73C19.51 19.73 18.48 20.76 18.48 22.06C18.48 23.35 19.51 24.38 20.81 24.38ZM34.85 24.91C40.46 24.91 42.96 20.76 42.96 15.65C42.96 10.51 40.39 6.34 34.85 6.34C29.28 6.34 26.74 10.51 26.74 15.65C26.74 20.76 29.64 24.91 34.85 24.91ZM34.85 18.74C33.10 18.74 32.11 17.33 32.11 15.65C32.11 13.92 32.98 12.50 34.85 12.50C36.70 12.50 37.58 13.92 37.58 15.65C37.58 17.33 36.72 18.74 34.85 18.74Z" transform="translate(0, 0)" />
    </svg>
  