
    <svg xmlns="http://www.w3.org/2000/svg" viewBox="0 0 43.032000000000004 28.8">
      <path d="M2.09 24.12C15.60 27.96 18.29 19.01 12.70 16.32C15.60 15.22 16.10 10.22 13.22 7.87C10.42 5.59 3.67 6.17 0.60 9.96L3.84 13.46C9.72 9.53 11.09 15 6.96 15.55L6.94 16.87C12.10 17.40 9.82 22.97 3.22 19.06ZM20.16 24.38C21.43 24.38 22.49 23.35 22.49 22.06C22.49 20.76 21.43 19.73 20.16 19.73C18.86 19.73 17.83 20.76 17.83 22.06C17.83 23.35 18.86 24.38 20.16 24.38ZM34.20 24.91C39.82 24.91 42.31 20.76 42.31 15.65C42.31 10.51 39.74 6.34 34.20 6.34C28.63 6.34 26.09 10.51 26.09 15.65C26.09 20.76 28.99 24.91 34.20 24.91ZM34.20 18.74C32.45 18.74 31.46 17.33 31.46 15.65C31.46 13.92 32.33 12.50 34.20 12.50C36.05 12.50 36.94 13.92 36.94 15.65C36.94 17.33 36.07 18.74 34.20 18.74Z" transform="translate(0, 0)" />
    </svg>
  