
    <svg xmlns="http://www.w3.org/2000/svg" viewBox="0 0 39.24 28.8">
      <path d="M2.09 24.12C15.60 27.96 18.29 19.01 12.70 16.32C15.60 15.22 16.10 10.22 13.22 7.87C10.42 5.59 3.67 6.17 0.60 9.96L3.84 13.46C9.72 9.53 11.09 15 6.96 15.55L6.94 16.87C12.10 17.40 9.82 22.97 3.22 19.06ZM20.16 24.38C21.43 24.38 22.49 23.35 22.49 22.06C22.49 20.76 21.43 19.73 20.16 19.73C18.86 19.73 17.83 20.76 17.83 22.06C17.83 23.35 18.86 24.38 20.16 24.38ZM38.21 24.89L38.02 20.33L35.74 20.23L35.64 6.98L31.87 6.50L26.04 9.74L28.56 13.73L30.12 13.46L30.12 20.06L27.55 19.97L27.41 25.01Z" transform="translate(0, 0)" />
    </svg>
  