<svg xmlns="http://www.w3.org/2000/svg" viewBox="0 0 256.392 28.8">
  <path d="M2.09 24.12C15.60 27.96 18.29 19.01 12.70 16.32C15.60 15.22 16.10 10.22 13.22 7.87C10.42 5.59 3.67 6.17 0.60 9.96L3.84 13.46C9.72 9.53 11.09 15 6.96 15.55L6.94 16.87C12.10 17.40 9.82 22.97 3.22 19.06ZM35.11 20.47C36.26 18.31 37.06 15.72 37.32 12.67C37.80 12.67 38.23 12.70 38.57 12.72L38.57 8.86C37.58 8.76 34.90 8.76 32.59 8.81C32.76 7.85 32.88 6.89 32.98 5.95L29.30 5.59C28.92 8.21 28.18 12.58 26.71 15.50C26.28 15.10 25.82 14.69 25.32 14.28L25.32 12.60C26.18 12.60 26.95 12.62 27.50 12.67L27.48 8.28C27.05 8.23 26.28 8.21 25.37 8.21L25.39 5.69L21.65 5.88L21.65 8.28C20.62 8.33 19.73 8.40 19.22 8.47L19.37 12.84C19.87 12.77 20.69 12.70 21.62 12.65L21.62 13.15C20.62 15.43 18.89 17.52 17.86 18.82L20.16 22.03C20.74 21.48 21.22 20.86 21.62 20.26L21.60 26.21L25.20 26.33L25.27 19.22C25.66 19.66 26.02 20.09 26.28 20.54L27.58 17.90L28.85 18.67C29.06 18.43 29.28 18.17 29.47 17.88C29.78 18.77 30.12 19.61 30.53 20.40C29.42 21.79 28.18 22.92 26.90 24L29.81 26.74C30.84 25.97 31.85 25.03 32.78 23.93C33.79 25.15 34.90 26.18 36.02 27.05L38.90 24.31C37.56 23.18 36.24 21.96 35.11 20.47ZM32.23 12.70C32.66 12.67 33.12 12.67 33.60 12.65C33.48 13.94 33.22 15.07 32.88 16.10C32.57 15.07 32.33 13.94 32.23 12.70ZM59.71 25.85C65.42 19.97 62.26 8.83 52.82 8.11C49.08 7.82 43.90 10.66 42.62 15.02C41.35 19.39 43.03 25.10 47.50 25.44C53.33 25.85 54.46 18.86 54.74 13.99L50.62 13.32C50.40 16.87 50.04 21.12 47.71 20.40C45.12 19.58 47.47 12.58 52.68 12.58C57.48 12.58 60.41 19.18 55.94 23.86ZM83.76 18.31C83.88 18.31 84 18.31 84.12 18.31L84.12 18.53L86.54 18.60C86.69 17.45 87.02 11.47 86.88 10.32L85.68 8.47L82.27 8.54C82.66 7.90 83.02 7.20 83.52 6.43L80.54 5.35C79.85 6.67 79.22 7.66 78.50 8.62L76.42 8.66L75.48 9.62C75.58 11.83 75.70 17.04 75.74 18.74L78.07 18.67C78.07 18.55 78.07 18.43 78.07 18.29L78.31 18.29C78.12 18.91 77.83 19.42 77.50 19.87C76.63 19.90 75.89 19.92 75.41 19.97L75.58 23.30C76.68 23.23 78.79 23.16 80.95 23.14C80.95 24.24 80.98 25.30 81.05 26.26L83.81 26.26C83.83 25.49 83.83 24.36 83.83 23.14C85.03 23.14 86.14 23.16 86.90 23.18L86.90 19.85C86.28 19.80 85.13 19.78 83.78 19.78C83.78 19.27 83.76 18.77 83.76 18.31ZM73.87 16.25C73.13 16.32 71.98 16.32 70.87 16.32L70.94 15.12C72.53 15.07 74.42 15.07 75.41 15.17L75.41 10.80C75.14 10.75 74.74 10.73 74.21 10.73L74.21 6.17L71.50 6.26L71.57 10.75L71.04 10.75C71.06 9.36 71.06 7.92 71.09 6.46L67.87 6.38C67.87 14.28 68.47 20.16 65.86 23.98L68.28 26.42C69.36 25.15 70.01 23.30 70.39 21C70.94 20.95 71.50 20.90 71.98 20.88C71.95 22.10 72.02 23.74 71.98 26.35L74.86 26.35C74.93 23.93 74.95 21.14 74.93 19.39ZM84.26 12.19C83.74 12.17 83.14 12.14 82.51 12.14L82.51 11.54L84.26 11.52ZM79.90 11.59L79.92 12.17C79.22 12.17 78.58 12.19 78 12.22C77.98 12.02 77.98 11.83 77.98 11.64ZM78.05 14.93C78.62 14.90 79.30 14.90 79.99 14.90L80.02 15.55C79.34 15.55 78.67 15.58 78.05 15.60ZM82.44 14.90L84.22 14.90C84.19 15.14 84.19 15.36 84.19 15.58C83.69 15.58 83.09 15.55 82.44 15.55ZM80.90 18.29L80.95 18.29C80.95 18.77 80.95 19.27 80.95 19.80L80.35 19.80C80.57 19.34 80.74 18.84 80.90 18.29ZM99.50 21.50C99.31 20.64 100.94 19.66 103.08 18.62C103.13 19.06 103.01 19.56 102.70 20.09L106.58 20.81C107.21 19.42 107.23 18.10 106.82 16.92L108.55 16.10L106.39 12.60C105.86 12.89 105.02 13.27 104.04 13.75C102.41 12.86 100.32 12.62 98.23 13.32C98.52 12.55 98.81 11.88 99.10 11.23L108.02 11.11L108.02 7.22L100.73 7.30C100.85 6.98 100.99 6.62 101.11 6.26L97.20 5.86L96.62 7.34L92.21 7.39L92.21 11.30L94.87 11.28C94.20 12.77 93.62 14.04 93.46 14.62L96.19 17.06C97.10 16.44 98.26 16.18 99.36 16.22C96.55 17.93 94.10 20.02 94.39 22.27C94.92 26.83 103.18 27.02 108.26 25.78L107.81 21.79C103.10 22.61 99.86 23.04 99.50 21.50ZM131.38 7.94C128.33 8.23 123.41 8.50 119.76 8.57L119.76 7.94L114.60 7.94C114.55 12.77 115.08 19.51 115.78 24.14L121.01 24.14C120.96 23.86 120.89 23.54 120.84 23.21C122.98 23.21 125.71 23.28 127.94 23.30L127.80 24.14L132.62 24.14C133.63 20.59 133.92 13.32 134.18 11.28ZM120.29 18.43C120.12 16.61 120 14.71 119.93 13.03C122.59 13.03 126.17 13.01 128.95 12.79C128.95 14.23 128.86 16.20 128.62 18.43C126.24 18.36 122.86 18.38 120.29 18.43ZM149.30 16.27C148.58 14.28 147.79 12.84 147.02 11.66L144.72 12.84C145.27 13.92 146.21 15.50 146.81 17.38ZM145.39 25.34C151.15 23.88 156 19.82 156 13.13L152.35 12.91C151.82 18.14 149.69 20.76 144.02 22.03ZM146.16 17.71C145.44 15.74 144.62 14.30 143.88 13.13L141.58 14.30C142.10 15.36 143.06 16.94 143.64 18.82ZM178.13 7.39C176.95 7.54 173.40 7.56 170.71 7.58C170.74 7.25 170.74 6.91 170.74 6.55L166.03 6.55C165.89 9.79 165 14.09 162.34 16.92L166.54 19.30C167.88 17.28 169.18 14.98 169.94 12.22C172.56 12.17 175.32 12.12 176.50 12C175.99 14.66 173.74 20.02 168.77 24L172.10 26.86C175.34 25.06 180.26 19.10 181.75 11.26ZM201 7.54C200.95 6.91 200.90 6.31 200.88 5.74L195.89 6.02C195.96 6.58 196.03 7.10 196.08 7.63L187.78 7.82L187.78 12.53L196.54 12.29C196.56 12.62 196.58 12.94 196.58 13.22C195.94 12.94 195.24 12.77 194.52 12.77C192.19 12.77 188.14 14.64 188.74 18.86C189.24 22.46 193.90 25.20 197.47 23.16C197.52 24.14 197.52 25.10 197.47 25.94L202.75 25.37C202.75 23.18 202.08 20.35 200.86 17.95C201.26 16.18 201.34 14.18 201.29 12.17L205.27 12.07L205.27 7.44ZM194.52 19.30C192.36 19.30 192.84 16.54 194.59 16.78C195.26 16.87 195.77 17.28 196.18 17.88C195.86 18.79 195.34 19.30 194.52 19.30ZM219.62 26.74C225.65 26.74 228.26 23.71 227.88 20.06C227.42 15.98 223.75 14.11 219.84 14.06C221.90 13.01 224.50 11.33 226.51 9.38L224.54 6.65C221.90 6.96 216.43 7.10 212.66 7.10L212.62 10.80C214.06 10.92 216.14 10.94 218.86 10.75C216.79 12.07 216 12.50 214.51 13.10L215.23 17.52C218.21 17.50 223.54 17.40 223.75 19.97C223.94 22.32 221.95 23.04 219.84 22.99C218.76 22.97 216.50 22.85 216.62 22.15C216.79 21.19 219.05 21.77 221.45 22.85L222.96 19.49C217.82 16.85 213.19 17.47 212.50 21.26C211.97 24.14 214.08 26.74 219.62 26.74ZM237.79 26.33C239.90 26.33 241.68 24.60 241.68 22.46C241.68 20.33 239.90 18.60 237.79 18.60C235.66 18.60 233.88 20.33 233.88 22.46C233.88 24.60 235.66 26.33 237.79 26.33ZM237.79 23.57C237.17 23.57 236.66 23.06 236.66 22.46C236.66 21.89 237.17 21.38 237.79 21.38C238.39 21.38 238.90 21.89 238.90 22.46C238.90 23.06 238.39 23.57 237.79 23.57Z" transform="translate(0, 0)" />
</svg>