
    <svg xmlns="http://www.w3.org/2000/svg" viewBox="0 0 45.24 28.8">
      <path d="M14.16 24.91L14.38 21.22L17.86 21.22L17.86 16.25L14.64 16.25L15.05 8.09L14.26 6.72L9.22 6.72C6.53 9.70 2.23 15.41 0.74 17.76L1.44 21.22L9.65 21.22L9.79 24.91ZM7.20 16.25C7.70 15.43 8.52 14.42 9.43 13.39L9.50 16.25ZM22.37 24.38C23.64 24.38 24.70 23.35 24.70 22.06C24.70 20.76 23.64 19.73 22.37 19.73C21.07 19.73 20.04 20.76 20.04 22.06C20.04 23.35 21.07 24.38 22.37 24.38ZM36.41 24.91C42.02 24.91 44.52 20.76 44.52 15.65C44.52 10.51 41.95 6.34 36.41 6.34C30.84 6.34 28.30 10.51 28.30 15.65C28.30 20.76 31.20 24.91 36.41 24.91ZM36.41 18.74C34.66 18.74 33.67 17.33 33.67 15.65C33.67 13.92 34.54 12.50 36.41 12.50C38.26 12.50 39.14 13.92 39.14 15.65C39.14 17.33 38.28 18.74 36.41 18.74Z" transform="translate(0, 0)" />
    </svg>
  