
    <svg xmlns="http://www.w3.org/2000/svg" viewBox="0 0 41.448 28.8">
      <path d="M14.16 24.91L14.38 21.22L17.86 21.22L17.86 16.25L14.64 16.25L15.05 8.09L14.26 6.72L9.22 6.72C6.53 9.70 2.23 15.41 0.74 17.76L1.44 21.22L9.65 21.22L9.79 24.91ZM7.20 16.25C7.70 15.43 8.52 14.42 9.43 13.39L9.50 16.25ZM22.37 24.38C23.64 24.38 24.70 23.35 24.70 22.06C24.70 20.76 23.64 19.73 22.37 19.73C21.07 19.73 20.04 20.76 20.04 22.06C20.04 23.35 21.07 24.38 22.37 24.38ZM40.42 24.89L40.22 20.33L37.94 20.23L37.85 6.98L34.08 6.50L28.25 9.74L30.77 13.73L32.33 13.46L32.33 20.06L29.76 19.97L29.62 25.01Z" transform="translate(0, 0)" />
    </svg>
  