
    <svg xmlns="http://www.w3.org/2000/svg" viewBox="0 0 17.64 28.8">
      <path d="M8.28 25.27C13.75 25.18 17.04 21.82 14.81 18.29C14.18 17.30 13.06 16.39 11.83 15.55C13.56 14.35 15.34 13.13 16.92 11.95L15.02 8.06C14.69 8.23 14.33 8.47 13.94 8.69C7.30 3.31 1.37 6.60 0.79 10.15C0.36 12.77 1.94 14.50 3.91 15.82C3.17 16.49 2.47 17.21 1.85 17.93C-1.27 21.53 2.64 25.37 8.28 25.27ZM7.66 12.79C6.82 12.17 6.29 11.57 6.38 11.04C6.60 9.91 8.42 9.94 9.84 11.28C9.12 11.74 8.38 12.26 7.66 12.79ZM7.97 21.07C6.41 21.10 5.45 20.04 7.10 18.82C7.39 18.65 7.68 18.43 7.97 18.19C8.47 18.53 8.90 18.84 9.19 19.18C10.10 20.23 9.36 21.05 7.97 21.07Z" transform="translate(0, 0)" />
    </svg>
  