<svg xmlns="http://www.w3.org/2000/svg" viewBox="0 0 240.81599999999997 28.8">
  <path d="M15.94 19.22C12.10 20.57 8.83 19.82 8.52 16.82C8.30 14.78 10.46 12.10 15.43 13.80L17.57 8.74C8.95 4.25 0.17 9.14 0.74 17.30C1.37 26.04 11.57 27.89 17.98 24.60ZM31.85 19.15C31.85 19.15 29.64 20.93 28.03 19.46C27.43 18.96 27.19 17.35 27.19 16.22L32.47 16.27L32.90 10.56L28.22 10.66C28.46 9.89 28.73 8.64 28.92 7.85L23.47 7.54C23.23 8.30 23.02 9.70 22.82 10.80L19.08 10.90L19.70 16.18L22.25 16.20C22.22 18.98 22.66 22.30 24.19 23.69C26.59 25.85 30.46 25.39 32.90 24.38ZM40.54 24.70C40.61 23.76 40.68 22.56 40.75 21.26C42.70 18.65 45.48 18.38 48.07 18.29L47.66 12.74C45.31 12.74 42.84 13.30 40.78 14.57C40.70 13.54 40.66 12.53 40.54 11.59L35.06 11.69C35.18 13.85 35.50 22.01 35.42 24.84ZM57.41 24.48L57.36 20.81L55.58 20.81L55.58 7.85L50.26 8.18L50.23 23.23L51.50 24.84ZM76.44 20.95L76.44 17.09L80.18 17.09L80.38 13.37C79.03 13.32 77.74 13.30 76.46 13.27L76.46 9.38L72.46 9.48L72.53 13.27C71.30 13.27 70.10 13.32 68.93 13.34L68.88 17.18C69.72 17.14 71.06 17.11 72.58 17.09L72.65 21.10ZM104.40 24.41C106.10 21.34 109.68 12.38 110.83 7.75L104.28 7.15C103.37 10.27 102.74 12.86 101.30 16.13C100.18 13.10 99.29 10.34 98.54 7.15L91.56 7.61C92.47 10.92 95.88 21.05 97.63 24.41ZM139.54 20.02C137.16 20.35 132.14 20.66 131.71 18.36C131.28 16.06 136.85 13.85 139.73 12.96L138.77 7.13C136.75 7.13 126.12 7.80 123.53 8.21L123.86 12.98C127.51 12.77 128.59 12.58 132.10 12.17C128.16 14.16 126.46 16.34 127.01 19.82C127.85 25.13 135.62 25.54 139.92 25.03ZM141.48 17.33C142.15 16.78 142.25 15.79 141.70 15.12C141.17 14.45 140.18 14.33 139.51 14.88C138.82 15.43 138.72 16.42 139.27 17.09C139.80 17.76 140.81 17.86 141.48 17.33ZM136.56 18.65C137.59 18.65 138.43 17.81 138.43 16.78C138.43 15.74 137.59 14.90 136.56 14.90C135.53 14.90 134.69 15.74 134.69 16.78C134.69 17.81 135.53 18.65 136.56 18.65ZM167.23 8.95C166.08 8.86 164.78 8.83 163.49 8.88L163.49 6.02L159.36 6.12L159.53 15.26L156.02 15.58C156.02 16.97 156.05 20.26 156.17 22.97C155.86 22.54 155.54 22.08 155.18 21.67L155.42 21.67C155.54 20.16 155.86 10.27 155.76 7.80L154.99 6.14L149.98 6.46L149.98 6.19L147.38 6.29C147.48 9.36 147.58 19.63 147.62 21.67L148.03 21.67C147.29 22.56 146.66 23.62 146.18 24.38L148.75 26.38C149.28 25.06 150.05 23.86 150.89 22.56L149.90 21.67L149.90 21.41C150.98 21.43 152.16 21.43 153.14 21.48L153.14 21.67L153.31 21.67L152.35 22.56C153.19 23.86 153.94 25.06 154.49 26.38L156.26 24.98C156.31 25.54 156.36 25.99 156.41 26.35L159.72 26.21C159.72 26.11 159.70 25.99 159.70 25.85C160.82 25.82 162.10 25.80 163.25 25.82C163.22 25.97 163.22 26.09 163.20 26.21L166.54 26.21C166.73 24.94 167.23 18.26 167.23 17.47L166.10 15.43C165.58 15.38 164.62 15.36 163.49 15.38L163.49 13.20C164.59 13.18 165.70 13.18 167.23 13.27ZM153.26 10.01L153.26 10.70L150.00 10.75L150.00 10.10ZM153.24 13.56L153.24 14.35L150.00 14.40L150.00 13.61ZM149.98 17.83L149.98 17.26L153.19 17.23L153.19 17.88C152.16 17.83 150.96 17.81 149.98 17.83ZM163.46 21.36C162.26 21.36 160.85 21.38 159.62 21.43L159.62 19.73C161.33 19.68 162.91 19.66 163.56 19.63ZM181.54 16.08L178.70 13.63L178.08 14.33C177.77 12.84 178.01 9.79 179.06 7.06L174.19 6.38C173.28 9.34 172.44 14.88 174.12 18.29L178.75 19.15ZM178.80 26.98C189.55 24.58 188.81 17.02 188.06 7.06L182.88 7.06C183.41 15.46 185.35 19.54 177.07 22.15ZM215.16 9.94C214.78 9.91 214.20 9.89 213.50 9.86L213.50 5.90L208.46 6.10L208.51 9.86C206.81 9.89 205.13 9.96 203.88 10.01C204.38 9.22 204.84 8.47 205.20 7.87L201.17 5.18C200.06 7.56 196.39 12.98 193.85 15.67L196.87 19.06C197.11 18.86 197.35 18.65 197.62 18.38C197.57 21 197.57 24.05 197.66 26.33L201.79 26.33C201.55 22.82 201.62 17.28 201.82 13.15L202.54 12.07L202.66 15C203.88 14.88 206.18 14.81 208.56 14.76L208.63 21.22L207.50 20.98L206.33 25.46L211.15 26.78L213.53 25.46L213.50 14.78C214.13 14.78 214.70 14.81 215.16 14.83ZM207.72 18C207.72 16.66 206.62 15.55 205.27 15.55C203.93 15.55 202.82 16.66 202.82 18C202.82 19.34 203.93 20.45 205.27 20.45C206.62 20.45 207.72 19.34 207.72 18ZM236.47 9.89L236.26 6.86L230.95 6.58C231.17 7.73 231.34 8.86 231.46 9.96L225.65 10.06L226.20 14.64L231.65 14.64C231.53 18.38 230.62 21.65 228.62 24.02L233.16 25.90C235.63 22.82 236.42 18.77 236.57 14.62L238.56 14.62L238.82 9.86ZM224.47 19.37C224.09 16.61 224.23 13.15 224.66 9.19L219.60 9.34C218.98 15.22 219.53 20.23 220.42 23.21L224.45 24.38L228.58 21.05L225.53 18.53Z" transform="translate(0, 0)" />
</svg>