
    <svg xmlns="http://www.w3.org/2000/svg" viewBox="0 0 341.37600000000003 28.8">
      <path d="M6.46 18C8.54 17.86 10.03 19.22 9.60 24.10L14.95 23.98C15.89 16.94 12.43 12.36 6.60 12.89L6.70 7.97L0.84 8.09L1.22 24L6.34 24.10ZM28.85 19.15C28.85 19.15 26.64 20.93 25.03 19.46C24.43 18.96 24.19 17.35 24.19 16.22L29.47 16.27L29.90 10.56L25.22 10.66C25.46 9.89 25.73 8.64 25.92 7.85L20.47 7.54C20.23 8.30 20.02 9.70 19.82 10.80L16.08 10.90L16.70 16.18L19.25 16.20C19.22 18.98 19.66 22.30 21.19 23.69C23.59 25.85 27.46 25.39 29.90 24.38ZM43.78 19.15C43.78 19.15 41.57 20.93 39.96 19.46C39.36 18.96 39.12 17.35 39.12 16.22L44.40 16.27L44.83 10.56L40.15 10.66C40.39 9.89 40.66 8.64 40.85 7.85L35.40 7.54C35.16 8.30 34.94 9.70 34.75 10.80L31.01 10.90L31.63 16.18L34.18 16.20C34.15 18.98 34.58 22.30 36.12 23.69C38.52 25.85 42.38 25.39 44.83 24.38ZM52.80 26.78C52.70 26.04 52.63 24.91 52.54 23.59C56.59 24.14 60.14 22.18 60.14 17.45C60.14 13.10 56.54 10.32 52.01 11.47C52.01 11.28 52.01 11.14 52.03 10.99L46.51 11.26C46.51 14.88 47.21 23.66 47.66 26.78ZM52.25 19.58C52.20 18.50 52.13 17.45 52.08 16.44C53.66 16.30 55.18 16.66 55.18 17.93C55.18 19.13 53.86 19.66 52.25 19.58ZM61.99 24.60C65.28 25.15 72.91 25.44 73.75 22.06C74.66 18.36 68.86 17.42 69.14 16.01C69.41 14.93 71.98 16.13 73.20 16.46L74.18 11.90C72.14 10.78 62.59 10.01 61.68 14.11C60.77 18.22 66.96 19.10 66.65 20.28C66.41 21.17 64.99 20.54 62.33 19.99ZM78.67 15.82C79.94 15.82 81.00 14.78 81.00 13.49C81.00 12.19 79.94 11.16 78.67 11.16C77.38 11.16 76.34 12.19 76.34 13.49C76.34 14.78 77.38 15.82 78.67 15.82ZM78.67 23.52C79.94 23.52 81.00 22.49 81.00 21.19C81.00 19.90 79.94 18.86 78.67 18.86C77.38 18.86 76.34 19.90 76.34 21.19C76.34 22.49 77.38 23.52 78.67 23.52ZM92.59 7.32L87.79 6.53L83.30 24.84L87.86 25.70ZM103.27 7.32L98.47 6.53L93.98 24.84L98.54 25.70ZM116.06 24.07C116.06 21.96 116.28 18.91 116.93 18.82C117.89 18.67 117.67 21.67 117.82 24.14L121.90 24.02C122.28 15.58 121.32 12.43 117.65 12.38C116.28 12.36 115.25 13.10 114.53 14.28C113.81 13.06 112.80 12.41 111.43 12.38C110.74 12.36 110.09 12.58 109.56 12.94L109.58 12.24L105.24 12.53L105.46 24.10L109.85 24.07C109.85 21.96 110.09 18.91 110.74 18.82C111.70 18.67 111.72 21.67 111.82 24.14ZM139.56 23.66C138.65 20.81 136.32 14.04 135.79 9.86L130.90 10.99C130.94 11.26 130.97 11.57 131.04 11.93C127.15 11.83 123.38 15.10 124.10 19.63C124.90 24.58 130.03 25.63 134.54 24.19C134.64 24.53 134.76 24.82 134.86 25.10ZM132.96 19.32C131.18 20.35 129.38 19.92 129.26 18.70C129.14 17.45 130.58 16.66 132.34 17.14C132.53 17.88 132.74 18.60 132.96 19.32ZM146.50 18C148.58 17.86 150.07 19.22 149.64 24.10L154.99 23.98C155.93 16.94 152.47 12.36 146.64 12.89L146.74 7.97L140.88 8.09L141.26 24L146.38 24.10ZM164.88 12.77C166.42 12.77 167.66 11.52 167.66 9.98C167.66 8.45 166.42 7.20 164.88 7.20C163.34 7.20 162.10 8.45 162.10 9.98C162.10 11.52 163.34 12.77 164.88 12.77ZM166.08 25.06C168.14 23.16 168.34 19.61 167.57 14.35L162.34 14.59C163.68 20.52 161.71 23.16 158.02 20.26L156.12 24.46C159.72 27.41 164.14 26.88 166.08 25.06ZM177.07 24.65C182.78 24.65 184.30 21.43 184.30 17.47C184.30 13.54 182.02 10.30 177.07 10.30C172.30 10.30 169.90 13.54 169.90 17.47C169.90 21.43 172.25 24.65 177.07 24.65ZM177.07 19.58C175.92 19.58 174.98 18.91 174.98 17.52C174.98 16.13 175.99 15.43 177.07 15.43C178.44 15.43 179.18 16.13 179.18 17.52C179.18 18.91 178.58 19.58 177.07 19.58ZM200.30 24.02C200.93 20.21 201.22 11.50 195.10 11.40C193.54 11.38 192.29 11.74 191.28 12.38L191.30 11.33L186.46 11.35L186.72 23.98L191.74 23.83C191.76 20.59 192.62 18.31 193.92 18.38C195.65 18.41 195.65 21.29 195.74 23.93ZM203.93 25.06C206.16 27.17 210.91 27.12 213.05 24.79C216.14 21.41 215.35 13.10 214.27 9.67L209.81 9.31C209.86 9.48 209.90 9.62 209.93 9.84C206.40 9.05 202.54 10.54 202.54 15.62C202.54 19.73 206.26 22.08 210.19 21.17C210.02 21.62 209.86 21.89 209.59 22.03C207.84 23.09 205.27 21.36 205.27 21.36ZM210.74 16.70C208.90 17.59 207.38 16.82 207.46 15.58C207.53 14.30 208.97 13.97 210.62 14.66C210.70 15.31 210.74 16.01 210.74 16.70ZM217.80 24.60C221.09 25.15 228.72 25.44 229.56 22.06C230.47 18.36 224.66 17.42 224.95 16.01C225.22 14.93 227.78 16.13 229.01 16.46L229.99 11.90C227.95 10.78 218.40 10.01 217.49 14.11C216.58 18.22 222.77 19.10 222.46 20.28C222.22 21.17 220.80 20.54 218.14 19.99ZM238.61 24.65C244.32 24.65 245.83 21.43 245.83 17.47C245.83 13.54 243.55 10.30 238.61 10.30C233.83 10.30 231.43 13.54 231.43 17.47C231.43 21.43 233.78 24.65 238.61 24.65ZM238.61 19.58C237.46 19.58 236.52 18.91 236.52 17.52C236.52 16.13 237.53 15.43 238.61 15.43C239.98 15.43 240.72 16.13 240.72 17.52C240.72 18.91 240.12 19.58 238.61 19.58ZM253.99 25.13C255.65 25.13 256.87 24.70 257.83 23.93C257.93 24.41 258 24.79 258.12 25.13L262.08 24.36C261.41 21.67 260.74 16.15 260.71 12.70L260.71 11.90L255.84 12.14C255.94 15.46 256.06 19.54 254.23 19.58C252.22 19.63 252.31 14.81 252.65 12.10L247.97 12.17C247.32 17.78 247.80 25.13 253.99 25.13ZM271.78 24.48L271.73 20.81L269.95 20.81L269.95 7.85L264.62 8.18L264.60 23.23L265.87 24.84ZM276.22 24.38C277.49 24.38 278.54 23.35 278.54 22.06C278.54 20.76 277.49 19.73 276.22 19.73C274.92 19.73 273.89 20.76 273.89 22.06C273.89 23.35 274.92 24.38 276.22 24.38ZM293.52 19.20C290.42 19.97 288.70 19.58 288.70 18.05C288.70 16.25 290.59 15.50 293.18 16.44L294.77 11.50C288.53 8.86 282.14 11.26 282.14 17.93C282.14 24.84 290.30 25.90 294.89 23.86ZM303.26 24.65C308.98 24.65 310.49 21.43 310.49 17.47C310.49 13.54 308.21 10.30 303.26 10.30C298.49 10.30 296.09 13.54 296.09 17.47C296.09 21.43 298.44 24.65 303.26 24.65ZM303.26 19.58C302.11 19.58 301.18 18.91 301.18 17.52C301.18 16.13 302.18 15.43 303.26 15.43C304.63 15.43 305.38 16.13 305.38 17.52C305.38 18.91 304.78 19.58 303.26 19.58ZM323.47 24.07C323.47 21.96 323.69 18.91 324.34 18.82C325.30 18.67 325.08 21.67 325.22 24.14L329.30 24.02C329.69 15.58 328.73 12.43 325.06 12.38C323.69 12.36 322.66 13.10 321.94 14.28C321.22 13.06 320.21 12.41 318.84 12.38C318.14 12.36 317.50 12.58 316.97 12.94L316.99 12.24L312.65 12.53L312.86 24.10L317.26 24.07C317.26 21.96 317.50 18.91 318.14 18.82C319.10 18.67 319.13 21.67 319.22 24.14ZM340.85 7.32L336.05 6.53L331.56 24.84L336.12 25.70Z" transform="translate(0, 0)" />
    </svg>
  