
    <svg xmlns="http://www.w3.org/2000/svg" viewBox="0 0 247.536 28.8">
      <path d="M11.74 11.47C13.08 11.47 14.18 10.37 14.18 9C14.18 7.61 13.08 6.53 11.74 6.53C10.34 6.53 9.26 7.61 9.26 9C9.26 10.37 10.34 11.47 11.74 11.47ZM11.71 18.58C12.74 19.54 16.10 23.52 17.28 24.58L20.40 22.68C19.25 21.55 15.58 17.28 14.28 15.96C15.58 14.62 18.79 10.70 19.94 9.60L16.82 7.68C15.65 8.76 12.74 12.36 11.71 13.32C10.63 12.24 7.70 8.71 6.89 7.85L3.86 9.98C4.99 11.26 7.99 14.86 9.07 15.96C7.99 17.06 4.66 20.59 3.53 21.86L6.55 24ZM18.82 18.36C20.16 18.36 21.29 17.26 21.29 15.89C21.29 14.52 20.16 13.42 18.82 13.42C17.45 13.42 16.34 14.52 16.34 15.89C16.34 17.26 17.45 18.36 18.82 18.36ZM4.63 18.58C6 18.58 7.10 17.47 7.10 16.10C7.10 14.71 6 13.63 4.63 13.63C3.26 13.63 2.18 14.71 2.18 16.10C2.18 17.47 3.26 18.58 4.63 18.58ZM11.66 25.51C13.01 25.51 14.14 24.41 14.14 23.04C14.14 21.67 13.01 20.57 11.66 20.57C10.30 20.57 9.19 21.67 9.19 23.04C9.19 24.41 10.30 25.51 11.66 25.51ZM36.84 24.89L36.65 20.33L34.37 20.23L34.27 6.98L30.50 6.50L24.67 9.74L27.19 13.73L28.75 13.46L28.75 20.06L26.18 19.97L26.04 25.01ZM46.70 24.91C52.32 24.91 54.82 20.76 54.82 15.65C54.82 10.51 52.25 6.34 46.70 6.34C41.14 6.34 38.59 10.51 38.59 15.65C38.59 20.76 41.50 24.91 46.70 24.91ZM46.70 18.74C44.95 18.74 43.97 17.33 43.97 15.65C43.97 13.92 44.83 12.50 46.70 12.50C48.55 12.50 49.44 13.92 49.44 15.65C49.44 17.33 48.58 18.74 46.70 18.74ZM78.26 15.82C77.40 15.74 75.70 15.72 73.78 15.72L73.78 13.46C75.29 13.46 76.66 13.49 77.59 13.56L77.59 8.42C76.87 8.35 75.41 8.33 73.78 8.33L73.78 5.64L69.53 5.81L69.55 8.40C69.38 8.42 69.24 8.42 69.07 8.42L69.53 6.12L66.22 5.66L66 7.06L63.41 5.14C62.40 7.54 59.04 12.96 56.74 15.62L59.47 19.01C59.69 18.82 59.93 18.58 60.17 18.34C60.12 20.93 60.12 24 60.19 26.30L63.96 26.30C63.79 23.42 63.79 19.20 63.89 15.48L64.90 16.01L65.09 21.10C66.10 21 67.80 20.93 69.70 20.88L69.74 26.30L73.78 26.30L73.78 20.83C75.55 20.83 77.16 20.88 78.26 20.95ZM63.98 13.08C64.34 12.50 64.70 11.93 65.02 11.38C64.73 12.31 64.39 13.22 63.94 14.18C63.96 13.80 63.98 13.44 63.98 13.08ZM66.86 15.86C67.25 15.10 67.56 14.35 67.82 13.58L69.60 13.51L69.62 15.79ZM98.28 18.67C99.58 15.50 100.46 11.62 101.21 7.15L96.24 6.19C95.16 12.65 94.03 17.38 91.22 20.38L90.67 17.42C90.14 17.59 89.33 17.78 88.37 17.98C88.30 14.50 88.30 10.08 88.42 7.78L83.83 7.78C83.69 9.60 83.71 15 83.83 18.84C82.63 19.06 81.53 19.20 80.76 19.27L81.48 24.05C82.70 23.98 86.04 23.38 88.66 22.85L91.58 26.54C93.29 25.75 94.70 24.55 95.90 22.99C96.96 23.76 98.09 24.79 99.58 26.42L102.31 22.22C100.78 20.59 99.50 19.51 98.28 18.67ZM91.97 13.70C93.38 13.70 94.51 12.55 94.51 11.14C94.51 9.74 93.38 8.59 91.97 8.59C90.55 8.59 89.42 9.74 89.42 11.14C89.42 12.55 90.55 13.70 91.97 13.70ZM124.85 20.23C123 20.23 120.72 20.23 118.22 20.21L118.30 16.73C120.02 16.68 121.66 16.70 124.54 16.75L124.73 11.66C121.66 11.66 120.84 11.66 118.39 11.74L118.51 6.55L112.20 6.55L112.58 20.21C110.35 20.23 108.05 20.26 105.79 20.35L105.79 26.06C111.58 25.82 119.35 25.87 125.28 25.99ZM146.86 25.85C152.57 19.97 149.40 8.83 139.97 8.11C136.22 7.82 131.04 10.66 129.77 15.02C128.50 19.39 130.18 25.10 134.64 25.44C140.47 25.85 141.60 18.86 141.89 13.99L137.76 13.32C137.54 16.87 137.18 21.12 134.86 20.40C132.26 19.58 134.62 12.58 139.82 12.58C144.62 12.58 147.55 19.18 143.09 23.86ZM173.71 11.88C172.92 11.81 171.31 11.78 169.49 11.78L169.49 10.92C170.81 10.92 172.01 10.97 172.85 11.02L172.87 6.72C172.20 6.67 170.95 6.62 169.51 6.62L169.51 5.52L165.29 5.59L165.31 6.70C163.90 6.74 162.65 6.79 161.98 6.86L162.12 11.14C162.86 11.06 164.04 11.02 165.41 10.97L165.41 11.83C163.68 11.86 162.14 11.93 161.30 12C161.33 11.04 161.33 10.22 161.30 9.70L160.63 7.97L154.49 8.18L153.77 9.41C153.86 12.58 153.91 21.50 153.94 23.62L156.22 23.62C156.22 23.47 156.24 23.28 156.24 23.09C156.98 23.09 157.75 23.11 158.42 23.14L158.42 23.64L160.97 23.64C161.04 22.34 161.26 15.91 161.30 12.02L161.50 16.27C162.82 16.15 165.50 16.08 168.12 16.06L168.12 16.73C165.58 16.75 162.82 16.82 161.64 16.94L161.81 21.19C163.08 21.07 165.67 21.02 168.17 21L168.19 23.02L167.83 22.85L166.94 25.75L169.78 26.83L171.91 25.78L171.91 21.05C172.37 21.05 172.78 21.07 173.11 21.10L173.14 16.80C172.82 16.78 172.42 16.75 171.91 16.75L171.91 16.10L173.71 16.18ZM158.57 12.53L158.57 13.56L156.34 13.61L156.34 12.62ZM156.29 18.91C156.29 18.58 156.31 18.24 156.31 17.88L158.52 17.86C158.52 18.24 158.50 18.62 158.50 18.98C157.80 18.94 157.01 18.91 156.29 18.91ZM164.28 21.31C163.03 21.31 162.05 22.32 162.05 23.54C162.05 24.77 163.03 25.78 164.28 25.78C165.50 25.78 166.49 24.77 166.49 23.54C166.49 22.32 165.50 21.31 164.28 21.31ZM196.99 16.20C196.63 16.13 196.10 16.08 195.48 16.06C195.48 15.36 195.46 14.64 195.46 13.92L196.80 13.90L196.80 9.41L195.31 9.48C195.29 8.71 195.26 7.97 195.22 7.30L191.02 7.49C190.99 7.82 191.02 8.62 191.06 9.70L185.35 9.98L185.35 14.14L191.28 14.02C191.30 14.71 191.33 15.43 191.38 16.13C190.34 16.22 189.38 16.37 188.57 16.63C184.90 17.81 185.06 21.53 186.46 24C188.35 27.31 195.48 26.30 195.53 22.03C195.53 21.74 195.53 21.17 195.53 20.40L196.99 20.74ZM182.71 20.35C182.33 17.59 182.64 12.29 183.07 8.35L178.39 8.45C177.77 14.33 178.20 21.65 179.09 24.62L183.12 25.80L185.90 23.66L183.79 19.75ZM189.82 20.66C190.15 20.33 190.73 20.14 191.45 20.06C191.42 20.90 191.38 21.50 191.26 21.72C190.63 22.94 188.86 21.72 189.82 20.66ZM222.26 10.49C221.11 8.90 219.10 6.86 217.06 5.47L214.20 7.90C215.11 8.74 215.95 9.65 216.67 10.61C213.89 12.96 209.30 14.78 201.02 16.39L202.73 19.27C203.42 19.15 204.10 19.01 204.79 18.86C204.89 21.82 204.98 25.58 205.01 26.57L208.61 26.57C208.61 26.47 208.63 26.35 208.63 26.21C210.96 26.23 213.62 26.23 215.74 26.28C215.71 26.38 215.71 26.47 215.71 26.57L219.41 26.57C219.60 25.51 220.20 18.48 220.03 16.78L218.64 15.65L215.09 15.72C217.22 14.81 219.07 13.75 220.39 12.62L219.74 12.26ZM204 5.50C203.14 7.87 202.18 9.50 200.83 11.45L204.31 13.49C206.11 11.50 207.22 9.70 208.20 7.85ZM211.06 13.34L213.19 12.36L213.34 5.50L208.85 5.64L208.73 10.56L207.70 10.37L206.93 12.74ZM208.75 18.84L208.75 18.38L215.98 18.31L215.98 18.79ZM215.93 20.78C215.93 20.98 215.93 21.14 215.90 21.34L208.75 21.38L208.75 20.81ZM208.73 23.74L208.73 23.35L215.86 23.33C215.83 23.47 215.83 23.64 215.83 23.78C213.58 23.74 210.82 23.71 208.73 23.74ZM246.53 14.98C245.54 14.62 244.01 13.92 242.47 13.13C243.58 12.22 244.49 11.33 244.99 10.61L244.20 7.42C243.84 7.42 241.58 7.63 239.86 7.78C240.14 7.30 240.43 6.79 240.65 6.29L237.12 5.02C235.78 7.46 234.82 8.54 232.82 10.27L232.01 8.90L225.86 9.07L225.07 9.96C225.17 11.98 225.31 22.68 225.36 24.24L227.35 24.19L227.35 23.86C228.46 23.83 229.80 23.86 230.86 23.86L230.86 24.24L232.82 24.31C232.87 23.71 232.97 19.85 233.02 16.34L233.98 18.29C234 20.69 234.05 25.03 234.29 26.74L237.22 26.57C237.22 26.50 237.19 26.40 237.19 26.28C238.49 26.26 240.10 26.26 241.44 26.26C241.42 26.38 241.42 26.47 241.39 26.57L244.22 26.57C244.42 25.46 244.92 19.61 244.92 18.89L244.32 17.95C244.51 18.02 244.68 18.12 244.82 18.17ZM239.30 11.33C238.99 11.11 238.68 10.90 238.39 10.68C239.18 10.63 239.95 10.54 240.34 10.44C240.02 10.73 239.69 11.02 239.30 11.33ZM234.29 13.34C234.74 13.06 235.22 12.72 235.70 12.34C235.90 12.58 236.23 12.89 236.64 13.22C235.39 13.99 234.12 14.64 233.04 14.98C233.06 13.56 233.06 12.29 233.06 11.47ZM230.90 14.74C230.59 14.71 230.26 14.71 229.90 14.71L229.92 12.84L230.90 12.82ZM228.05 14.71C227.78 14.71 227.52 14.71 227.26 14.74C227.26 13.99 227.23 13.37 227.23 12.91L228.02 12.89ZM237.19 17.21C237.19 17.09 237.22 16.99 237.22 16.92L236.95 16.94C237.79 16.46 238.70 15.89 239.59 15.29C240.60 15.94 241.66 16.56 242.59 17.06C241.18 17.04 239.02 17.11 237.19 17.21ZM227.30 18.50C227.57 18.48 227.83 18.48 228.10 18.48L228.10 19.97C227.83 19.99 227.57 19.99 227.33 19.99C227.33 19.51 227.33 19.01 227.30 18.50ZM229.87 18.50C230.23 18.50 230.57 18.50 230.88 18.50L230.88 19.99C230.57 19.99 230.23 19.97 229.87 19.97ZM237.12 22.80C237.10 22.08 237.10 21.34 237.12 20.64C239.09 20.57 241.08 20.54 241.78 20.52C241.73 20.90 241.70 21.74 241.66 22.70C240.29 22.73 238.49 22.73 237.12 22.80Z" transform="translate(0, 0)" />
    </svg>
  