
    <svg xmlns="http://www.w3.org/2000/svg" viewBox="0 0 590.4480000000001 28.8">
      <path d="M11.74 11.47C13.08 11.47 14.18 10.37 14.18 9C14.18 7.61 13.08 6.53 11.74 6.53C10.34 6.53 9.26 7.61 9.26 9C9.26 10.37 10.34 11.47 11.74 11.47ZM11.71 18.58C12.74 19.54 16.10 23.52 17.28 24.58L20.40 22.68C19.25 21.55 15.58 17.28 14.28 15.96C15.58 14.62 18.79 10.70 19.94 9.60L16.82 7.68C15.65 8.76 12.74 12.36 11.71 13.32C10.63 12.24 7.70 8.71 6.89 7.85L3.86 9.98C4.99 11.26 7.99 14.86 9.07 15.96C7.99 17.06 4.66 20.59 3.53 21.86L6.55 24ZM18.82 18.36C20.16 18.36 21.29 17.26 21.29 15.89C21.29 14.52 20.16 13.42 18.82 13.42C17.45 13.42 16.34 14.52 16.34 15.89C16.34 17.26 17.45 18.36 18.82 18.36ZM4.63 18.58C6 18.58 7.10 17.47 7.10 16.10C7.10 14.71 6 13.63 4.63 13.63C3.26 13.63 2.18 14.71 2.18 16.10C2.18 17.47 3.26 18.58 4.63 18.58ZM11.66 25.51C13.01 25.51 14.14 24.41 14.14 23.04C14.14 21.67 13.01 20.57 11.66 20.57C10.30 20.57 9.19 21.67 9.19 23.04C9.19 24.41 10.30 25.51 11.66 25.51ZM42.98 7.94C39.94 8.23 35.02 8.50 31.37 8.57L31.37 7.94L26.21 7.94C26.16 12.77 26.69 19.51 27.38 24.14L32.62 24.14C32.57 23.86 32.50 23.54 32.45 23.21C34.58 23.21 37.32 23.28 39.55 23.30L39.41 24.14L44.23 24.14C45.24 20.59 45.53 13.32 45.79 11.28ZM31.90 18.43C31.73 16.61 31.61 14.71 31.54 13.03C34.20 13.03 37.78 13.01 40.56 12.79C40.56 14.23 40.46 16.20 40.22 18.43C37.85 18.36 34.46 18.38 31.90 18.43ZM69.89 22.27C67.94 20.86 65.78 19.51 63.48 17.50C65.86 15.31 67.78 13.18 68.52 11.66L66.86 7.49C63.43 7.92 54.07 7.87 51.72 7.87L51.34 12.77C54.77 12.72 58.25 12.67 61.58 12.38C58.80 15.89 53.98 19.30 50.11 21.36L52.44 25.20C54.41 24.41 57 22.73 59.54 20.78C61.87 22.90 64.32 24.60 66.36 25.80ZM91.15 20.18C92.18 18.07 92.93 15.55 93.19 12.60C93.55 12.60 93.89 12.62 94.15 12.65L94.15 8.88C93.24 8.78 90.86 8.78 88.82 8.86C88.94 7.94 89.06 7.01 89.14 6.07L85.78 5.71C85.46 7.85 85.03 10.75 84.14 13.20C83.64 12.74 83.09 12.17 82.58 11.64C83.30 11.64 83.98 11.64 84.55 11.66L84.67 9.05L83.30 9.05C83.95 8.62 84.48 8.18 85.01 7.68L83.06 5.54C82.30 6.36 81.67 6.96 80.88 7.63L80.88 5.59L78.12 5.62L78.10 7.01C77.83 6.34 77.16 5.86 76.39 5.86C75.36 5.86 74.54 6.67 74.54 7.68C74.54 8.28 74.83 8.81 75.26 9.14L74.14 9.22L74.21 11.71C74.78 11.71 75.46 11.69 76.20 11.69C75.31 12.46 74.26 13.13 73.37 13.66L74.81 16.18C75.82 15.67 76.97 14.83 77.95 13.87L77.93 15.41L77.11 15.26C76.94 15.91 76.73 16.66 76.49 17.47C75.07 17.47 73.97 17.50 73.70 17.52L73.94 20.21C74.45 20.18 75 20.16 75.60 20.14L75.10 21.46L76.10 23.04L76.80 23.28C76.20 23.52 75.53 23.74 74.74 23.93L76.63 26.35C78.05 25.99 79.22 25.44 80.16 24.74C81.10 25.18 81.96 25.61 82.70 25.97L83.90 23.93L86.26 26.30C87.22 25.54 88.13 24.62 88.99 23.57C89.93 24.77 90.94 25.78 91.97 26.62L94.63 23.93C93.38 22.82 92.16 21.62 91.15 20.18ZM78.05 9.10L77.57 9.10C77.78 8.90 77.95 8.69 78.07 8.42ZM81.26 9.05L80.88 9.05L80.88 8.59ZM89.06 15.94C88.78 14.93 88.58 13.85 88.49 12.62C88.90 12.60 89.30 12.60 89.74 12.58C89.62 13.82 89.40 14.93 89.06 15.94ZM83.88 23.35C83.42 23.11 82.85 22.80 82.25 22.51C82.70 21.79 83.02 20.98 83.26 20.14L84.86 20.21L85.06 17.47C84.84 17.45 84.31 17.45 83.62 17.45L83.62 16.78L80.57 16.78C80.54 16.99 80.52 17.23 80.50 17.45L79.58 17.45C79.68 17.04 79.78 16.66 79.85 16.30L80.88 16.30L80.88 13.68C81.58 14.71 82.34 15.67 82.85 16.18L82.99 16.03L85.49 17.62C85.61 17.50 85.70 17.35 85.82 17.21C86.11 18.26 86.50 19.22 86.90 20.14C85.99 21.36 84.94 22.39 83.88 23.35ZM79.94 20.09C79.80 20.50 79.63 20.88 79.42 21.24C79.08 21.10 78.77 20.98 78.48 20.88C78.60 20.64 78.72 20.38 78.82 20.09ZM108.84 24.89L108.65 20.33L106.37 20.23L106.27 6.98L102.50 6.50L96.67 9.74L99.19 13.73L100.75 13.46L100.75 20.06L98.18 19.97L98.04 25.01ZM125.81 24.89L125.42 20.33L121.85 20.30C127.92 16.32 125.81 8.18 121.08 6.96C116.81 5.86 113.38 7.70 110.81 11.26L113.47 14.95C115.54 12.46 118.85 11.64 120.29 13.70C121.99 16.15 115.99 19.75 111.96 20.23L112.20 24.89ZM145.63 20.47C146.78 18.31 147.58 15.72 147.84 12.67C148.32 12.67 148.75 12.70 149.09 12.72L149.09 8.86C148.10 8.76 145.42 8.76 143.11 8.81C143.28 7.85 143.40 6.89 143.50 5.95L139.82 5.59C139.44 8.21 138.70 12.58 137.23 15.50C136.80 15.10 136.34 14.69 135.84 14.28L135.84 12.60C136.70 12.60 137.47 12.62 138.02 12.67L138 8.28C137.57 8.23 136.80 8.21 135.89 8.21L135.91 5.69L132.17 5.88L132.17 8.28C131.14 8.33 130.25 8.40 129.74 8.47L129.89 12.84C130.39 12.77 131.21 12.70 132.14 12.65L132.14 13.15C131.14 15.43 129.41 17.52 128.38 18.82L130.68 22.03C131.26 21.48 131.74 20.86 132.14 20.26L132.12 26.21L135.72 26.33L135.79 19.22C136.18 19.66 136.54 20.09 136.80 20.54L138.10 17.90L139.37 18.67C139.58 18.43 139.80 18.17 139.99 17.88C140.30 18.77 140.64 19.61 141.05 20.40C139.94 21.79 138.70 22.92 137.42 24L140.33 26.74C141.36 25.97 142.37 25.03 143.30 23.93C144.31 25.15 145.42 26.18 146.54 27.05L149.42 24.31C148.08 23.18 146.76 21.96 145.63 20.47ZM142.75 12.70C143.18 12.67 143.64 12.67 144.12 12.65C144 13.94 143.74 15.07 143.40 16.10C143.09 15.07 142.85 13.94 142.75 12.70ZM169.66 18.67C170.95 15.50 171.84 11.62 172.58 7.15L167.62 6.19C166.54 12.65 165.41 17.38 162.60 20.38L162.05 17.42C161.52 17.59 160.70 17.78 159.74 17.98C159.67 14.50 159.67 10.08 159.79 7.78L155.21 7.78C155.06 9.60 155.09 15 155.21 18.84C154.01 19.06 152.90 19.20 152.14 19.27L152.86 24.05C154.08 23.98 157.42 23.38 160.03 22.85L162.96 26.54C164.66 25.75 166.08 24.55 167.28 22.99C168.34 23.76 169.46 24.79 170.95 26.42L173.69 22.22C172.15 20.59 170.88 19.51 169.66 18.67ZM163.34 13.70C164.76 13.70 165.89 12.55 165.89 11.14C165.89 9.74 164.76 8.59 163.34 8.59C161.93 8.59 160.80 9.74 160.80 11.14C160.80 12.55 161.93 13.70 163.34 13.70ZM197.02 6.79C193.13 6.79 180.50 6.89 176.81 7.03L176.95 12.55C178.73 12.46 181.20 12.38 183.84 12.34L183.74 25.90L189.29 25.90L189.17 19.75C190.82 20.30 192.60 20.93 194.40 21.86L195.91 16.68C193.94 15.77 191.18 14.90 189.05 14.42L189.02 12.29C191.95 12.29 194.74 12.34 196.73 12.43ZM218.23 25.85C223.94 19.97 220.78 8.83 211.34 8.11C207.60 7.82 202.42 10.66 201.14 15.02C199.87 19.39 201.55 25.10 206.02 25.44C211.85 25.85 212.98 18.86 213.26 13.99L209.14 13.32C208.92 16.87 208.56 21.12 206.23 20.40C203.64 19.58 205.99 12.58 211.20 12.58C216 12.58 218.93 19.18 214.46 23.86ZM242.42 5.93C240.65 7.66 237.70 9.72 235.54 10.70L236.06 15.26C238.66 14.52 241.99 12.07 243.58 10.18ZM235.51 14.02C235.18 13.99 234.67 13.97 234.05 13.97L234.07 11.11C234.43 11.11 234.74 11.14 235.03 11.16L235.03 6.89C233.30 6.72 227.04 6.84 225.19 7.06L225.36 11.30C225.65 11.28 226.01 11.23 226.42 11.21C226.44 12.24 226.46 13.18 226.46 14.06C225.74 14.11 225.12 14.14 224.71 14.18L224.88 18.43C225.26 18.38 225.77 18.36 226.37 18.34C226.15 20.81 225.60 22.75 224.16 24.62L227.40 26.83C228.96 24.60 229.56 21.94 229.82 18.22L230.76 18.22L230.76 26.83L233.93 26.83L234 18.24C234.58 18.24 235.10 18.26 235.51 18.29ZM230.02 13.97C230.04 13.06 230.04 12.10 230.06 11.09L230.76 11.09L230.76 13.97ZM243.53 11.59C241.51 13.49 237.29 15.82 235.54 16.30L236.06 20.83C239.30 19.51 242.83 17.52 244.66 15.38ZM244.08 17.09C242.38 19.08 237.02 21.77 235.25 22.25L235.80 26.81C239.11 25.80 242.95 23.95 245.66 21.41ZM258.02 21.50C257.83 20.64 259.46 19.66 261.60 18.62C261.65 19.06 261.53 19.56 261.22 20.09L265.10 20.81C265.73 19.42 265.75 18.10 265.34 16.92L267.07 16.10L264.91 12.60C264.38 12.89 263.54 13.27 262.56 13.75C260.93 12.86 258.84 12.62 256.75 13.32C257.04 12.55 257.33 11.88 257.62 11.23L266.54 11.11L266.54 7.22L259.25 7.30C259.37 6.98 259.51 6.62 259.63 6.26L255.72 5.86L255.14 7.34L250.73 7.39L250.73 11.30L253.39 11.28C252.72 12.77 252.14 14.04 251.98 14.62L254.71 17.06C255.62 16.44 256.78 16.18 257.88 16.22C255.07 17.93 252.62 20.02 252.91 22.27C253.44 26.83 261.70 27.02 266.78 25.78L266.33 21.79C261.62 22.61 258.38 23.04 258.02 21.50ZM293.71 23.33C291.91 22.70 290.16 21.96 288.58 21.14C288.67 21.17 288.79 21.17 288.89 21.17C290.11 21.17 291.10 20.18 291.10 18.94C291.10 17.93 290.42 17.09 289.51 16.82C290.86 16.82 292.01 16.85 292.94 16.87L292.94 13.82C291.60 13.78 288.89 13.78 285.86 13.78L285.86 13.39C287.95 13.39 289.87 13.42 291.17 13.44L291.17 10.42C290.14 10.39 288.14 10.37 285.86 10.37L285.86 9.98C288.24 9.98 290.45 10.01 291.94 10.03L291.94 7.03C290.78 6.98 288.48 6.96 285.86 6.98L285.86 5.35L280.32 5.42L280.37 7.01C277.63 7.03 275.18 7.08 273.91 7.15L274.18 10.13C275.54 10.08 277.87 10.03 280.44 10.01L280.46 10.42C278.16 10.44 276.14 10.49 275.06 10.56L275.30 13.54C276.46 13.49 278.38 13.44 280.54 13.42L280.54 13.82C277.34 13.85 274.44 13.90 272.95 13.94L273.26 16.94L276.65 16.87C275.45 17.98 273.94 18.98 272.14 20.16L275.76 22.51L276.24 22.22L276.38 25.66L278.47 26.52L283.82 25.20L282.72 22.22L280.61 22.80L280.51 20.30C282.72 22.20 286.20 25.03 290.52 26.26ZM280.49 19.03C281.28 18.29 281.98 17.54 282.55 16.80L288.26 16.80C287.33 17.06 286.66 17.93 286.66 18.94C286.66 19.51 286.87 20.04 287.21 20.42C285.58 19.51 284.18 18.55 283.20 17.62L280.49 19.42ZM315.24 6.60C312.38 6.43 301.92 6.55 298.87 6.79L299.11 11.47C302.30 11.23 311.42 11.14 315.24 11.33ZM313.10 17.14C314.64 17.14 316.03 17.16 317.09 17.21L317.09 12.48C313.66 12.31 301.06 12.43 297.36 12.67L297.65 17.35L299.45 17.28C299.47 17.16 299.52 17.04 299.54 16.92L300.05 17.26C301.42 17.21 303.07 17.18 304.82 17.16L304.90 21.22L303.89 20.95L302.78 25.46L307.20 26.74L309.38 25.46L309.36 17.11C310.56 17.11 311.76 17.11 312.84 17.14L310.25 19.80C311.66 22.01 312.72 23.69 313.70 25.70L317.38 22.49C316.34 20.74 314.93 18.74 313.10 17.14ZM299.76 25.68C301.46 23.78 302.59 21.79 303.58 19.63L300.05 17.26C299.83 17.26 299.64 17.28 299.45 17.28C298.66 19.80 297.67 21.14 296.45 23.30ZM341.95 25.22C336.86 18.50 337.10 13.06 341.95 6.94L336.91 5.71C332.26 11.28 330.74 20.18 337.37 27.24ZM355.75 24.89L355.56 20.33L353.28 20.23L353.18 6.98L349.42 6.50L343.58 9.74L346.10 13.73L347.66 13.46L347.66 20.06L345.10 19.97L344.95 25.01ZM365.62 24.91C371.23 24.91 373.73 20.76 373.73 15.65C373.73 10.51 371.16 6.34 365.62 6.34C360.05 6.34 357.50 10.51 357.50 15.65C357.50 20.76 360.41 24.91 365.62 24.91ZM365.62 18.74C363.86 18.74 362.88 17.33 362.88 15.65C362.88 13.92 363.74 12.50 365.62 12.50C367.46 12.50 368.35 13.92 368.35 15.65C368.35 17.33 367.49 18.74 365.62 18.74ZM397.18 15.82C396.31 15.74 394.61 15.72 392.69 15.72L392.69 13.46C394.20 13.46 395.57 13.49 396.50 13.56L396.50 8.42C395.78 8.35 394.32 8.33 392.69 8.33L392.69 5.64L388.44 5.81L388.46 8.40C388.30 8.42 388.15 8.42 387.98 8.42L388.44 6.12L385.13 5.66L384.91 7.06L382.32 5.14C381.31 7.54 377.95 12.96 375.65 15.62L378.38 19.01C378.60 18.82 378.84 18.58 379.08 18.34C379.03 20.93 379.03 24 379.10 26.30L382.87 26.30C382.70 23.42 382.70 19.20 382.80 15.48L383.81 16.01L384.00 21.10C385.01 21 386.71 20.93 388.61 20.88L388.66 26.30L392.69 26.30L392.69 20.83C394.46 20.83 396.07 20.88 397.18 20.95ZM382.90 13.08C383.26 12.50 383.62 11.93 383.93 11.38C383.64 12.31 383.30 13.22 382.85 14.18C382.87 13.80 382.90 13.44 382.90 13.08ZM385.78 15.86C386.16 15.10 386.47 14.35 386.74 13.58L388.51 13.51L388.54 15.79ZM417.19 18.67C418.49 15.50 419.38 11.62 420.12 7.15L415.15 6.19C414.07 12.65 412.94 17.38 410.14 20.38L409.58 17.42C409.06 17.59 408.24 17.78 407.28 17.98C407.21 14.50 407.21 10.08 407.33 7.78L402.74 7.78C402.60 9.60 402.62 15 402.74 18.84C401.54 19.06 400.44 19.20 399.67 19.27L400.39 24.05C401.62 23.98 404.95 23.38 407.57 22.85L410.50 26.54C412.20 25.75 413.62 24.55 414.82 22.99C415.87 23.76 417.00 24.79 418.49 26.42L421.22 22.22C419.69 20.59 418.42 19.51 417.19 18.67ZM410.88 13.70C412.30 13.70 413.42 12.55 413.42 11.14C413.42 9.74 412.30 8.59 410.88 8.59C409.46 8.59 408.34 9.74 408.34 11.14C408.34 12.55 409.46 13.70 410.88 13.70ZM443.76 20.23C441.91 20.23 439.63 20.23 437.14 20.21L437.21 16.73C438.94 16.68 440.57 16.70 443.45 16.75L443.64 11.66C440.57 11.66 439.75 11.66 437.30 11.74L437.42 6.55L431.11 6.55L431.50 20.21C429.26 20.23 426.96 20.26 424.70 20.35L424.70 26.06C430.49 25.82 438.26 25.87 444.19 25.99ZM465.77 25.85C471.48 19.97 468.31 8.83 458.88 8.11C455.14 7.82 449.95 10.66 448.68 15.02C447.41 19.39 449.09 25.10 453.55 25.44C459.38 25.85 460.51 18.86 460.80 13.99L456.67 13.32C456.46 16.87 456.10 21.12 453.77 20.40C451.18 19.58 453.53 12.58 458.74 12.58C463.54 12.58 466.46 19.18 462.00 23.86ZM492.62 11.88C491.83 11.81 490.22 11.78 488.40 11.78L488.40 10.92C489.72 10.92 490.92 10.97 491.76 11.02L491.78 6.72C491.11 6.67 489.86 6.62 488.42 6.62L488.42 5.52L484.20 5.59L484.22 6.70C482.81 6.74 481.56 6.79 480.89 6.86L481.03 11.14C481.78 11.06 482.95 11.02 484.32 10.97L484.32 11.83C482.59 11.86 481.06 11.93 480.22 12C480.24 11.04 480.24 10.22 480.22 9.70L479.54 7.97L473.40 8.18L472.68 9.41C472.78 12.58 472.82 21.50 472.85 23.62L475.13 23.62C475.13 23.47 475.15 23.28 475.15 23.09C475.90 23.09 476.66 23.11 477.34 23.14L477.34 23.64L479.88 23.64C479.95 22.34 480.17 15.91 480.22 12.02L480.41 16.27C481.73 16.15 484.42 16.08 487.03 16.06L487.03 16.73C484.49 16.75 481.73 16.82 480.55 16.94L480.72 21.19C481.99 21.07 484.58 21.02 487.08 21L487.10 23.02L486.74 22.85L485.86 25.75L488.69 26.83L490.82 25.78L490.82 21.05C491.28 21.05 491.69 21.07 492.02 21.10L492.05 16.80C491.74 16.78 491.33 16.75 490.82 16.75L490.82 16.10L492.62 16.18ZM477.48 12.53L477.48 13.56L475.25 13.61L475.25 12.62ZM475.20 18.91C475.20 18.58 475.22 18.24 475.22 17.88L477.43 17.86C477.43 18.24 477.41 18.62 477.41 18.98C476.71 18.94 475.92 18.91 475.20 18.91ZM483.19 21.31C481.94 21.31 480.96 22.32 480.96 23.54C480.96 24.77 481.94 25.78 483.19 25.78C484.42 25.78 485.40 24.77 485.40 23.54C485.40 22.32 484.42 21.31 483.19 21.31ZM515.90 16.20C515.54 16.13 515.02 16.08 514.39 16.06C514.39 15.36 514.37 14.64 514.37 13.92L515.71 13.90L515.71 9.41L514.22 9.48C514.20 8.71 514.18 7.97 514.13 7.30L509.93 7.49C509.90 7.82 509.93 8.62 509.98 9.70L504.26 9.98L504.26 14.14L510.19 14.02C510.22 14.71 510.24 15.43 510.29 16.13C509.26 16.22 508.30 16.37 507.48 16.63C503.81 17.81 503.98 21.53 505.37 24C507.26 27.31 514.39 26.30 514.44 22.03C514.44 21.74 514.44 21.17 514.44 20.40L515.90 20.74ZM501.62 20.35C501.24 17.59 501.55 12.29 501.98 8.35L497.30 8.45C496.68 14.33 497.11 21.65 498.00 24.62L502.03 25.80L504.82 23.66L502.70 19.75ZM508.73 20.66C509.06 20.33 509.64 20.14 510.36 20.06C510.34 20.90 510.29 21.50 510.17 21.72C509.54 22.94 507.77 21.72 508.73 20.66ZM541.18 10.49C540.02 8.90 538.01 6.86 535.97 5.47L533.11 7.90C534.02 8.74 534.86 9.65 535.58 10.61C532.80 12.96 528.22 14.78 519.94 16.39L521.64 19.27C522.34 19.15 523.01 19.01 523.70 18.86C523.80 21.82 523.90 25.58 523.92 26.57L527.52 26.57C527.52 26.47 527.54 26.35 527.54 26.21C529.87 26.23 532.54 26.23 534.65 26.28C534.62 26.38 534.62 26.47 534.62 26.57L538.32 26.57C538.51 25.51 539.11 18.48 538.94 16.78L537.55 15.65L534.00 15.72C536.14 14.81 537.98 13.75 539.30 12.62L538.66 12.26ZM522.91 5.50C522.05 7.87 521.09 9.50 519.74 11.45L523.22 13.49C525.02 11.50 526.13 9.70 527.11 7.85ZM529.97 13.34L532.10 12.36L532.25 5.50L527.76 5.64L527.64 10.56L526.61 10.37L525.84 12.74ZM527.66 18.84L527.66 18.38L534.89 18.31L534.89 18.79ZM534.84 20.78C534.84 20.98 534.84 21.14 534.82 21.34L527.66 21.38L527.66 20.81ZM527.64 23.74L527.64 23.35L534.77 23.33C534.74 23.47 534.74 23.64 534.74 23.78C532.49 23.74 529.73 23.71 527.64 23.74ZM565.44 14.98C564.46 14.62 562.92 13.92 561.38 13.13C562.49 12.22 563.40 11.33 563.90 10.61L563.11 7.42C562.75 7.42 560.50 7.63 558.77 7.78C559.06 7.30 559.34 6.79 559.56 6.29L556.03 5.02C554.69 7.46 553.73 8.54 551.74 10.27L550.92 8.90L544.78 9.07L543.98 9.96C544.08 11.98 544.22 22.68 544.27 24.24L546.26 24.19L546.26 23.86C547.37 23.83 548.71 23.86 549.77 23.86L549.77 24.24L551.74 24.31C551.78 23.71 551.88 19.85 551.93 16.34L552.89 18.29C552.91 20.69 552.96 25.03 553.20 26.74L556.13 26.57C556.13 26.50 556.10 26.40 556.10 26.28C557.40 26.26 559.01 26.26 560.35 26.26C560.33 26.38 560.33 26.47 560.30 26.57L563.14 26.57C563.33 25.46 563.83 19.61 563.83 18.89L563.23 17.95C563.42 18.02 563.59 18.12 563.74 18.17ZM558.22 11.33C557.90 11.11 557.59 10.90 557.30 10.68C558.10 10.63 558.86 10.54 559.25 10.44C558.94 10.73 558.60 11.02 558.22 11.33ZM553.20 13.34C553.66 13.06 554.14 12.72 554.62 12.34C554.81 12.58 555.14 12.89 555.55 13.22C554.30 13.99 553.03 14.64 551.95 14.98C551.98 13.56 551.98 12.29 551.98 11.47ZM549.82 14.74C549.50 14.71 549.17 14.71 548.81 14.71L548.83 12.84L549.82 12.82ZM546.96 14.71C546.70 14.71 546.43 14.71 546.17 14.74C546.17 13.99 546.14 13.37 546.14 12.91L546.94 12.89ZM556.10 17.21C556.10 17.09 556.13 16.99 556.13 16.92L555.86 16.94C556.70 16.46 557.62 15.89 558.50 15.29C559.51 15.94 560.57 16.56 561.50 17.06C560.09 17.04 557.93 17.11 556.10 17.21ZM546.22 18.50C546.48 18.48 546.74 18.48 547.01 18.48L547.01 19.97C546.74 19.99 546.48 19.99 546.24 19.99C546.24 19.51 546.24 19.01 546.22 18.50ZM548.78 18.50C549.14 18.50 549.48 18.50 549.79 18.50L549.79 19.99C549.48 19.99 549.14 19.97 548.78 19.97ZM556.03 22.80C556.01 22.08 556.01 21.34 556.03 20.64C558.00 20.57 559.99 20.54 560.69 20.52C560.64 20.90 560.62 21.74 560.57 22.70C559.20 22.73 557.40 22.73 556.03 22.80ZM571.99 27.24C578.62 20.18 577.10 11.28 572.45 5.71L567.41 6.94C572.26 13.06 572.50 18.50 567.41 25.22Z" transform="translate(0, 0)" />
    </svg>
  