
    <svg xmlns="http://www.w3.org/2000/svg" viewBox="0 0 318.91200000000003 28.8">
      <path d="M11.74 11.47C13.08 11.47 14.18 10.37 14.18 9C14.18 7.61 13.08 6.53 11.74 6.53C10.34 6.53 9.26 7.61 9.26 9C9.26 10.37 10.34 11.47 11.74 11.47ZM11.71 18.58C12.74 19.54 16.10 23.52 17.28 24.58L20.40 22.68C19.25 21.55 15.58 17.28 14.28 15.96C15.58 14.62 18.79 10.70 19.94 9.60L16.82 7.68C15.65 8.76 12.74 12.36 11.71 13.32C10.63 12.24 7.70 8.71 6.89 7.85L3.86 9.98C4.99 11.26 7.99 14.86 9.07 15.96C7.99 17.06 4.66 20.59 3.53 21.86L6.55 24ZM18.82 18.36C20.16 18.36 21.29 17.26 21.29 15.89C21.29 14.52 20.16 13.42 18.82 13.42C17.45 13.42 16.34 14.52 16.34 15.89C16.34 17.26 17.45 18.36 18.82 18.36ZM4.63 18.58C6 18.58 7.10 17.47 7.10 16.10C7.10 14.71 6 13.63 4.63 13.63C3.26 13.63 2.18 14.71 2.18 16.10C2.18 17.47 3.26 18.58 4.63 18.58ZM11.66 25.51C13.01 25.51 14.14 24.41 14.14 23.04C14.14 21.67 13.01 20.57 11.66 20.57C10.30 20.57 9.19 21.67 9.19 23.04C9.19 24.41 10.30 25.51 11.66 25.51ZM42.98 7.94C39.94 8.23 35.02 8.50 31.37 8.57L31.37 7.94L26.21 7.94C26.16 12.77 26.69 19.51 27.38 24.14L32.62 24.14C32.57 23.86 32.50 23.54 32.45 23.21C34.58 23.21 37.32 23.28 39.55 23.30L39.41 24.14L44.23 24.14C45.24 20.59 45.53 13.32 45.79 11.28ZM31.90 18.43C31.73 16.61 31.61 14.71 31.54 13.03C34.20 13.03 37.78 13.01 40.56 12.79C40.56 14.23 40.46 16.20 40.22 18.43C37.85 18.36 34.46 18.38 31.90 18.43ZM69.89 22.27C67.94 20.86 65.78 19.51 63.48 17.50C65.86 15.31 67.78 13.18 68.52 11.66L66.86 7.49C63.43 7.92 54.07 7.87 51.72 7.87L51.34 12.77C54.77 12.72 58.25 12.67 61.58 12.38C58.80 15.89 53.98 19.30 50.11 21.36L52.44 25.20C54.41 24.41 57 22.73 59.54 20.78C61.87 22.90 64.32 24.60 66.36 25.80ZM91.15 20.18C92.18 18.07 92.93 15.55 93.19 12.60C93.55 12.60 93.89 12.62 94.15 12.65L94.15 8.88C93.24 8.78 90.86 8.78 88.82 8.86C88.94 7.94 89.06 7.01 89.14 6.07L85.78 5.71C85.46 7.85 85.03 10.75 84.14 13.20C83.64 12.74 83.09 12.17 82.58 11.64C83.30 11.64 83.98 11.64 84.55 11.66L84.67 9.05L83.30 9.05C83.95 8.62 84.48 8.18 85.01 7.68L83.06 5.54C82.30 6.36 81.67 6.96 80.88 7.63L80.88 5.59L78.12 5.62L78.10 7.01C77.83 6.34 77.16 5.86 76.39 5.86C75.36 5.86 74.54 6.67 74.54 7.68C74.54 8.28 74.83 8.81 75.26 9.14L74.14 9.22L74.21 11.71C74.78 11.71 75.46 11.69 76.20 11.69C75.31 12.46 74.26 13.13 73.37 13.66L74.81 16.18C75.82 15.67 76.97 14.83 77.95 13.87L77.93 15.41L77.11 15.26C76.94 15.91 76.73 16.66 76.49 17.47C75.07 17.47 73.97 17.50 73.70 17.52L73.94 20.21C74.45 20.18 75 20.16 75.60 20.14L75.10 21.46L76.10 23.04L76.80 23.28C76.20 23.52 75.53 23.74 74.74 23.93L76.63 26.35C78.05 25.99 79.22 25.44 80.16 24.74C81.10 25.18 81.96 25.61 82.70 25.97L83.90 23.93L86.26 26.30C87.22 25.54 88.13 24.62 88.99 23.57C89.93 24.77 90.94 25.78 91.97 26.62L94.63 23.93C93.38 22.82 92.16 21.62 91.15 20.18ZM78.05 9.10L77.57 9.10C77.78 8.90 77.95 8.69 78.07 8.42ZM81.26 9.05L80.88 9.05L80.88 8.59ZM89.06 15.94C88.78 14.93 88.58 13.85 88.49 12.62C88.90 12.60 89.30 12.60 89.74 12.58C89.62 13.82 89.40 14.93 89.06 15.94ZM83.88 23.35C83.42 23.11 82.85 22.80 82.25 22.51C82.70 21.79 83.02 20.98 83.26 20.14L84.86 20.21L85.06 17.47C84.84 17.45 84.31 17.45 83.62 17.45L83.62 16.78L80.57 16.78C80.54 16.99 80.52 17.23 80.50 17.45L79.58 17.45C79.68 17.04 79.78 16.66 79.85 16.30L80.88 16.30L80.88 13.68C81.58 14.71 82.34 15.67 82.85 16.18L82.99 16.03L85.49 17.62C85.61 17.50 85.70 17.35 85.82 17.21C86.11 18.26 86.50 19.22 86.90 20.14C85.99 21.36 84.94 22.39 83.88 23.35ZM79.94 20.09C79.80 20.50 79.63 20.88 79.42 21.24C79.08 21.10 78.77 20.98 78.48 20.88C78.60 20.64 78.72 20.38 78.82 20.09ZM108.84 24.89L108.65 20.33L106.37 20.23L106.27 6.98L102.50 6.50L96.67 9.74L99.19 13.73L100.75 13.46L100.75 20.06L98.18 19.97L98.04 25.01ZM125.81 24.89L125.42 20.33L121.85 20.30C127.92 16.32 125.81 8.18 121.08 6.96C116.81 5.86 113.38 7.70 110.81 11.26L113.47 14.95C115.54 12.46 118.85 11.64 120.29 13.70C121.99 16.15 115.99 19.75 111.96 20.23L112.20 24.89ZM145.63 20.47C146.78 18.31 147.58 15.72 147.84 12.67C148.32 12.67 148.75 12.70 149.09 12.72L149.09 8.86C148.10 8.76 145.42 8.76 143.11 8.81C143.28 7.85 143.40 6.89 143.50 5.95L139.82 5.59C139.44 8.21 138.70 12.58 137.23 15.50C136.80 15.10 136.34 14.69 135.84 14.28L135.84 12.60C136.70 12.60 137.47 12.62 138.02 12.67L138 8.28C137.57 8.23 136.80 8.21 135.89 8.21L135.91 5.69L132.17 5.88L132.17 8.28C131.14 8.33 130.25 8.40 129.74 8.47L129.89 12.84C130.39 12.77 131.21 12.70 132.14 12.65L132.14 13.15C131.14 15.43 129.41 17.52 128.38 18.82L130.68 22.03C131.26 21.48 131.74 20.86 132.14 20.26L132.12 26.21L135.72 26.33L135.79 19.22C136.18 19.66 136.54 20.09 136.80 20.54L138.10 17.90L139.37 18.67C139.58 18.43 139.80 18.17 139.99 17.88C140.30 18.77 140.64 19.61 141.05 20.40C139.94 21.79 138.70 22.92 137.42 24L140.33 26.74C141.36 25.97 142.37 25.03 143.30 23.93C144.31 25.15 145.42 26.18 146.54 27.05L149.42 24.31C148.08 23.18 146.76 21.96 145.63 20.47ZM142.75 12.70C143.18 12.67 143.64 12.67 144.12 12.65C144 13.94 143.74 15.07 143.40 16.10C143.09 15.07 142.85 13.94 142.75 12.70ZM169.66 18.67C170.95 15.50 171.84 11.62 172.58 7.15L167.62 6.19C166.54 12.65 165.41 17.38 162.60 20.38L162.05 17.42C161.52 17.59 160.70 17.78 159.74 17.98C159.67 14.50 159.67 10.08 159.79 7.78L155.21 7.78C155.06 9.60 155.09 15 155.21 18.84C154.01 19.06 152.90 19.20 152.14 19.27L152.86 24.05C154.08 23.98 157.42 23.38 160.03 22.85L162.96 26.54C164.66 25.75 166.08 24.55 167.28 22.99C168.34 23.76 169.46 24.79 170.95 26.42L173.69 22.22C172.15 20.59 170.88 19.51 169.66 18.67ZM163.34 13.70C164.76 13.70 165.89 12.55 165.89 11.14C165.89 9.74 164.76 8.59 163.34 8.59C161.93 8.59 160.80 9.74 160.80 11.14C160.80 12.55 161.93 13.70 163.34 13.70ZM197.02 6.79C193.13 6.79 180.50 6.89 176.81 7.03L176.95 12.55C178.73 12.46 181.20 12.38 183.84 12.34L183.74 25.90L189.29 25.90L189.17 19.75C190.82 20.30 192.60 20.93 194.40 21.86L195.91 16.68C193.94 15.77 191.18 14.90 189.05 14.42L189.02 12.29C191.95 12.29 194.74 12.34 196.73 12.43ZM218.23 25.85C223.94 19.97 220.78 8.83 211.34 8.11C207.60 7.82 202.42 10.66 201.14 15.02C199.87 19.39 201.55 25.10 206.02 25.44C211.85 25.85 212.98 18.86 213.26 13.99L209.14 13.32C208.92 16.87 208.56 21.12 206.23 20.40C203.64 19.58 205.99 12.58 211.20 12.58C216 12.58 218.93 19.18 214.46 23.86ZM242.42 5.93C240.65 7.66 237.70 9.72 235.54 10.70L236.06 15.26C238.66 14.52 241.99 12.07 243.58 10.18ZM235.51 14.02C235.18 13.99 234.67 13.97 234.05 13.97L234.07 11.11C234.43 11.11 234.74 11.14 235.03 11.16L235.03 6.89C233.30 6.72 227.04 6.84 225.19 7.06L225.36 11.30C225.65 11.28 226.01 11.23 226.42 11.21C226.44 12.24 226.46 13.18 226.46 14.06C225.74 14.11 225.12 14.14 224.71 14.18L224.88 18.43C225.26 18.38 225.77 18.36 226.37 18.34C226.15 20.81 225.60 22.75 224.16 24.62L227.40 26.83C228.96 24.60 229.56 21.94 229.82 18.22L230.76 18.22L230.76 26.83L233.93 26.83L234 18.24C234.58 18.24 235.10 18.26 235.51 18.29ZM230.02 13.97C230.04 13.06 230.04 12.10 230.06 11.09L230.76 11.09L230.76 13.97ZM243.53 11.59C241.51 13.49 237.29 15.82 235.54 16.30L236.06 20.83C239.30 19.51 242.83 17.52 244.66 15.38ZM244.08 17.09C242.38 19.08 237.02 21.77 235.25 22.25L235.80 26.81C239.11 25.80 242.95 23.95 245.66 21.41ZM258.02 21.50C257.83 20.64 259.46 19.66 261.60 18.62C261.65 19.06 261.53 19.56 261.22 20.09L265.10 20.81C265.73 19.42 265.75 18.10 265.34 16.92L267.07 16.10L264.91 12.60C264.38 12.89 263.54 13.27 262.56 13.75C260.93 12.86 258.84 12.62 256.75 13.32C257.04 12.55 257.33 11.88 257.62 11.23L266.54 11.11L266.54 7.22L259.25 7.30C259.37 6.98 259.51 6.62 259.63 6.26L255.72 5.86L255.14 7.34L250.73 7.39L250.73 11.30L253.39 11.28C252.72 12.77 252.14 14.04 251.98 14.62L254.71 17.06C255.62 16.44 256.78 16.18 257.88 16.22C255.07 17.93 252.62 20.02 252.91 22.27C253.44 26.83 261.70 27.02 266.78 25.78L266.33 21.79C261.62 22.61 258.38 23.04 258.02 21.50ZM293.71 23.33C291.91 22.70 290.16 21.96 288.58 21.14C288.67 21.17 288.79 21.17 288.89 21.17C290.11 21.17 291.10 20.18 291.10 18.94C291.10 17.93 290.42 17.09 289.51 16.82C290.86 16.82 292.01 16.85 292.94 16.87L292.94 13.82C291.60 13.78 288.89 13.78 285.86 13.78L285.86 13.39C287.95 13.39 289.87 13.42 291.17 13.44L291.17 10.42C290.14 10.39 288.14 10.37 285.86 10.37L285.86 9.98C288.24 9.98 290.45 10.01 291.94 10.03L291.94 7.03C290.78 6.98 288.48 6.96 285.86 6.98L285.86 5.35L280.32 5.42L280.37 7.01C277.63 7.03 275.18 7.08 273.91 7.15L274.18 10.13C275.54 10.08 277.87 10.03 280.44 10.01L280.46 10.42C278.16 10.44 276.14 10.49 275.06 10.56L275.30 13.54C276.46 13.49 278.38 13.44 280.54 13.42L280.54 13.82C277.34 13.85 274.44 13.90 272.95 13.94L273.26 16.94L276.65 16.87C275.45 17.98 273.94 18.98 272.14 20.16L275.76 22.51L276.24 22.22L276.38 25.66L278.47 26.52L283.82 25.20L282.72 22.22L280.61 22.80L280.51 20.30C282.72 22.20 286.20 25.03 290.52 26.26ZM280.49 19.03C281.28 18.29 281.98 17.54 282.55 16.80L288.26 16.80C287.33 17.06 286.66 17.93 286.66 18.94C286.66 19.51 286.87 20.04 287.21 20.42C285.58 19.51 284.18 18.55 283.20 17.62L280.49 19.42ZM315.24 6.60C312.38 6.43 301.92 6.55 298.87 6.79L299.11 11.47C302.30 11.23 311.42 11.14 315.24 11.33ZM313.10 17.14C314.64 17.14 316.03 17.16 317.09 17.21L317.09 12.48C313.66 12.31 301.06 12.43 297.36 12.67L297.65 17.35L299.45 17.28C299.47 17.16 299.52 17.04 299.54 16.92L300.05 17.26C301.42 17.21 303.07 17.18 304.82 17.16L304.90 21.22L303.89 20.95L302.78 25.46L307.20 26.74L309.38 25.46L309.36 17.11C310.56 17.11 311.76 17.11 312.84 17.14L310.25 19.80C311.66 22.01 312.72 23.69 313.70 25.70L317.38 22.49C316.34 20.74 314.93 18.74 313.10 17.14ZM299.76 25.68C301.46 23.78 302.59 21.79 303.58 19.63L300.05 17.26C299.83 17.26 299.64 17.28 299.45 17.28C298.66 19.80 297.67 21.14 296.45 23.30Z" transform="translate(0, 0)" />
    </svg>
  