
    <svg xmlns="http://www.w3.org/2000/svg" viewBox="0 0 480 28.8">
      <path d="M11.74 11.47C13.08 11.47 14.18 10.37 14.18 9C14.18 7.61 13.08 6.53 11.74 6.53C10.34 6.53 9.26 7.61 9.26 9C9.26 10.37 10.34 11.47 11.74 11.47ZM11.71 18.58C12.74 19.54 16.10 23.52 17.28 24.58L20.40 22.68C19.25 21.55 15.58 17.28 14.28 15.96C15.58 14.62 18.79 10.70 19.94 9.60L16.82 7.68C15.65 8.76 12.74 12.36 11.71 13.32C10.63 12.24 7.70 8.71 6.89 7.85L3.86 9.98C4.99 11.26 7.99 14.86 9.07 15.96C7.99 17.06 4.66 20.59 3.53 21.86L6.55 24ZM18.82 18.36C20.16 18.36 21.29 17.26 21.29 15.89C21.29 14.52 20.16 13.42 18.82 13.42C17.45 13.42 16.34 14.52 16.34 15.89C16.34 17.26 17.45 18.36 18.82 18.36ZM4.63 18.58C6 18.58 7.10 17.47 7.10 16.10C7.10 14.71 6 13.63 4.63 13.63C3.26 13.63 2.18 14.71 2.18 16.10C2.18 17.47 3.26 18.58 4.63 18.58ZM11.66 25.51C13.01 25.51 14.14 24.41 14.14 23.04C14.14 21.67 13.01 20.57 11.66 20.57C10.30 20.57 9.19 21.67 9.19 23.04C9.19 24.41 10.30 25.51 11.66 25.51ZM28.73 6.70L29.26 25.97L33.86 25.97L33.86 17.98C35.86 18.65 38.83 19.68 42 21.07L43.80 17.06C40.06 15.50 37.13 14.18 33.86 13.01L33.86 6.62ZM38.45 10.92C39.53 10.92 40.39 10.06 40.39 8.98C40.39 7.92 39.53 7.03 38.45 7.03C37.39 7.03 36.53 7.92 36.53 8.98C36.53 10.06 37.39 10.92 38.45 10.92ZM43.15 11.59C43.90 11.09 44.11 10.10 43.63 9.36C43.15 8.59 42.14 8.40 41.40 8.88C40.66 9.36 40.44 10.37 40.92 11.11C41.42 11.86 42.41 12.07 43.15 11.59ZM67.68 11.62L67.58 7.01L52.30 7.06L52.30 11.69ZM58.20 27.26C64.08 23.93 66.62 20.95 68.83 17.28L68.40 12.36C66.43 12.67 53.42 12.74 51.14 12.67L51.14 17.42C54.96 17.57 58.70 17.42 62.62 17.16C60.48 19.63 58.68 21 55.03 23.33ZM94.49 24.50C93.89 23.50 92.90 22.06 91.80 20.95C92.64 20.98 93.38 20.98 94.01 21L94.01 17.54C93.46 17.52 92.64 17.50 91.68 17.50C91.73 17.04 91.75 16.51 91.80 15.96C92.50 15.96 93.12 15.96 93.67 15.98L93.67 12.91C93.24 12.89 92.69 12.89 92.02 12.86L92.09 10.97C92.57 10.97 93 10.99 93.38 10.99L93.38 7.54C90.96 7.42 83.52 7.46 78.86 7.58C79.01 7.01 79.10 6.46 79.20 5.88L76.10 5.14C75.70 7.73 74.71 11.21 73.22 13.30L74.95 14.14L75.12 16.08L77.78 16.01C77.81 16.56 77.83 17.09 77.88 17.57C76.39 17.59 75.17 17.62 74.38 17.66L74.66 21.12C76.32 21.05 79.30 21 82.49 20.98L79.92 22.39C80.66 23.90 81.50 25.39 81.89 26.93L85.32 25.37C84.74 24.10 83.78 22.20 82.58 20.95L86.71 20.95L84.46 22.20C85.18 23.76 86.02 25.22 86.38 26.76L89.81 25.18C89.28 23.98 88.34 22.18 87.26 20.95C88.37 20.93 89.42 20.95 90.43 20.95L88.75 22.18C89.69 23.62 90.72 24.98 91.30 26.45ZM89.18 12.86L88.25 12.86C88.25 12.14 88.22 11.50 88.22 10.94L89.28 10.94C89.26 11.52 89.23 12.17 89.18 12.86ZM84.22 10.94L85.42 10.94C85.42 11.52 85.44 12.17 85.44 12.86L84.19 12.86C84.19 12.17 84.22 11.52 84.22 10.94ZM81.38 12.89C81.07 12.89 80.76 12.89 80.45 12.91C80.42 12.22 80.40 11.57 80.40 10.99C80.71 10.99 81.05 10.99 81.41 10.97C81.38 11.52 81.38 12.17 81.38 12.89ZM77.11 12.96C77.28 12.58 77.45 12.17 77.59 11.76C77.62 12.14 77.62 12.53 77.64 12.94C77.45 12.96 77.28 12.96 77.11 12.96ZM88.87 17.47L88.15 17.47C88.18 17.02 88.18 16.49 88.20 15.94L88.99 15.94C88.97 16.49 88.92 17.02 88.87 17.47ZM85.39 15.94C85.39 16.49 85.37 17.02 85.34 17.47C84.98 17.47 84.62 17.50 84.26 17.50C84.26 17.02 84.24 16.49 84.24 15.94ZM80.57 15.96L81.43 15.96C81.43 16.51 81.46 17.04 81.48 17.52L80.69 17.52C80.64 17.06 80.62 16.54 80.57 15.96ZM76.87 21.70C75.50 21.70 74.38 22.82 74.38 24.22C74.38 25.58 75.50 26.71 76.87 26.71C78.24 26.71 79.37 25.58 79.37 24.22C79.37 22.82 78.24 21.70 76.87 21.70ZM113.88 8.69C113.95 7.56 114.05 6.46 114.12 5.38L110.83 5.28C110.81 6.43 110.78 7.61 110.74 8.78L108.60 8.86L108.58 13.34C108.10 12.77 107.50 12.07 106.87 11.45L108.38 11.52L108.38 7.54C107.78 7.49 106.66 7.44 105.36 7.44L105.53 5.40L101.71 5.40L101.81 7.51C100.44 7.54 99.26 7.61 98.62 7.68L98.78 11.64L99.62 11.57C98.78 12.43 98.02 13.37 97.49 14.02L99.36 17.18C99.48 16.97 99.62 16.75 99.79 16.54C100.15 17.76 100.68 18.98 101.28 20.16C100.42 21.22 99.43 22.25 98.28 23.23L100.06 25.97C101.04 25.39 102.12 24.38 103.15 23.11C104.23 24.53 105.38 25.66 106.39 26.26L108.19 23.52C106.97 22.46 105.94 21.43 105.05 20.30C105.72 19.08 106.30 17.74 106.70 16.34C106.87 16.56 107.02 16.78 107.14 16.99L109.13 14.02C109.01 13.87 108.89 13.70 108.74 13.54L110.40 13.54C110.06 16.70 109.42 19.78 108.22 22.49L110.76 25.10C112.32 22.68 113.04 18.24 113.50 13.51L115.08 13.51C115.18 15.89 114.62 19.66 114.34 21.10L113.76 20.59L112.42 24.24L114.05 26.38L116.30 25.85C117.67 22.92 118.34 14.90 118.49 12.05L117.34 8.59ZM104.09 15.07C103.85 15.84 103.54 16.56 103.18 17.26C102.86 16.58 102.60 15.86 102.34 15.07L100.73 15.26C101.47 14.33 102.29 13.39 102.98 12.60L102.43 11.47C102.96 11.45 103.51 11.45 104.06 11.45L103.51 12.41C104.26 13.25 105.14 14.28 105.94 15.29ZM139.32 25.85C145.03 19.97 141.86 8.83 132.43 8.11C128.69 7.82 123.50 10.66 122.23 15.02C120.96 19.39 122.64 25.10 127.10 25.44C132.94 25.85 134.06 18.86 134.35 13.99L130.22 13.32C130.01 16.87 129.65 21.12 127.32 20.40C124.73 19.58 127.08 12.58 132.29 12.58C137.09 12.58 140.02 19.18 135.55 23.86ZM166.42 18.07C166.03 18.07 165.53 18.05 164.93 18.05C164.98 17.71 165 17.38 165 17.09L162.22 15.19C161.62 15.24 160.06 15.29 158.16 15.34L158.16 14.88C158.59 14.88 159 14.88 159.41 14.88L159.34 15.05L163.63 15.05C163.92 14.45 164.69 11.33 164.69 10.94L162.96 9.98C162.05 9.96 160.22 9.94 158.11 9.96L158.11 9.38C161.21 9.38 164.14 9.38 166.01 9.43L166.01 7.01C164.54 6.96 161.47 6.96 158.09 6.96L158.09 5.50L153.55 5.66L153.58 6.98C150.22 7.01 147.17 7.06 145.61 7.10L145.61 9.50C147.29 9.46 150.31 9.41 153.58 9.41L153.60 10.01C153.02 10.01 152.47 10.03 151.92 10.03C151.92 9.98 151.94 9.94 151.94 9.89L147.34 10.03C147.34 11.04 147.38 14.06 147.82 15.14L151.94 15.05C151.94 15 151.92 14.95 151.92 14.90C152.45 14.90 153.02 14.90 153.65 14.88L153.65 15.38C151.10 15.41 148.78 15.41 147.94 15.34L147.72 17.69C149.42 17.74 151.58 17.78 153.67 17.78L153.67 18.07C150.29 18.07 147.17 18.12 145.61 18.17L145.61 20.23C147.31 20.18 150.36 20.16 153.70 20.14L153.70 20.47C151.20 20.50 148.92 20.54 147.72 20.59L147.96 22.92C149.23 22.87 151.37 22.82 153.72 22.82L153.72 23.40L152.71 23.21L151.73 25.82L156.07 26.83L158.23 25.82L158.21 22.80L159.84 22.80C159.82 22.92 159.79 22.99 159.77 23.06L163.63 23.06C163.97 22.27 164.30 21.22 164.54 20.14C165.24 20.14 165.86 20.16 166.42 20.16ZM159.94 11.95C159.89 12.12 159.84 12.41 159.79 12.77L158.14 12.77L158.14 11.98C158.93 11.95 159.58 11.95 159.94 11.95ZM151.80 12.82C151.80 12.55 151.80 12.29 151.82 12.02C152.40 12 153.02 12 153.62 12L153.62 12.79C152.98 12.82 152.38 12.82 151.80 12.82ZM158.18 17.78C159.34 17.76 160.22 17.74 160.68 17.69C160.68 17.78 160.68 17.90 160.66 18.05L158.18 18.05ZM160.32 20.45L158.18 20.45L158.18 20.11L160.37 20.11C160.37 20.23 160.34 20.35 160.32 20.45ZM186.94 20.16C187.97 18 188.71 15.43 188.95 12.41C189.41 12.41 189.82 12.43 190.15 12.46L190.15 8.62C189.22 8.52 186.74 8.52 184.63 8.59C184.78 7.63 184.90 6.67 184.97 5.76L181.66 5.40C181.42 7.18 181.01 9.77 180.36 12.17L180.36 9.84C179.86 9.79 178.94 9.77 177.89 9.77L177.89 5.93L173.45 6.02L173.52 9.82C172.15 9.84 170.93 9.91 170.28 9.98L170.45 14.02C171.14 13.94 172.32 13.90 173.62 13.85L173.66 16.30C173.54 16.30 173.42 16.32 173.30 16.32C173.33 16.22 173.33 16.13 173.33 16.06L170.33 16.34C170.33 18.14 170.35 23.54 170.64 25.46L173.33 25.32C173.33 25.22 173.30 25.15 173.30 25.03C174.38 25.01 175.73 24.98 176.90 24.98C176.88 25.10 176.88 25.22 176.86 25.32L179.90 25.32L180.02 24.22L182.11 26.40C183.05 25.63 183.96 24.70 184.82 23.59C185.74 24.84 186.72 25.87 187.75 26.71L190.37 23.98C189.17 22.85 187.94 21.65 186.94 20.16ZM184.90 15.82C184.61 14.81 184.39 13.68 184.30 12.43C184.70 12.43 185.11 12.41 185.54 12.41C185.42 13.66 185.21 14.78 184.90 15.82ZM177.89 13.82C178.61 13.82 179.28 13.85 179.83 13.87C179.52 14.74 179.18 15.53 178.78 16.20C178.51 16.18 178.22 16.18 177.89 16.18ZM180.14 23.04C180.34 21.02 180.55 18.41 180.55 17.95L180.53 17.90L181.22 18.36C181.42 18.12 181.63 17.86 181.80 17.57C182.09 18.46 182.40 19.30 182.76 20.09C181.97 21.19 181.06 22.15 180.14 23.04ZM173.23 21.34L173.23 19.87C174.91 19.80 176.57 19.80 177.22 19.78C177.17 20.06 177.14 20.59 177.12 21.24C175.90 21.24 174.41 21.26 173.23 21.34ZM213.96 8.81C213.22 8.76 211.75 8.74 210.05 8.74L210.29 5.81L205.70 5.81L205.85 8.78C204.43 8.83 203.16 8.88 202.30 8.93L201.24 6.29C200.23 6.34 198.77 6.29 197.33 6.29L197.33 5.86L194.11 5.86C193.97 9.48 194.06 22.61 194.23 26.45L197.42 26.14C197.38 25.22 197.35 23.93 197.33 22.39C201.67 23.26 203.42 17.06 200.47 14.09C200.98 13.13 201.46 11.90 201.86 10.87L201.96 13.32C202.75 13.25 204.02 13.20 205.46 13.15C204.94 16.44 203.40 21.65 201.65 24.26L205.30 25.56C206.45 24.19 207.46 21.58 208.27 18.82C208.80 18.82 209.30 18.79 209.81 18.72C209.66 20.02 209.21 22.39 208.78 23.02C208.78 23.02 208.49 22.80 208.18 22.39L206.71 24.34C207.17 25.42 208.18 26.50 208.78 27.17L211.92 25.85C212.35 24.77 213.38 20.86 213.67 18.70L212.35 14.57C211.25 14.66 210.24 14.74 209.28 14.74C209.40 14.18 209.52 13.63 209.62 13.10C211.32 13.10 212.90 13.13 213.96 13.20ZM197.69 15.26C200.04 16.22 199.56 20.02 197.28 18.72C197.26 15.94 197.26 12.91 197.28 10.32C198.12 10.39 198.46 10.42 199.32 10.34C198.53 11.78 198.26 12.36 197.50 13.39ZM231.07 16.20C233.45 16.20 235.61 16.22 237.12 16.30L237.12 11.04C235.94 10.97 233.66 10.94 231.07 10.94L231.07 5.78L225.55 5.95L225.77 20.78C225.48 20.78 225.17 20.81 224.88 20.81L224.88 12.77L220.01 12.89L220.18 20.93C219.19 20.95 218.38 21 217.78 21.05L218.09 26.23C222.10 25.99 233.45 25.87 238.22 26.06L238.22 20.83C236.86 20.76 234.14 20.74 231.07 20.74ZM258.72 20.02C256.34 20.35 251.33 20.66 250.90 18.36C250.46 16.06 256.03 13.85 258.91 12.96L257.95 7.13C255.94 7.13 245.30 7.80 242.71 8.21L243.05 12.98C246.70 12.77 247.78 12.58 251.28 12.17C247.34 14.16 245.64 16.34 246.19 19.82C247.03 25.13 254.81 25.54 259.10 25.03ZM260.66 17.33C261.34 16.78 261.43 15.79 260.88 15.12C260.35 14.45 259.37 14.33 258.70 14.88C258 15.43 257.90 16.42 258.46 17.09C258.98 17.76 259.99 17.86 260.66 17.33ZM255.74 18.65C256.78 18.65 257.62 17.81 257.62 16.78C257.62 15.74 256.78 14.90 255.74 14.90C254.71 14.90 253.87 15.74 253.87 16.78C253.87 17.81 254.71 18.65 255.74 18.65ZM284.69 17.93C286.03 17.93 287.14 16.82 287.14 15.46C287.14 14.11 286.03 13.01 284.69 13.01C283.92 13.01 283.22 13.37 282.77 13.90C283.25 12.65 283.73 11.30 284.21 9.89L280.08 8.35C279 11.78 277.97 14.64 276.72 16.92C276.34 15.07 276.38 12.72 276.60 10.15C277.22 10.44 277.82 10.78 278.42 11.18L279.65 7.39C278.09 6.67 275.95 5.81 273.89 5.62L273.17 8.69C274.10 9.10 274.99 9.43 275.81 9.79L272.35 9.70C271.66 14.90 272.18 18.53 273.50 20.98C272.42 21.86 271.20 22.56 269.74 23.06L272.21 26.93C273.98 26.40 275.47 25.51 276.77 24.29C278.93 25.44 281.57 25.63 284.26 25.30L285.41 23.86L285.38 19.66L281.52 19.87L281.52 20.69C280.80 20.81 280.18 20.78 279.62 20.66C280.58 19.13 281.42 17.33 282.22 15.34L282.22 15.46C282.22 16.82 283.32 17.93 284.69 17.93ZM267.62 9.91C267.48 13.66 266.45 18.74 264.84 21.48L268.61 23.28C270.24 21.38 271.44 15.12 271.90 10.25ZM296.40 5.54C294.77 7.27 292.03 9.31 290.06 10.27L290.57 14.76C292.92 14.04 295.99 11.64 297.43 9.79ZM309.38 21.77C309.50 20.50 310.03 12.60 309.94 11.64L309.22 9.74L306.36 9.79C306.65 9.46 306.96 9.10 307.34 8.69C308.35 8.69 309.24 8.71 309.89 8.74L309.89 5.74C307.94 5.64 300.77 5.71 298.66 5.86L298.85 8.83C299.66 8.78 301.08 8.74 302.64 8.71C302.26 9.14 301.87 9.50 301.46 9.89L299.69 9.91L298.66 11.47C298.85 13.51 298.99 17.33 299.06 20.06L297.91 16.61C296.33 18.58 291.43 21.22 289.82 21.70L290.30 26.23C293.23 25.25 296.64 23.52 299.11 21.12C299.11 21.36 299.14 21.58 299.14 21.77L300.74 21.77C300.05 22.80 299.11 23.66 298.01 24.50L300.60 26.57C301.66 25.37 302.64 24.60 303.77 22.56L301.94 21.77L302.02 21.77L302.02 21.36L306.38 21.36C306.38 21.46 306.38 21.55 306.36 21.62L304.68 23.02C305.40 23.86 306.77 24.96 307.90 26.59L310.20 24.24C309.14 23.26 308.30 22.49 307.32 21.77ZM297.36 11.16C295.56 13.03 291.67 15.31 290.06 15.79L290.57 20.30C293.52 19.01 296.76 17.02 298.44 14.90ZM301.87 12.98C301.85 12.86 301.85 12.74 301.85 12.62L306.72 12.58L306.72 12.98ZM306.67 15.24C306.65 15.41 306.65 15.60 306.65 15.77L301.94 15.77C301.94 15.60 301.94 15.41 301.92 15.24ZM301.99 18.74L301.99 18.14L306.55 18.14C306.53 18.31 306.53 18.48 306.53 18.65ZM331.27 16.15C332.57 14.69 333.38 13.44 333.96 12.62L331.90 8.81C328.80 8.64 324 9.12 321.53 10.08L322.18 13.92C324.77 13.37 326.76 13.13 328.92 12.84L327.86 14.30ZM322.70 23.30L320.21 19.70L319.18 20.28C318.79 17.64 319.10 12.53 319.51 8.74L315.02 8.86C314.42 14.50 314.83 21.53 315.67 24.41L319.56 25.54ZM333.17 20.54C329.26 20.78 326.04 20.95 325.27 17.93L321.53 19.78C322.27 24.34 328.44 25.34 333.17 24.89ZM351.70 18.31C350.04 21.86 345.34 21.86 345.19 18.02C345.10 15.46 345.26 9.38 345.34 7.34L340.20 6.98C340.20 10.08 339.89 18.07 340.20 20.81C340.87 26.76 351.60 28.58 355.99 21.12ZM379.10 20.28C376.73 20.64 371.71 20.93 371.28 18.62C370.85 16.34 376.42 14.14 379.30 13.22L378.34 7.39C376.30 7.39 365.69 8.06 363.10 8.47L363.43 13.25C367.06 13.03 368.16 12.86 371.66 12.43C367.70 14.42 366.02 16.61 366.58 20.11C367.42 25.39 375.19 25.80 379.49 25.32ZM396.86 20.69L393.86 17.52L392.47 18.91C391.99 17.50 391.63 14.16 391.66 10.92L386.47 11.09C386.35 14.88 387.65 21.58 389.16 23.78L392.50 24.31ZM405 22.10C405.58 19.51 405.77 15.53 405.14 11.09L400.13 11.69C400.87 15.29 400.82 19.27 400.22 21.96ZM428.45 7.68L422.74 7.75C422.71 7.06 422.71 6.48 422.69 6.02L418.39 6.02C418.34 6.26 418.32 6.91 418.34 7.82L411.70 7.92L411.70 11.69L418.49 11.59C418.49 11.83 418.49 12.07 418.51 12.29L412.80 12.41L412.80 16.13L418.68 16.03C418.70 16.37 418.73 16.68 418.73 16.99C417.50 17.06 416.38 17.18 415.54 17.40C411.19 18.53 410.98 23.14 412.70 24.72C415.30 27.14 422.64 26.74 422.90 23.14C422.93 22.78 422.95 22.01 422.95 21C424.44 21.24 425.81 21.53 426.53 21.67L426.79 17.26C425.64 17.11 424.30 17.02 422.90 16.97L422.90 15.98L427.34 15.91L427.34 12.12L422.83 12.22C422.83 11.98 422.83 11.76 422.81 11.54L428.45 11.47ZM418.90 21.77C418.87 23.16 415.94 22.87 416.42 21.38C416.59 20.78 417.58 20.59 418.87 20.59C418.90 21.10 418.90 21.48 418.90 21.77ZM448.61 7.54C448.56 6.91 448.51 6.31 448.49 5.74L443.50 6.02C443.57 6.58 443.64 7.10 443.69 7.63L435.38 7.82L435.38 12.53L444.14 12.29C444.17 12.62 444.19 12.94 444.19 13.22C443.54 12.94 442.85 12.77 442.13 12.77C439.80 12.77 435.74 14.64 436.34 18.86C436.85 22.46 441.50 25.20 445.08 23.16C445.13 24.14 445.13 25.10 445.08 25.94L450.36 25.37C450.36 23.18 449.69 20.35 448.46 17.95C448.87 16.18 448.94 14.18 448.90 12.17L452.88 12.07L452.88 7.44ZM442.13 19.30C439.97 19.30 440.45 16.54 442.20 16.78C442.87 16.87 443.38 17.28 443.78 17.88C443.47 18.79 442.94 19.30 442.13 19.30ZM461.40 26.33C463.51 26.33 465.29 24.60 465.29 22.46C465.29 20.33 463.51 18.60 461.40 18.60C459.26 18.60 457.49 20.33 457.49 22.46C457.49 24.60 459.26 26.33 461.40 26.33ZM461.40 23.57C460.78 23.57 460.27 23.06 460.27 22.46C460.27 21.89 460.78 21.38 461.40 21.38C462 21.38 462.50 21.89 462.50 22.46C462.50 23.06 462 23.57 461.40 23.57Z" transform="translate(0, 0)" />
    </svg>
  