<svg xmlns="http://www.w3.org/2000/svg" viewBox="0 0 336 28.8">
  <path d="M11.74 11.47C13.08 11.47 14.18 10.37 14.18 9C14.18 7.61 13.08 6.53 11.74 6.53C10.34 6.53 9.26 7.61 9.26 9C9.26 10.37 10.34 11.47 11.74 11.47ZM11.71 18.58C12.74 19.54 16.10 23.52 17.28 24.58L20.40 22.68C19.25 21.55 15.58 17.28 14.28 15.96C15.58 14.62 18.79 10.70 19.94 9.60L16.82 7.68C15.65 8.76 12.74 12.36 11.71 13.32C10.63 12.24 7.70 8.71 6.89 7.85L3.86 9.98C4.99 11.26 7.99 14.86 9.07 15.96C7.99 17.06 4.66 20.59 3.53 21.86L6.55 24ZM18.82 18.36C20.16 18.36 21.29 17.26 21.29 15.89C21.29 14.52 20.16 13.42 18.82 13.42C17.45 13.42 16.34 14.52 16.34 15.89C16.34 17.26 17.45 18.36 18.82 18.36ZM4.63 18.58C6 18.58 7.10 17.47 7.10 16.10C7.10 14.71 6 13.63 4.63 13.63C3.26 13.63 2.18 14.71 2.18 16.10C2.18 17.47 3.26 18.58 4.63 18.58ZM11.66 25.51C13.01 25.51 14.14 24.41 14.14 23.04C14.14 21.67 13.01 20.57 11.66 20.57C10.30 20.57 9.19 21.67 9.19 23.04C9.19 24.41 10.30 25.51 11.66 25.51ZM45.98 22.15C45.60 21.67 44.66 20.81 43.63 20.02L43.63 19.99L43.61 19.99C43.13 19.61 42.60 19.22 42.12 18.91L40.18 19.90L37.90 19.90C40.03 18.86 42.02 17.86 42.98 17.33L40.15 15.34C39.29 15.74 37.58 16.63 35.66 17.59C35.40 17.40 35.16 17.23 35.02 17.11C36.10 16.66 37.68 15.74 39.05 14.88L37.90 13.97C39.96 13.94 41.74 13.92 42.43 13.90C42.48 14.47 42.29 15.67 42.10 16.58L45.14 16.90C45.82 15.86 46.03 14.02 46.32 12.89L45.05 10.68C44.66 10.73 41.57 10.80 38.11 10.82L38.11 9.96C40.97 9.94 43.66 9.96 45.41 10.01L45.41 6.96C44.06 6.91 41.23 6.89 38.11 6.91L38.11 5.45L33.43 5.52L33.48 6.94C30.58 6.96 27.94 7.01 26.59 7.08L26.88 10.10C28.32 10.06 30.82 10.01 33.58 9.98L33.60 10.85C32.02 10.85 30.60 10.85 29.62 10.82C29.59 10.66 29.54 10.51 29.52 10.39L26.26 10.46C26.26 12.65 26.33 15.07 25.68 16.49L29.52 16.66C29.66 16.15 29.76 15.12 29.76 14.02C30.91 14.02 32.47 14.02 34.13 13.99C32.76 14.78 31.25 15.67 29.95 16.37L29.35 17.59C30.26 18.02 31.32 18.67 32.28 19.22C31.66 19.51 31.08 19.80 30.50 20.04C29.33 20.06 28.18 20.11 27.17 20.16L27.58 22.92L28.68 22.92C28.30 23.30 28.08 23.81 28.08 24.38C28.08 25.56 29.04 26.52 30.22 26.52C31.39 26.52 32.35 25.56 32.35 24.38C32.35 23.78 32.11 23.26 31.70 22.85C32.38 22.85 33.10 22.82 33.82 22.82L33.82 26.42L38.14 26.42L37.97 22.75C38.64 22.73 39.31 22.73 39.96 22.73L38.16 23.64C38.78 24.17 40.03 25.13 40.87 26.40L44.40 25.08C43.39 24.19 42.62 23.35 41.66 22.73L42.53 22.73C42.72 22.94 42.91 23.18 43.08 23.42ZM70.34 16.03C69.29 15.94 66.79 15.89 63.91 15.86C63.43 14.83 62.76 13.94 61.87 13.27L67.22 10.44L66.36 6.19L51.43 6.65L51.53 11.14L58.20 10.68L56.35 12.34L56.06 14.78C56.86 15 57.53 15.38 58.06 15.89C54.31 15.91 50.90 16.01 49.68 16.15L50.06 21.07C52.01 20.95 55.39 20.90 58.90 20.95C58.51 21.53 57.94 21.98 57.12 22.25L55.70 21.96L55.03 26.02L58.37 26.81L60.82 26.33C62.95 25.22 64.15 23.21 64.54 21.02C66.82 21.07 68.81 21.14 70.03 21.22ZM91.32 25.85C97.03 19.97 93.86 8.83 84.43 8.11C80.69 7.82 75.50 10.66 74.23 15.02C72.96 19.39 74.64 25.10 79.10 25.44C84.94 25.85 86.06 18.86 86.35 13.99L82.22 13.32C82.01 16.87 81.65 21.12 79.32 20.40C76.73 19.58 79.08 12.58 84.29 12.58C89.09 12.58 92.02 19.18 87.55 23.86ZM118.27 7.34C116.88 7.30 114.02 7.30 110.86 7.30L110.88 5.90L105.34 5.90L105.38 7.34C102.17 7.37 99.24 7.42 97.75 7.46L98.06 10.32C99.12 10.27 100.70 10.25 102.55 10.22C101.23 11.21 100.10 12.10 99.82 12.36L102.10 14.59C106.54 14.04 109.66 13.82 113.02 13.56C113.30 13.92 113.59 14.26 113.83 14.57L101.06 14.69L99.62 15.89C99.60 18.48 99.72 24.60 99.89 26.69L103.94 26.52C103.90 25.75 103.90 24.65 103.90 23.42L112.39 23.40L112.39 23.83L111.84 23.78L111.17 26.09L114.12 27.10L116.38 25.54C116.62 23.26 116.59 18.74 116.59 16.58L114.65 14.57L114.38 14.57L117.46 12.96C116.76 12.26 115.61 11.14 114.38 10.18C115.90 10.20 117.24 10.20 118.27 10.22ZM108.29 10.18L110.66 10.18L110.02 10.58C110.23 10.78 110.42 10.97 110.64 11.18C109.13 11.33 107.57 11.52 106.08 11.71C106.82 11.18 107.54 10.68 108.29 10.18ZM112.39 17.47L112.39 18.07L103.99 18.10C104.02 17.88 104.02 17.69 104.02 17.50ZM112.39 20.59L112.39 20.95L103.94 20.98L103.94 20.62ZM139.27 22.06L139.13 21.74C140.28 20.42 141.29 19.08 142.01 17.95L138.86 15.43C138.48 15.96 138.12 16.46 137.76 16.94C137.57 15.82 137.42 14.59 137.30 13.27C138.65 13.32 139.85 13.37 140.78 13.39L140.98 9.79C141.72 9.38 142.22 8.62 142.22 7.70C142.22 6.38 141.17 5.33 139.85 5.33C138.53 5.33 137.47 6.38 137.47 7.70C137.47 8.16 137.59 8.59 137.83 8.95L137.11 8.95C137.09 7.94 137.09 6.91 137.11 5.83L132 6.36L132.14 8.98C129.02 9 125.95 9.07 124.34 9.17L122.98 11.42C122.98 16.15 122.64 20.09 121.30 25.94L125.69 26.35C125.90 25.44 126.07 24.55 126.24 23.66C126.82 24.24 127.54 24.74 127.99 25.10L131.09 24.07C131.59 23.23 132.77 20.16 133.13 18.43L131.59 15.22C129.98 15.31 128.54 15.34 127.22 15.34C127.27 14.62 127.34 13.90 127.39 13.18C129 13.15 130.75 13.15 132.50 13.18C132.86 16.42 133.37 18.98 134.09 21.02C133.46 21.58 132.77 22.13 132 22.66L134.54 26.02C135.05 25.68 135.55 25.27 136.06 24.84C136.66 25.58 137.33 26.21 138.07 26.74L141.55 25.34L142.68 23.23L139.80 21.38ZM129.19 18.96C129.02 19.99 128.52 21.34 127.99 21.84C127.99 21.84 127.66 21.67 127.32 21.34L126.50 22.08C126.65 21.05 126.77 20.04 126.89 19.03C127.70 19.03 128.52 19.03 129.19 18.96ZM165.46 16.20C165.10 16.13 164.57 16.08 163.94 16.06C163.94 15.36 163.92 14.64 163.92 13.92L165.26 13.90L165.26 9.41L163.78 9.48C163.75 8.71 163.73 7.97 163.68 7.30L159.48 7.49C159.46 7.82 159.48 8.62 159.53 9.70L153.82 9.98L153.82 14.14L159.74 14.02C159.77 14.71 159.79 15.43 159.84 16.13C158.81 16.22 157.85 16.37 157.03 16.63C153.36 17.81 153.53 21.53 154.92 24C156.82 27.31 163.94 26.30 163.99 22.03C163.99 21.74 163.99 21.17 163.99 20.40L165.46 20.74ZM151.18 20.35C150.79 17.59 151.10 12.29 151.54 8.35L146.86 8.45C146.23 14.33 146.66 21.65 147.55 24.62L151.58 25.80L154.37 23.66L152.26 19.75ZM158.28 20.66C158.62 20.33 159.19 20.14 159.91 20.06C159.89 20.90 159.84 21.50 159.72 21.72C159.10 22.94 157.32 21.72 158.28 20.66ZM189.98 22.15C189.60 21.67 188.66 20.81 187.63 20.02L187.63 19.99L187.61 19.99C187.13 19.61 186.60 19.22 186.12 18.91L184.18 19.90L181.90 19.90C184.03 18.86 186.02 17.86 186.98 17.33L184.15 15.34C183.29 15.74 181.58 16.63 179.66 17.59C179.40 17.40 179.16 17.23 179.02 17.11C180.10 16.66 181.68 15.74 183.05 14.88L181.90 13.97C183.96 13.94 185.74 13.92 186.43 13.90C186.48 14.47 186.29 15.67 186.10 16.58L189.14 16.90C189.82 15.86 190.03 14.02 190.32 12.89L189.05 10.68C188.66 10.73 185.57 10.80 182.11 10.82L182.11 9.96C184.97 9.94 187.66 9.96 189.41 10.01L189.41 6.96C188.06 6.91 185.23 6.89 182.11 6.91L182.11 5.45L177.43 5.52L177.48 6.94C174.58 6.96 171.94 7.01 170.59 7.08L170.88 10.10C172.32 10.06 174.82 10.01 177.58 9.98L177.60 10.85C176.02 10.85 174.60 10.85 173.62 10.82C173.59 10.66 173.54 10.51 173.52 10.39L170.26 10.46C170.26 12.65 170.33 15.07 169.68 16.49L173.52 16.66C173.66 16.15 173.76 15.12 173.76 14.02C174.91 14.02 176.47 14.02 178.13 13.99C176.76 14.78 175.25 15.67 173.95 16.37L173.35 17.59C174.26 18.02 175.32 18.67 176.28 19.22C175.66 19.51 175.08 19.80 174.50 20.04C173.33 20.06 172.18 20.11 171.17 20.16L171.58 22.92L172.68 22.92C172.30 23.30 172.08 23.81 172.08 24.38C172.08 25.56 173.04 26.52 174.22 26.52C175.39 26.52 176.35 25.56 176.35 24.38C176.35 23.78 176.11 23.26 175.70 22.85C176.38 22.85 177.10 22.82 177.82 22.82L177.82 26.42L182.14 26.42L181.97 22.75C182.64 22.73 183.31 22.73 183.96 22.73L182.16 23.64C182.78 24.17 184.03 25.13 184.87 26.40L188.40 25.08C187.39 24.19 186.62 23.35 185.66 22.73L186.53 22.73C186.72 22.94 186.91 23.18 187.08 23.42ZM214.34 16.03C213.29 15.94 210.79 15.89 207.91 15.86C207.43 14.83 206.76 13.94 205.87 13.27L211.22 10.44L210.36 6.19L195.43 6.65L195.53 11.14L202.20 10.68L200.35 12.34L200.06 14.78C200.86 15 201.53 15.38 202.06 15.89C198.31 15.91 194.90 16.01 193.68 16.15L194.06 21.07C196.01 20.95 199.39 20.90 202.90 20.95C202.51 21.53 201.94 21.98 201.12 22.25L199.70 21.96L199.03 26.02L202.37 26.81L204.82 26.33C206.95 25.22 208.15 23.21 208.54 21.02C210.82 21.07 212.81 21.14 214.03 21.22ZM232.68 12.26L232.75 11.95L230.69 11.66C231.14 10.78 231.50 9.84 231.79 8.90L229.87 6.34L225.77 6.34L225.84 6.02L222.31 5.52C221.83 7.80 220.15 10.82 218.66 13.10L221.26 15.17C221.69 14.64 222.14 14.04 222.58 13.39C222.77 14.11 223.39 14.64 224.16 14.69C222.26 16.42 219.79 18.10 217.37 19.30L219.77 21.74C223.01 20.38 225.84 18.24 228 15.70C227.28 17.14 226.27 18.41 225.17 19.54L227.78 21.62C228.19 21.14 228.60 20.57 229.01 19.97C229.18 20.47 229.54 20.88 230.02 21.07C228.12 22.49 225.84 23.86 223.70 24.89L226.03 27.74C232.51 25.20 237.05 20.54 238.63 15.22L236.78 12.26ZM226.03 12.67C225.94 11.81 225.19 11.14 224.28 11.14C224.14 11.14 224.02 11.16 223.90 11.18C224.04 10.92 224.16 10.68 224.28 10.42L227.30 10.34C227.14 11.04 226.70 11.86 226.03 12.67ZM232.44 19.01C232.25 18.24 231.55 17.66 230.71 17.66C230.62 17.66 230.52 17.66 230.42 17.69C230.69 17.26 230.90 16.82 231.14 16.37L234.22 16.30C234.02 17.14 233.38 18.05 232.44 19.01ZM261.84 6.50C258.50 6.34 245.74 6.41 242.16 6.62L242.45 10.61C243.79 10.54 246.05 10.49 248.59 10.46C248.26 10.90 247.92 11.30 247.56 11.71C247.08 11.71 246.62 11.71 246.19 11.74L246.19 11.30L242.18 11.40C242.09 13.92 242.30 23.71 242.59 26.40L246.58 26.26C246.58 26.16 246.55 26.04 246.55 25.92C249.72 25.82 253.90 25.80 257.16 25.85C257.16 25.97 257.14 26.09 257.14 26.21L261.02 26.21C261.43 23.33 261.77 15.82 261.84 14.35L258.96 11.66C257.59 11.71 255.22 11.71 252.70 11.71C252.98 11.30 253.25 10.90 253.54 10.44C256.80 10.42 259.92 10.44 261.84 10.51ZM257.45 21.82L256.06 21.82C256.10 19.82 256.13 17.38 256.10 15.46C256.80 15.46 257.38 15.43 257.76 15.43C257.76 16.82 257.59 19.44 257.45 21.82ZM253.13 16.32C252.36 16.32 251.52 16.32 250.73 16.34L250.73 15.48C251.52 15.48 252.34 15.48 253.13 15.48ZM246.19 15.50L247.75 15.50C247.78 17.42 247.87 19.90 247.97 21.89C247.42 21.89 246.86 21.91 246.34 21.91C246.26 19.90 246.22 17.57 246.19 15.50ZM253.10 19.08C252.38 19.08 251.59 19.08 250.82 19.10C250.82 18.89 250.82 18.65 250.80 18.43C251.54 18.43 252.36 18.43 253.10 18.43ZM250.92 21.19L253.06 21.19C253.06 21.41 253.06 21.62 253.03 21.82C252.36 21.84 251.66 21.84 250.97 21.84C250.94 21.62 250.94 21.41 250.92 21.19ZM286.32 24.58C285.14 24.05 283.97 23.42 282.94 22.78C283.10 22.82 283.30 22.85 283.49 22.85C284.50 22.85 285.31 22.03 285.31 21.02C285.31 20.40 285 19.87 284.54 19.54C285.19 19.56 285.77 19.56 286.25 19.58L286.25 16.42C284.86 16.32 281.04 16.32 277.92 16.39L277.92 15.70C280.08 15.62 283.20 15.60 284.71 15.70L284.71 13.08C283.58 13.01 280.18 13.01 277.87 13.08C277.87 12.89 277.87 12.72 277.85 12.53C280.03 12.46 283.18 12.43 284.71 12.53L284.71 9.91C283.58 9.84 280.18 9.84 277.85 9.91L277.85 9.26C280.42 9.19 283.70 9.22 285.41 9.29L285.41 6.22C283.58 6.07 276.84 6.19 274.87 6.34L275.04 9.38C275.14 9.38 275.23 9.36 275.35 9.36C275.33 11.47 275.38 14.57 275.42 16.46L273.94 16.54L273.98 17.21L273.70 16.58C272.45 16.51 269.71 16.42 268.66 16.51C268.68 16.32 268.70 16.10 268.73 15.91L270.41 15.84C270.41 15.91 270.38 15.96 270.38 16.03L273.31 16.03C273.60 14.42 273.82 10.34 273.91 8.47L273.07 6.34C272.14 6.34 267.10 6.67 266.02 6.67L266.30 10.94C267.22 10.87 269.98 10.73 270.82 10.78C270.79 11.11 270.77 11.57 270.74 12.10L269.16 12.17C269.16 11.98 269.18 11.76 269.21 11.57L266.23 11.59C266.11 13.06 265.75 16.61 265.68 18.36L266.83 20.81C267.55 20.64 269.76 20.62 270.72 20.71C270.58 21.48 270.46 22.22 270.26 22.80L269.42 22.49L268.58 25.78L270.86 26.71L272.83 25.73C273.29 24.12 273.79 21.67 274.10 19.58L274.10 19.68C274.42 19.66 274.78 19.63 275.21 19.63L275.26 25.94L276.60 26.64L279.94 25.58L279.36 23.47C280.75 24.70 282.55 25.99 284.52 26.69ZM277.94 21.50L277.94 19.56C279.38 19.54 280.97 19.51 282.43 19.51C281.95 19.85 281.64 20.40 281.64 21.02C281.64 21.46 281.78 21.86 282.05 22.18C281.09 21.48 280.25 20.78 279.65 20.09ZM277.94 22.15C278.28 22.49 278.69 22.90 279.14 23.28L277.92 23.71ZM306.72 20.02C304.34 20.35 299.33 20.66 298.90 18.36C298.46 16.06 304.03 13.85 306.91 12.96L305.95 7.13C303.94 7.13 293.30 7.80 290.71 8.21L291.05 12.98C294.70 12.77 295.78 12.58 299.28 12.17C295.34 14.16 293.64 16.34 294.19 19.82C295.03 25.13 302.81 25.54 307.10 25.03ZM308.66 17.33C309.34 16.78 309.43 15.79 308.88 15.12C308.35 14.45 307.37 14.33 306.70 14.88C306 15.43 305.90 16.42 306.46 17.09C306.98 17.76 307.99 17.86 308.66 17.33ZM303.74 18.65C304.78 18.65 305.62 17.81 305.62 16.78C305.62 15.74 304.78 14.90 303.74 14.90C302.71 14.90 301.87 15.74 301.87 16.78C301.87 17.81 302.71 18.65 303.74 18.65ZM326.59 20.28L327.77 6.58L320.09 6.86L321.62 20.52ZM324.07 26.50C325.56 26.50 326.78 25.27 326.78 23.76C326.78 22.27 325.56 21.05 324.07 21.05C322.56 21.05 321.34 22.27 321.34 23.76C321.34 25.27 322.56 26.50 324.07 26.50Z" transform="translate(0, 0)" />
</svg>