<svg xmlns="http://www.w3.org/2000/svg" viewBox="0 0 72 28.8">
  <path d="M14.26 24.41L14.02 13.66L17.47 13.73C15.60 10.46 14.57 8.64 12.19 5.14C9.74 8.33 8.18 10.66 6.41 13.49L9.91 13.56L9.62 24.41ZM45.70 5.71C42.62 5.59 31.39 5.66 28.10 5.83L28.39 9.05C31.82 8.88 41.59 8.81 45.70 8.93ZM40.90 20.86C42.58 20.86 44.11 20.86 45.14 20.88L44.93 17.88L40.27 17.88C40.34 17.33 40.37 16.73 40.37 16.13L36.26 15.96C36.26 16.68 36.24 17.33 36.17 17.90C34.51 17.93 33.07 17.95 32.23 18L32.11 20.93C32.88 20.90 34.01 20.88 35.28 20.88C34.51 22.13 33.17 22.99 31.06 24.24C31.78 21.82 32.04 18.67 32.23 15.86C34.87 15.79 38.38 15.77 41.04 15.79C41.02 15.86 40.99 15.94 40.99 15.98L45.05 15.98C45.43 14.16 45.86 12.70 45.98 11.62L43.51 9.12C40.32 9.36 32.90 9.41 30.12 9.38L27.84 11.81C27.84 16.46 27.26 21.82 26.02 25.54L30.41 25.99C30.60 25.58 30.79 25.10 30.96 24.62L33.26 26.74C35.38 25.78 37.01 24.58 38.16 23.11C39.53 24.62 41.40 25.80 43.54 26.76L45.98 24.43C44.06 23.71 42.12 22.51 40.90 20.86ZM41.54 12.22C41.54 12.46 41.52 12.72 41.52 12.96C39.05 12.94 35.28 12.96 32.45 13.01C32.45 12.74 32.47 12.50 32.50 12.26C35.30 12.26 39.96 12.22 41.54 12.22ZM64.61 7.54C64.56 6.91 64.51 6.31 64.49 5.74L59.50 6.02C59.57 6.58 59.64 7.10 59.69 7.63L51.38 7.82L51.38 12.53L60.14 12.29C60.17 12.62 60.19 12.94 60.19 13.22C59.54 12.94 58.85 12.77 58.13 12.77C55.80 12.77 51.74 14.64 52.34 18.86C52.85 22.46 57.50 25.20 61.08 23.16C61.13 24.14 61.13 25.10 61.08 25.94L66.36 25.37C66.36 23.18 65.69 20.35 64.46 17.95C64.87 16.18 64.94 14.18 64.90 12.17L68.88 12.07L68.88 7.44ZM58.13 19.30C55.97 19.30 56.45 16.54 58.20 16.78C58.87 16.87 59.38 17.28 59.78 17.88C59.47 18.79 58.94 19.30 58.13 19.30Z" transform="translate(0, 0)" />
</svg>