<svg xmlns="http://www.w3.org/2000/svg" viewBox="0 0 96 28.8">
  <path d="M12.26 24.55C14.64 21.05 15.67 19.22 17.54 15.96L14.09 16.03L14.33 5.28L9.70 5.28L9.98 16.13L6.48 16.20C8.26 19.03 9.82 21.36 12.26 24.55ZM36.77 12.86C35.71 10.01 34.56 7.94 33.48 6.24L30.14 7.94C30.94 9.48 32.30 11.76 33.14 14.45ZM31.13 25.94C39.43 23.83 46.39 18 46.39 8.33L41.14 8.02C40.39 15.55 37.32 19.32 29.16 21.17ZM32.23 14.95C31.18 12.10 30.02 10.03 28.94 8.33L25.61 10.03C26.40 11.57 27.77 13.85 28.61 16.54ZM68.62 20.93C62.74 21.77 61.42 20.90 61.25 18.02L68.78 18.02L68.78 13.20L61.22 13.37L61.22 12.10L67.75 12.10L67.75 7.25L51.02 7.68L51.02 12.10L56.45 12.10L56.45 13.49L49.99 13.63L49.99 18.02L56.42 18.02C56.40 18.74 56.40 19.37 56.40 19.80C56.38 23.71 59.76 27.34 68.95 25.97ZM83.23 26.74C89.26 26.74 91.87 23.71 91.49 20.06C91.03 15.98 87.36 14.11 83.45 14.06C85.51 13.01 88.10 11.33 90.12 9.38L88.15 6.65C85.51 6.96 80.04 7.10 76.27 7.10L76.22 10.80C77.66 10.92 79.75 10.94 82.46 10.75C80.40 12.07 79.61 12.50 78.12 13.10L78.84 17.52C81.82 17.50 87.14 17.40 87.36 19.97C87.55 22.32 85.56 23.04 83.45 22.99C82.37 22.97 80.11 22.85 80.23 22.15C80.40 21.19 82.66 21.77 85.06 22.85L86.57 19.49C81.43 16.85 76.80 17.47 76.10 21.26C75.58 24.14 77.69 26.74 83.23 26.74Z" transform="translate(0, 0)" />
</svg>