<svg xmlns="http://www.w3.org/2000/svg" viewBox="0 0 360 28.8">
  <path d="M23.52 5.90C22.80 5.95 17.98 5.93 17.11 5.86L15.02 8.69C14.90 10.20 15.22 16.85 15.34 18.17L18.89 18.17C18.96 15.79 18.82 12.10 18.89 10.01C20.69 10.01 22.06 9.96 23.52 9.91ZM46.61 7.20C45.62 7.13 42.89 7.15 40.63 7.20C40.70 6.82 40.78 6.43 40.82 6.05L37.34 5.47C37.15 6.67 36.91 7.73 36.55 8.81L36.55 7.10C35.54 7.03 32.83 7.06 30.58 7.10C30.65 6.72 30.72 6.34 30.77 5.95L27.26 5.38C26.95 7.49 26.47 9.17 25.39 11.28L28.85 11.83C29.30 11.16 29.64 10.49 29.88 9.82C30.29 9.82 30.72 9.82 31.15 9.79C31.44 10.58 31.80 11.52 31.94 12.36L35.23 11.78C35.04 10.94 34.82 10.32 34.61 9.79C35.18 9.79 35.71 9.79 36.17 9.82C35.95 10.32 35.74 10.82 35.45 11.38L38.90 11.93C39.36 11.26 39.70 10.61 39.94 9.94C40.46 9.91 41.02 9.91 41.57 9.89C41.21 10.49 40.78 11.11 40.22 11.78L42.19 12.53C39.62 12.58 34.10 12.67 31.27 12.86L31.27 12.34L27.17 12.34C27.17 15.41 26.98 23.14 27.38 26.35L31.27 26.18C31.13 24.65 31.18 19.99 31.22 16.32C34.06 16.18 40.20 16.08 41.95 16.08C41.95 17.09 41.95 21.38 41.47 23.42L40.82 23.26C41.04 22.13 41.28 20.18 41.28 19.90L40.39 18.94C39.48 18.86 37.10 18.91 35.16 18.96L35.16 18.89L32.11 19.03C32.11 19.99 32.14 23.04 32.45 24.05L35.16 23.98C35.16 23.93 35.14 23.88 35.14 23.83C36.02 23.83 37.06 23.81 37.97 23.83C37.97 23.88 37.97 23.93 37.94 23.98L40.61 23.98L40.15 25.73C41.30 26.23 41.47 26.18 42.67 26.71L45.26 25.51C45.77 23.33 45.96 15.24 45.96 13.70L43.56 12.60C44.33 11.74 44.83 10.68 45.17 9.89C45.72 9.89 46.22 9.91 46.61 9.94ZM41.64 16.51C39.96 16.44 33.62 16.49 31.75 16.61L31.90 18.74C33.84 18.62 39.34 18.58 41.64 18.67ZM35.06 21.84L35.06 20.98C36.43 20.93 37.75 20.93 38.28 20.90C38.26 21.07 38.23 21.41 38.18 21.77C37.20 21.79 36.05 21.79 35.06 21.84ZM70.34 16.03C69.29 15.94 66.79 15.89 63.91 15.86C63.43 14.83 62.76 13.94 61.87 13.27L67.22 10.44L66.36 6.19L51.43 6.65L51.53 11.14L58.20 10.68L56.35 12.34L56.06 14.78C56.86 15 57.53 15.38 58.06 15.89C54.31 15.91 50.90 16.01 49.68 16.15L50.06 21.07C52.01 20.95 55.39 20.90 58.90 20.95C58.51 21.53 57.94 21.98 57.12 22.25L55.70 21.96L55.03 26.02L58.37 26.81L60.82 26.33C62.95 25.22 64.15 23.21 64.54 21.02C66.82 21.07 68.81 21.14 70.03 21.22ZM72.48 27.38C73.20 27.34 78.02 27.36 78.89 27.43L80.98 24.60C81.10 23.09 80.78 16.44 80.66 15.12L77.11 15.12C77.04 17.50 77.18 21.19 77.11 23.28C75.31 23.28 73.94 23.33 72.48 23.38ZM115.32 25.85C121.03 19.97 117.86 8.83 108.43 8.11C104.69 7.82 99.50 10.66 98.23 15.02C96.96 19.39 98.64 25.10 103.10 25.44C108.94 25.85 110.06 18.86 110.35 13.99L106.22 13.32C106.01 16.87 105.65 21.12 103.32 20.40C100.73 19.58 103.08 12.58 108.29 12.58C113.09 12.58 116.02 19.18 111.55 23.86ZM124.73 6.70L125.26 25.97L129.86 25.97L129.86 17.98C131.86 18.65 134.83 19.68 138 21.07L139.80 17.06C136.06 15.50 133.13 14.18 129.86 13.01L129.86 6.62ZM134.45 10.92C135.53 10.92 136.39 10.06 136.39 8.98C136.39 7.92 135.53 7.03 134.45 7.03C133.39 7.03 132.53 7.92 132.53 8.98C132.53 10.06 133.39 10.92 134.45 10.92ZM139.15 11.59C139.90 11.09 140.11 10.10 139.63 9.36C139.15 8.59 138.14 8.40 137.40 8.88C136.66 9.36 136.44 10.37 136.92 11.11C137.42 11.86 138.41 12.07 139.15 11.59ZM163.68 11.62L163.58 7.01L148.30 7.06L148.30 11.69ZM154.20 27.26C160.08 23.93 162.62 20.95 164.83 17.28L164.40 12.36C162.43 12.67 149.42 12.74 147.14 12.67L147.14 17.42C150.96 17.57 154.70 17.42 158.62 17.16C156.48 19.63 154.68 21 151.03 23.33ZM180.17 18C181.44 18 182.50 16.97 182.50 15.67C182.50 14.38 181.44 13.34 180.17 13.34C178.87 13.34 177.84 14.38 177.84 15.67C177.84 16.97 178.87 18 180.17 18ZM214.49 21.91C214.20 21.02 213.77 19.66 213.24 18.89L212.38 19.85C212.42 20.02 212.50 20.18 212.54 20.35C212.23 20.42 211.94 20.54 211.56 20.66C211.97 19.85 212.26 19.49 212.64 18.72L213.05 18.74C213.22 17.47 213.55 10.92 213.38 9.67L212.23 7.63L211.03 7.66C211.22 7.49 211.42 7.30 211.58 7.13L209.50 4.80C208.30 6.14 207.26 6.96 205.94 7.78L203.18 7.82L202.30 8.90C202.39 11.30 202.51 17.04 202.54 18.89L204.70 18.82C204.46 21.31 203.90 22.61 202.08 23.18C201.77 21.53 201.36 19.75 200.50 16.78L198.02 18.29C198.26 19.06 198.50 19.94 198.72 20.86C198.12 21.07 197.54 21.29 196.97 21.53C197.42 19.66 198 18.17 198.55 16.46C199.97 16.46 201.31 16.46 202.18 16.54L202.18 12.98C200.64 12.84 195.12 12.94 193.49 13.10L193.63 16.66C194.11 16.61 194.83 16.56 195.67 16.54C194.88 19.03 194.02 21.70 193.87 22.80L195.22 25.82C196.87 25.06 198.14 24.53 199.39 24.10C199.51 24.65 199.61 25.20 199.70 25.70L202.37 24.89L202.73 27C205.20 26.11 206.78 24.53 207.29 18.38L207.43 18.38C207.43 25.22 207.91 27.22 213.19 27L213.84 25.03L213.79 22.85L213.46 22.85ZM201.60 8.42C200.30 8.28 195.50 8.38 194.09 8.57L194.18 12.10C195.65 11.90 199.85 11.83 201.60 11.98ZM210.86 10.97L210.86 11.71C210.36 11.69 209.76 11.66 209.14 11.66L209.14 11.02ZM206.59 11.66C205.99 11.69 205.42 11.69 204.89 11.71C204.86 11.52 204.86 11.30 204.86 11.11L206.59 11.06ZM204.94 14.69C205.46 14.66 206.06 14.66 206.69 14.66L206.71 15.38C206.09 15.38 205.49 15.41 204.94 15.41ZM209.06 14.69L210.82 14.69C210.82 14.95 210.82 15.19 210.79 15.43C210.31 15.41 209.71 15.38 209.06 15.38ZM210.74 18.41L210.74 18.67L210.79 18.67L209.93 20.23C209.93 19.70 209.93 19.10 209.93 18.41ZM211.92 23.47C211.18 23.59 210.72 23.45 210.41 23.04C211.51 22.70 212.33 22.54 213.19 22.37L213.31 22.85L211.92 22.85ZM235.37 18.31C235.49 18.31 235.61 18.31 235.73 18.31L235.73 18.53L238.15 18.60C238.30 17.45 238.63 11.47 238.49 10.32L237.29 8.47L233.88 8.54C234.26 7.90 234.62 7.20 235.13 6.43L232.15 5.35C231.46 6.67 230.83 7.66 230.11 8.62L228.02 8.66L227.09 9.62C227.18 11.83 227.30 17.04 227.35 18.74L229.68 18.67C229.68 18.55 229.68 18.43 229.68 18.29L229.92 18.29C229.73 18.91 229.44 19.42 229.10 19.87C228.24 19.90 227.50 19.92 227.02 19.97L227.18 23.30C228.29 23.23 230.40 23.16 232.56 23.14C232.56 24.24 232.58 25.30 232.66 26.26L235.42 26.26C235.44 25.49 235.44 24.36 235.44 23.14C236.64 23.14 237.74 23.16 238.51 23.18L238.51 19.85C237.89 19.80 236.74 19.78 235.39 19.78C235.39 19.27 235.37 18.77 235.37 18.31ZM225.48 16.25C224.74 16.32 223.58 16.32 222.48 16.32L222.55 15.12C224.14 15.07 226.03 15.07 227.02 15.17L227.02 10.80C226.75 10.75 226.34 10.73 225.82 10.73L225.82 6.17L223.10 6.26L223.18 10.75L222.65 10.75C222.67 9.36 222.67 7.92 222.70 6.46L219.48 6.38C219.48 14.28 220.08 20.16 217.46 23.98L219.89 26.42C220.97 25.15 221.62 23.30 222 21C222.55 20.95 223.10 20.90 223.58 20.88C223.56 22.10 223.63 23.74 223.58 26.35L226.46 26.35C226.54 23.93 226.56 21.14 226.54 19.39ZM235.87 12.19C235.34 12.17 234.74 12.14 234.12 12.14L234.12 11.54L235.87 11.52ZM231.50 11.59L231.53 12.17C230.83 12.17 230.18 12.19 229.61 12.22C229.58 12.02 229.58 11.83 229.58 11.64ZM229.66 14.93C230.23 14.90 230.90 14.90 231.60 14.90L231.62 15.55C230.95 15.55 230.28 15.58 229.66 15.60ZM234.05 14.90L235.82 14.90C235.80 15.14 235.80 15.36 235.80 15.58C235.30 15.58 234.70 15.55 234.05 15.55ZM232.51 18.29L232.56 18.29C232.56 18.77 232.56 19.27 232.56 19.80L231.96 19.80C232.18 19.34 232.34 18.84 232.51 18.29ZM257.45 10.20C258.48 10.20 259.32 9.36 259.32 8.30C259.32 7.27 258.48 6.43 257.45 6.43C256.42 6.43 255.58 7.27 255.58 8.30C255.58 9.36 256.42 10.20 257.45 10.20ZM253.70 12.12C252.91 11.76 252 11.47 250.94 11.28C251.40 9.89 251.81 8.74 252.07 8.16L246.70 7.58C246.43 8.28 246.05 9.55 245.62 11.06C244.27 11.14 242.76 11.30 241.13 11.57L241.44 16.90C242.45 16.73 243.38 16.61 244.25 16.51C243.77 18.55 243.43 20.28 243.43 20.86L247.75 22.18C248.04 21 248.62 18.89 249.29 16.61C252.14 17.35 252.26 19.87 248.88 25.46L254.42 26.54C256.46 22.87 257.52 19.51 257.23 16.87C256.03 15.53 254.66 13.70 253.70 12.12ZM260.52 12.41C261.24 12.41 261.89 11.90 262.06 11.16C262.25 10.25 261.60 9.29 260.52 9.29C259.80 9.29 259.15 9.79 258.98 10.54C258.79 11.45 259.46 12.41 260.52 12.41ZM260.59 12.86C259.20 12.86 258.29 11.74 258.55 10.37C257.54 10.87 256.44 10.68 255.72 9.89L253.82 11.45C255.26 13.94 257.28 16.42 258.82 17.88L262.80 15.48C262.32 15 261.50 13.99 260.59 12.86ZM286.49 24.50C285.89 23.50 284.90 22.06 283.80 20.95C284.64 20.98 285.38 20.98 286.01 21L286.01 17.54C285.46 17.52 284.64 17.50 283.68 17.50C283.73 17.04 283.75 16.51 283.80 15.96C284.50 15.96 285.12 15.96 285.67 15.98L285.67 12.91C285.24 12.89 284.69 12.89 284.02 12.86L284.09 10.97C284.57 10.97 285 10.99 285.38 10.99L285.38 7.54C282.96 7.42 275.52 7.46 270.86 7.58C271.01 7.01 271.10 6.46 271.20 5.88L268.10 5.14C267.70 7.73 266.71 11.21 265.22 13.30L266.95 14.14L267.12 16.08L269.78 16.01C269.81 16.56 269.83 17.09 269.88 17.57C268.39 17.59 267.17 17.62 266.38 17.66L266.66 21.12C268.32 21.05 271.30 21 274.49 20.98L271.92 22.39C272.66 23.90 273.50 25.39 273.89 26.93L277.32 25.37C276.74 24.10 275.78 22.20 274.58 20.95L278.71 20.95L276.46 22.20C277.18 23.76 278.02 25.22 278.38 26.76L281.81 25.18C281.28 23.98 280.34 22.18 279.26 20.95C280.37 20.93 281.42 20.95 282.43 20.95L280.75 22.18C281.69 23.62 282.72 24.98 283.30 26.45ZM281.18 12.86L280.25 12.86C280.25 12.14 280.22 11.50 280.22 10.94L281.28 10.94C281.26 11.52 281.23 12.17 281.18 12.86ZM276.22 10.94L277.42 10.94C277.42 11.52 277.44 12.17 277.44 12.86L276.19 12.86C276.19 12.17 276.22 11.52 276.22 10.94ZM273.38 12.89C273.07 12.89 272.76 12.89 272.45 12.91C272.42 12.22 272.40 11.57 272.40 10.99C272.71 10.99 273.05 10.99 273.41 10.97C273.38 11.52 273.38 12.17 273.38 12.89ZM269.11 12.96C269.28 12.58 269.45 12.17 269.59 11.76C269.62 12.14 269.62 12.53 269.64 12.94C269.45 12.96 269.28 12.96 269.11 12.96ZM280.87 17.47L280.15 17.47C280.18 17.02 280.18 16.49 280.20 15.94L280.99 15.94C280.97 16.49 280.92 17.02 280.87 17.47ZM277.39 15.94C277.39 16.49 277.37 17.02 277.34 17.47C276.98 17.47 276.62 17.50 276.26 17.50C276.26 17.02 276.24 16.49 276.24 15.94ZM272.57 15.96L273.43 15.96C273.43 16.51 273.46 17.04 273.48 17.52L272.69 17.52C272.64 17.06 272.62 16.54 272.57 15.96ZM268.87 21.70C267.50 21.70 266.38 22.82 266.38 24.22C266.38 25.58 267.50 26.71 268.87 26.71C270.24 26.71 271.37 25.58 271.37 24.22C271.37 22.82 270.24 21.70 268.87 21.70ZM305.88 8.69C305.95 7.56 306.05 6.46 306.12 5.38L302.83 5.28C302.81 6.43 302.78 7.61 302.74 8.78L300.60 8.86L300.58 13.34C300.10 12.77 299.50 12.07 298.87 11.45L300.38 11.52L300.38 7.54C299.78 7.49 298.66 7.44 297.36 7.44L297.53 5.40L293.71 5.40L293.81 7.51C292.44 7.54 291.26 7.61 290.62 7.68L290.78 11.64L291.62 11.57C290.78 12.43 290.02 13.37 289.49 14.02L291.36 17.18C291.48 16.97 291.62 16.75 291.79 16.54C292.15 17.76 292.68 18.98 293.28 20.16C292.42 21.22 291.43 22.25 290.28 23.23L292.06 25.97C293.04 25.39 294.12 24.38 295.15 23.11C296.23 24.53 297.38 25.66 298.39 26.26L300.19 23.52C298.97 22.46 297.94 21.43 297.05 20.30C297.72 19.08 298.30 17.74 298.70 16.34C298.87 16.56 299.02 16.78 299.14 16.99L301.13 14.02C301.01 13.87 300.89 13.70 300.74 13.54L302.40 13.54C302.06 16.70 301.42 19.78 300.22 22.49L302.76 25.10C304.32 22.68 305.04 18.24 305.50 13.51L307.08 13.51C307.18 15.89 306.62 19.66 306.34 21.10L305.76 20.59L304.42 24.24L306.05 26.38L308.30 25.85C309.67 22.92 310.34 14.90 310.49 12.05L309.34 8.59ZM296.09 15.07C295.85 15.84 295.54 16.56 295.18 17.26C294.86 16.58 294.60 15.86 294.34 15.07L292.73 15.26C293.47 14.33 294.29 13.39 294.98 12.60L294.43 11.47C294.96 11.45 295.51 11.45 296.06 11.45L295.51 12.41C296.26 13.25 297.14 14.28 297.94 15.29ZM331.63 19.73L331.54 20.66C329.21 20.93 327.84 19.56 327.38 15.29C330.96 14.66 331.68 14.47 333.96 14.21L333.48 9.29C331.51 9.50 330.43 9.72 327.22 10.30C327.24 9.19 327.31 7.97 327.38 6.65L323.11 6.60L320.52 4.82C319.42 7.25 315.79 12.72 313.27 15.41L316.25 18.84C316.49 18.65 316.73 18.41 316.99 18.17C316.94 20.81 316.94 23.88 317.04 26.18L321.34 26.18C321.07 22.54 321.14 16.70 321.36 12.50C321.77 11.93 322.13 11.35 322.49 10.78C322.49 25.10 326.81 26.78 333.74 25.75L334.75 24.12L334.66 19.87ZM341.40 26.33C343.51 26.33 345.29 24.60 345.29 22.46C345.29 20.33 343.51 18.60 341.40 18.60C339.26 18.60 337.49 20.33 337.49 22.46C337.49 24.60 339.26 26.33 341.40 26.33ZM341.40 23.57C340.78 23.57 340.27 23.06 340.27 22.46C340.27 21.89 340.78 21.38 341.40 21.38C342 21.38 342.50 21.89 342.50 22.46C342.50 23.06 342 23.57 341.40 23.57Z" transform="translate(0, 0)" />
</svg>