
    <svg xmlns="http://www.w3.org/2000/svg" viewBox="0 0 24 28.8">
      <path d="M14.30 15.14C14.26 14.59 14.18 14.04 14.09 13.46L16.25 13.37L15.91 8.35L13.03 8.57C12.86 7.94 12.67 7.27 12.46 6.62L7.92 6.79L8.40 8.93L2.88 9.36L2.78 13.92L9.26 13.66C9.29 13.99 9.34 14.30 9.36 14.62C0.34 15.02 0.53 25.46 7.20 26.28C11.16 26.76 13.39 24.62 14.14 20.90C14.66 21.58 15.07 22.54 15.77 23.88L20.88 22.13C18.74 17.88 16.73 15.96 14.30 15.14ZM21.86 12.19L17.26 11.04L16.03 14.81L20.21 16.78ZM7.46 21.74C5.98 20.86 6.65 19.20 9.50 19.25C9.26 21.60 8.45 22.32 7.46 21.74Z" transform="translate(0, 0)" />
    </svg>
  