<svg xmlns="http://www.w3.org/2000/svg" viewBox="0 0 24 28.8">
  <path d="M16.42 15C15.58 13.94 14.83 12.84 14.18 11.78C13.39 11.42 12.48 11.14 11.42 10.94C11.88 9.55 12.29 8.40 12.55 7.82L7.18 7.25C6.91 7.94 6.53 9.22 6.10 10.73C4.75 10.80 3.24 10.97 1.61 11.23L1.92 16.56C2.93 16.39 3.86 16.27 4.73 16.18C4.25 18.22 3.91 19.94 3.91 20.52L8.23 21.84C8.52 20.66 9.12 18.53 9.77 16.27C12.62 17.02 12.74 19.54 9.36 25.13L14.90 26.18C16.94 22.54 18 19.18 17.71 16.54C17.28 16.06 16.85 15.53 16.42 15ZM14.30 11.09C15.74 13.61 17.76 16.08 19.30 17.52L23.26 15.14C22.20 13.99 19.13 10.13 17.76 8.23Z" transform="translate(0, 0)" />
</svg>