
    <svg xmlns="http://www.w3.org/2000/svg" viewBox="0 0 24 28.8">
      <path d="M17.45 10.20C18.48 10.20 19.32 9.36 19.32 8.30C19.32 7.27 18.48 6.43 17.45 6.43C16.42 6.43 15.58 7.27 15.58 8.30C15.58 9.36 16.42 10.20 17.45 10.20ZM13.70 12.12C12.91 11.76 12 11.47 10.94 11.28C11.40 9.89 11.81 8.74 12.07 8.16L6.70 7.58C6.43 8.28 6.05 9.55 5.62 11.06C4.27 11.14 2.76 11.30 1.13 11.57L1.44 16.90C2.45 16.73 3.38 16.61 4.25 16.51C3.77 18.55 3.43 20.28 3.43 20.86L7.75 22.18C8.04 21 8.62 18.89 9.29 16.61C12.14 17.35 12.26 19.87 8.88 25.46L14.42 26.54C16.46 22.87 17.52 19.51 17.23 16.87C16.03 15.53 14.66 13.70 13.70 12.12ZM20.52 12.41C21.24 12.41 21.89 11.90 22.06 11.16C22.25 10.25 21.60 9.29 20.52 9.29C19.80 9.29 19.15 9.79 18.98 10.54C18.79 11.45 19.46 12.41 20.52 12.41ZM20.59 12.86C19.20 12.86 18.29 11.74 18.55 10.37C17.54 10.87 16.44 10.68 15.72 9.89L13.82 11.45C15.26 13.94 17.28 16.42 18.82 17.88L22.80 15.48C22.32 15 21.50 13.99 20.59 12.86Z" transform="translate(0, 0)" />
    </svg>
  