<svg xmlns="http://www.w3.org/2000/svg" viewBox="0 0 24 28.8">
  <path d="M15.70 18.12C14.04 21.70 9.34 21.70 9.19 17.83C9.10 15.26 9.26 9.22 9.34 7.18L4.20 6.79C4.20 9.89 3.89 17.90 4.20 20.62C4.87 26.57 15.62 28.42 19.99 20.93ZM13.90 11.54C14.95 11.54 15.79 10.70 15.79 9.67C15.79 8.64 14.95 7.80 13.90 7.80C12.86 7.80 12.02 8.64 12.02 9.67C12.02 10.70 12.86 11.54 13.90 11.54ZM17.30 12.43C18.14 12.60 18.96 12.05 19.15 11.21C19.32 10.37 18.79 9.53 17.93 9.36C17.09 9.17 16.25 9.72 16.08 10.56C15.91 11.40 16.44 12.24 17.30 12.43Z" transform="translate(0, 0)" />
</svg>