
    <svg xmlns="http://www.w3.org/2000/svg" viewBox="0 0 24 28.8">
      <path d="M16.61 7.54C16.56 6.91 16.51 6.31 16.49 5.74L11.50 6.02C11.57 6.58 11.64 7.10 11.69 7.63L3.38 7.82L3.38 12.53L12.14 12.29C12.17 12.62 12.19 12.94 12.19 13.22C11.54 12.94 10.85 12.77 10.13 12.77C7.80 12.77 3.74 14.64 4.34 18.86C4.85 22.46 9.50 25.20 13.08 23.16C13.13 24.14 13.13 25.10 13.08 25.94L18.36 25.37C18.36 23.18 17.69 20.35 16.46 17.95C16.87 16.18 16.94 14.18 16.90 12.17L20.88 12.07L20.88 7.44ZM10.13 19.30C7.97 19.30 8.45 16.54 10.20 16.78C10.87 16.87 11.38 17.28 11.78 17.88C11.47 18.79 10.94 19.30 10.13 19.30Z" transform="translate(0, 0)" />
    </svg>
  