<svg xmlns="http://www.w3.org/2000/svg" viewBox="0 0 24 28.8">
  <path d="M11.28 17.88C12.91 19.08 13.73 19.61 15.12 20.16L18.96 18.41C19.08 17.88 19.18 16.42 19.25 14.74L21.94 14.66L21.94 10.13L19.42 10.18C19.44 9.17 19.44 8.28 19.44 7.70L14.90 7.34C14.93 8.04 14.90 9.10 14.86 10.27L9.62 10.37C9.70 9.22 9.74 8.28 9.82 7.68L4.85 7.68C4.75 8.40 4.70 9.38 4.66 10.46L2.09 10.51L2.09 15.22L4.68 15.14C4.75 17.23 4.92 19.20 5.18 20.45C6.22 25.70 13.92 26.35 20.52 24.82L20.09 20.28C16.82 20.54 9.74 21.58 9.67 18.96C9.58 17.88 9.53 16.46 9.53 15L14.64 14.86C14.62 15.29 14.59 15.67 14.59 16.01L13.39 15.22Z" transform="translate(0, 0)" />
</svg>