
    <svg xmlns="http://www.w3.org/2000/svg" viewBox="0 0 24 28.8">
      <path d="M18 21.05C15.26 21.10 11.38 21.36 11.23 19.97C11.04 18.41 17.35 18.72 19.75 18.41L19.27 13.87C17.35 14.04 14.74 14.21 11.54 14.21C15.12 12.98 16.10 12.38 19.01 11.38L18 6.22C15.29 6.22 7.27 6.79 4.27 6.94L4.27 11.11C7.51 10.99 9.07 10.87 11.23 10.63C8.76 11.76 6.05 12.60 4.27 13.18L4.56 17.47C6.41 17.42 6.79 17.26 9.05 17.21C8.26 17.86 5.83 18.82 6.24 21.48C6.77 24.89 14.23 26.04 18 25.63Z" transform="translate(0, 0)" />
    </svg>
  