
    <svg xmlns="http://www.w3.org/2000/svg" viewBox="0 0 168 28.8">
      <path d="M18 21.05C15.26 21.10 11.38 21.36 11.23 19.97C11.04 18.41 17.35 18.72 19.75 18.41L19.27 13.87C17.35 14.04 14.74 14.21 11.54 14.21C15.12 12.98 16.10 12.38 19.01 11.38L18 6.22C15.29 6.22 7.27 6.79 4.27 6.94L4.27 11.11C7.51 10.99 9.07 10.87 11.23 10.63C8.76 11.76 6.05 12.60 4.27 13.18L4.56 17.47C6.41 17.42 6.79 17.26 9.05 17.21C8.26 17.86 5.83 18.82 6.24 21.48C6.77 24.89 14.23 26.04 18 25.63ZM43.32 25.85C49.03 19.97 45.86 8.83 36.43 8.11C32.69 7.82 27.50 10.66 26.23 15.02C24.96 19.39 26.64 25.10 31.10 25.44C36.94 25.85 38.06 18.86 38.35 13.99L34.22 13.32C34.01 16.87 33.65 21.12 31.32 20.40C28.73 19.58 31.08 12.58 36.29 12.58C41.09 12.58 44.02 19.18 39.55 23.86ZM67.30 21.60C63.48 22.61 62.23 19.99 61.94 15.98C62.23 15.86 62.52 15.74 62.81 15.65C62.74 17.18 62.69 18.48 62.62 19.06L66.05 19.06C66.19 18.29 66.34 16.42 66.43 14.28C66.94 14.11 67.37 13.97 67.66 13.90C67.66 13.90 67.49 14.62 67.32 15.55L67.01 15.31L66.22 17.69C66.70 18.17 67.18 18.89 67.66 19.34L69.10 19.34C69.72 17.93 70.51 14.38 70.85 11.52L68.76 8.21C68.52 8.26 67.75 8.54 66.67 8.90C66.72 7.49 66.79 6.29 66.84 5.62L63.02 6.10C63.02 6.70 63 8.33 62.95 10.25L61.99 10.61C62.04 9.50 62.11 8.35 62.18 7.22L58.97 7.61L55.80 5.30C54.79 7.70 51.41 13.13 49.08 15.79L51.84 19.20C52.06 19.01 52.30 18.77 52.54 18.50C52.51 21.12 52.51 24.17 52.58 26.47L56.38 26.47C56.16 22.94 56.21 17.38 56.40 13.25L56.62 12.89L56.93 18.17C57.26 18 57.70 17.78 58.20 17.57C59.18 25.06 62.64 27.50 68.86 26.42L69.74 24.79L70.06 20.88L67.51 20.66ZM56.78 12.62C57.19 12 57.58 11.38 57.91 10.78C57.91 11.26 57.89 11.71 57.89 12.17ZM91.32 25.85C97.03 19.97 93.86 8.83 84.43 8.11C80.69 7.82 75.50 10.66 74.23 15.02C72.96 19.39 74.64 25.10 79.10 25.44C84.94 25.85 86.06 18.86 86.35 13.99L82.22 13.32C82.01 16.87 81.65 21.12 79.32 20.40C76.73 19.58 79.08 12.58 84.29 12.58C89.09 12.58 92.02 19.18 87.55 23.86ZM113.88 8.69C113.95 7.56 114.05 6.46 114.12 5.38L110.83 5.28C110.81 6.43 110.78 7.61 110.74 8.78L108.60 8.86L108.58 13.34C108.10 12.77 107.50 12.07 106.87 11.45L108.38 11.52L108.38 7.54C107.78 7.49 106.66 7.44 105.36 7.44L105.53 5.40L101.71 5.40L101.81 7.51C100.44 7.54 99.26 7.61 98.62 7.68L98.78 11.64L99.62 11.57C98.78 12.43 98.02 13.37 97.49 14.02L99.36 17.18C99.48 16.97 99.62 16.75 99.79 16.54C100.15 17.76 100.68 18.98 101.28 20.16C100.42 21.22 99.43 22.25 98.28 23.23L100.06 25.97C101.04 25.39 102.12 24.38 103.15 23.11C104.23 24.53 105.38 25.66 106.39 26.26L108.19 23.52C106.97 22.46 105.94 21.43 105.05 20.30C105.72 19.08 106.30 17.74 106.70 16.34C106.87 16.56 107.02 16.78 107.14 16.99L109.13 14.02C109.01 13.87 108.89 13.70 108.74 13.54L110.40 13.54C110.06 16.70 109.42 19.78 108.22 22.49L110.76 25.10C112.32 22.68 113.04 18.24 113.50 13.51L115.08 13.51C115.18 15.89 114.62 19.66 114.34 21.10L113.76 20.59L112.42 24.24L114.05 26.38L116.30 25.85C117.67 22.92 118.34 14.90 118.49 12.05L117.34 8.59ZM104.09 15.07C103.85 15.84 103.54 16.56 103.18 17.26C102.86 16.58 102.60 15.86 102.34 15.07L100.73 15.26C101.47 14.33 102.29 13.39 102.98 12.60L102.43 11.47C102.96 11.45 103.51 11.45 104.06 11.45L103.51 12.41C104.26 13.25 105.14 14.28 105.94 15.29ZM141.70 23.14C140.69 22.63 139.13 21.91 137.64 21.14L141.10 21.22L141.10 17.86C139.80 17.81 137.06 17.78 134.04 17.81L134.04 16.94C134.90 16.94 135.70 16.97 136.46 16.99C136.44 17.09 136.44 17.18 136.44 17.28L140.33 17.28C140.54 16.10 141.24 9.05 141.02 7.15L139.42 5.88L124.42 6.07L122.71 6.96C122.93 9.26 123.12 15.77 123.19 17.28L127.15 17.28C127.18 17.18 127.18 17.06 127.20 16.92L129.41 16.92L129.43 17.83C126.58 17.88 124.01 17.93 122.69 18L122.98 21.31C123.77 21.26 124.90 21.24 126.22 21.22C124.78 21.96 123.29 22.66 122.30 23.14L124.61 26.06C126.02 25.46 127.80 24.53 129.50 23.50L129.53 26.09L134.04 26.09L134.04 23.21C135.86 24.36 137.86 25.42 139.37 26.06ZM134.04 9.96L134.04 9.24L136.75 9.22L136.75 9.94ZM129.31 9.98L127.37 10.01L127.37 9.29L129.31 9.26ZM134.04 13.13L136.66 13.10C136.63 13.39 136.61 13.68 136.61 13.97C135.79 13.94 134.93 13.94 134.04 13.92ZM127.34 13.92L127.34 13.15L129.36 13.13L129.36 13.90C128.64 13.90 127.97 13.92 127.34 13.92ZM149.40 26.33C151.51 26.33 153.29 24.60 153.29 22.46C153.29 20.33 151.51 18.60 149.40 18.60C147.26 18.60 145.49 20.33 145.49 22.46C145.49 24.60 147.26 26.33 149.40 26.33ZM149.40 23.57C148.78 23.57 148.27 23.06 148.27 22.46C148.27 21.89 148.78 21.38 149.40 21.38C150 21.38 150.50 21.89 150.50 22.46C150.50 23.06 150 23.57 149.40 23.57Z" transform="translate(0, 0)" />
    </svg>
  