
    <svg xmlns="http://www.w3.org/2000/svg" viewBox="0 0 24 28.8">
      <path d="M14.54 8.76L10.82 8.90C10.94 7.97 11.04 7.10 11.11 6.34L6.67 5.98C6.62 6.70 6.50 7.78 6.31 9.07L3.46 9.17L3.46 12.98L5.66 12.96C4.87 17.14 3.74 21.94 2.52 24.60L7.44 25.54C8.30 23.16 9.46 17.83 10.25 12.89L14.54 12.82ZM11.78 17.90C14.02 17.35 15.34 17.11 17.21 17.06L15.89 18.77L18.84 20.42C19.49 19.92 20.52 18.41 21.46 17.18L20.30 12.98C18.50 13.06 13.37 13.51 11.11 14.26ZM10.13 22.08C11.86 24.48 15.74 25.85 20.81 25.85L20.81 21.72C17.28 21.94 15.10 21.43 12.89 18.91Z" transform="translate(0, 0)" />
    </svg>
  