
    <svg xmlns="http://www.w3.org/2000/svg" viewBox="0 0 24 28.8">
      <path d="M13.92 8.83L10.61 8.95C10.73 8.04 10.82 7.18 10.90 6.38L6.46 6.05C6.41 6.77 6.29 7.85 6.10 9.12L3.24 9.24L3.24 13.06L5.45 13.03C4.66 17.21 3.53 22.01 2.30 24.67L7.22 25.61C8.09 23.23 9.22 17.90 10.03 12.96L13.92 12.89ZM16.20 10.22C17.23 10.22 18.05 9.41 18.05 8.38C18.05 7.34 17.23 6.50 16.20 6.50C15.17 6.50 14.33 7.34 14.33 8.38C14.33 9.41 15.17 10.22 16.20 10.22ZM20.18 8.06C19.34 7.87 18.53 8.42 18.36 9.26C18.17 10.10 18.72 10.92 19.54 11.09C20.38 11.28 21.22 10.73 21.38 9.89C21.55 9.05 21.02 8.23 20.18 8.06ZM11.54 17.95C13.78 17.40 15.12 17.18 16.99 17.11L15.67 18.84L18.62 20.50C19.27 19.99 20.30 18.48 21.24 17.26L20.09 13.06C18.29 13.13 13.15 13.58 10.90 14.33ZM9.91 22.15C11.62 24.55 15.53 25.92 20.59 25.92L20.59 21.79C17.04 22.01 14.88 21.50 12.67 18.98Z" transform="translate(0, 0)" />
    </svg>
  