<svg xmlns="http://www.w3.org/2000/svg" viewBox="0 0 24 28.8">
  <path d="M18.72 20.02C16.34 20.35 11.33 20.66 10.90 18.36C10.46 16.06 16.03 13.85 18.91 12.96L17.95 7.13C15.94 7.13 5.30 7.80 2.71 8.21L3.05 12.98C6.70 12.77 7.78 12.58 11.28 12.17C7.34 14.16 5.64 16.34 6.19 19.82C7.03 25.13 14.81 25.54 19.10 25.03ZM20.66 17.33C21.34 16.78 21.43 15.79 20.88 15.12C20.35 14.45 19.37 14.33 18.70 14.88C18 15.43 17.90 16.42 18.46 17.09C18.98 17.76 19.99 17.86 20.66 17.33ZM15.74 18.65C16.78 18.65 17.62 17.81 17.62 16.78C17.62 15.74 16.78 14.90 15.74 14.90C14.71 14.90 13.87 15.74 13.87 16.78C13.87 17.81 14.71 18.65 15.74 18.65Z" transform="translate(0, 0)" />
</svg>