
    <svg xmlns="http://www.w3.org/2000/svg" viewBox="0 0 24 28.8">
      <path d="M11.81 8.50L9.72 8.59C9.94 7.85 10.10 7.20 10.25 6.65L6.05 6.22C5.93 6.96 5.74 7.85 5.47 8.78L2.59 8.93L2.30 13.30L3.86 13.20C3.07 14.93 2.11 16.63 0.96 18.07L4.32 20.38C5.78 18.72 7.18 15.79 8.26 12.96L11.81 12.74ZM13.80 11.45C16.80 13.85 18.07 14.76 20.09 16.99L23.06 13.78C21.10 11.74 19.30 9.82 16.75 8.09ZM10.61 13.78C10.51 14.57 10.68 15.94 10.90 17.33C10.49 17.40 10.10 17.47 9.72 17.57C4.94 18.86 5.23 23.16 6.62 24.77C9.07 27.58 14.83 26.78 15.12 23.62C15.17 23.02 15.19 22.37 15.19 21.67C16.18 21.96 17.21 22.39 18.12 22.97L19.30 18.96C18.14 18.12 16.54 17.59 14.86 17.35C14.71 15.96 14.52 14.69 14.42 13.78ZM11.45 22.27C10.75 23.78 9 22.39 10.25 21.48C10.44 21.34 10.87 21.22 11.47 21.19C11.52 21.72 11.52 22.10 11.45 22.27Z" transform="translate(0, 0)" />
    </svg>
  