
    <svg xmlns="http://www.w3.org/2000/svg" viewBox="0 0 24 28.8">
      <path d="M21.46 16.20C21.10 16.13 20.57 16.08 19.94 16.06C19.94 15.36 19.92 14.64 19.92 13.92L21.26 13.90L21.26 9.41L19.78 9.48C19.75 8.71 19.73 7.97 19.68 7.30L15.48 7.49C15.46 7.82 15.48 8.62 15.53 9.70L9.82 9.98L9.82 14.14L15.74 14.02C15.77 14.71 15.79 15.43 15.84 16.13C14.81 16.22 13.85 16.37 13.03 16.63C9.36 17.81 9.53 21.53 10.92 24C12.82 27.31 19.94 26.30 19.99 22.03C19.99 21.74 19.99 21.17 19.99 20.40L21.46 20.74ZM7.18 20.35C6.79 17.59 7.10 12.29 7.54 8.35L2.86 8.45C2.23 14.33 2.66 21.65 3.55 24.62L7.58 25.80L10.37 23.66L8.26 19.75ZM14.28 20.66C14.62 20.33 15.19 20.14 15.91 20.06C15.89 20.90 15.84 21.50 15.72 21.72C15.10 22.94 13.32 21.72 14.28 20.66Z" transform="translate(0, 0)" />
    </svg>
  