
    <svg xmlns="http://www.w3.org/2000/svg" viewBox="0 0 24 28.8">
      <path d="M16.85 9.74C17.86 9.74 18.70 8.93 18.70 7.90C18.70 6.89 17.86 6.07 16.85 6.07C15.84 6.07 15 6.89 15 7.90C15 8.93 15.84 9.74 16.85 9.74ZM20.16 10.61C21 10.78 21.82 10.25 21.98 9.41C22.15 8.59 21.62 7.78 20.81 7.61C19.97 7.42 19.15 7.94 18.98 8.78C18.82 9.62 19.34 10.44 20.16 10.61ZM11.88 25.56C18.98 25.82 19.94 19.54 18.82 13.97C19.90 14.93 20.47 15.36 21.38 15.86L23.18 11.62C22.75 11.38 22.20 11.09 21.60 10.73C20.54 11.54 18.79 10.92 18.53 9.46C17.93 10.13 16.99 10.39 16.01 10.03L14.33 10.99C15.41 15.48 16.73 20.95 12.02 20.86C7.54 20.76 8.18 15.91 9.84 11.76L6.67 8.33C4.78 9.36 3.29 9.84 0.84 9.96L1.25 14.76C2.64 14.54 4.01 14.16 4.87 13.70C3.72 19.22 5.52 25.30 11.88 25.56Z" transform="translate(0, 0)" />
    </svg>
  