<svg xmlns="http://www.w3.org/2000/svg" viewBox="0 0 24 28.8">
  <path d="M20.45 7.68L14.74 7.75C14.71 7.06 14.71 6.48 14.69 6.02L10.39 6.02C10.34 6.26 10.32 6.91 10.34 7.82L3.70 7.92L3.70 11.69L10.49 11.59C10.49 11.83 10.49 12.07 10.51 12.29L4.80 12.41L4.80 16.13L10.68 16.03C10.70 16.37 10.73 16.68 10.73 16.99C9.50 17.06 8.38 17.18 7.54 17.40C3.19 18.53 2.98 23.14 4.70 24.72C7.30 27.14 14.64 26.74 14.90 23.14C14.93 22.78 14.95 22.01 14.95 21C16.44 21.24 17.81 21.53 18.53 21.67L18.79 17.26C17.64 17.11 16.30 17.02 14.90 16.97L14.90 15.98L19.34 15.91L19.34 12.12L14.83 12.22C14.83 11.98 14.83 11.76 14.81 11.54L20.45 11.47ZM10.90 21.77C10.87 23.16 7.94 22.87 8.42 21.38C8.59 20.78 9.58 20.59 10.87 20.59C10.90 21.10 10.90 21.48 10.90 21.77Z" transform="translate(0, 0)" />
</svg>