<svg xmlns="http://www.w3.org/2000/svg" viewBox="0 0 24 28.8">
  <path d="M13.54 21.14C12.34 20.83 11.74 19.63 11.14 18.36C11.11 16.94 11.09 15.24 11.04 13.42L12.60 13.39L12.60 9.19L10.92 9.22C10.90 8.23 10.87 7.25 10.82 6.31L7.03 6.31C7.01 6.86 7.06 7.92 7.13 9.26L3.31 9.31L3.31 13.54L7.34 13.46C7.34 13.87 7.37 14.30 7.39 14.71C7.13 14.69 6.84 14.69 6.55 14.74C1.30 15.36 1.39 22.30 4.10 24.29C6.17 25.80 9.19 25.01 10.51 23.33C11.14 24.12 11.98 24.77 13.22 25.03C18.17 26.09 20.66 24.48 21.84 20.40L18.79 18C17.71 20.83 16.08 21.84 13.54 21.14ZM21.84 13.34C20.40 11.40 18.62 9.43 17.30 8.35L14.54 10.97C16.37 12.94 17.28 14.02 18.86 16.20ZM6.34 20.95C5.42 20.35 5.50 18.53 6.77 18.41C7.01 18.38 7.22 18.41 7.42 18.48C7.39 18.60 7.39 18.72 7.39 18.84C7.32 20.81 7.13 21.46 6.34 20.95Z" transform="translate(0, 0)" />
</svg>