
    <svg xmlns="http://www.w3.org/2000/svg" viewBox="0 0 24 28.8">
      <path d="M22.15 20.40C21.96 15.70 20.23 12.38 17.26 10.73C17.38 9.34 17.42 8.02 17.45 6.82L13.46 6.58C13.42 7.54 13.37 8.57 13.30 9.60C12.62 9.55 11.93 9.55 11.21 9.60C10.25 9.67 9.36 9.82 8.52 10.06C8.33 9.36 8.14 8.59 7.97 7.78L3.77 8.88C4.15 10.03 4.49 11.06 4.82 12C3.24 13.42 2.21 15.46 1.90 18.19C1.54 21.41 3.43 27.07 10.08 25.34C13.78 24.38 15.60 20.59 16.51 16.32C17.14 17.47 17.50 18.96 17.69 20.64ZM9.19 20.57C7.34 21.48 5.88 20.50 6.29 17.81C6.36 17.35 6.50 16.92 6.72 16.54C7.15 17.35 7.63 18.14 8.21 18.98L11.62 16.92C10.99 15.96 10.46 15.07 10.03 14.21C10.90 13.99 11.83 13.90 12.79 13.97C12.26 16.94 11.26 19.54 9.19 20.57Z" transform="translate(0, 0)" />
    </svg>
  