
    <svg xmlns="http://www.w3.org/2000/svg" viewBox="0 0 24 28.8">
      <path d="M15.58 13.06C15.53 12.34 15.46 11.64 15.41 10.94L12.12 11.26C12.22 11.86 12.34 12.60 12.43 13.37C11.30 13.61 10.13 13.92 8.86 14.28C8.52 13.34 8.23 12.46 7.99 11.64L4.97 12.77C5.28 13.66 5.54 14.47 5.83 15.24C5.23 15.43 4.63 15.65 4.01 15.86L4.90 19.22C5.64 18.96 6.36 18.70 7.06 18.48C7.97 20.81 9 23.02 10.54 25.94L13.54 24.77C12.26 22.61 11.09 20.04 10.08 17.57C11.06 17.28 11.93 17.06 12.67 16.87C12.67 17.35 12.65 17.81 12.58 18.17L12.12 18.10L11.54 20.33L13.61 21.24L15.29 20.35C15.60 19.01 15.72 17.78 15.74 16.58C16.61 16.94 16.75 17.95 15.55 19.49L17.83 20.83C20.57 18.19 19.27 13.49 15.58 13.06Z" transform="translate(0, 0)" />
    </svg>
  