
    <svg xmlns="http://www.w3.org/2000/svg" viewBox="0 0 24 28.8">
      <path d="M17.81 8.59L17.59 5.71L13.06 6.12C13.20 6.96 13.37 7.97 13.51 9.05C11.95 9.36 10.32 9.77 8.59 10.27C8.14 9 7.75 7.78 7.42 6.65L3.26 8.21C3.67 9.41 4.06 10.54 4.44 11.57C3.62 11.86 2.81 12.14 1.94 12.43L3.14 17.04C4.15 16.66 5.16 16.32 6.10 16.01C7.37 19.20 8.76 22.22 10.90 26.26L15.02 24.67C13.27 21.70 11.64 18.19 10.27 14.76C11.62 14.40 12.82 14.09 13.85 13.85C13.82 14.50 13.78 15.10 13.68 15.60L13.08 15.50L12.26 18.58L15.12 19.82L17.40 18.60C17.83 16.78 18 15.07 18.02 13.44C19.20 13.94 19.42 15.31 17.76 17.42L20.90 19.25C24.67 15.65 22.90 9.17 17.81 8.59Z" transform="translate(0, 0)" />
    </svg>
  