<svg xmlns="http://www.w3.org/2000/svg" viewBox="0 0 24 28.8">
  <path d="M21.50 19.13C19.56 18.10 17.21 16.80 14.69 15.86C14.69 15.07 14.66 14.23 14.64 13.39L20.90 13.37L20.90 8.95L14.59 9C14.57 7.99 14.57 7.10 14.57 6.43L9.55 6.43C9.55 7.99 9.79 11.64 9.94 14.81C8.86 14.74 7.75 14.78 6.67 15.05C1.22 16.32 1.42 23.45 5.06 25.46C8.78 27.58 14.11 25.51 14.69 20.98C16.68 21.82 18.70 22.82 20.33 23.69ZM7.34 19.73C7.94 19.30 8.90 19.27 10.10 19.49C9.84 24.19 5.06 21.31 7.34 19.73Z" transform="translate(0, 0)" />
</svg>