<svg xmlns="http://www.w3.org/2000/svg" viewBox="0 0 24 28.8">
  <path d="M11.23 26.74C17.26 26.74 19.87 23.71 19.49 20.06C19.03 15.98 15.36 14.11 11.45 14.06C13.51 13.01 16.10 11.33 18.12 9.38L16.15 6.65C13.51 6.96 8.04 7.10 4.27 7.10L4.22 10.80C5.66 10.92 7.75 10.94 10.46 10.75C8.40 12.07 7.61 12.50 6.12 13.10L6.84 17.52C9.82 17.50 15.14 17.40 15.36 19.97C15.55 22.32 13.56 23.04 11.45 22.99C10.37 22.97 8.11 22.85 8.23 22.15C8.40 21.19 10.66 21.77 13.06 22.85L14.57 19.49C9.43 16.85 4.80 17.47 4.10 21.26C3.58 24.14 5.69 26.74 11.23 26.74Z" transform="translate(0, 0)" />
</svg>