<svg xmlns="http://www.w3.org/2000/svg" viewBox="0 0 24 28.8">
  <path d="M21.19 20.26C19.03 22.20 19.03 21.34 19.10 19.03C19.18 16.75 19.15 14.62 19.15 13.34C19.13 10.58 16.70 8.95 13.82 10.54C13.13 10.92 12.07 11.66 10.87 12.60L10.87 8.95L8.98 9.02L9 7.15L4.42 7.15L4.44 9.24L2.54 9.31L2.54 13.13L4.49 13.08L4.54 17.78C3.38 18.74 2.40 19.63 1.66 20.28L4.13 24.07L4.58 23.71L4.61 25.68L8.76 25.75L8.83 20.04C10.44 18.65 11.93 17.30 12.43 16.87C13.87 15.65 15.31 14.86 15.26 16.10C15.22 18.26 14.09 24.22 17.76 25.56C19.49 26.21 21.53 24.94 22.75 23.45ZM10.44 12.91C9.96 13.30 9.43 13.70 8.90 14.14L8.93 12.96Z" transform="translate(0, 0)" />
</svg>