
    <svg xmlns="http://www.w3.org/2000/svg" viewBox="0 0 264 28.8">
      <path d="M16.94 11.86C14.57 11.18 11.71 12.31 9.07 14.02L9.07 12.89L11.04 12.84L11.04 8.81L9.12 8.90L9.14 6.98L4.97 6.98L4.99 9.07L2.59 9.19L2.59 13.06L5.04 12.98L5.06 17.14C3.58 18.50 2.38 19.82 1.66 20.74L4.30 24.02C4.51 23.78 4.80 23.50 5.14 23.18L5.16 25.82L8.93 25.90L9 19.63C11.52 17.50 14.28 15.62 15.70 16.13C17.88 16.94 19.18 19.85 15.17 23.33L18.10 25.90C24.46 22.44 22.68 13.49 16.94 11.86ZM41.45 10.20C42.48 10.20 43.32 9.36 43.32 8.30C43.32 7.27 42.48 6.43 41.45 6.43C40.42 6.43 39.58 7.27 39.58 8.30C39.58 9.36 40.42 10.20 41.45 10.20ZM37.70 12.12C36.91 11.76 36 11.47 34.94 11.28C35.40 9.89 35.81 8.74 36.07 8.16L30.70 7.58C30.43 8.28 30.05 9.55 29.62 11.06C28.27 11.14 26.76 11.30 25.13 11.57L25.44 16.90C26.45 16.73 27.38 16.61 28.25 16.51C27.77 18.55 27.43 20.28 27.43 20.86L31.75 22.18C32.04 21 32.62 18.89 33.29 16.61C36.14 17.35 36.26 19.87 32.88 25.46L38.42 26.54C40.46 22.87 41.52 19.51 41.23 16.87C40.03 15.53 38.66 13.70 37.70 12.12ZM44.52 12.41C45.24 12.41 45.89 11.90 46.06 11.16C46.25 10.25 45.60 9.29 44.52 9.29C43.80 9.29 43.15 9.79 42.98 10.54C42.79 11.45 43.46 12.41 44.52 12.41ZM44.59 12.86C43.20 12.86 42.29 11.74 42.55 10.37C41.54 10.87 40.44 10.68 39.72 9.89L37.82 11.45C39.26 13.94 41.28 16.42 42.82 17.88L46.80 15.48C46.32 15 45.50 13.99 44.59 12.86ZM63.22 25.13C69.07 22.58 70.82 16.90 67.82 12.55C64.92 8.30 54.50 9.46 50.57 10.68L50.98 16.03C54.72 15.26 61.56 14.04 63.05 16.20C64.44 18.19 62.06 19.82 59.50 21.46ZM92.45 7.68L86.74 7.75C86.71 7.06 86.71 6.48 86.69 6.02L82.39 6.02C82.34 6.26 82.32 6.91 82.34 7.82L75.70 7.92L75.70 11.69L82.49 11.59C82.49 11.83 82.49 12.07 82.51 12.29L76.80 12.41L76.80 16.13L82.68 16.03C82.70 16.37 82.73 16.68 82.73 16.99C81.50 17.06 80.38 17.18 79.54 17.40C75.19 18.53 74.98 23.14 76.70 24.72C79.30 27.14 86.64 26.74 86.90 23.14C86.93 22.78 86.95 22.01 86.95 21C88.44 21.24 89.81 21.53 90.53 21.67L90.79 17.26C89.64 17.11 88.30 17.02 86.90 16.97L86.90 15.98L91.34 15.91L91.34 12.12L86.83 12.22C86.83 11.98 86.83 11.76 86.81 11.54L92.45 11.47ZM82.90 21.77C82.87 23.16 79.94 22.87 80.42 21.38C80.59 20.78 81.58 20.59 82.87 20.59C82.90 21.10 82.90 21.48 82.90 21.77ZM109.92 8.83L106.61 8.95C106.73 8.04 106.82 7.18 106.90 6.38L102.46 6.05C102.41 6.77 102.29 7.85 102.10 9.12L99.24 9.24L99.24 13.06L101.45 13.03C100.66 17.21 99.53 22.01 98.30 24.67L103.22 25.61C104.09 23.23 105.22 17.90 106.03 12.96L109.92 12.89ZM112.20 10.22C113.23 10.22 114.05 9.41 114.05 8.38C114.05 7.34 113.23 6.50 112.20 6.50C111.17 6.50 110.33 7.34 110.33 8.38C110.33 9.41 111.17 10.22 112.20 10.22ZM116.18 8.06C115.34 7.87 114.53 8.42 114.36 9.26C114.17 10.10 114.72 10.92 115.54 11.09C116.38 11.28 117.22 10.73 117.38 9.89C117.55 9.05 117.02 8.23 116.18 8.06ZM107.54 17.95C109.78 17.40 111.12 17.18 112.99 17.11L111.67 18.84L114.62 20.50C115.27 19.99 116.30 18.48 117.24 17.26L116.09 13.06C114.29 13.13 109.15 13.58 106.90 14.33ZM105.91 22.15C107.62 24.55 111.53 25.92 116.59 25.92L116.59 21.79C113.04 22.01 110.88 21.50 108.67 18.98ZM134.28 25.06C138.55 23.21 139.82 19.06 137.64 15.89C135.53 12.79 127.94 13.63 125.06 14.52L125.35 18.43C128.09 17.88 133.08 16.97 134.16 18.55C135.17 20.02 133.44 21.19 131.57 22.39ZM164.81 19.90C164.57 15.12 160.03 14.26 154.68 15.34L155.16 13.78L164.02 13.56L164.02 8.81L156.65 9.05C156.96 8.09 157.25 7.22 157.46 6.70L152.74 6.05L152.02 9.19L147.60 9.34L147.19 13.97L150.91 13.87C150.55 15.48 150.22 16.87 150.10 17.54L153.89 19.90C155.11 19.06 159.96 18.12 160.10 20.33C160.25 22.54 156.70 21.98 153.02 22.27L153.48 26.26C159.70 26.26 165.10 25.68 164.81 19.90ZM187.32 25.85C193.03 19.97 189.86 8.83 180.43 8.11C176.69 7.82 171.50 10.66 170.23 15.02C168.96 19.39 170.64 25.10 175.10 25.44C180.94 25.85 182.06 18.86 182.35 13.99L178.22 13.32C178.01 16.87 177.65 21.12 175.32 20.40C172.73 19.58 175.08 12.58 180.29 12.58C185.09 12.58 188.02 19.18 183.55 23.86ZM204.77 12.86C203.71 10.01 202.56 7.94 201.48 6.24L198.14 7.94C198.94 9.48 200.30 11.76 201.14 14.45ZM199.13 25.94C207.43 23.83 214.39 18 214.39 8.33L209.14 8.02C208.39 15.55 205.32 19.32 197.16 21.17ZM200.23 14.95C199.18 12.10 198.02 10.03 196.94 8.33L193.61 10.03C194.40 11.57 195.77 13.85 196.61 16.54ZM221.76 18.82C224.71 18.05 231.17 18.17 234.96 18.82L235.49 13.61C231.46 12.72 225.43 12.60 220.92 13.61ZM244.82 25.54C248.76 22.13 251.18 15.79 251.18 7.46L245.64 7.46C245.81 13.97 244.68 17.98 240.58 21.98ZM257.26 25.13C259.20 23.42 261.72 21.05 263.45 18.96L259.99 16.10L257.26 18.36L257.35 7.46L252.22 7.68L252.82 24.43Z" transform="translate(0, 0)" />
    </svg>
  