<svg xmlns="http://www.w3.org/2000/svg" viewBox="0 0 24 28.8">
  <path d="M11.11 21.50C10.92 20.64 12.55 19.66 14.69 18.62C14.74 19.06 14.62 19.56 14.30 20.09L18.19 20.81C18.82 19.42 18.84 18.10 18.43 16.92L20.16 16.10L18 12.60C17.47 12.89 16.63 13.27 15.65 13.75C14.02 12.86 11.93 12.62 9.84 13.32C10.13 12.55 10.42 11.88 10.70 11.23L19.63 11.11L19.63 7.22L12.34 7.30C12.46 6.98 12.60 6.62 12.72 6.26L8.81 5.86L8.23 7.34L3.82 7.39L3.82 11.30L6.48 11.28C5.81 12.77 5.23 14.04 5.06 14.62L7.80 17.06C8.71 16.44 9.86 16.18 10.97 16.22C8.16 17.93 5.71 20.02 6 22.27C6.53 26.83 14.78 27.02 19.87 25.78L19.42 21.79C14.71 22.61 11.47 23.04 11.11 21.50Z" transform="translate(0, 0)" />
</svg>