<svg xmlns="http://www.w3.org/2000/svg" viewBox="0 0 72 28.8">
  <path d="M17.74 7.39C16.56 7.54 13.01 7.56 10.32 7.58C10.34 7.25 10.34 6.91 10.34 6.55L5.64 6.55C5.50 9.79 4.61 14.09 1.94 16.92L6.14 19.30C7.49 17.28 8.78 14.98 9.55 12.22C12.17 12.17 14.93 12.12 16.10 12C15.60 14.66 13.34 20.02 8.38 24L11.71 26.86C14.95 25.06 19.87 19.10 21.36 11.26ZM33.29 18.24C33.05 15.36 33.29 8.78 33.29 7.20L28.15 7.20C27.98 11.06 27.96 16.42 28.15 18.38ZM37.22 27.07C43.42 24.05 44.04 17.64 44.02 7.20L38.74 7.20C38.95 15.22 38.83 20.14 33.67 23.66ZM65.38 17.71C67.51 15.79 68.28 13.92 69.58 11.42L66.36 7.06C61.49 7.58 56.81 7.80 50.40 7.99L50.76 12.94C55.99 12.55 60.79 12.48 64.20 12.19C62.95 13.99 62.78 14.33 61.73 15.36ZM52.87 26.30C59.64 25.56 61.66 22.39 60.96 13.68L56.38 13.90C56.95 20.71 55.49 21.43 51.48 21.77Z" transform="translate(0, 0)" />
</svg>