
    <svg xmlns="http://www.w3.org/2000/svg" viewBox="0 0 24 28.8">
      <path d="M11.62 8.74C8.74 7.70 7.80 7.51 5.04 7.01L3.98 11.18C5.54 11.47 8.21 12.19 10.03 12.74ZM16.46 10.87C17.47 10.87 18.31 10.06 18.31 9.02C18.31 8.02 17.47 7.20 16.46 7.20C15.46 7.20 14.62 8.02 14.62 9.02C14.62 10.06 15.46 10.87 16.46 10.87ZM18.82 11.06C19.90 12.77 22.54 11.09 21.38 9.38C20.93 8.69 19.97 8.47 19.27 8.95C18.55 9.41 18.36 10.37 18.82 11.06ZM6.12 26.14C15.79 24.46 19.44 21.46 21.02 11.98C19.78 12.60 18.38 11.88 18.14 10.58C17.50 11.30 16.70 11.42 15.84 11.23C14.54 17.90 12.50 19.75 4.73 20.74ZM9.94 13.78C7.06 12.72 6.12 12.53 3.36 12.05L2.30 16.20C3.86 16.49 6.53 17.21 8.38 17.76Z" transform="translate(0, 0)" />
    </svg>
  