<svg xmlns="http://www.w3.org/2000/svg" viewBox="0 0 384 28.8">
  <path d="M21.89 22.27C19.94 20.86 17.78 19.51 15.48 17.50C17.86 15.31 19.78 13.18 20.52 11.66L18.86 7.49C15.43 7.92 6.07 7.87 3.72 7.87L3.34 12.77C6.77 12.72 10.25 12.67 13.58 12.38C10.80 15.89 5.98 19.30 2.11 21.36L4.44 25.20C6.41 24.41 9 22.73 11.54 20.78C13.87 22.90 16.32 24.60 18.36 25.80ZM28.18 7.58L27.98 12L44.23 12L44.23 7.30ZM45.26 13.20L26.76 13.49L26.71 17.57L34.75 17.54C34.61 20.33 33.67 21.77 29.62 22.27L30.07 26.30C36.58 25.97 39 22.90 39.05 17.54L45.31 17.52ZM53.76 18.82C56.71 18.05 63.17 18.17 66.96 18.82L67.49 13.61C63.46 12.72 57.43 12.60 52.92 13.61ZM83.62 8.74C80.74 7.70 79.80 7.51 77.04 7.01L75.98 11.18C77.54 11.47 80.21 12.19 82.03 12.74ZM88.46 10.87C89.47 10.87 90.31 10.06 90.31 9.02C90.31 8.02 89.47 7.20 88.46 7.20C87.46 7.20 86.62 8.02 86.62 9.02C86.62 10.06 87.46 10.87 88.46 10.87ZM90.82 11.06C91.90 12.77 94.54 11.09 93.38 9.38C92.93 8.69 91.97 8.47 91.27 8.95C90.55 9.41 90.36 10.37 90.82 11.06ZM78.12 26.14C87.79 24.46 91.44 21.46 93.02 11.98C91.78 12.60 90.38 11.88 90.14 10.58C89.50 11.30 88.70 11.42 87.84 11.23C86.54 17.90 84.50 19.75 76.73 20.74ZM81.94 13.78C79.06 12.72 78.12 12.53 75.36 12.05L74.30 16.20C75.86 16.49 78.53 17.21 80.38 17.76ZM113.88 8.69C113.95 7.56 114.05 6.46 114.12 5.38L110.83 5.28C110.81 6.43 110.78 7.61 110.74 8.78L108.60 8.86L108.58 13.34C108.10 12.77 107.50 12.07 106.87 11.45L108.38 11.52L108.38 7.54C107.78 7.49 106.66 7.44 105.36 7.44L105.53 5.40L101.71 5.40L101.81 7.51C100.44 7.54 99.26 7.61 98.62 7.68L98.78 11.64L99.62 11.57C98.78 12.43 98.02 13.37 97.49 14.02L99.36 17.18C99.48 16.97 99.62 16.75 99.79 16.54C100.15 17.76 100.68 18.98 101.28 20.16C100.42 21.22 99.43 22.25 98.28 23.23L100.06 25.97C101.04 25.39 102.12 24.38 103.15 23.11C104.23 24.53 105.38 25.66 106.39 26.26L108.19 23.52C106.97 22.46 105.94 21.43 105.05 20.30C105.72 19.08 106.30 17.74 106.70 16.34C106.87 16.56 107.02 16.78 107.14 16.99L109.13 14.02C109.01 13.87 108.89 13.70 108.74 13.54L110.40 13.54C110.06 16.70 109.42 19.78 108.22 22.49L110.76 25.10C112.32 22.68 113.04 18.24 113.50 13.51L115.08 13.51C115.18 15.89 114.62 19.66 114.34 21.10L113.76 20.59L112.42 24.24L114.05 26.38L116.30 25.85C117.67 22.92 118.34 14.90 118.49 12.05L117.34 8.59ZM104.09 15.07C103.85 15.84 103.54 16.56 103.18 17.26C102.86 16.58 102.60 15.86 102.34 15.07L100.73 15.26C101.47 14.33 102.29 13.39 102.98 12.60L102.43 11.47C102.96 11.45 103.51 11.45 104.06 11.45L103.51 12.41C104.26 13.25 105.14 14.28 105.94 15.29ZM141.70 23.14C140.69 22.63 139.13 21.91 137.64 21.14L141.10 21.22L141.10 17.86C139.80 17.81 137.06 17.78 134.04 17.81L134.04 16.94C134.90 16.94 135.70 16.97 136.46 16.99C136.44 17.09 136.44 17.18 136.44 17.28L140.33 17.28C140.54 16.10 141.24 9.05 141.02 7.15L139.42 5.88L124.42 6.07L122.71 6.96C122.93 9.26 123.12 15.77 123.19 17.28L127.15 17.28C127.18 17.18 127.18 17.06 127.20 16.92L129.41 16.92L129.43 17.83C126.58 17.88 124.01 17.93 122.69 18L122.98 21.31C123.77 21.26 124.90 21.24 126.22 21.22C124.78 21.96 123.29 22.66 122.30 23.14L124.61 26.06C126.02 25.46 127.80 24.53 129.50 23.50L129.53 26.09L134.04 26.09L134.04 23.21C135.86 24.36 137.86 25.42 139.37 26.06ZM134.04 9.96L134.04 9.24L136.75 9.22L136.75 9.94ZM129.31 9.98L127.37 10.01L127.37 9.29L129.31 9.26ZM134.04 13.13L136.66 13.10C136.63 13.39 136.61 13.68 136.61 13.97C135.79 13.94 134.93 13.94 134.04 13.92ZM127.34 13.92L127.34 13.15L129.36 13.13L129.36 13.90C128.64 13.90 127.97 13.92 127.34 13.92ZM155.11 21.50C154.92 20.64 156.55 19.66 158.69 18.62C158.74 19.06 158.62 19.56 158.30 20.09L162.19 20.81C162.82 19.42 162.84 18.10 162.43 16.92L164.16 16.10L162 12.60C161.47 12.89 160.63 13.27 159.65 13.75C158.02 12.86 155.93 12.62 153.84 13.32C154.13 12.55 154.42 11.88 154.70 11.23L163.63 11.11L163.63 7.22L156.34 7.30C156.46 6.98 156.60 6.62 156.72 6.26L152.81 5.86L152.23 7.34L147.82 7.39L147.82 11.30L150.48 11.28C149.81 12.77 149.23 14.04 149.06 14.62L151.80 17.06C152.71 16.44 153.86 16.18 154.97 16.22C152.16 17.93 149.71 20.02 150 22.27C150.53 26.83 158.78 27.02 163.87 25.78L163.42 21.79C158.71 22.61 155.47 23.04 155.11 21.50ZM178.61 8.95C178.10 8.90 177.22 8.90 176.18 8.90C176.30 8.62 176.38 8.30 176.38 7.97C176.38 6.67 175.32 5.62 174.02 5.62C172.73 5.62 171.67 6.67 171.67 7.97C171.67 8.33 171.74 8.66 171.89 8.95C170.88 9 170.02 9.05 169.51 9.10L169.63 12.58C171.43 12.41 176.47 12.34 178.61 12.48ZM188.21 16.20L189.70 16.20L190.49 13.44L188.83 12.50L188.64 13.03C187.61 12.19 188.30 10.10 188.45 7.87L187.97 6.58L183 6.67L183 6.17L179.66 6.17C179.66 11.09 180 12.50 177.84 14.57L179.90 16.20C179.69 16.20 179.54 16.18 179.45 16.18L179.26 19.85C179.83 19.85 180.74 19.87 181.75 19.85L179.98 21.41C180.10 21.58 180.38 21.84 180.79 22.15C179.90 22.54 179.09 22.87 178.58 23.04L179.52 26.64C180.94 26.06 182.52 25.34 184.03 24.48C185.83 25.63 187.80 26.69 188.93 26.86L189.86 23.50C189.14 23.40 188.09 23.02 186.96 22.49C187.82 21.79 188.57 21.02 189.12 20.21ZM180.65 16.22C182.11 14.81 182.62 13.08 182.83 10.39L185.26 10.39C184.97 12.29 185.47 15.29 187.01 16.08C185.38 16.22 182.38 16.25 180.65 16.22ZM170.45 15.94C171.91 15.79 176.02 15.72 177.77 15.84L177.77 12.86C176.47 12.77 171.72 12.84 170.35 12.98ZM170.57 19.30C172.03 19.15 176.14 19.08 177.86 19.20L177.86 16.22C176.57 16.13 171.84 16.20 170.45 16.34ZM172.27 19.68L172.27 19.49L170.04 19.70C170.04 21.05 170.06 25.15 170.28 26.62L172.27 26.52C172.27 26.45 172.27 26.38 172.25 26.30C173.26 26.28 174.58 26.26 175.63 26.26C175.63 26.35 175.63 26.45 175.61 26.52L177.70 26.52C177.84 25.70 178.20 21.43 178.20 20.93L177.36 19.61C176.52 19.54 174.12 19.58 172.27 19.68ZM182.40 19.85C183.53 19.82 184.68 19.78 185.50 19.63C185.18 19.92 184.51 20.33 183.72 20.76C183.19 20.45 182.76 20.14 182.40 19.85ZM172.20 23.47L172.20 22.37C173.74 22.32 175.34 22.32 175.90 22.30C175.87 22.51 175.85 22.92 175.82 23.40C174.74 23.40 173.28 23.42 172.20 23.47ZM212.90 7.15C212.54 7.22 209.78 7.27 206.59 7.30L206.59 5.40L201.58 5.47L201.74 7.34C200.16 7.34 198.77 7.32 197.78 7.32C197.74 7.13 197.71 6.98 197.69 6.84L194.47 6.94C194.47 9.34 194.54 12 193.92 13.58L197.69 13.78C197.83 13.22 197.93 12.07 197.93 10.85C201.34 10.85 208.70 10.75 210.34 10.70C210.38 11.35 210.19 12.67 210.02 13.68L213.02 14.04C213.67 12.91 213.86 10.85 214.15 9.60ZM205.75 20.35C207.65 20.30 209.88 20.30 211.08 20.40L211.08 16.34C210.17 16.25 207.79 16.25 205.75 16.32L205.75 14.93C207.31 14.93 208.78 14.95 209.76 15.02L209.76 11.23C207.72 11.09 200.28 11.18 198.12 11.38L198.29 15.12C199.13 15.05 200.57 15 202.15 14.98L202.25 21.26C201.14 21.02 200.04 20.71 198.91 20.33C199.06 19.49 199.15 18.60 199.25 17.62L195.84 17.42C195.70 20.02 195.26 22.18 193.85 25.42L196.99 26.23C197.33 25.56 197.62 24.94 197.86 24.31C202.99 26.23 207.89 26.28 213.02 26.02L213.02 21.84C210.43 22.06 208.06 22.08 205.75 21.84ZM231.70 18.31C230.04 21.86 225.34 21.86 225.19 18.02C225.10 15.46 225.26 9.38 225.34 7.34L220.20 6.98C220.20 10.08 219.89 18.07 220.20 20.81C220.87 26.76 231.60 28.58 235.99 21.12ZM259.10 20.28C256.73 20.64 251.71 20.93 251.28 18.62C250.85 16.34 256.42 14.14 259.30 13.22L258.34 7.39C256.30 7.39 245.69 8.06 243.10 8.47L243.43 13.25C247.06 13.03 248.16 12.86 251.66 12.43C247.70 14.42 246.02 16.61 246.58 20.11C247.42 25.39 255.19 25.80 259.49 25.32ZM282.24 22.42C279.79 20.93 276.60 18.65 273.43 16.34C276.02 14.71 278.35 12.89 282.19 9.91L278.90 6.10C275.18 8.88 270.79 11.78 267.67 13.99L267.84 18.84C270.86 21.29 275.69 24.79 279.46 26.59ZM301.92 8.83L298.61 8.95C298.73 8.04 298.82 7.18 298.90 6.38L294.46 6.05C294.41 6.77 294.29 7.85 294.10 9.12L291.24 9.24L291.24 13.06L293.45 13.03C292.66 17.21 291.53 22.01 290.30 24.67L295.22 25.61C296.09 23.23 297.22 17.90 298.03 12.96L301.92 12.89ZM304.20 10.22C305.23 10.22 306.05 9.41 306.05 8.38C306.05 7.34 305.23 6.50 304.20 6.50C303.17 6.50 302.33 7.34 302.33 8.38C302.33 9.41 303.17 10.22 304.20 10.22ZM308.18 8.06C307.34 7.87 306.53 8.42 306.36 9.26C306.17 10.10 306.72 10.92 307.54 11.09C308.38 11.28 309.22 10.73 309.38 9.89C309.55 9.05 309.02 8.23 308.18 8.06ZM299.54 17.95C301.78 17.40 303.12 17.18 304.99 17.11L303.67 18.84L306.62 20.50C307.27 19.99 308.30 18.48 309.24 17.26L308.09 13.06C306.29 13.13 301.15 13.58 298.90 14.33ZM297.91 22.15C299.62 24.55 303.53 25.92 308.59 25.92L308.59 21.79C305.04 22.01 302.88 21.50 300.67 18.98ZM332.23 9.07L327.10 9.26C326.50 7.51 326.09 6.05 325.97 5.47L321.67 6.70C321.94 7.58 322.20 8.50 322.49 9.43L316.27 9.65L316.27 14.26L324 14.04C324.65 15.82 325.30 17.45 325.97 18.65L330.22 17.06C329.76 16.20 329.26 15.10 328.80 13.92L332.52 13.82ZM315.41 18C315.91 23.40 319.87 25.97 328.94 25.46L328.94 20.30C325.32 20.81 320.33 21.05 319.39 16.22ZM348.86 20.69L345.86 17.52L344.47 18.91C343.99 17.50 343.63 14.16 343.66 10.92L338.47 11.09C338.35 14.88 339.65 21.58 341.16 23.78L344.50 24.31ZM357 22.10C357.58 19.51 357.77 15.53 357.14 11.09L352.13 11.69C352.87 15.29 352.82 19.27 352.22 21.96ZM365.40 26.33C367.51 26.33 369.29 24.60 369.29 22.46C369.29 20.33 367.51 18.60 365.40 18.60C363.26 18.60 361.49 20.33 361.49 22.46C361.49 24.60 363.26 26.33 365.40 26.33ZM365.40 23.57C364.78 23.57 364.27 23.06 364.27 22.46C364.27 21.89 364.78 21.38 365.40 21.38C366 21.38 366.50 21.89 366.50 22.46C366.50 23.06 366 23.57 365.40 23.57Z" transform="translate(0, 0)" />
</svg>