
    <svg xmlns="http://www.w3.org/2000/svg" viewBox="0 0 144 28.8">
      <path d="M21.89 22.27C19.94 20.86 17.78 19.51 15.48 17.50C17.86 15.31 19.78 13.18 20.52 11.66L18.86 7.49C15.43 7.92 6.07 7.87 3.72 7.87L3.34 12.77C6.77 12.72 10.25 12.67 13.58 12.38C10.80 15.89 5.98 19.30 2.11 21.36L4.44 25.20C6.41 24.41 9 22.73 11.54 20.78C13.87 22.90 16.32 24.60 18.36 25.80ZM28.18 7.58L27.98 12L44.23 12L44.23 7.30ZM45.26 13.20L26.76 13.49L26.71 17.57L34.75 17.54C34.61 20.33 33.67 21.77 29.62 22.27L30.07 26.30C36.58 25.97 39 22.90 39.05 17.54L45.31 17.52ZM53.76 18.82C56.71 18.05 63.17 18.17 66.96 18.82L67.49 13.61C63.46 12.72 57.43 12.60 52.92 13.61ZM83.62 8.74C80.74 7.70 79.80 7.51 77.04 7.01L75.98 11.18C77.54 11.47 80.21 12.19 82.03 12.74ZM88.46 10.87C89.47 10.87 90.31 10.06 90.31 9.02C90.31 8.02 89.47 7.20 88.46 7.20C87.46 7.20 86.62 8.02 86.62 9.02C86.62 10.06 87.46 10.87 88.46 10.87ZM90.82 11.06C91.90 12.77 94.54 11.09 93.38 9.38C92.93 8.69 91.97 8.47 91.27 8.95C90.55 9.41 90.36 10.37 90.82 11.06ZM78.12 26.14C87.79 24.46 91.44 21.46 93.02 11.98C91.78 12.60 90.38 11.88 90.14 10.58C89.50 11.30 88.70 11.42 87.84 11.23C86.54 17.90 84.50 19.75 76.73 20.74ZM81.94 13.78C79.06 12.72 78.12 12.53 75.36 12.05L74.30 16.20C75.86 16.49 78.53 17.21 80.38 17.76ZM113.88 8.69C113.95 7.56 114.05 6.46 114.12 5.38L110.83 5.28C110.81 6.43 110.78 7.61 110.74 8.78L108.60 8.86L108.58 13.34C108.10 12.77 107.50 12.07 106.87 11.45L108.38 11.52L108.38 7.54C107.78 7.49 106.66 7.44 105.36 7.44L105.53 5.40L101.71 5.40L101.81 7.51C100.44 7.54 99.26 7.61 98.62 7.68L98.78 11.64L99.62 11.57C98.78 12.43 98.02 13.37 97.49 14.02L99.36 17.18C99.48 16.97 99.62 16.75 99.79 16.54C100.15 17.76 100.68 18.98 101.28 20.16C100.42 21.22 99.43 22.25 98.28 23.23L100.06 25.97C101.04 25.39 102.12 24.38 103.15 23.11C104.23 24.53 105.38 25.66 106.39 26.26L108.19 23.52C106.97 22.46 105.94 21.43 105.05 20.30C105.72 19.08 106.30 17.74 106.70 16.34C106.87 16.56 107.02 16.78 107.14 16.99L109.13 14.02C109.01 13.87 108.89 13.70 108.74 13.54L110.40 13.54C110.06 16.70 109.42 19.78 108.22 22.49L110.76 25.10C112.32 22.68 113.04 18.24 113.50 13.51L115.08 13.51C115.18 15.89 114.62 19.66 114.34 21.10L113.76 20.59L112.42 24.24L114.05 26.38L116.30 25.85C117.67 22.92 118.34 14.90 118.49 12.05L117.34 8.59ZM104.09 15.07C103.85 15.84 103.54 16.56 103.18 17.26C102.86 16.58 102.60 15.86 102.34 15.07L100.73 15.26C101.47 14.33 102.29 13.39 102.98 12.60L102.43 11.47C102.96 11.45 103.51 11.45 104.06 11.45L103.51 12.41C104.26 13.25 105.14 14.28 105.94 15.29ZM141.70 23.14C140.69 22.63 139.13 21.91 137.64 21.14L141.10 21.22L141.10 17.86C139.80 17.81 137.06 17.78 134.04 17.81L134.04 16.94C134.90 16.94 135.70 16.97 136.46 16.99C136.44 17.09 136.44 17.18 136.44 17.28L140.33 17.28C140.54 16.10 141.24 9.05 141.02 7.15L139.42 5.88L124.42 6.07L122.71 6.96C122.93 9.26 123.12 15.77 123.19 17.28L127.15 17.28C127.18 17.18 127.18 17.06 127.20 16.92L129.41 16.92L129.43 17.83C126.58 17.88 124.01 17.93 122.69 18L122.98 21.31C123.77 21.26 124.90 21.24 126.22 21.22C124.78 21.96 123.29 22.66 122.30 23.14L124.61 26.06C126.02 25.46 127.80 24.53 129.50 23.50L129.53 26.09L134.04 26.09L134.04 23.21C135.86 24.36 137.86 25.42 139.37 26.06ZM134.04 9.96L134.04 9.24L136.75 9.22L136.75 9.94ZM129.31 9.98L127.37 10.01L127.37 9.29L129.31 9.26ZM134.04 13.13L136.66 13.10C136.63 13.39 136.61 13.68 136.61 13.97C135.79 13.94 134.93 13.94 134.04 13.92ZM127.34 13.92L127.34 13.15L129.36 13.13L129.36 13.90C128.64 13.90 127.97 13.92 127.34 13.92Z" transform="translate(0, 0)" />
    </svg>
  