<svg xmlns="http://www.w3.org/2000/svg" viewBox="0 0 24 28.8">
  <path d="M10.68 18.77C10.66 18.12 10.66 17.06 10.63 15.84C12.70 15.62 14.66 15.36 16.06 15.10C15.46 16.27 14.90 17.09 13.85 18.29L17.52 20.14C19.56 18.29 21.02 16.34 22.08 14.59L19.37 9.41C16.49 9.98 13.61 10.37 10.61 10.66C10.63 9.17 10.63 7.97 10.68 7.49L5.42 7.42C5.45 8.42 5.45 9.67 5.47 11.04C4.32 11.11 3.17 11.18 1.97 11.23L2.47 16.56C3.31 16.51 4.39 16.44 5.54 16.34C5.59 17.81 5.64 19.15 5.74 20.14C6.22 25.15 12.53 26.59 21.07 25.42L20.81 20.14C15.98 20.95 10.73 21.29 10.68 18.77Z" transform="translate(0, 0)" />
</svg>