<svg xmlns="http://www.w3.org/2000/svg" viewBox="0 0 24 28.8">
  <path d="M17.98 7.32C16.82 7.46 13.32 7.49 10.68 7.51C10.70 7.20 10.70 6.84 10.70 6.50L6.12 6.50C5.98 9.67 5.11 13.90 2.50 16.68L6.22 18.77C7.85 16.54 9.24 14.30 10.03 11.57C12.70 11.52 15.60 11.45 16.75 11.38C16.49 12.86 16.08 14.42 15.38 15.98C13.90 15.02 11.95 14.26 10.70 13.70L9.07 17.30C9.98 17.69 11.86 18.65 13.32 19.44C12.19 20.90 10.73 22.32 8.78 23.62L12.07 26.42C15.26 24.65 20.06 18.82 21.53 11.11Z" transform="translate(0, 0)" />
</svg>