<svg xmlns="http://www.w3.org/2000/svg" viewBox="0 0 240 28.8">
  <path d="M17.98 7.32C16.82 7.46 13.32 7.49 10.68 7.51C10.70 7.20 10.70 6.84 10.70 6.50L6.12 6.50C5.98 9.67 5.11 13.90 2.50 16.68L6.22 18.77C7.85 16.54 9.24 14.30 10.03 11.57C12.70 11.52 15.60 11.45 16.75 11.38C16.49 12.86 16.08 14.42 15.38 15.98C13.90 15.02 11.95 14.26 10.70 13.70L9.07 17.30C9.98 17.69 11.86 18.65 13.32 19.44C12.19 20.90 10.73 22.32 8.78 23.62L12.07 26.42C15.26 24.65 20.06 18.82 21.53 11.11ZM36.91 16.27C36.19 14.28 35.40 12.84 34.63 11.66L32.33 12.84C32.88 13.92 33.82 15.50 34.42 17.38ZM33 25.34C38.76 23.88 43.61 19.82 43.61 13.13L39.96 12.91C39.43 18.14 37.30 20.76 31.63 22.03ZM33.77 17.71C33.05 15.74 32.23 14.30 31.49 13.13L29.18 14.30C29.71 15.36 30.67 16.94 31.25 18.82ZM62.86 14.52L62.86 11.02C65.14 10.20 66.98 9.12 67.99 7.87L64.44 5.21C60.86 7.87 57.29 8.50 52.82 8.33L52.82 12.74C54.74 12.72 56.69 12.53 58.51 12.19C58.54 13.06 58.54 13.85 58.54 14.59L50.38 14.74L50.38 19.22L58.10 19.13C57.55 20.93 56.35 22.10 53.74 23.14L55.49 26.62C60.46 25.13 62.09 23.14 62.62 19.06L69.65 18.96L69.65 14.40ZM90.72 20.02C88.34 20.35 83.33 20.66 82.90 18.36C82.46 16.06 88.03 13.85 90.91 12.96L89.95 7.13C87.94 7.13 77.30 7.80 74.71 8.21L75.05 12.98C78.70 12.77 79.78 12.58 83.28 12.17C79.34 14.16 77.64 16.34 78.19 19.82C79.03 25.13 86.81 25.54 91.10 25.03ZM92.66 17.33C93.34 16.78 93.43 15.79 92.88 15.12C92.35 14.45 91.37 14.33 90.70 14.88C90 15.43 89.90 16.42 90.46 17.09C90.98 17.76 91.99 17.86 92.66 17.33ZM87.74 18.65C88.78 18.65 89.62 17.81 89.62 16.78C89.62 15.74 88.78 14.90 87.74 14.90C86.71 14.90 85.87 15.74 85.87 16.78C85.87 17.81 86.71 18.65 87.74 18.65ZM105.55 26.09C110.93 22.32 114.62 17.88 117.17 12L114.29 7.34C110.59 7.63 103.70 7.99 98.86 7.90L98.86 13.46C104.09 13.42 105.14 13.34 110.83 12.94C108.34 16.87 105.60 19.18 101.86 22.56ZM136.08 19.68C137.64 18.29 138.19 16.92 139.13 15.10L136.80 11.90C133.25 12.29 129.84 12.46 125.16 12.60L125.42 16.20C129.24 15.91 132.74 15.86 135.22 15.65C134.30 16.97 134.18 17.21 133.42 17.98ZM126.96 25.94C131.90 25.39 133.37 23.09 132.86 16.73L129.50 16.90C129.94 21.86 128.86 22.39 125.95 22.63ZM162 6.19C158.98 9.82 152.93 12.70 146.21 14.52L147.89 19.80C149.54 19.39 151.85 18.72 154.30 17.78L154.78 26.23L160.13 26.23L159.55 15.34C162.24 13.82 164.64 11.95 166.10 9.70ZM172.82 25.54C176.76 22.13 179.18 15.79 179.18 7.46L173.64 7.46C173.81 13.97 172.68 17.98 168.58 21.98ZM185.26 25.13C187.20 23.42 189.72 21.05 191.45 18.96L187.99 16.10L185.26 18.36L185.35 7.46L180.22 7.68L180.82 24.43ZM197.33 11.42C198.94 11.42 200.26 10.10 200.26 8.50C200.26 6.89 198.94 5.57 197.33 5.57C195.72 5.57 194.40 6.89 194.40 8.50C194.40 10.10 195.72 11.42 197.33 11.42ZM207.53 12.82L207.53 10.87L205.68 10.97L205.68 11.30C203.66 11.42 203.57 10.97 203.54 10.30C203.98 10.27 204.34 10.27 204.65 10.27C204.62 10.34 204.60 10.42 204.60 10.46L206.95 10.46C207.24 9.50 207.53 7.85 207.53 6.89L206.09 5.76C204.98 5.83 202.90 5.83 201.74 5.83L201.65 7.75L204.98 7.75C204.98 7.92 204.96 8.18 204.94 8.47C203.86 8.47 202.73 8.50 201.94 8.54L201.26 9.24C200.98 13.08 202.90 13.78 206.98 13.39ZM213.94 12.94L213.94 10.99L212.09 11.09L212.09 11.40C210.07 11.54 209.98 11.09 209.95 10.42C210.38 10.39 210.74 10.39 211.06 10.39C211.03 10.46 211.01 10.54 211.01 10.58L213.36 10.58C213.65 9.62 213.94 7.97 213.94 7.01L212.50 5.86C211.39 5.95 209.30 5.95 208.15 5.95L208.06 7.87L211.39 7.87C211.39 8.04 211.37 8.30 211.34 8.59C210.26 8.59 209.14 8.62 208.34 8.66L207.67 9.36C207.38 13.20 209.30 13.90 213.38 13.51ZM214.08 22.27C213.60 21.79 212.66 20.83 211.78 20.16C212.66 20.16 213.43 20.16 214.06 20.18L214.06 17.86C213.50 17.83 212.59 17.83 211.51 17.83C211.54 17.50 211.54 17.16 211.56 16.82C212.33 16.85 213 16.85 213.53 16.87L213.53 14.54C213.10 14.52 212.42 14.52 211.63 14.50C211.63 14.18 211.63 13.94 211.61 13.75L208.63 13.73C208.63 13.94 208.66 14.21 208.66 14.50C207.91 14.50 207.14 14.52 206.38 14.52C206.38 14.21 206.40 13.94 206.40 13.73L203.54 13.75C203.52 13.94 203.52 14.23 203.52 14.57C202.58 14.59 201.82 14.62 201.31 14.64L201.48 16.94L203.59 16.87C203.59 17.21 203.62 17.54 203.64 17.88C202.42 17.90 201.38 17.93 200.76 17.95L200.98 20.28L203.02 20.21C202.15 20.95 201.26 21.94 200.83 22.44L201.48 22.78C200.98 22.78 200.50 22.82 200.04 22.87C200.74 21.24 200.76 18.48 199.03 17.83C199.58 16.94 200.64 15.94 201.17 14.98L200.40 11.59C198.70 11.81 195.79 11.90 193.90 11.90L193.90 15.46C193.90 15.46 196.13 15.43 196.99 15.26C196.18 16.06 195.62 16.32 194.69 16.78L195.07 19.78C198.72 20.57 196.97 23.52 194.14 24.02L196.39 26.71C201.84 25.54 209.30 27.41 213.50 26.83L213.72 23.30C213.26 23.33 212.81 23.33 212.30 23.33ZM206.42 16.82L208.58 16.82C208.58 17.16 208.56 17.50 208.54 17.83L206.47 17.83C206.47 17.52 206.45 17.18 206.42 16.82ZM209.16 20.90C209.90 21.62 210.82 22.49 211.54 23.30C209.11 23.23 206.40 22.92 203.93 22.80C204.53 22.08 205.18 21.41 205.75 20.81L204.91 20.18C206.54 20.16 208.39 20.16 210.07 20.16ZM238.13 24.17C235.32 21.24 234.31 19.44 233.95 15.50L234.38 15.50C234.38 15.65 234.36 15.77 234.36 15.86L237.50 15.86C237.74 13.94 237.84 9.60 237.91 8.47L236.26 5.83C234.12 6.05 229.10 6.12 227.26 6.10L225.72 8.66C225.72 10.70 225.60 13.15 225.36 15.65L225.26 14.54C224.93 14.66 224.47 14.81 223.92 14.98L223.92 13.06C224.54 13.06 225.10 13.08 225.53 13.13L225.53 9.07C225.19 9.02 224.62 9 223.92 9L223.92 5.76L220.56 5.98L220.56 9.02C219.46 9.07 218.47 9.14 217.97 9.22L218.09 13.25C218.64 13.18 219.55 13.13 220.58 13.08L220.58 15.79C219.53 16.03 218.54 16.22 217.87 16.32L218.14 20.26C218.62 20.21 219.55 20.02 220.61 19.78L220.61 21.72L219.86 21.48L219.12 24.86L222.36 26.14L223.94 24.86L223.94 18.94L225.05 18.60C224.74 21.14 224.33 23.57 223.87 25.49L227.50 26.42C228.26 23.90 228.84 19.51 229.20 15.58C229.58 15.55 229.99 15.55 230.40 15.53C230.74 20.64 232.25 23.88 235.10 26.78ZM229.66 9.65C231.53 9.65 233.45 9.55 234.50 9.55C234.50 10.15 234.50 11.16 234.48 12.22C232.94 12.22 231.02 12.24 229.49 12.29C229.56 11.30 229.61 10.39 229.66 9.65Z" transform="translate(0, 0)" />
</svg>