
    <svg xmlns="http://www.w3.org/2000/svg" viewBox="0 0 120 28.8">
      <path d="M12.77 12.86C11.71 10.01 10.56 7.94 9.48 6.24L6.14 7.94C6.94 9.48 8.30 11.76 9.14 14.45ZM7.13 25.94C15.43 23.83 22.39 18 22.39 8.33L17.14 8.02C16.39 15.55 13.32 19.32 5.16 21.17ZM8.23 14.95C7.18 12.10 6.02 10.03 4.94 8.33L1.61 10.03C2.40 11.57 3.77 13.85 4.61 16.54ZM44.62 20.93C38.74 21.77 37.42 20.90 37.25 18.02L44.78 18.02L44.78 13.20L37.22 13.37L37.22 12.10L43.75 12.10L43.75 7.25L27.02 7.68L27.02 12.10L32.45 12.10L32.45 13.49L25.99 13.63L25.99 18.02L32.42 18.02C32.40 18.74 32.40 19.37 32.40 19.80C32.38 23.71 35.76 27.34 44.95 25.97ZM67.37 18.31C67.49 18.31 67.61 18.31 67.73 18.31L67.73 18.53L70.15 18.60C70.30 17.45 70.63 11.47 70.49 10.32L69.29 8.47L65.88 8.54C66.26 7.90 66.62 7.20 67.13 6.43L64.15 5.35C63.46 6.67 62.83 7.66 62.11 8.62L60.02 8.66L59.09 9.62C59.18 11.83 59.30 17.04 59.35 18.74L61.68 18.67C61.68 18.55 61.68 18.43 61.68 18.29L61.92 18.29C61.73 18.91 61.44 19.42 61.10 19.87C60.24 19.90 59.50 19.92 59.02 19.97L59.18 23.30C60.29 23.23 62.40 23.16 64.56 23.14C64.56 24.24 64.58 25.30 64.66 26.26L67.42 26.26C67.44 25.49 67.44 24.36 67.44 23.14C68.64 23.14 69.74 23.16 70.51 23.18L70.51 19.85C69.89 19.80 68.74 19.78 67.39 19.78C67.39 19.27 67.37 18.77 67.37 18.31ZM57.48 16.25C56.74 16.32 55.58 16.32 54.48 16.32L54.55 15.12C56.14 15.07 58.03 15.07 59.02 15.17L59.02 10.80C58.75 10.75 58.34 10.73 57.82 10.73L57.82 6.17L55.10 6.26L55.18 10.75L54.65 10.75C54.67 9.36 54.67 7.92 54.70 6.46L51.48 6.38C51.48 14.28 52.08 20.16 49.46 23.98L51.89 26.42C52.97 25.15 53.62 23.30 54 21C54.55 20.95 55.10 20.90 55.58 20.88C55.56 22.10 55.63 23.74 55.58 26.35L58.46 26.35C58.54 23.93 58.56 21.14 58.54 19.39ZM67.87 12.19C67.34 12.17 66.74 12.14 66.12 12.14L66.12 11.54L67.87 11.52ZM63.50 11.59L63.53 12.17C62.83 12.17 62.18 12.19 61.61 12.22C61.58 12.02 61.58 11.83 61.58 11.64ZM61.66 14.93C62.23 14.90 62.90 14.90 63.60 14.90L63.62 15.55C62.95 15.55 62.28 15.58 61.66 15.60ZM66.05 14.90L67.82 14.90C67.80 15.14 67.80 15.36 67.80 15.58C67.30 15.58 66.70 15.55 66.05 15.55ZM64.51 18.29L64.56 18.29C64.56 18.77 64.56 19.27 64.56 19.80L63.96 19.80C64.18 19.34 64.34 18.84 64.51 18.29ZM77.33 11.42C78.94 11.42 80.26 10.10 80.26 8.50C80.26 6.89 78.94 5.57 77.33 5.57C75.72 5.57 74.40 6.89 74.40 8.50C74.40 10.10 75.72 11.42 77.33 11.42ZM87.53 12.82L87.53 10.87L85.68 10.97L85.68 11.30C83.66 11.42 83.57 10.97 83.54 10.30C83.98 10.27 84.34 10.27 84.65 10.27C84.62 10.34 84.60 10.42 84.60 10.46L86.95 10.46C87.24 9.50 87.53 7.85 87.53 6.89L86.09 5.76C84.98 5.83 82.90 5.83 81.74 5.83L81.65 7.75L84.98 7.75C84.98 7.92 84.96 8.18 84.94 8.47C83.86 8.47 82.73 8.50 81.94 8.54L81.26 9.24C80.98 13.08 82.90 13.78 86.98 13.39ZM93.94 12.94L93.94 10.99L92.09 11.09L92.09 11.40C90.07 11.54 89.98 11.09 89.95 10.42C90.38 10.39 90.74 10.39 91.06 10.39C91.03 10.46 91.01 10.54 91.01 10.58L93.36 10.58C93.65 9.62 93.94 7.97 93.94 7.01L92.50 5.86C91.39 5.95 89.30 5.95 88.15 5.95L88.06 7.87L91.39 7.87C91.39 8.04 91.37 8.30 91.34 8.59C90.26 8.59 89.14 8.62 88.34 8.66L87.67 9.36C87.38 13.20 89.30 13.90 93.38 13.51ZM94.08 22.27C93.60 21.79 92.66 20.83 91.78 20.16C92.66 20.16 93.43 20.16 94.06 20.18L94.06 17.86C93.50 17.83 92.59 17.83 91.51 17.83C91.54 17.50 91.54 17.16 91.56 16.82C92.33 16.85 93 16.85 93.53 16.87L93.53 14.54C93.10 14.52 92.42 14.52 91.63 14.50C91.63 14.18 91.63 13.94 91.61 13.75L88.63 13.73C88.63 13.94 88.66 14.21 88.66 14.50C87.91 14.50 87.14 14.52 86.38 14.52C86.38 14.21 86.40 13.94 86.40 13.73L83.54 13.75C83.52 13.94 83.52 14.23 83.52 14.57C82.58 14.59 81.82 14.62 81.31 14.64L81.48 16.94L83.59 16.87C83.59 17.21 83.62 17.54 83.64 17.88C82.42 17.90 81.38 17.93 80.76 17.95L80.98 20.28L83.02 20.21C82.15 20.95 81.26 21.94 80.83 22.44L81.48 22.78C80.98 22.78 80.50 22.82 80.04 22.87C80.74 21.24 80.76 18.48 79.03 17.83C79.58 16.94 80.64 15.94 81.17 14.98L80.40 11.59C78.70 11.81 75.79 11.90 73.90 11.90L73.90 15.46C73.90 15.46 76.13 15.43 76.99 15.26C76.18 16.06 75.62 16.32 74.69 16.78L75.07 19.78C78.72 20.57 76.97 23.52 74.14 24.02L76.39 26.71C81.84 25.54 89.30 27.41 93.50 26.83L93.72 23.30C93.26 23.33 92.81 23.33 92.30 23.33ZM86.42 16.82L88.58 16.82C88.58 17.16 88.56 17.50 88.54 17.83L86.47 17.83C86.47 17.52 86.45 17.18 86.42 16.82ZM89.16 20.90C89.90 21.62 90.82 22.49 91.54 23.30C89.11 23.23 86.40 22.92 83.93 22.80C84.53 22.08 85.18 21.41 85.75 20.81L84.91 20.18C86.54 20.16 88.39 20.16 90.07 20.16ZM118.13 24.17C115.32 21.24 114.31 19.44 113.95 15.50L114.38 15.50C114.38 15.65 114.36 15.77 114.36 15.86L117.50 15.86C117.74 13.94 117.84 9.60 117.91 8.47L116.26 5.83C114.12 6.05 109.10 6.12 107.26 6.10L105.72 8.66C105.72 10.70 105.60 13.15 105.36 15.65L105.26 14.54C104.93 14.66 104.47 14.81 103.92 14.98L103.92 13.06C104.54 13.06 105.10 13.08 105.53 13.13L105.53 9.07C105.19 9.02 104.62 9 103.92 9L103.92 5.76L100.56 5.98L100.56 9.02C99.46 9.07 98.47 9.14 97.97 9.22L98.09 13.25C98.64 13.18 99.55 13.13 100.58 13.08L100.58 15.79C99.53 16.03 98.54 16.22 97.87 16.32L98.14 20.26C98.62 20.21 99.55 20.02 100.61 19.78L100.61 21.72L99.86 21.48L99.12 24.86L102.36 26.14L103.94 24.86L103.94 18.94L105.05 18.60C104.74 21.14 104.33 23.57 103.87 25.49L107.50 26.42C108.26 23.90 108.84 19.51 109.20 15.58C109.58 15.55 109.99 15.55 110.40 15.53C110.74 20.64 112.25 23.88 115.10 26.78ZM109.66 9.65C111.53 9.65 113.45 9.55 114.50 9.55C114.50 10.15 114.50 11.16 114.48 12.22C112.94 12.22 111.02 12.24 109.49 12.29C109.56 11.30 109.61 10.39 109.66 9.65Z" transform="translate(0, 0)" />
    </svg>
  