
    <svg xmlns="http://www.w3.org/2000/svg" viewBox="0 0 256.392 28.8">
      <path d="M4.73 6.70L5.26 25.97L9.86 25.97L9.86 17.98C11.86 18.65 14.83 19.68 18 21.07L19.80 17.06C16.06 15.50 13.13 14.18 9.86 13.01L9.86 6.62ZM14.45 10.92C15.53 10.92 16.39 10.06 16.39 8.98C16.39 7.92 15.53 7.03 14.45 7.03C13.39 7.03 12.53 7.92 12.53 8.98C12.53 10.06 13.39 10.92 14.45 10.92ZM19.15 11.59C19.90 11.09 20.11 10.10 19.63 9.36C19.15 8.59 18.14 8.40 17.40 8.88C16.66 9.36 16.44 10.37 16.92 11.11C17.42 11.86 18.41 12.07 19.15 11.59ZM43.68 11.62L43.58 7.01L28.30 7.06L28.30 11.69ZM34.20 27.26C40.08 23.93 42.62 20.95 44.83 17.28L44.40 12.36C42.43 12.67 29.42 12.74 27.14 12.67L27.14 17.42C30.96 17.57 34.70 17.42 38.62 17.16C36.48 19.63 34.68 21 31.03 23.33ZM70.80 23.33C69 22.70 67.25 21.96 65.66 21.14C65.76 21.17 65.88 21.17 65.98 21.17C67.20 21.17 68.18 20.18 68.18 18.94C68.18 17.93 67.51 17.09 66.60 16.82C67.94 16.82 69.10 16.85 70.03 16.87L70.03 13.82C68.69 13.78 65.98 13.78 62.95 13.78L62.95 13.39C65.04 13.39 66.96 13.42 68.26 13.44L68.26 10.42C67.22 10.39 65.23 10.37 62.95 10.37L62.95 9.98C65.33 9.98 67.54 10.01 69.02 10.03L69.02 7.03C67.87 6.98 65.57 6.96 62.95 6.98L62.95 5.35L57.41 5.42L57.46 7.01C54.72 7.03 52.27 7.08 51 7.15L51.26 10.13C52.63 10.08 54.96 10.03 57.53 10.01L57.55 10.42C55.25 10.44 53.23 10.49 52.15 10.56L52.39 13.54C53.54 13.49 55.46 13.44 57.62 13.42L57.62 13.82C54.43 13.85 51.53 13.90 50.04 13.94L50.35 16.94L53.74 16.87C52.54 17.98 51.02 18.98 49.22 20.16L52.85 22.51L53.33 22.22L53.47 25.66L55.56 26.52L60.91 25.20L59.81 22.22L57.70 22.80L57.60 20.30C59.81 22.20 63.29 25.03 67.61 26.26ZM57.58 19.03C58.37 18.29 59.06 17.54 59.64 16.80L65.35 16.80C64.42 17.06 63.74 17.93 63.74 18.94C63.74 19.51 63.96 20.04 64.30 20.42C62.66 19.51 61.27 18.55 60.29 17.62L57.58 19.42ZM92.33 6.60C89.47 6.43 79.01 6.55 75.96 6.79L76.20 11.47C79.39 11.23 88.51 11.14 92.33 11.33ZM90.19 17.14C91.73 17.14 93.12 17.16 94.18 17.21L94.18 12.48C90.74 12.31 78.14 12.43 74.45 12.67L74.74 17.35L76.54 17.28C76.56 17.16 76.61 17.04 76.63 16.92L77.14 17.26C78.50 17.21 80.16 17.18 81.91 17.16L81.98 21.22L80.98 20.95L79.87 25.46L84.29 26.74L86.47 25.46L86.45 17.11C87.65 17.11 88.85 17.11 89.93 17.14L87.34 19.80C88.75 22.01 89.81 23.69 90.79 25.70L94.46 22.49C93.43 20.74 92.02 18.74 90.19 17.14ZM76.85 25.68C78.55 23.78 79.68 21.79 80.66 19.63L77.14 17.26C76.92 17.26 76.73 17.28 76.54 17.28C75.74 19.80 74.76 21.14 73.54 23.30ZM115.37 18.31C115.49 18.31 115.61 18.31 115.73 18.31L115.73 18.53L118.15 18.60C118.30 17.45 118.63 11.47 118.49 10.32L117.29 8.47L113.88 8.54C114.26 7.90 114.62 7.20 115.13 6.43L112.15 5.35C111.46 6.67 110.83 7.66 110.11 8.62L108.02 8.66L107.09 9.62C107.18 11.83 107.30 17.04 107.35 18.74L109.68 18.67C109.68 18.55 109.68 18.43 109.68 18.29L109.92 18.29C109.73 18.91 109.44 19.42 109.10 19.87C108.24 19.90 107.50 19.92 107.02 19.97L107.18 23.30C108.29 23.23 110.40 23.16 112.56 23.14C112.56 24.24 112.58 25.30 112.66 26.26L115.42 26.26C115.44 25.49 115.44 24.36 115.44 23.14C116.64 23.14 117.74 23.16 118.51 23.18L118.51 19.85C117.89 19.80 116.74 19.78 115.39 19.78C115.39 19.27 115.37 18.77 115.37 18.31ZM105.48 16.25C104.74 16.32 103.58 16.32 102.48 16.32L102.55 15.12C104.14 15.07 106.03 15.07 107.02 15.17L107.02 10.80C106.75 10.75 106.34 10.73 105.82 10.73L105.82 6.17L103.10 6.26L103.18 10.75L102.65 10.75C102.67 9.36 102.67 7.92 102.70 6.46L99.48 6.38C99.48 14.28 100.08 20.16 97.46 23.98L99.89 26.42C100.97 25.15 101.62 23.30 102 21C102.55 20.95 103.10 20.90 103.58 20.88C103.56 22.10 103.63 23.74 103.58 26.35L106.46 26.35C106.54 23.93 106.56 21.14 106.54 19.39ZM115.87 12.19C115.34 12.17 114.74 12.14 114.12 12.14L114.12 11.54L115.87 11.52ZM111.50 11.59L111.53 12.17C110.83 12.17 110.18 12.19 109.61 12.22C109.58 12.02 109.58 11.83 109.58 11.64ZM109.66 14.93C110.23 14.90 110.90 14.90 111.60 14.90L111.62 15.55C110.95 15.55 110.28 15.58 109.66 15.60ZM114.05 14.90L115.82 14.90C115.80 15.14 115.80 15.36 115.80 15.58C115.30 15.58 114.70 15.55 114.05 15.55ZM112.51 18.29L112.56 18.29C112.56 18.77 112.56 19.27 112.56 19.80L111.96 19.80C112.18 19.34 112.34 18.84 112.51 18.29ZM137.45 10.20C138.48 10.20 139.32 9.36 139.32 8.30C139.32 7.27 138.48 6.43 137.45 6.43C136.42 6.43 135.58 7.27 135.58 8.30C135.58 9.36 136.42 10.20 137.45 10.20ZM133.70 12.12C132.91 11.76 132 11.47 130.94 11.28C131.40 9.89 131.81 8.74 132.07 8.16L126.70 7.58C126.43 8.28 126.05 9.55 125.62 11.06C124.27 11.14 122.76 11.30 121.13 11.57L121.44 16.90C122.45 16.73 123.38 16.61 124.25 16.51C123.77 18.55 123.43 20.28 123.43 20.86L127.75 22.18C128.04 21 128.62 18.89 129.29 16.61C132.14 17.35 132.26 19.87 128.88 25.46L134.42 26.54C136.46 22.87 137.52 19.51 137.23 16.87C136.03 15.53 134.66 13.70 133.70 12.12ZM140.52 12.41C141.24 12.41 141.89 11.90 142.06 11.16C142.25 10.25 141.60 9.29 140.52 9.29C139.80 9.29 139.15 9.79 138.98 10.54C138.79 11.45 139.46 12.41 140.52 12.41ZM140.59 12.86C139.20 12.86 138.29 11.74 138.55 10.37C137.54 10.87 136.44 10.68 135.72 9.89L133.82 11.45C135.26 13.94 137.28 16.42 138.82 17.88L142.80 15.48C142.32 15 141.50 13.99 140.59 12.86ZM152.33 14.40C152.35 14.33 152.35 14.23 152.38 14.11C154.85 14.11 157.61 14.11 159.89 14.14C159.86 14.23 159.86 14.33 159.86 14.40L164.21 14.40C164.45 13.49 165.10 8.14 164.90 6.70L163.37 5.74L149.26 5.88L147.65 6.53C147.84 8.30 148.03 13.22 148.10 14.40ZM160.15 8.26L160.15 8.81L152.52 8.88L152.52 8.33ZM152.50 11.81L152.50 11.23L160.06 11.21C160.06 11.42 160.03 11.64 160.01 11.86C157.61 11.81 154.75 11.81 152.50 11.81ZM166.15 23.95C165.36 23.71 164.42 23.38 163.44 22.94C164.40 22.13 165.24 21.26 165.84 20.45L164.69 17.59C163.01 17.78 159.31 17.86 156.84 17.81L156.72 20.52C157.13 20.52 157.66 20.54 158.23 20.57L156.65 21.98C156.82 22.20 157.32 22.58 158.02 23.06C157.68 23.26 157.34 23.45 157.03 23.59L156.91 22.54C156.62 22.56 156.22 22.58 155.71 22.63C155.76 20.86 155.76 18.89 155.71 17.50C159.43 17.50 163.10 17.47 166.01 17.45L166.01 14.64C161.14 14.66 153.34 14.57 145.87 14.78L146.18 17.59C146.50 17.59 146.83 17.59 147.14 17.57C147.17 19.49 147.24 21.98 147.38 23.16C146.90 23.18 146.52 23.21 146.28 23.21L146.47 25.39C147.53 25.32 150.19 25.20 152.62 25.06C152.59 25.51 152.57 25.90 152.52 26.18L155.54 26.35C155.59 25.99 155.62 25.49 155.64 24.89L156.65 24.82L157.34 26.66C158.50 26.23 159.72 25.61 160.87 24.86C162.41 25.73 164.02 26.50 164.98 26.62ZM152.76 17.52L152.76 18.05L149.98 18.10L149.98 17.54C150.89 17.54 151.82 17.52 152.76 17.52ZM152.76 19.99L152.76 20.50L150.05 20.54C150.05 20.35 150.02 20.18 150.02 19.99ZM159.48 20.62C160.32 20.62 161.18 20.59 161.88 20.50C161.62 20.71 161.16 21.07 160.61 21.43C160.20 21.17 159.84 20.90 159.48 20.62ZM150.17 22.99C150.17 22.82 150.14 22.66 150.14 22.49L152.71 22.49L152.71 22.82C151.87 22.87 151.01 22.94 150.17 22.99ZM183.38 15.19L190.18 15.26L189.79 9.62C188.38 9.58 185.64 9.58 182.57 9.58C182.66 8.52 182.71 7.42 182.71 6.24L177.22 5.90C177.22 7.30 177.19 8.52 177.10 9.62C174.14 9.67 171.46 9.72 170.02 9.79L169.82 15.36C171.24 15.29 173.45 15.26 175.92 15.24C174.82 17.74 172.92 19.46 169.80 22.01L173.21 26.40C176.02 24.55 178.20 22.32 179.76 19.56C181.58 22.39 184.10 24.65 186.96 26.42L190.20 22.01C187.66 20.62 185.04 18.34 183.38 15.19ZM194.09 24.12C207.60 27.96 210.29 19.01 204.70 16.32C207.60 15.22 208.10 10.22 205.22 7.87C202.42 5.59 195.67 6.17 192.60 9.96L195.84 13.46C201.72 9.53 203.09 15 198.96 15.55L198.94 16.87C204.10 17.40 201.82 22.97 195.22 19.06ZM227.11 20.47C228.26 18.31 229.06 15.72 229.32 12.67C229.80 12.67 230.23 12.70 230.57 12.72L230.57 8.86C229.58 8.76 226.90 8.76 224.59 8.81C224.76 7.85 224.88 6.89 224.98 5.95L221.30 5.59C220.92 8.21 220.18 12.58 218.71 15.50C218.28 15.10 217.82 14.69 217.32 14.28L217.32 12.60C218.18 12.60 218.95 12.62 219.50 12.67L219.48 8.28C219.05 8.23 218.28 8.21 217.37 8.21L217.39 5.69L213.65 5.88L213.65 8.28C212.62 8.33 211.73 8.40 211.22 8.47L211.37 12.84C211.87 12.77 212.69 12.70 213.62 12.65L213.62 13.15C212.62 15.43 210.89 17.52 209.86 18.82L212.16 22.03C212.74 21.48 213.22 20.86 213.62 20.26L213.60 26.21L217.20 26.33L217.27 19.22C217.66 19.66 218.02 20.09 218.28 20.54L219.58 17.90L220.85 18.67C221.06 18.43 221.28 18.17 221.47 17.88C221.78 18.77 222.12 19.61 222.53 20.40C221.42 21.79 220.18 22.92 218.90 24L221.81 26.74C222.84 25.97 223.85 25.03 224.78 23.93C225.79 25.15 226.90 26.18 228.02 27.05L230.90 24.31C229.56 23.18 228.24 21.96 227.11 20.47ZM224.23 12.70C224.66 12.67 225.12 12.67 225.60 12.65C225.48 13.94 225.22 15.07 224.88 16.10C224.57 15.07 224.33 13.94 224.23 12.70ZM237.79 26.33C239.90 26.33 241.68 24.60 241.68 22.46C241.68 20.33 239.90 18.60 237.79 18.60C235.66 18.60 233.88 20.33 233.88 22.46C233.88 24.60 235.66 26.33 237.79 26.33ZM237.79 23.57C237.17 23.57 236.66 23.06 236.66 22.46C236.66 21.89 237.17 21.38 237.79 21.38C238.39 21.38 238.90 21.89 238.90 22.46C238.90 23.06 238.39 23.57 237.79 23.57Z" transform="translate(0, 0)" />
    </svg>
  