<svg xmlns="http://www.w3.org/2000/svg" viewBox="0 0 230.376 28.8">
  <path d="M4.73 6.70L5.26 25.97L9.86 25.97L9.86 17.98C11.86 18.65 14.83 19.68 18 21.07L19.80 17.06C16.06 15.50 13.13 14.18 9.86 13.01L9.86 6.62ZM14.45 10.92C15.53 10.92 16.39 10.06 16.39 8.98C16.39 7.92 15.53 7.03 14.45 7.03C13.39 7.03 12.53 7.92 12.53 8.98C12.53 10.06 13.39 10.92 14.45 10.92ZM19.15 11.59C19.90 11.09 20.11 10.10 19.63 9.36C19.15 8.59 18.14 8.40 17.40 8.88C16.66 9.36 16.44 10.37 16.92 11.11C17.42 11.86 18.41 12.07 19.15 11.59ZM43.68 11.62L43.58 7.01L28.30 7.06L28.30 11.69ZM34.20 27.26C40.08 23.93 42.62 20.95 44.83 17.28L44.40 12.36C42.43 12.67 29.42 12.74 27.14 12.67L27.14 17.42C30.96 17.57 34.70 17.42 38.62 17.16C36.48 19.63 34.68 21 31.03 23.33ZM60.91 16.27C60.19 14.28 59.40 12.84 58.63 11.66L56.33 12.84C56.88 13.92 57.82 15.50 58.42 17.38ZM57 25.34C62.76 23.88 67.61 19.82 67.61 13.13L63.96 12.91C63.43 18.14 61.30 20.76 55.63 22.03ZM57.77 17.71C57.05 15.74 56.23 14.30 55.49 13.13L53.18 14.30C53.71 15.36 54.67 16.94 55.25 18.82ZM88.46 10.01C89.47 10.01 90.29 9.19 90.29 8.18C90.29 7.15 89.47 6.34 88.46 6.34C87.43 6.34 86.62 7.15 86.62 8.18C86.62 9.19 87.43 10.01 88.46 10.01ZM93.14 11.04C92.09 11.76 90.41 11.18 90.14 9.72C89.71 10.18 89.11 10.46 88.46 10.46C87.12 10.46 86.18 9.50 86.18 7.92C85.01 7.94 83.76 7.94 82.63 7.97C82.66 7.63 82.66 7.27 82.66 6.91L77.98 6.91C77.83 10.18 76.94 14.47 74.28 17.28L78.48 19.66C80.09 17.50 81.29 15.26 81.98 12.60C84.55 12.55 87.26 12.50 88.44 12.38C87.91 15.02 85.68 20.40 80.71 24.38L84.05 27.24C87.29 25.42 92.21 19.49 93.70 11.62ZM92.93 10.66C93.65 10.20 93.84 9.24 93.38 8.52C92.90 7.82 91.97 7.61 91.25 8.09C90.53 8.54 90.34 9.50 90.79 10.20C91.27 10.92 92.21 11.11 92.93 10.66ZM112.01 24.43C113.81 24.43 115.85 23.76 117.79 22.61C119.09 23.23 120.50 23.83 122.04 24.41L124.30 21.14C123.19 20.74 122.16 20.33 121.20 19.92C122.06 19.06 122.83 18.10 123.50 17.06L120.72 14.74C119.88 16.01 118.73 17.16 117.53 18.07C116.54 17.52 115.70 16.97 114.96 16.39C117.22 15.29 119.57 13.82 119.57 10.99C119.57 7.63 116.47 5.81 113.38 5.81C110.40 5.81 107.45 7.51 107.45 11.14C107.45 12.70 108 14.30 109.08 15.89C107.78 16.85 106.80 18.05 106.80 19.58C106.80 19.97 106.85 20.38 106.99 20.81C107.78 23.33 109.70 24.43 112.01 24.43ZM112.46 13.90C111.84 12.96 111.50 12.10 111.50 11.23C111.50 10.20 112.42 9.60 113.33 9.60C114.26 9.60 115.20 10.22 115.20 11.74C115.20 12.43 113.98 13.10 112.46 13.90ZM112.54 20.30C111.89 20.30 111.41 20.09 111.19 19.56C111.12 19.42 111.10 19.25 111.10 19.13C111.10 18.86 111.19 18.65 111.36 18.43C112.03 19.01 112.75 19.61 113.59 20.16C113.21 20.26 112.87 20.30 112.54 20.30ZM139.10 6.70L139.63 25.97L144.24 25.97L144.24 17.98C146.23 18.65 149.21 19.68 152.38 21.07L154.18 17.06C150.43 15.50 147.50 14.18 144.24 13.01L144.24 6.62ZM148.82 10.92C149.90 10.92 150.77 10.06 150.77 8.98C150.77 7.92 149.90 7.03 148.82 7.03C147.77 7.03 146.90 7.92 146.90 8.98C146.90 10.06 147.77 10.92 148.82 10.92ZM153.53 11.59C154.27 11.09 154.49 10.10 154.01 9.36C153.53 8.59 152.52 8.40 151.78 8.88C151.03 9.36 150.82 10.37 151.30 11.11C151.80 11.86 152.78 12.07 153.53 11.59ZM177.36 7.94C174.31 8.23 169.39 8.50 165.74 8.57L165.74 7.94L160.58 7.94C160.54 12.77 161.06 19.51 161.76 24.14L166.99 24.14C166.94 23.86 166.87 23.54 166.82 23.21C168.96 23.21 171.70 23.28 173.93 23.30L173.78 24.14L178.61 24.14C179.62 20.59 179.90 13.32 180.17 11.28ZM166.27 18.43C166.10 16.61 165.98 14.71 165.91 13.03C168.58 13.03 172.15 13.01 174.94 12.79C174.94 14.23 174.84 16.20 174.60 18.43C172.22 18.36 168.84 18.38 166.27 18.43ZM195.29 16.27C194.57 14.28 193.78 12.84 193.01 11.66L190.70 12.84C191.26 13.92 192.19 15.50 192.79 17.38ZM191.38 25.34C197.14 23.88 201.98 19.82 201.98 13.13L198.34 12.91C197.81 18.14 195.67 20.76 190.01 22.03ZM192.14 17.71C191.42 15.74 190.61 14.30 189.86 13.13L187.56 14.30C188.09 15.36 189.05 16.94 189.62 18.82ZM216.46 26.33C219.38 24.26 221.81 22.03 223.82 19.44C222.58 18.94 221.76 17.69 221.76 16.34C221.76 14.47 223.25 12.96 225.12 12.96C225.96 12.96 226.73 13.27 227.35 13.80C227.59 13.30 227.86 12.77 228.07 12.24L225.19 7.58C221.50 7.87 214.61 8.23 209.76 8.14L209.76 13.70C214.99 13.66 216.05 13.58 221.74 13.18C219.24 17.11 216.50 19.42 212.76 22.80ZM225.12 19.25C226.73 19.25 228.02 17.95 228.02 16.34C228.02 14.71 226.73 13.42 225.12 13.42C223.51 13.42 222.22 14.71 222.22 16.34C222.22 17.95 223.51 19.25 225.12 19.25ZM225.12 17.42C224.52 17.42 224.02 16.94 224.02 16.34C224.02 15.72 224.52 15.24 225.12 15.24C225.72 15.24 226.22 15.72 226.22 16.34C226.22 16.94 225.72 17.42 225.12 17.42Z" transform="translate(0, 0)" />
</svg>