
    <svg xmlns="http://www.w3.org/2000/svg" viewBox="0 0 120 28.8">
      <path d="M4.73 6.70L5.26 25.97L9.86 25.97L9.86 17.98C11.86 18.65 14.83 19.68 18 21.07L19.80 17.06C16.06 15.50 13.13 14.18 9.86 13.01L9.86 6.62ZM14.45 10.92C15.53 10.92 16.39 10.06 16.39 8.98C16.39 7.92 15.53 7.03 14.45 7.03C13.39 7.03 12.53 7.92 12.53 8.98C12.53 10.06 13.39 10.92 14.45 10.92ZM19.15 11.59C19.90 11.09 20.11 10.10 19.63 9.36C19.15 8.59 18.14 8.40 17.40 8.88C16.66 9.36 16.44 10.37 16.92 11.11C17.42 11.86 18.41 12.07 19.15 11.59ZM43.68 11.62L43.58 7.01L28.30 7.06L28.30 11.69ZM34.20 27.26C40.08 23.93 42.62 20.95 44.83 17.28L44.40 12.36C42.43 12.67 29.42 12.74 27.14 12.67L27.14 17.42C30.96 17.57 34.70 17.42 38.62 17.16C36.48 19.63 34.68 21 31.03 23.33ZM70.80 23.33C69 22.70 67.25 21.96 65.66 21.14C65.76 21.17 65.88 21.17 65.98 21.17C67.20 21.17 68.18 20.18 68.18 18.94C68.18 17.93 67.51 17.09 66.60 16.82C67.94 16.82 69.10 16.85 70.03 16.87L70.03 13.82C68.69 13.78 65.98 13.78 62.95 13.78L62.95 13.39C65.04 13.39 66.96 13.42 68.26 13.44L68.26 10.42C67.22 10.39 65.23 10.37 62.95 10.37L62.95 9.98C65.33 9.98 67.54 10.01 69.02 10.03L69.02 7.03C67.87 6.98 65.57 6.96 62.95 6.98L62.95 5.35L57.41 5.42L57.46 7.01C54.72 7.03 52.27 7.08 51 7.15L51.26 10.13C52.63 10.08 54.96 10.03 57.53 10.01L57.55 10.42C55.25 10.44 53.23 10.49 52.15 10.56L52.39 13.54C53.54 13.49 55.46 13.44 57.62 13.42L57.62 13.82C54.43 13.85 51.53 13.90 50.04 13.94L50.35 16.94L53.74 16.87C52.54 17.98 51.02 18.98 49.22 20.16L52.85 22.51L53.33 22.22L53.47 25.66L55.56 26.52L60.91 25.20L59.81 22.22L57.70 22.80L57.60 20.30C59.81 22.20 63.29 25.03 67.61 26.26ZM57.58 19.03C58.37 18.29 59.06 17.54 59.64 16.80L65.35 16.80C64.42 17.06 63.74 17.93 63.74 18.94C63.74 19.51 63.96 20.04 64.30 20.42C62.66 19.51 61.27 18.55 60.29 17.62L57.58 19.42ZM92.33 6.60C89.47 6.43 79.01 6.55 75.96 6.79L76.20 11.47C79.39 11.23 88.51 11.14 92.33 11.33ZM90.19 17.14C91.73 17.14 93.12 17.16 94.18 17.21L94.18 12.48C90.74 12.31 78.14 12.43 74.45 12.67L74.74 17.35L76.54 17.28C76.56 17.16 76.61 17.04 76.63 16.92L77.14 17.26C78.50 17.21 80.16 17.18 81.91 17.16L81.98 21.22L80.98 20.95L79.87 25.46L84.29 26.74L86.47 25.46L86.45 17.11C87.65 17.11 88.85 17.11 89.93 17.14L87.34 19.80C88.75 22.01 89.81 23.69 90.79 25.70L94.46 22.49C93.43 20.74 92.02 18.74 90.19 17.14ZM76.85 25.68C78.55 23.78 79.68 21.79 80.66 19.63L77.14 17.26C76.92 17.26 76.73 17.28 76.54 17.28C75.74 19.80 74.76 21.14 73.54 23.30ZM115.37 18.31C115.49 18.31 115.61 18.31 115.73 18.31L115.73 18.53L118.15 18.60C118.30 17.45 118.63 11.47 118.49 10.32L117.29 8.47L113.88 8.54C114.26 7.90 114.62 7.20 115.13 6.43L112.15 5.35C111.46 6.67 110.83 7.66 110.11 8.62L108.02 8.66L107.09 9.62C107.18 11.83 107.30 17.04 107.35 18.74L109.68 18.67C109.68 18.55 109.68 18.43 109.68 18.29L109.92 18.29C109.73 18.91 109.44 19.42 109.10 19.87C108.24 19.90 107.50 19.92 107.02 19.97L107.18 23.30C108.29 23.23 110.40 23.16 112.56 23.14C112.56 24.24 112.58 25.30 112.66 26.26L115.42 26.26C115.44 25.49 115.44 24.36 115.44 23.14C116.64 23.14 117.74 23.16 118.51 23.18L118.51 19.85C117.89 19.80 116.74 19.78 115.39 19.78C115.39 19.27 115.37 18.77 115.37 18.31ZM105.48 16.25C104.74 16.32 103.58 16.32 102.48 16.32L102.55 15.12C104.14 15.07 106.03 15.07 107.02 15.17L107.02 10.80C106.75 10.75 106.34 10.73 105.82 10.73L105.82 6.17L103.10 6.26L103.18 10.75L102.65 10.75C102.67 9.36 102.67 7.92 102.70 6.46L99.48 6.38C99.48 14.28 100.08 20.16 97.46 23.98L99.89 26.42C100.97 25.15 101.62 23.30 102 21C102.55 20.95 103.10 20.90 103.58 20.88C103.56 22.10 103.63 23.74 103.58 26.35L106.46 26.35C106.54 23.93 106.56 21.14 106.54 19.39ZM115.87 12.19C115.34 12.17 114.74 12.14 114.12 12.14L114.12 11.54L115.87 11.52ZM111.50 11.59L111.53 12.17C110.83 12.17 110.18 12.19 109.61 12.22C109.58 12.02 109.58 11.83 109.58 11.64ZM109.66 14.93C110.23 14.90 110.90 14.90 111.60 14.90L111.62 15.55C110.95 15.55 110.28 15.58 109.66 15.60ZM114.05 14.90L115.82 14.90C115.80 15.14 115.80 15.36 115.80 15.58C115.30 15.58 114.70 15.55 114.05 15.55ZM112.51 18.29L112.56 18.29C112.56 18.77 112.56 19.27 112.56 19.80L111.96 19.80C112.18 19.34 112.34 18.84 112.51 18.29Z" transform="translate(0, 0)" />
    </svg>
  