<svg xmlns="http://www.w3.org/2000/svg" viewBox="0 0 24 28.8">
  <path d="M20.74 11.93C19.92 11.81 19.30 11.16 19.13 10.34C17.93 11.69 15.67 11.06 15.29 9.29L14.18 9.29L14.18 7.01L9.65 7.01L9.65 9.31L3.74 9.34L3.46 13.99L9.65 13.97L9.65 25.51L14.18 25.51L14.18 13.94L20.74 13.92ZM17.50 10.63C18.48 10.63 19.30 9.84 19.30 8.83C19.30 7.85 18.48 7.03 17.50 7.03C16.49 7.03 15.67 7.85 15.67 8.83C15.67 9.84 16.49 10.63 17.50 10.63ZM22.32 9.19C21.86 8.47 20.90 8.28 20.23 8.74C19.54 9.19 19.32 10.15 19.80 10.82C20.26 11.52 21.17 11.74 21.86 11.26C22.58 10.80 22.78 9.89 22.32 9.19ZM4.99 24.17C6.14 22.92 7.97 19.44 8.57 16.70L4.68 15.65C3.84 17.66 3.10 19.90 1.42 22.27ZM15.10 17.57C15.96 19.10 17.40 22.58 18 23.90L22.06 22.66C21.02 20.30 20.04 17.74 18.86 15.91Z" transform="translate(0, 0)" />
</svg>