<svg xmlns="http://www.w3.org/2000/svg" viewBox="0 0 24 28.8">
  <path d="M18.98 7.94C15.94 8.23 11.02 8.50 7.37 8.57L7.37 7.94L2.21 7.94C2.16 12.77 2.69 19.51 3.38 24.14L8.62 24.14C8.57 23.86 8.50 23.54 8.45 23.21C10.58 23.21 13.32 23.28 15.55 23.30L15.41 24.14L20.23 24.14C21.24 20.59 21.53 13.32 21.79 11.28ZM7.90 18.43C7.73 16.61 7.61 14.71 7.54 13.03C10.20 13.03 13.78 13.01 16.56 12.79C16.56 14.23 16.46 16.20 16.22 18.43C13.85 18.36 10.46 18.38 7.90 18.43Z" transform="translate(0, 0)" />
</svg>