
    <svg xmlns="http://www.w3.org/2000/svg" viewBox="0 0 72 28.8">
      <path d="M21.65 19.85C18.53 20.69 14.66 20.76 13.01 19.37C12.34 18.82 11.88 18.14 11.57 17.35C15.65 16.90 19.78 16.44 21.77 16.30L21.31 10.80C19.73 10.90 15.38 11.28 11.11 11.74C11.23 10.25 11.42 8.71 11.57 7.13L5.02 7.80C4.90 9.31 4.80 10.87 4.78 12.43C3.50 12.58 2.47 12.72 1.82 12.82L2.21 18.41C2.95 18.34 4.01 18.22 5.23 18.07C5.69 20.45 6.55 22.49 8.04 23.83C11.16 26.62 16.58 26.71 22.25 25.46ZM46.20 9.58C45.84 9.55 45.36 9.55 44.76 9.55L44.78 5.71L40.15 5.78L40.18 9.58C38.18 9.62 36.22 9.72 35.18 9.84L35.42 13.94C36.58 13.90 38.38 13.87 40.22 13.87L40.27 21.94L39.48 21.70L38.52 25.58L42.05 26.76L44.69 24.89L44.74 13.90C45.29 13.92 45.79 13.92 46.20 13.94ZM33.89 13.27C34.30 13.30 34.68 13.30 35.04 13.32L35.11 8.81C34.42 8.81 33.17 8.81 31.80 8.83L31.80 6.38L29.18 6.46L29.28 8.88C27.86 8.90 26.59 8.98 25.85 9.10L25.94 13.39C26.45 13.39 27.02 13.37 27.62 13.34L26.83 14.93C27.48 15.77 28.22 16.82 28.97 17.95C28.06 19.03 26.93 19.63 25.78 20.09L26.78 24.50C28.03 24.07 29.64 22.97 31.03 21.17L33.22 24.74L35.26 21.65C34.49 20.33 33.70 19.06 32.88 17.83C33.38 16.51 33.74 15 33.89 13.27ZM29.78 13.30C30.12 13.30 30.48 13.27 30.84 13.27C30.77 13.70 30.70 14.11 30.60 14.47C30.34 14.09 30.05 13.70 29.78 13.30ZM39.62 17.66C39.62 16.39 38.59 15.36 37.32 15.36C36.02 15.36 34.99 16.39 34.99 17.66C34.99 18.96 36.02 19.99 37.32 19.99C38.59 19.99 39.62 18.96 39.62 17.66ZM70.34 16.03C69.29 15.94 66.79 15.89 63.91 15.86C63.43 14.83 62.76 13.94 61.87 13.27L67.22 10.44L66.36 6.19L51.43 6.65L51.53 11.14L58.20 10.68L56.35 12.34L56.06 14.78C56.86 15 57.53 15.38 58.06 15.89C54.31 15.91 50.90 16.01 49.68 16.15L50.06 21.07C52.01 20.95 55.39 20.90 58.90 20.95C58.51 21.53 57.94 21.98 57.12 22.25L55.70 21.96L55.03 26.02L58.37 26.81L60.82 26.33C62.95 25.22 64.15 23.21 64.54 21.02C66.82 21.07 68.81 21.14 70.03 21.22Z" transform="translate(0, 0)" />
    </svg>
  