
    <svg xmlns="http://www.w3.org/2000/svg" viewBox="0 0 24 28.8">
      <path d="M21.82 6.84C18.43 6.62 6.05 6.77 2.40 7.03L2.71 12.10C3.89 12.02 5.76 11.95 7.90 11.93C6.79 15.91 4.66 21.17 2.18 24.02L6.86 25.90C8.47 24.38 9.91 21.67 11.11 18.72C12.82 18.74 14.59 18.77 15.98 18.65C15.74 20.04 15.05 21.91 14.35 22.61C14.35 22.61 13.87 22.39 13.42 21.91L11.06 24.02C11.78 25.18 13.42 26.38 14.35 27.05L18.55 25.66C19.25 24.48 20.88 20.28 21.34 17.93L19.25 13.51C16.87 13.63 14.81 13.68 12.84 13.68C13.03 13.06 13.20 12.43 13.34 11.86C16.63 11.83 19.82 11.86 21.82 11.95Z" transform="translate(0, 0)" />
    </svg>
  