
    <svg xmlns="http://www.w3.org/2000/svg" viewBox="0 0 216 28.8">
      <path d="M21.82 6.84C18.43 6.62 6.05 6.77 2.40 7.03L2.71 12.10C3.89 12.02 5.76 11.95 7.90 11.93C6.79 15.91 4.66 21.17 2.18 24.02L6.86 25.90C8.47 24.38 9.91 21.67 11.11 18.72C12.82 18.74 14.59 18.77 15.98 18.65C15.74 20.04 15.05 21.91 14.35 22.61C14.35 22.61 13.87 22.39 13.42 21.91L11.06 24.02C11.78 25.18 13.42 26.38 14.35 27.05L18.55 25.66C19.25 24.48 20.88 20.28 21.34 17.93L19.25 13.51C16.87 13.63 14.81 13.68 12.84 13.68C13.03 13.06 13.20 12.43 13.34 11.86C16.63 11.83 19.82 11.86 21.82 11.95ZM45.82 6.84C42.43 6.62 30.05 6.77 26.40 7.03L26.71 12.10C27.89 12.02 29.76 11.95 31.90 11.93C30.79 15.91 28.66 21.17 26.18 24.02L30.86 25.90C32.47 24.38 33.91 21.67 35.11 18.72C36.82 18.74 38.59 18.77 39.98 18.65C39.74 20.04 39.05 21.91 38.35 22.61C38.35 22.61 37.87 22.39 37.42 21.91L35.06 24.02C35.78 25.18 37.42 26.38 38.35 27.05L42.55 25.66C43.25 24.48 44.88 20.28 45.34 17.93L43.25 13.51C40.87 13.63 38.81 13.68 36.84 13.68C37.03 13.06 37.20 12.43 37.34 11.86C40.63 11.83 43.82 11.86 45.82 11.95ZM59.81 8.50C56.93 7.46 55.99 7.25 53.23 6.77L52.18 10.94C53.74 11.21 56.40 11.95 58.25 12.50ZM54.34 25.90C64.51 24.12 68.02 20.90 69.46 10.18L64.30 9.62C63 17.42 61.20 19.44 52.94 20.47ZM58.15 13.51C55.27 12.48 54.34 12.29 51.58 11.81L50.52 15.96C52.08 16.25 54.74 16.97 56.57 17.52ZM92.18 9.34C85.06 7.54 82.08 7.06 77.52 6.53L76.99 11.06C81.12 11.66 85.54 12.50 91.06 14.02ZM90.22 15.29C83.09 13.51 82.44 13.56 77.90 13.03L77.38 17.57C81.48 18.14 83.57 18.48 89.09 19.99ZM91.01 21.70C83.88 19.90 80.90 19.42 76.34 18.89L75.82 23.42C79.94 24.02 84.36 24.86 89.88 26.38ZM112.22 20.38C112.44 19.06 112.68 17.62 113.02 15.98L111.48 13.20C110.11 13.46 104.04 13.78 101.78 13.68L101.78 17.21C103.01 17.21 106.70 17.16 109.13 17.02C109.01 18.60 108.94 19.44 108.74 20.45L100.78 20.59L100.78 24.41L114.53 24.17L114.53 20.33ZM129.65 25.68C134.95 23.33 138.46 20.76 141.58 17.35L137.30 13.97C134.74 16.10 132.94 17.47 128.86 19.85C128.71 15.05 128.81 11.52 128.50 6.82L122.64 7.08C123.14 12.48 123.36 20.66 123.62 24.14ZM149.76 18.82C152.71 18.05 159.17 18.17 162.96 18.82L163.49 13.61C159.46 12.72 153.43 12.60 148.92 13.61ZM185.98 7.32C184.82 7.46 181.32 7.49 178.68 7.51C178.70 7.20 178.70 6.84 178.70 6.50L174.12 6.50C173.98 9.67 173.11 13.90 170.50 16.68L174.22 18.77C175.85 16.54 177.24 14.30 178.03 11.57C180.70 11.52 183.60 11.45 184.75 11.38C184.49 12.86 184.08 14.42 183.38 15.98C181.90 15.02 179.95 14.26 178.70 13.70L177.07 17.30C177.98 17.69 179.86 18.65 181.32 19.44C180.19 20.90 178.73 22.32 176.78 23.62L180.07 26.42C183.26 24.65 188.06 18.82 189.53 11.11ZM197.76 18.82C200.71 18.05 207.17 18.17 210.96 18.82L211.49 13.61C207.46 12.72 201.43 12.60 196.92 13.61Z" transform="translate(0, 0)" />
    </svg>
  