<svg xmlns="http://www.w3.org/2000/svg" viewBox="0 0 24 28.8">
  <path d="M14.74 9.50L14.83 5.62L9.10 5.71L9.14 9.60L3.22 9.67L1.73 10.97C1.90 13.56 2.18 17.64 2.23 20.57L7.25 20.57C7.25 20.45 7.27 20.30 7.27 20.18L9.26 20.18L9.34 26.64L14.33 26.54L14.47 20.21C15.17 20.23 15.82 20.23 16.42 20.23L16.42 20.57L21.29 20.74C21.74 18.48 22.22 13.08 22.30 11.33L20.81 9.43ZM14.64 13.80L16.54 13.78C16.54 14.26 16.51 15.12 16.49 16.10L14.59 16.03ZM7.34 16.06C7.34 15.34 7.34 14.62 7.32 13.90L9.19 13.87L9.22 16.01C8.57 16.03 7.94 16.03 7.34 16.06Z" transform="translate(0, 0)" />
</svg>