
    <svg xmlns="http://www.w3.org/2000/svg" viewBox="0 0 24 28.8">
      <path d="M22.15 8.04C20.78 7.99 18.02 7.97 14.95 7.97L15.29 5.45L9.14 5.45L9.34 8.02C6.17 8.06 3.31 8.11 1.82 8.21L2.14 12.34C2.93 12.29 4.01 12.26 5.28 12.24C4.27 13.87 3.02 15.58 1.94 16.78L4.99 19.15C6.77 17.62 8.64 15.02 9.74 13.51L7.97 12.19C10.56 12.14 13.51 12.12 16.18 12.12L14.35 13.51C15.43 15.02 17.30 17.62 19.08 19.15L22.15 16.78C21.05 15.55 19.75 13.80 18.74 12.14L22.15 12.22ZM14.83 15C14.06 15.91 13.18 16.78 12.22 17.59C11.26 16.78 10.39 15.91 9.62 15L6.55 18.43C7.08 19.06 7.66 19.66 8.28 20.26C6.60 21.17 4.80 21.89 3.02 22.37L4.90 26.57C7.32 25.92 9.89 24.77 12.22 23.28C14.57 24.77 17.11 25.92 19.54 26.57L21.43 22.37C19.66 21.89 17.86 21.17 16.18 20.26C16.80 19.66 17.38 19.06 17.90 18.43Z" transform="translate(0, 0)" />
    </svg>
  