
    <svg xmlns="http://www.w3.org/2000/svg" viewBox="0 0 24 28.8">
      <path d="M22.61 13.73L19.08 13.85L19.08 13.06L22.68 13.06L22.58 8.47L15.17 8.62C15.38 7.66 15.55 6.74 15.72 5.95L11.69 5.04C11.64 5.54 11.54 6.14 11.45 6.82L8.40 4.73C7.30 7.15 3.67 12.62 1.15 15.31L4.13 18.74C4.37 18.55 4.61 18.31 4.87 18.07C4.82 20.71 4.82 23.78 4.92 26.11L9 26.11C8.83 23.57 8.81 19.94 8.90 16.56L12.26 18.46C12.98 16.80 13.61 14.93 14.11 13.06L14.42 13.06L14.62 26.11L19.08 26.11L19.08 22.90L22.68 22.90L22.61 18.62L19.08 18.74L19.08 18L22.68 18ZM9.02 12.77C9.62 11.86 10.20 10.97 10.73 10.13C10.25 12.12 9.62 14.23 8.90 16.10C8.93 14.93 8.98 13.80 9.02 12.77Z" transform="translate(0, 0)" />
    </svg>
  