<svg xmlns="http://www.w3.org/2000/svg" viewBox="0 0 24 28.8">
  <path d="M17.18 18.26L18.65 18.26C18.65 18.34 18.62 18.41 18.60 18.48L22.15 18.48C22.42 17.74 23.04 13.73 23.04 13.22L21.62 12C20.88 11.95 19.44 11.95 17.78 11.98C17.81 11.76 17.81 11.57 17.81 11.35C19.75 11.35 21.55 11.38 22.73 11.42L22.73 7.94C21.82 7.87 19.97 7.85 17.90 7.85C17.93 7.15 17.93 6.43 17.95 5.71L13.85 5.47C13.87 6.31 13.90 7.13 13.92 7.90L11.45 7.97C11.54 7.82 11.62 7.68 11.69 7.56L7.70 4.80C6.60 7.25 3.55 12.43 1.03 15.17L4.01 18.70C4.25 18.48 4.49 18.26 4.75 18C4.70 20.69 4.70 23.81 4.80 26.18L8.88 26.18C8.66 22.46 8.74 16.56 8.93 12.29L9.58 11.18L9.60 11.52C10.58 11.45 12.24 11.40 14.09 11.38C14.09 11.59 14.11 11.83 14.11 12.05C13.68 12.05 13.27 12.05 12.86 12.07C12.86 11.98 12.89 11.90 12.89 11.86L9.07 12.10C9.07 13.34 9.10 17.23 9.48 18.62L12.89 18.48L12.86 18.31C13.13 18.29 13.39 18.29 13.68 18.29C13.54 18.74 13.39 19.20 13.18 19.63C12.67 19.30 12.19 18.96 11.74 18.60L9.07 20.76C9.86 21.31 10.58 21.79 11.30 22.27C10.82 22.73 10.27 23.18 9.65 23.64L12.50 26.26C13.37 25.66 14.09 24.98 14.69 24.22C16.49 25.13 18.36 25.85 20.64 26.50L22.42 23.35C20.30 22.85 18.24 22.18 16.32 21.31C16.70 20.38 16.97 19.37 17.18 18.26ZM19.10 14.54C19.06 14.76 19.01 15.12 18.98 15.58L17.57 15.58C17.59 15.24 17.62 14.90 17.64 14.54ZM12.77 15.65C12.77 15.31 12.77 14.95 12.79 14.62C13.25 14.59 13.70 14.59 14.14 14.59C14.14 14.95 14.14 15.29 14.11 15.62C13.63 15.62 13.20 15.65 12.77 15.65Z" transform="translate(0, 0)" />
</svg>