
    <svg xmlns="http://www.w3.org/2000/svg" viewBox="0 0 24 28.8">
      <path d="M19.51 20.06C20.45 20.06 21.31 20.06 22.06 20.09L22.18 16.73L17.69 16.73L17.69 15.86L18.38 15.86C18.36 15.98 18.36 16.08 18.34 16.18L21.74 16.18C21.98 15.02 22.61 9 22.61 8.28L21.24 6.43C19.92 6.31 16.25 6.41 13.25 6.53C13.25 6.43 13.27 6.34 13.27 6.26L10.06 6.50L8.21 5.26C7.13 7.66 3.70 13.01 1.18 15.65L4.13 19.01C4.37 18.82 4.63 18.58 4.87 18.34C4.85 20.93 4.85 23.93 4.92 26.23L9 26.23C8.93 25.22 8.88 24.07 8.88 22.82L10.61 25.92C11.57 25.49 12.67 24.77 13.66 23.93L13.63 26.52L17.69 26.50L17.69 23.21C18.46 24.26 19.32 25.27 19.87 25.78L22.78 23.40C21.89 22.73 20.54 21.29 19.51 20.06ZM18.79 9.98C18.74 10.39 18.70 11.23 18.65 12.22C16.97 12.24 14.81 12.24 13.13 12.31L13.13 10.08C15.53 10.03 17.95 10.01 18.79 9.98ZM8.86 22.42C8.83 19.32 8.90 15.77 9.07 12.94C9.19 12.77 9.31 12.58 9.41 12.41C9.48 13.99 9.58 15.48 9.74 16.34L13.27 16.18C13.27 16.08 13.25 16.01 13.25 15.89L13.73 15.89L13.70 16.78C11.90 16.80 10.30 16.85 9.34 16.92L9.46 20.16C10.25 20.16 11.16 20.14 12.14 20.11C11.18 21 9.98 21.79 8.86 22.42Z" transform="translate(0, 0)" />
    </svg>
  