<svg xmlns="http://www.w3.org/2000/svg" viewBox="0 0 48 28.8">
  <path d="M7.92 12.77C8.86 11.02 9.67 9.31 10.30 8.16L6.86 5.54C5.93 7.87 3.26 13.34 1.08 15.94L3.62 19.22C3.84 19.03 4.06 18.79 4.27 18.55C4.25 21.10 4.25 24.05 4.32 26.30L7.85 26.30C7.63 22.66 7.73 16.82 7.92 12.77ZM12.89 16.54C14.64 16.30 16.20 15.70 17.50 14.83C17.76 15 18.05 15.17 18.34 15.34C16.46 16.01 14.16 16.70 12.26 16.94L12.94 19.63C16.42 18.98 18.46 18.17 20.57 17.26L19.85 16.10C20.18 16.27 20.52 16.42 20.86 16.54L22.73 13.66C21.74 13.25 20.81 12.82 19.94 12.36C20.45 11.59 20.83 10.75 21.12 9.84C21.48 9.86 21.82 9.86 22.10 9.89L22.10 7.10C21.05 7.03 18.26 7.03 15.96 7.08C16.03 6.77 16.06 6.46 16.10 6.12L12.62 5.86C12.17 8.06 11.81 10.06 9.86 12L12.70 13.27C13.20 12.89 13.61 12.48 13.99 12.02C14.26 12.31 14.52 12.58 14.81 12.84C13.90 13.32 12.72 13.68 11.30 13.87C11.30 13.70 11.33 13.54 11.33 13.39L8.33 13.39C8.23 15.24 8.30 22.01 8.42 23.98L11.42 23.81C11.28 21.89 11.21 16.70 11.30 13.99ZM16.44 9.86C16.80 9.84 17.14 9.84 17.50 9.84C17.40 10.08 17.30 10.32 17.18 10.54C16.92 10.32 16.66 10.08 16.44 9.86ZM12.94 22.97C16.42 22.32 19.82 21.31 21.91 20.40L20.47 18.17C18.50 18.94 14.45 19.99 12.26 20.28ZM21.53 21.36C19.56 22.10 14.06 23.57 11.88 23.86L12.58 26.54C16.03 25.90 20.83 24.48 22.94 23.59ZM38.74 18.46C40.70 18.41 42.79 18.41 43.99 18.50L43.99 13.56C43.08 13.46 40.85 13.44 38.74 13.49L38.74 11.78C41.28 11.78 43.66 11.81 45.24 11.88L45.24 6.91C42.05 6.72 30.36 6.84 26.95 7.10L27.22 12.05C28.56 11.95 30.79 11.88 33.29 11.83L33.46 21.12C33.12 21.12 32.81 21.14 32.50 21.14C32.40 18.82 32.38 15.74 32.50 14.18L27.86 14.18C27.72 15.38 27.74 18.77 27.86 21.26C27.17 21.29 26.59 21.34 26.14 21.36L26.45 26.28C30.31 26.04 41.26 25.92 45.89 26.14L45.89 21.17C44.54 21.10 41.81 21.07 38.74 21.07Z" transform="translate(0, 0)" />
</svg>