
    <svg xmlns="http://www.w3.org/2000/svg" viewBox="0 0 24 28.8">
      <path d="M8.02 12.91C9 11.14 9.86 9.36 10.54 8.09L6.96 5.40C5.98 7.80 3.46 12.91 1.20 15.58L3.89 18.96C4.10 18.77 4.32 18.53 4.54 18.29C4.51 20.90 4.51 23.95 4.58 26.26L7.99 26.26C7.80 22.70 7.85 17.06 8.02 12.91ZM19.70 22.51C20.78 22.51 21.72 22.54 22.34 22.56L22.34 19.44C21.67 19.39 20.11 19.37 18.34 19.39C18.36 19.13 18.38 18.86 18.38 18.58C19.73 18.58 20.95 18.60 21.65 18.65L21.65 15.55C20.69 15.48 17.57 15.48 15.22 15.55L15.36 14.81L13.20 14.62C15.79 14.50 20.09 14.47 22.10 14.59L22.10 11.26C21.91 11.23 21.62 11.23 21.34 11.23C21.53 10.01 21.67 8.69 21.67 7.80L19.82 6.12C18.84 6.24 13.92 6.38 12.82 6.24L12.70 9.60C15.02 9.72 17.30 9.72 18.17 9.60C18.17 10.01 18.10 10.61 18 11.21C15.58 11.21 12.84 11.28 11.71 11.40L11.86 14.69C12.10 14.66 12.41 14.64 12.74 14.64C12.48 16.25 12.14 17.45 11.54 18.77C11.52 16.39 11.54 13.99 11.59 12.55L8.59 12.55C8.47 14.74 8.54 22.68 8.71 25.01L11.69 24.82L12.84 26.62C14.66 25.75 16.06 24.86 16.99 23.54C17.88 24.77 19.46 26.18 20.52 26.78L22.46 24.50C21.58 24.02 20.52 23.30 19.70 22.51ZM15.67 18.62C15.67 18.89 15.65 19.15 15.65 19.42C15.10 19.42 14.57 19.44 14.06 19.44C14.18 19.18 14.30 18.91 14.40 18.65C14.78 18.62 15.22 18.62 15.67 18.62ZM11.66 24.24C11.62 23.16 11.57 21.58 11.54 19.90L11.64 19.92L11.76 22.66C12.31 22.61 13.25 22.58 14.38 22.56C13.78 23.14 12.89 23.64 11.66 24.24Z" transform="translate(0, 0)" />
    </svg>
  