<svg xmlns="http://www.w3.org/2000/svg" viewBox="0 0 24 28.8">
  <path d="M18.77 5.98L15.26 6.05L15.29 7.25C13.37 7.30 11.59 7.34 10.58 7.42L10.58 7.54L7.90 5.74C6.84 7.99 3.74 13.15 1.30 15.70L4.18 18.94C4.42 18.74 4.63 18.53 4.87 18.31C4.85 20.78 4.85 23.66 4.92 25.85L8.30 25.85C8.09 22.68 8.16 17.71 8.30 13.85C9.19 12.48 10.03 11.09 10.75 9.89L10.80 10.58C11.88 10.54 13.56 10.49 15.38 10.46L15.41 11.18L14.74 11.21L14.74 10.99L11.64 11.09C11.74 13.39 11.86 21.29 11.90 22.82L14.66 22.82C14.66 22.73 14.69 22.58 14.69 22.44C15.98 22.46 17.40 22.46 18.58 22.49L18.58 22.82L21.34 22.82C21.48 21.67 21.86 14.06 21.74 12.22L20.86 10.99L18.77 11.06L18.77 10.44C20.23 10.44 21.60 10.46 22.66 10.51L22.66 7.27C21.82 7.25 20.40 7.22 18.77 7.22ZM18.74 13.87L18.74 14.40L14.78 14.45L14.78 13.97ZM11.30 23.14C11.40 20.74 11.42 15.36 11.38 14.02L8.66 14.02C8.66 15.77 8.52 22.22 8.50 24.19L10.20 26.11C11.76 26.11 20.86 26.14 22.63 26.09L22.66 23.14C20.86 23.09 13.13 23.06 11.30 23.14ZM18.72 16.56L18.72 17.14L14.78 17.18L14.78 16.58ZM14.76 19.75L14.76 19.32L18.67 19.30C18.67 19.46 18.67 19.63 18.65 19.80C17.40 19.75 15.96 19.75 14.76 19.75Z" transform="translate(0, 0)" />
</svg>