
    <svg xmlns="http://www.w3.org/2000/svg" viewBox="0 0 24 28.8">
      <path d="M23.09 21.82C22.10 21.48 20.78 20.64 19.56 19.75C20.38 19.27 21 18.74 21.77 18.10L20.64 16.32L21.62 16.32C21.86 15.53 22.49 11.40 22.49 10.92L21.10 9.65C20.52 9.62 19.51 9.60 18.31 9.62C18.98 9 19.56 8.35 20.26 7.13L19.27 5.76C18.41 5.81 16.68 5.86 15.07 5.88L15.22 5.54L11.83 5.38C11.66 6.41 10.90 7.70 9.94 8.90C10.20 8.40 10.44 7.94 10.66 7.56L6.96 4.90C5.93 7.27 3.24 12.82 0.89 15.50L3.67 18.89C3.91 18.70 4.13 18.46 4.37 18.19C4.34 20.81 4.34 23.86 4.42 26.16L8.21 26.16C7.97 22.39 8.09 16.25 8.28 12.07C8.47 11.74 8.64 11.40 8.81 11.06C8.86 12.82 8.93 15.36 9.14 16.42L11.83 16.32C11.83 16.27 11.81 16.20 11.81 16.13L12.36 16.13C11.04 16.90 9.65 17.52 8.38 18.07L9.05 20.16C10.10 19.92 12.41 18.74 14.30 17.59L14.47 17.90C12.98 18.91 10.61 19.94 9.05 20.76L9.58 22.90C11.02 22.37 13.49 21.17 15.19 20.04L15.26 20.47C13.51 21.58 10.78 22.99 9.38 23.62L9.86 25.68C11.28 25.15 13.54 24.07 15.26 23.09C15.19 23.45 15.10 23.78 14.95 24.12L14.57 23.90L13.39 25.87L15.74 26.95L17.69 25.92C18.24 24.89 18.53 23.74 18.60 22.56C19.49 23.35 20.45 24.12 21.72 24.72ZM15.70 8.88C15.53 9.17 15.31 9.41 15.05 9.65C14.30 9.67 13.54 9.70 12.82 9.72L13.39 8.90C14.18 8.90 14.83 8.93 15.70 8.88ZM19.37 12.24C19.32 12.46 19.30 12.84 19.27 13.30C18.62 13.30 17.90 13.30 17.11 13.32L17.11 12.26C18.14 12.26 18.96 12.24 19.37 12.24ZM11.74 12.34C12.48 12.31 13.25 12.31 14.02 12.29L14.06 13.37C13.20 13.37 12.41 13.39 11.74 13.42ZM17.98 18.02C17.76 17.33 17.47 16.66 17.18 16.08L18.94 16.08C18.94 16.18 18.91 16.25 18.89 16.32L19.87 16.32C19.27 16.99 18.60 17.54 17.98 18.02Z" transform="translate(0, 0)" />
    </svg>
  