<svg xmlns="http://www.w3.org/2000/svg" viewBox="0 0 304.392 28.8">
  <path d="M22.56 22.97C18.77 18.62 15.43 12.19 14.74 7.82L11.81 6.22L3.36 6.77L3.34 12.17L10.42 11.83C10.46 12.26 10.56 12.72 10.66 13.18C7.92 16.80 5.69 18.84 1.51 21.62L4.66 26.45C8.54 23.81 10.44 21.91 13.06 19.15C14.33 21.58 15.98 24.02 17.78 26.09ZM46.27 10.56C45.65 10.51 44.14 10.51 42.48 10.51C42.50 10.27 42.55 10.03 42.58 9.77C43.80 9.77 44.93 9.79 45.55 9.84L45.55 6.98C45.07 6.94 43.92 6.91 42.65 6.94C42.62 6.58 42.62 6.24 42.60 5.88L39.60 6.10C39.62 6.41 39.62 6.70 39.65 6.96C38.64 7.01 37.80 7.03 37.39 7.08L37.49 9.94C37.92 9.89 38.74 9.84 39.70 9.82L39.62 10.54C38.16 10.56 36.89 10.61 36.29 10.66L36.43 13.32C36.82 13.30 37.42 13.27 38.14 13.25C37.63 13.68 36.98 14.09 36.12 14.52L37.61 16.68L34.58 16.73L35.90 14.76C35.21 14.35 34.39 13.82 33.72 13.22C34.61 13.22 35.40 13.25 35.90 13.27L35.90 10.58C35.28 10.54 33.77 10.54 32.11 10.54C32.14 10.30 32.18 10.06 32.21 9.79C33.43 9.79 34.56 9.82 35.18 9.86L35.18 7.01C34.70 6.96 33.58 6.94 32.28 6.96C32.26 6.60 32.26 6.26 32.23 5.90L29.23 6.12C29.26 6.43 29.26 6.72 29.28 6.98C28.27 7.03 27.43 7.06 27.02 7.10L27.14 9.96C27.58 9.91 28.39 9.86 29.33 9.84C29.33 10.10 29.30 10.34 29.28 10.56C27.82 10.58 26.54 10.63 25.94 10.68L26.06 13.34C26.45 13.32 27.07 13.30 27.79 13.27C27.29 13.70 26.62 14.11 25.75 14.54L27.50 17.06C28.99 16.32 30.07 15.41 30.84 14.23C31.51 15.12 32.62 16.06 33.50 16.73L29.06 16.78L27.48 17.54C27.67 19.54 27.86 25.15 27.94 26.47L32.11 26.47C32.14 26.38 32.14 26.26 32.16 26.14C34.58 26.14 37.32 26.14 39.55 26.18C39.53 26.28 39.53 26.38 39.53 26.47L43.82 26.47C44.06 25.44 44.71 19.37 44.50 17.71L42.98 16.63L38.52 16.68C39.67 16.01 40.54 15.22 41.18 14.23C42.07 15.36 43.66 16.61 44.57 17.21L46.27 14.74C45.55 14.33 44.74 13.80 44.09 13.20C44.98 13.20 45.74 13.22 46.27 13.25ZM32.30 20.18L32.30 19.56L39.82 19.49L39.82 20.14ZM32.26 23.52C32.28 23.30 32.28 23.09 32.28 22.87L39.72 22.85C39.70 23.09 39.70 23.33 39.67 23.57C37.32 23.52 34.49 23.52 32.26 23.52ZM66.72 20.02C64.34 20.35 59.33 20.66 58.90 18.36C58.46 16.06 64.03 13.85 66.91 12.96L65.95 7.13C63.94 7.13 53.30 7.80 50.71 8.21L51.05 12.98C54.70 12.77 55.78 12.58 59.28 12.17C55.34 14.16 53.64 16.34 54.19 19.82C55.03 25.13 62.81 25.54 67.10 25.03ZM68.66 17.33C69.34 16.78 69.43 15.79 68.88 15.12C68.35 14.45 67.37 14.33 66.70 14.88C66 15.43 65.90 16.42 66.46 17.09C66.98 17.76 67.99 17.86 68.66 17.33ZM63.74 18.65C64.78 18.65 65.62 17.81 65.62 16.78C65.62 15.74 64.78 14.90 63.74 14.90C62.71 14.90 61.87 15.74 61.87 16.78C61.87 17.81 62.71 18.65 63.74 18.65ZM77.33 11.42C78.94 11.42 80.26 10.10 80.26 8.50C80.26 6.89 78.94 5.57 77.33 5.57C75.72 5.57 74.40 6.89 74.40 8.50C74.40 10.10 75.72 11.42 77.33 11.42ZM87.53 12.82L87.53 10.87L85.68 10.97L85.68 11.30C83.66 11.42 83.57 10.97 83.54 10.30C83.98 10.27 84.34 10.27 84.65 10.27C84.62 10.34 84.60 10.42 84.60 10.46L86.95 10.46C87.24 9.50 87.53 7.85 87.53 6.89L86.09 5.76C84.98 5.83 82.90 5.83 81.74 5.83L81.65 7.75L84.98 7.75C84.98 7.92 84.96 8.18 84.94 8.47C83.86 8.47 82.73 8.50 81.94 8.54L81.26 9.24C80.98 13.08 82.90 13.78 86.98 13.39ZM93.94 12.94L93.94 10.99L92.09 11.09L92.09 11.40C90.07 11.54 89.98 11.09 89.95 10.42C90.38 10.39 90.74 10.39 91.06 10.39C91.03 10.46 91.01 10.54 91.01 10.58L93.36 10.58C93.65 9.62 93.94 7.97 93.94 7.01L92.50 5.86C91.39 5.95 89.30 5.95 88.15 5.95L88.06 7.87L91.39 7.87C91.39 8.04 91.37 8.30 91.34 8.59C90.26 8.59 89.14 8.62 88.34 8.66L87.67 9.36C87.38 13.20 89.30 13.90 93.38 13.51ZM94.08 22.27C93.60 21.79 92.66 20.83 91.78 20.16C92.66 20.16 93.43 20.16 94.06 20.18L94.06 17.86C93.50 17.83 92.59 17.83 91.51 17.83C91.54 17.50 91.54 17.16 91.56 16.82C92.33 16.85 93 16.85 93.53 16.87L93.53 14.54C93.10 14.52 92.42 14.52 91.63 14.50C91.63 14.18 91.63 13.94 91.61 13.75L88.63 13.73C88.63 13.94 88.66 14.21 88.66 14.50C87.91 14.50 87.14 14.52 86.38 14.52C86.38 14.21 86.40 13.94 86.40 13.73L83.54 13.75C83.52 13.94 83.52 14.23 83.52 14.57C82.58 14.59 81.82 14.62 81.31 14.64L81.48 16.94L83.59 16.87C83.59 17.21 83.62 17.54 83.64 17.88C82.42 17.90 81.38 17.93 80.76 17.95L80.98 20.28L83.02 20.21C82.15 20.95 81.26 21.94 80.83 22.44L81.48 22.78C80.98 22.78 80.50 22.82 80.04 22.87C80.74 21.24 80.76 18.48 79.03 17.83C79.58 16.94 80.64 15.94 81.17 14.98L80.40 11.59C78.70 11.81 75.79 11.90 73.90 11.90L73.90 15.46C73.90 15.46 76.13 15.43 76.99 15.26C76.18 16.06 75.62 16.32 74.69 16.78L75.07 19.78C78.72 20.57 76.97 23.52 74.14 24.02L76.39 26.71C81.84 25.54 89.30 27.41 93.50 26.83L93.72 23.30C93.26 23.33 92.81 23.33 92.30 23.33ZM86.42 16.82L88.58 16.82C88.58 17.16 88.56 17.50 88.54 17.83L86.47 17.83C86.47 17.52 86.45 17.18 86.42 16.82ZM89.16 20.90C89.90 21.62 90.82 22.49 91.54 23.30C89.11 23.23 86.40 22.92 83.93 22.80C84.53 22.08 85.18 21.41 85.75 20.81L84.91 20.18C86.54 20.16 88.39 20.16 90.07 20.16ZM112.08 11.35C113.11 11.35 113.95 10.51 113.95 9.48C113.95 8.42 113.11 7.58 112.08 7.58C111.02 7.58 110.18 8.42 110.18 9.48C110.18 10.51 111.02 11.35 112.08 11.35ZM115.46 12.22C116.30 12.41 117.14 11.86 117.31 11.02C117.48 10.18 116.95 9.34 116.11 9.14C115.25 8.98 114.43 9.53 114.24 10.37C114.07 11.21 114.60 12.05 115.46 12.22ZM118.87 21.29C115.49 18 112.08 14.76 109.10 10.94L103.85 10.61C101.83 14.16 99.29 17.40 97.13 20.26L101.14 22.73C102.62 21.17 104.28 18.77 106.27 15.26C109.15 18.50 112.08 21.72 115.06 24.50ZM131.23 26.74C137.26 26.74 139.87 23.71 139.49 20.06C139.03 15.98 135.36 14.11 131.45 14.06C133.51 13.01 136.10 11.33 138.12 9.38L136.15 6.65C133.51 6.96 128.04 7.10 124.27 7.10L124.22 10.80C125.66 10.92 127.75 10.94 130.46 10.75C128.40 12.07 127.61 12.50 126.12 13.10L126.84 17.52C129.82 17.50 135.14 17.40 135.36 19.97C135.55 22.32 133.56 23.04 131.45 22.99C130.37 22.97 128.11 22.85 128.23 22.15C128.40 21.19 130.66 21.77 133.06 22.85L134.57 19.49C129.43 16.85 124.80 17.47 124.10 21.26C123.58 24.14 125.69 26.74 131.23 26.74ZM163.37 18.31C163.49 18.31 163.61 18.31 163.73 18.31L163.73 18.53L166.15 18.60C166.30 17.45 166.63 11.47 166.49 10.32L165.29 8.47L161.88 8.54C162.26 7.90 162.62 7.20 163.13 6.43L160.15 5.35C159.46 6.67 158.83 7.66 158.11 8.62L156.02 8.66L155.09 9.62C155.18 11.83 155.30 17.04 155.35 18.74L157.68 18.67C157.68 18.55 157.68 18.43 157.68 18.29L157.92 18.29C157.73 18.91 157.44 19.42 157.10 19.87C156.24 19.90 155.50 19.92 155.02 19.97L155.18 23.30C156.29 23.23 158.40 23.16 160.56 23.14C160.56 24.24 160.58 25.30 160.66 26.26L163.42 26.26C163.44 25.49 163.44 24.36 163.44 23.14C164.64 23.14 165.74 23.16 166.51 23.18L166.51 19.85C165.89 19.80 164.74 19.78 163.39 19.78C163.39 19.27 163.37 18.77 163.37 18.31ZM153.48 16.25C152.74 16.32 151.58 16.32 150.48 16.32L150.55 15.12C152.14 15.07 154.03 15.07 155.02 15.17L155.02 10.80C154.75 10.75 154.34 10.73 153.82 10.73L153.82 6.17L151.10 6.26L151.18 10.75L150.65 10.75C150.67 9.36 150.67 7.92 150.70 6.46L147.48 6.38C147.48 14.28 148.08 20.16 145.46 23.98L147.89 26.42C148.97 25.15 149.62 23.30 150 21C150.55 20.95 151.10 20.90 151.58 20.88C151.56 22.10 151.63 23.74 151.58 26.35L154.46 26.35C154.54 23.93 154.56 21.14 154.54 19.39ZM163.87 12.19C163.34 12.17 162.74 12.14 162.12 12.14L162.12 11.54L163.87 11.52ZM159.50 11.59L159.53 12.17C158.83 12.17 158.18 12.19 157.61 12.22C157.58 12.02 157.58 11.83 157.58 11.64ZM157.66 14.93C158.23 14.90 158.90 14.90 159.60 14.90L159.62 15.55C158.95 15.55 158.28 15.58 157.66 15.60ZM162.05 14.90L163.82 14.90C163.80 15.14 163.80 15.36 163.80 15.58C163.30 15.58 162.70 15.55 162.05 15.55ZM160.51 18.29L160.56 18.29C160.56 18.77 160.56 19.27 160.56 19.80L159.96 19.80C160.18 19.34 160.34 18.84 160.51 18.29ZM185.45 10.20C186.48 10.20 187.32 9.36 187.32 8.30C187.32 7.27 186.48 6.43 185.45 6.43C184.42 6.43 183.58 7.27 183.58 8.30C183.58 9.36 184.42 10.20 185.45 10.20ZM181.70 12.12C180.91 11.76 180 11.47 178.94 11.28C179.40 9.89 179.81 8.74 180.07 8.16L174.70 7.58C174.43 8.28 174.05 9.55 173.62 11.06C172.27 11.14 170.76 11.30 169.13 11.57L169.44 16.90C170.45 16.73 171.38 16.61 172.25 16.51C171.77 18.55 171.43 20.28 171.43 20.86L175.75 22.18C176.04 21 176.62 18.89 177.29 16.61C180.14 17.35 180.26 19.87 176.88 25.46L182.42 26.54C184.46 22.87 185.52 19.51 185.23 16.87C184.03 15.53 182.66 13.70 181.70 12.12ZM188.52 12.41C189.24 12.41 189.89 11.90 190.06 11.16C190.25 10.25 189.60 9.29 188.52 9.29C187.80 9.29 187.15 9.79 186.98 10.54C186.79 11.45 187.46 12.41 188.52 12.41ZM188.59 12.86C187.20 12.86 186.29 11.74 186.55 10.37C185.54 10.87 184.44 10.68 183.72 9.89L181.82 11.45C183.26 13.94 185.28 16.42 186.82 17.88L190.80 15.48C190.32 15 189.50 13.99 188.59 12.86ZM200.33 14.40C200.35 14.33 200.35 14.23 200.38 14.11C202.85 14.11 205.61 14.11 207.89 14.14C207.86 14.23 207.86 14.33 207.86 14.40L212.21 14.40C212.45 13.49 213.10 8.14 212.90 6.70L211.37 5.74L197.26 5.88L195.65 6.53C195.84 8.30 196.03 13.22 196.10 14.40ZM208.15 8.26L208.15 8.81L200.52 8.88L200.52 8.33ZM200.50 11.81L200.50 11.23L208.06 11.21C208.06 11.42 208.03 11.64 208.01 11.86C205.61 11.81 202.75 11.81 200.50 11.81ZM214.15 23.95C213.36 23.71 212.42 23.38 211.44 22.94C212.40 22.13 213.24 21.26 213.84 20.45L212.69 17.59C211.01 17.78 207.31 17.86 204.84 17.81L204.72 20.52C205.13 20.52 205.66 20.54 206.23 20.57L204.65 21.98C204.82 22.20 205.32 22.58 206.02 23.06C205.68 23.26 205.34 23.45 205.03 23.59L204.91 22.54C204.62 22.56 204.22 22.58 203.71 22.63C203.76 20.86 203.76 18.89 203.71 17.50C207.43 17.50 211.10 17.47 214.01 17.45L214.01 14.64C209.14 14.66 201.34 14.57 193.87 14.78L194.18 17.59C194.50 17.59 194.83 17.59 195.14 17.57C195.17 19.49 195.24 21.98 195.38 23.16C194.90 23.18 194.52 23.21 194.28 23.21L194.47 25.39C195.53 25.32 198.19 25.20 200.62 25.06C200.59 25.51 200.57 25.90 200.52 26.18L203.54 26.35C203.59 25.99 203.62 25.49 203.64 24.89L204.65 24.82L205.34 26.66C206.50 26.23 207.72 25.61 208.87 24.86C210.41 25.73 212.02 26.50 212.98 26.62ZM200.76 17.52L200.76 18.05L197.98 18.10L197.98 17.54C198.89 17.54 199.82 17.52 200.76 17.52ZM200.76 19.99L200.76 20.50L198.05 20.54C198.05 20.35 198.02 20.18 198.02 19.99ZM207.48 20.62C208.32 20.62 209.18 20.59 209.88 20.50C209.62 20.71 209.16 21.07 208.61 21.43C208.20 21.17 207.84 20.90 207.48 20.62ZM198.17 22.99C198.17 22.82 198.14 22.66 198.14 22.49L200.71 22.49L200.71 22.82C199.87 22.87 199.01 22.94 198.17 22.99ZM231.38 15.19L238.18 15.26L237.79 9.62C236.38 9.58 233.64 9.58 230.57 9.58C230.66 8.52 230.71 7.42 230.71 6.24L225.22 5.90C225.22 7.30 225.19 8.52 225.10 9.62C222.14 9.67 219.46 9.72 218.02 9.79L217.82 15.36C219.24 15.29 221.45 15.26 223.92 15.24C222.82 17.74 220.92 19.46 217.80 22.01L221.21 26.40C224.02 24.55 226.20 22.32 227.76 19.56C229.58 22.39 232.10 24.65 234.96 26.42L238.20 22.01C235.66 20.62 233.04 18.34 231.38 15.19ZM242.09 24.12C255.60 27.96 258.29 19.01 252.70 16.32C255.60 15.22 256.10 10.22 253.22 7.87C250.42 5.59 243.67 6.17 240.60 9.96L243.84 13.46C249.72 9.53 251.09 15 246.96 15.55L246.94 16.87C252.10 17.40 249.82 22.97 243.22 19.06ZM275.11 20.47C276.26 18.31 277.06 15.72 277.32 12.67C277.80 12.67 278.23 12.70 278.57 12.72L278.57 8.86C277.58 8.76 274.90 8.76 272.59 8.81C272.76 7.85 272.88 6.89 272.98 5.95L269.30 5.59C268.92 8.21 268.18 12.58 266.71 15.50C266.28 15.10 265.82 14.69 265.32 14.28L265.32 12.60C266.18 12.60 266.95 12.62 267.50 12.67L267.48 8.28C267.05 8.23 266.28 8.21 265.37 8.21L265.39 5.69L261.65 5.88L261.65 8.28C260.62 8.33 259.73 8.40 259.22 8.47L259.37 12.84C259.87 12.77 260.69 12.70 261.62 12.65L261.62 13.15C260.62 15.43 258.89 17.52 257.86 18.82L260.16 22.03C260.74 21.48 261.22 20.86 261.62 20.26L261.60 26.21L265.20 26.33L265.27 19.22C265.66 19.66 266.02 20.09 266.28 20.54L267.58 17.90L268.85 18.67C269.06 18.43 269.28 18.17 269.47 17.88C269.78 18.77 270.12 19.61 270.53 20.40C269.42 21.79 268.18 22.92 266.90 24L269.81 26.74C270.84 25.97 271.85 25.03 272.78 23.93C273.79 25.15 274.90 26.18 276.02 27.05L278.90 24.31C277.56 23.18 276.24 21.96 275.11 20.47ZM272.23 12.70C272.66 12.67 273.12 12.67 273.60 12.65C273.48 13.94 273.22 15.07 272.88 16.10C272.57 15.07 272.33 13.94 272.23 12.70ZM285.79 26.33C287.90 26.33 289.68 24.60 289.68 22.46C289.68 20.33 287.90 18.60 285.79 18.60C283.66 18.60 281.88 20.33 281.88 22.46C281.88 24.60 283.66 26.33 285.79 26.33ZM285.79 23.57C285.17 23.57 284.66 23.06 284.66 22.46C284.66 21.89 285.17 21.38 285.79 21.38C286.39 21.38 286.90 21.89 286.90 22.46C286.90 23.06 286.39 23.57 285.79 23.57Z" transform="translate(0, 0)" />
</svg>