
    <svg xmlns="http://www.w3.org/2000/svg" viewBox="0 0 96 28.8">
      <path d="M22.56 22.97C18.77 18.62 15.43 12.19 14.74 7.82L11.81 6.22L3.36 6.77L3.34 12.17L10.42 11.83C10.46 12.26 10.56 12.72 10.66 13.18C7.92 16.80 5.69 18.84 1.51 21.62L4.66 26.45C8.54 23.81 10.44 21.91 13.06 19.15C14.33 21.58 15.98 24.02 17.78 26.09ZM46.27 10.56C45.65 10.51 44.14 10.51 42.48 10.51C42.50 10.27 42.55 10.03 42.58 9.77C43.80 9.77 44.93 9.79 45.55 9.84L45.55 6.98C45.07 6.94 43.92 6.91 42.65 6.94C42.62 6.58 42.62 6.24 42.60 5.88L39.60 6.10C39.62 6.41 39.62 6.70 39.65 6.96C38.64 7.01 37.80 7.03 37.39 7.08L37.49 9.94C37.92 9.89 38.74 9.84 39.70 9.82L39.62 10.54C38.16 10.56 36.89 10.61 36.29 10.66L36.43 13.32C36.82 13.30 37.42 13.27 38.14 13.25C37.63 13.68 36.98 14.09 36.12 14.52L37.61 16.68L34.58 16.73L35.90 14.76C35.21 14.35 34.39 13.82 33.72 13.22C34.61 13.22 35.40 13.25 35.90 13.27L35.90 10.58C35.28 10.54 33.77 10.54 32.11 10.54C32.14 10.30 32.18 10.06 32.21 9.79C33.43 9.79 34.56 9.82 35.18 9.86L35.18 7.01C34.70 6.96 33.58 6.94 32.28 6.96C32.26 6.60 32.26 6.26 32.23 5.90L29.23 6.12C29.26 6.43 29.26 6.72 29.28 6.98C28.27 7.03 27.43 7.06 27.02 7.10L27.14 9.96C27.58 9.91 28.39 9.86 29.33 9.84C29.33 10.10 29.30 10.34 29.28 10.56C27.82 10.58 26.54 10.63 25.94 10.68L26.06 13.34C26.45 13.32 27.07 13.30 27.79 13.27C27.29 13.70 26.62 14.11 25.75 14.54L27.50 17.06C28.99 16.32 30.07 15.41 30.84 14.23C31.51 15.12 32.62 16.06 33.50 16.73L29.06 16.78L27.48 17.54C27.67 19.54 27.86 25.15 27.94 26.47L32.11 26.47C32.14 26.38 32.14 26.26 32.16 26.14C34.58 26.14 37.32 26.14 39.55 26.18C39.53 26.28 39.53 26.38 39.53 26.47L43.82 26.47C44.06 25.44 44.71 19.37 44.50 17.71L42.98 16.63L38.52 16.68C39.67 16.01 40.54 15.22 41.18 14.23C42.07 15.36 43.66 16.61 44.57 17.21L46.27 14.74C45.55 14.33 44.74 13.80 44.09 13.20C44.98 13.20 45.74 13.22 46.27 13.25ZM32.30 20.18L32.30 19.56L39.82 19.49L39.82 20.14ZM32.26 23.52C32.28 23.30 32.28 23.09 32.28 22.87L39.72 22.85C39.70 23.09 39.70 23.33 39.67 23.57C37.32 23.52 34.49 23.52 32.26 23.52ZM66.96 14.64C68.04 13.54 68.98 12.46 69.55 11.50L68.50 7.08C68.11 7.08 66.41 7.18 64.87 7.22C64.90 7.13 64.94 7.01 64.99 6.89L62.18 5.16C60.77 8.38 60.05 9.43 57.84 11.54L59.45 14.93C59.93 14.57 60.36 14.18 60.79 13.78C61.03 14.04 61.32 14.30 61.63 14.59C60.62 15.34 59.59 15.98 58.66 16.42C58.25 15.38 57.82 14.45 57.38 13.85L55.70 14.90C56.35 14.16 57.07 13.27 57.67 12.38L55.51 10.20C55.30 10.46 54.96 10.87 54.53 11.38C54.38 11.28 54.24 11.18 54.07 11.11C55.18 10.13 56.50 8.83 57.41 7.80L54.67 5.16C53.40 6.58 51.58 8.66 50.02 10.08L49.78 12.84C50.35 13.25 51.22 13.78 52.06 14.23C51.05 15.38 50.14 16.42 49.78 16.78L50.06 19.80C51.10 19.78 52.06 19.75 52.99 19.70L52.94 21.29C52.54 20.86 51.96 20.59 51.34 20.59C50.09 20.59 49.06 21.67 49.06 22.97C49.06 24.29 50.09 25.37 51.34 25.37C51.91 25.37 52.44 25.13 52.85 24.77L52.80 26.45L55.92 26.45L55.90 23.18C56.28 23.95 56.64 24.72 56.78 25.44L59.78 24.22C59.14 22.68 58.30 21.34 57.46 20.30L58.44 19.78L58.70 20.47C60.31 19.87 62.42 18.50 64.39 16.92C66.41 18.48 68.57 19.92 69.67 20.47L71.11 17.30C70.01 16.82 68.50 15.82 66.96 14.64ZM62.93 11.14C62.93 11.11 62.95 11.09 62.95 11.09C64.18 10.99 65.52 10.87 66 10.70C65.50 11.26 64.92 11.86 64.30 12.43C63.79 11.98 63.34 11.54 62.93 11.14ZM55.49 16.25C55.20 16.27 54.86 16.27 54.41 16.27C54.62 16.06 54.89 15.79 55.18 15.50ZM66.36 19.54C66.36 18.43 65.45 17.52 64.34 17.52C63.24 17.52 62.33 18.43 62.33 19.54C62.33 20.64 63.24 21.55 64.34 21.55C65.45 21.55 66.36 20.64 66.36 19.54ZM55.85 19.56C56.11 19.56 56.38 19.54 56.62 19.51L56.76 20.06L55.87 20.69ZM60.60 24.22C62.52 25.18 64.87 25.99 66.58 27.07L67.78 23.54C66.53 22.80 63.24 21.46 61.46 20.88ZM90.94 6.22L91.73 11.09L86.50 13.82C88.97 16.73 88.85 23.26 85.49 25.58L83.09 26.09L79.82 25.30L80.50 21.43L81.86 21.65C84.02 20.64 83.47 16.08 80.78 15.24L81.07 12.89L82.90 11.33L76.58 11.59L76.30 6.70Z" transform="translate(0, 0)" />
    </svg>
  