<svg xmlns="http://www.w3.org/2000/svg" viewBox="0 0 24 28.8">
  <path d="M19.08 8.66C18.43 8.66 16.49 8.71 14.23 8.78C14.33 7.58 14.38 6.38 14.42 5.26L9.55 5.26C9.50 6.60 9.53 7.82 9.53 8.95C8.64 9 7.82 9.05 7.10 9.12L7.10 8.42L2.23 8.42C2.23 12.82 2.23 21.36 2.71 25.99L7.34 25.75C7.25 24.55 7.20 22.34 7.15 19.85L8.66 20.76C10.25 19.70 11.38 18.36 12.19 16.85C13.39 18.70 14.66 20.06 15.46 20.71L16.94 19.13C16.87 20.04 16.78 20.98 16.63 21.84L15.38 21.36L14.66 24.58C15.91 25.27 16.87 25.75 18.10 26.50L21.26 24.79C21.77 21.60 21.77 12.60 21.77 10.39ZM14.78 13.82C15.77 13.80 16.61 13.78 17.11 13.78C17.11 14.38 17.11 15.31 17.09 16.42C16.27 15.67 15.48 14.76 14.78 13.82ZM7.13 16.85C7.13 15.94 7.13 15 7.10 14.11C7.66 14.09 8.28 14.04 8.93 14.02C8.59 15 8.02 15.94 7.13 16.85Z" transform="translate(0, 0)" />
</svg>