<svg xmlns="http://www.w3.org/2000/svg" viewBox="0 0 24 28.8">
  <path d="M16.61 17.18C16.63 18 16.68 19.27 16.68 20.66L14.47 20.66L14.47 15.79C15.19 15.77 15.86 15.77 16.46 15.77L16.39 16.39L21.34 16.61C21.60 14.16 21.43 9.19 21.38 7.54L16.58 7.70C16.58 8.45 16.63 9.60 16.63 10.82L14.47 10.82L14.47 5.86L9.22 6.12L9.34 10.94C8.78 10.99 8.28 11.02 7.90 11.04C7.78 9.50 8.02 8.57 8.09 7.73L3.36 7.80C3 10.18 2.88 12.67 2.98 14.47L5.66 16.20C6.38 16.10 7.78 16.01 9.43 15.94L9.55 20.78C8.66 20.83 7.92 20.86 7.39 20.90C7.27 19.37 7.54 18.07 7.61 17.23L2.62 17.30C2.26 19.68 2.14 22.54 2.23 24.34L4.92 26.06C6.55 25.82 12.72 25.66 16.51 25.63L16.44 26.26L21.62 26.45C21.89 24 21.72 18.72 21.67 17.04Z" transform="translate(0, 0)" />
</svg>