<svg xmlns="http://www.w3.org/2000/svg" viewBox="0 0 24 28.8">
  <path d="M18.48 6.26C18.77 9.19 18.70 18.38 18.41 21.07L17.59 20.83L16.73 25.25L20.26 26.52L21.96 25.25C22.22 23.45 22.37 10.82 22.13 6.05ZM12.91 16.22C13.10 15.07 13.58 9.02 13.58 8.30L12.48 6.43C11.45 6.34 8.71 6.41 6.34 6.50C6.36 6.43 6.36 6.36 6.36 6.29L2.78 6.58C2.78 8.50 2.83 14.30 3.17 16.39L4.49 16.32C4.22 19.10 3.36 21.74 1.70 24.53L4.49 25.97C5.81 24.38 6.62 22.51 7.15 20.50L9.74 20.40C9.50 21.43 8.90 23.30 8.62 23.62L8.06 23.35L6.72 25.37L8.66 26.52L10.92 26.21C12.29 24.62 13.44 20.21 13.58 18.65L12.43 16.73L7.92 16.92L8.06 15.89C8.64 15.86 9.19 15.86 9.72 15.86C9.70 16.01 9.70 16.13 9.67 16.22ZM13.90 6.31L13.90 19.61L17.47 19.61L17.66 6.41ZM6.24 11.90C6.24 11.40 6.26 10.87 6.26 10.37C7.90 10.32 9.43 10.30 10.06 10.27L9.96 11.83C8.81 11.83 7.42 11.86 6.24 11.90Z" transform="translate(0, 0)" />
</svg>