
    <svg xmlns="http://www.w3.org/2000/svg" viewBox="0 0 24 28.8">
      <path d="M17.30 6.34L13.44 6.22L13.44 18.98C12.55 17.62 11.98 16.99 10.63 15.72C11.54 15.72 12.41 15.74 13.20 15.77L13.20 11.83C12.36 11.81 11.09 11.83 9.67 11.86L9.65 10.30C10.92 9.89 12.07 9.38 12.94 8.76L10.39 5.38C8.33 6.50 6.67 6.96 3.12 7.42L3.60 11.28C4.34 11.28 5.21 11.21 6.10 11.09L6.10 11.95C4.27 12.02 2.74 12.10 2.30 12.12L2.59 15.84L5.21 15.77C4.46 17.59 3.55 18.86 1.94 20.62L3.82 23.06C4.61 22.56 5.35 21.86 6.02 21.02L5.98 26.16L10.08 26.11L9.89 19.56C10.30 20.21 10.68 20.95 10.82 21.74L13.99 19.87C13.92 19.75 13.85 19.63 13.78 19.54L17.11 19.54ZM18.17 6.17C18.46 9.10 18.38 18.31 18.10 21L17.23 20.76L16.37 25.18L19.97 26.47L21.74 25.18C22.03 23.38 22.18 10.75 21.91 5.95Z" transform="translate(0, 0)" />
    </svg>
  