
    <svg xmlns="http://www.w3.org/2000/svg" viewBox="0 0 24 28.8">
      <path d="M7.73 9.12C7.80 7.99 7.90 6.89 7.97 5.83L4.49 5.74C4.46 6.89 4.44 8.04 4.39 9.19L2.66 9.22L2.62 13.87L4.06 13.87C3.70 17.06 3.02 20.16 1.73 22.87L4.42 25.49C6.07 23.06 6.84 18.62 7.32 13.90L9.02 13.92C9.12 16.30 8.52 20.04 8.21 21.46L7.61 20.98L6.17 24.60L7.90 26.74L10.30 26.18C11.74 23.30 12.48 15.31 12.62 12.48L11.42 9.05ZM21.31 8.59C20.40 8.47 17.95 8.54 15.86 8.69C15.89 8.57 15.89 8.45 15.89 8.38L12.72 8.74C12.72 10.97 12.50 23.26 12.79 25.66L15.65 25.46C15.65 25.37 15.62 25.25 15.62 25.10C16.56 25.06 17.64 25.06 18.62 25.06C18.60 25.22 18.60 25.34 18.58 25.46L21.43 25.46C21.60 24.12 22.30 11.59 22.30 10.75ZM15.62 20.45C15.65 18.12 15.70 15.41 15.74 13.13C17.21 13.08 18.60 13.06 19.18 13.03C19.13 13.70 18.98 17.18 18.86 20.35C17.83 20.35 16.63 20.40 15.62 20.45Z" transform="translate(0, 0)" />
    </svg>
  