
    <svg xmlns="http://www.w3.org/2000/svg" viewBox="0 0 24 28.8">
      <path d="M17.88 8.69C17.95 7.56 18.05 6.46 18.12 5.38L14.83 5.28C14.81 6.43 14.78 7.61 14.74 8.78L12.60 8.86L12.58 13.34C12.10 12.77 11.50 12.07 10.87 11.45L12.38 11.52L12.38 7.54C11.78 7.49 10.66 7.44 9.36 7.44L9.53 5.40L5.71 5.40L5.81 7.51C4.44 7.54 3.26 7.61 2.62 7.68L2.78 11.64L3.62 11.57C2.78 12.43 2.02 13.37 1.49 14.02L3.36 17.18C3.48 16.97 3.62 16.75 3.79 16.54C4.15 17.76 4.68 18.98 5.28 20.16C4.42 21.22 3.43 22.25 2.28 23.23L4.06 25.97C5.04 25.39 6.12 24.38 7.15 23.11C8.23 24.53 9.38 25.66 10.39 26.26L12.19 23.52C10.97 22.46 9.94 21.43 9.05 20.30C9.72 19.08 10.30 17.74 10.70 16.34C10.87 16.56 11.02 16.78 11.14 16.99L13.13 14.02C13.01 13.87 12.89 13.70 12.74 13.54L14.40 13.54C14.06 16.70 13.42 19.78 12.22 22.49L14.76 25.10C16.32 22.68 17.04 18.24 17.50 13.51L19.08 13.51C19.18 15.89 18.62 19.66 18.34 21.10L17.76 20.59L16.42 24.24L18.05 26.38L20.30 25.85C21.67 22.92 22.34 14.90 22.49 12.05L21.34 8.59ZM8.09 15.07C7.85 15.84 7.54 16.56 7.18 17.26C6.86 16.58 6.60 15.86 6.34 15.07L4.73 15.26C5.47 14.33 6.29 13.39 6.98 12.60L6.43 11.47C6.96 11.45 7.51 11.45 8.06 11.45L7.51 12.41C8.26 13.25 9.14 14.28 9.94 15.29Z" transform="translate(0, 0)" />
    </svg>
  