
    <svg xmlns="http://www.w3.org/2000/svg" viewBox="0 0 24 28.8">
      <path d="M19.63 19.73L19.54 20.66C17.21 20.93 15.84 19.56 15.38 15.29C18.96 14.66 19.68 14.47 21.96 14.21L21.48 9.29C19.51 9.50 18.43 9.72 15.22 10.30C15.24 9.19 15.31 7.97 15.38 6.65L11.11 6.60L8.52 4.82C7.42 7.25 3.79 12.72 1.27 15.41L4.25 18.84C4.49 18.65 4.73 18.41 4.99 18.17C4.94 20.81 4.94 23.88 5.04 26.18L9.34 26.18C9.07 22.54 9.14 16.70 9.36 12.50C9.77 11.93 10.13 11.35 10.49 10.78C10.49 25.10 14.81 26.78 21.74 25.75L22.75 24.12L22.66 19.87Z" transform="translate(0, 0)" />
    </svg>
  