
    <svg xmlns="http://www.w3.org/2000/svg" viewBox="0 0 24 28.8">
      <path d="M22.99 16.73C21.14 16.25 18.48 15.34 15.82 14.26C17.64 13.13 19.20 12 20.18 11.02L18.79 6.91C18.19 6.91 15.41 7.01 12.94 7.06C13.01 6.96 13.08 6.84 13.15 6.72L8.66 5.09C6.38 8.16 5.21 9.17 1.73 11.21L4.30 14.47C4.94 14.18 5.57 13.85 6.14 13.54C6.53 13.78 6.96 14.04 7.44 14.30C5.14 15.29 2.86 16.03 1.01 16.32L3.12 19.80C3.60 19.70 4.08 19.56 4.58 19.42C4.63 21.70 4.73 25.27 5.09 26.74L9.55 26.59C9.55 26.50 9.53 26.42 9.53 26.30C10.99 26.28 12.70 26.26 14.21 26.26L14.14 26.59L18.58 26.59C18.84 25.63 19.42 20.90 19.51 19.68C19.66 19.73 19.80 19.75 19.92 19.80ZM9.38 11.26C9.58 11.09 9.77 10.92 9.94 10.75C11.90 10.68 14.02 10.54 14.78 10.42C13.82 11.04 12.70 11.71 11.50 12.36C10.73 11.98 10.01 11.62 9.38 11.26ZM9.50 17.83C9.50 17.74 9.53 17.66 9.53 17.59L9.38 17.59C10.18 17.26 10.97 16.87 11.74 16.49C12.67 16.92 13.61 17.35 14.50 17.74C12.96 17.74 11.16 17.78 9.50 17.83ZM9.41 22.70C9.38 22.22 9.38 21.74 9.41 21.26C11.66 21.24 13.78 21.22 14.64 21.19C14.59 21.48 14.54 22.01 14.52 22.61C12.91 22.63 10.99 22.66 9.41 22.70Z" transform="translate(0, 0)" />
    </svg>
  