<svg xmlns="http://www.w3.org/2000/svg" viewBox="0 0 24 28.8">
  <path d="M21.29 9.50C20.38 9.31 17.98 9.41 15.91 9.58C15.94 9.43 15.94 9.31 15.94 9.22L12.84 9.67C12.84 11.62 12.94 17.42 13.10 21.70C12.14 20.47 10.75 17.90 9.89 16.13C10.97 16.13 11.95 16.15 12.77 16.18L12.84 12.10C12.12 12.10 10.87 12.10 9.46 12.12L9.46 10.25C10.44 9.98 11.50 9.65 12.84 9.19L11.35 5.52C8.18 6.77 6.14 7.10 2.38 7.49L3.31 11.28C4.25 11.18 5.04 11.09 5.76 10.97L5.74 12.17C4.44 12.22 3.29 12.26 2.59 12.36L2.69 16.25L5.23 16.18C4.37 18 3.02 19.82 1.78 20.98L2.81 24.82C3.67 24.14 4.68 23.04 5.59 21.77L5.52 26.50L9.46 26.47L9.46 21.89C10.03 23.11 10.61 24.19 11.02 24.82L13.10 22.08C13.18 23.66 13.25 25.03 13.32 25.82L16.10 25.58C16.10 25.46 16.08 25.30 16.08 25.15C16.99 25.10 18.07 25.08 19.01 25.08C19.01 25.27 19.01 25.44 18.98 25.58L21.79 25.58C21.94 23.95 22.22 13.20 22.22 12.14ZM15.94 19.42C15.94 17.98 15.91 16.46 15.91 15.05C17.30 15 18.62 14.98 19.18 14.95C19.13 15.58 19.13 17.35 19.13 19.30C18.10 19.32 16.94 19.34 15.94 19.42Z" transform="translate(0, 0)" />
</svg>