
    <svg xmlns="http://www.w3.org/2000/svg" viewBox="0 0 24 28.8">
      <path d="M22.27 13.32C20.76 13.27 17.59 13.27 14.14 13.27L14.14 12.72C16.37 12.72 18.43 12.72 19.80 12.77L19.80 10.46C18.74 10.42 16.61 10.42 14.23 10.42L14.26 9.86C17.06 9.86 19.73 9.86 21.46 9.91L21.46 7.61C20.62 7.58 19.25 7.56 17.59 7.56C17.88 7.18 18.12 6.77 18.41 6.38L15.17 5.11C14.69 6.05 14.35 6.82 13.75 7.56C12.84 7.56 11.90 7.58 10.99 7.58C10.39 6.82 10.03 6.05 9.55 5.09L6.31 6.38C6.60 6.79 6.86 7.20 7.18 7.61C5.23 7.63 3.55 7.68 2.57 7.70L2.86 9.98C4.39 9.94 7.13 9.89 10.13 9.89L10.13 10.44C7.63 10.46 5.38 10.51 4.22 10.56L4.46 12.84C5.69 12.79 7.82 12.74 10.15 12.74L10.18 13.30C6.65 13.32 3.36 13.34 1.75 13.42L2.06 15.70L6.48 15.62L5.42 16.06C5.74 16.46 6 16.92 6.36 17.35C4.75 17.38 3.41 17.42 2.57 17.45L2.86 19.70C6.55 19.61 17.04 19.56 21.46 19.63L21.46 17.35C20.66 17.33 19.42 17.30 17.88 17.30C18.22 16.87 18.48 16.46 18.77 16.06L17.59 15.58C19.44 15.58 21.07 15.60 22.27 15.62ZM14.64 17.30L13.99 17.30L14.04 15.58L15.77 15.58C15.46 16.20 15.14 16.75 14.64 17.30ZM8.42 15.60C9 15.60 9.60 15.60 10.20 15.58L10.22 17.33L9.58 17.33C9.07 16.78 8.76 16.22 8.42 15.60ZM8.11 20.06C8.11 19.99 8.14 19.92 8.14 19.87L3.29 20.09C3.29 21.34 3.34 25.20 3.82 26.57L8.14 26.45C8.14 26.40 8.11 26.33 8.11 26.26C10.27 26.23 13.13 26.21 15.43 26.23L15.36 26.45L19.85 26.45C20.16 25.70 20.98 21.70 20.98 21.22L19.15 19.99C17.33 19.92 12.17 19.97 8.11 20.06ZM7.99 23.62L7.99 22.58C11.30 22.54 14.81 22.54 15.98 22.51C15.94 22.73 15.89 23.09 15.84 23.54C13.46 23.54 10.30 23.57 7.99 23.62Z" transform="translate(0, 0)" />
    </svg>
  