<svg xmlns="http://www.w3.org/2000/svg" viewBox="0 0 24 28.8">
  <path d="M17.35 17.81C17.54 17.28 17.90 15.02 18.07 13.75L20.64 14.04C21.10 12.84 21.74 11.14 22.37 9.62L20.16 8.06L18.58 8.09C19.03 7.56 19.39 6.96 19.56 6.43L15.60 5.30C15.43 6.19 14.86 7.32 14.26 8.14L13.06 8.14C13.20 7.87 13.30 7.54 13.30 7.20C13.30 6.12 12.41 5.23 11.33 5.23C10.25 5.23 9.36 6.12 9.36 7.20C9.36 7.56 9.46 7.90 9.62 8.18L8.28 8.18C8.42 7.92 8.50 7.61 8.50 7.30C8.50 6.22 7.61 5.33 6.53 5.33C5.45 5.33 4.56 6.22 4.56 7.30C4.56 7.63 4.66 7.94 4.80 8.23L2.42 8.26L1.63 9.29C1.63 10.56 2.16 12.43 2.62 13.70L5.23 13.49C5.28 15.02 5.38 17.04 5.66 17.93L9.38 17.81C9.14 18.14 8.88 18.46 8.62 18.74C8.35 18.77 8.11 18.77 7.87 18.77C7.87 18.70 7.90 18.62 7.90 18.55L3.55 18.79C3.55 20.21 3.58 24.53 4.01 26.06L7.90 25.94C7.90 25.87 7.87 25.80 7.87 25.73C10.08 25.70 13.18 25.68 15.53 25.68L15.46 25.94L19.32 25.94C19.61 25.10 20.40 20.62 20.40 20.06L18.67 18.70C17.59 18.62 15.34 18.65 12.86 18.67C13.06 18.36 13.27 18.05 13.51 17.71L13.49 17.81ZM9.48 11.81C9.48 11.74 9.50 11.69 9.50 11.64L6.22 11.78C6.22 11.59 6.19 11.38 6.19 11.16L17.59 11.26L17.33 12.19L16.85 11.76C15.62 11.69 12.31 11.71 9.48 11.81ZM9.38 14.18C11.33 14.14 13.18 14.14 13.94 14.11C13.90 14.30 13.87 14.66 13.82 15.07L9.36 15.14C9.36 14.83 9.36 14.50 9.38 14.18ZM9.48 17.62L9.55 17.62C9.53 17.64 9.50 17.66 9.48 17.69ZM16.06 21.53C16.01 21.74 15.96 22.18 15.91 22.68C13.54 22.68 10.13 22.70 7.75 22.78C7.75 22.39 7.75 21.98 7.78 21.60C11.16 21.55 14.90 21.53 16.06 21.53Z" transform="translate(0, 0)" />
</svg>