<svg xmlns="http://www.w3.org/2000/svg" viewBox="0 0 24 28.8">
  <path d="M3.05 8.18L1.66 9.82C1.99 13.32 2.21 23.21 2.47 26.02L6.34 26.11L6.34 25.66C9.50 25.54 14.18 25.58 17.26 25.70C17.23 25.85 17.23 25.99 17.21 26.11L21.17 26.02C21.55 24.58 22.34 13.08 22.34 9.94L20.78 7.80ZM6.38 21.62C6.38 18.60 6.36 15.07 6.29 12.62L17.66 12.31C17.66 13.54 17.62 17.95 17.50 21.53C14.52 21.48 9.67 21.53 6.38 21.62ZM16.58 12.89L7.32 13.10L6.55 13.97C6.91 15.91 7.15 19.75 7.30 21.24L10.20 21.29C10.20 21.17 10.20 21.05 10.22 20.90C11.30 20.93 12.53 20.98 13.61 21.07C13.61 21.14 13.58 21.22 13.58 21.29L15.50 21.26L15.55 21.26L16.56 21.24C16.75 20.50 17.42 15.67 17.42 14.02ZM10.20 17.64C10.18 17.18 10.18 16.70 10.15 16.22L13.92 16.30C13.92 16.56 13.90 17.11 13.87 17.74C12.72 17.69 11.35 17.66 10.20 17.64Z" transform="translate(0, 0)" />
</svg>