<svg xmlns="http://www.w3.org/2000/svg" viewBox="0 0 96 28.8">
  <path d="M19.68 6.50C19.08 6.62 10.54 6.86 5.71 7.01L5.71 6.50L1.75 6.60C1.97 8.54 2.23 22.80 2.21 26.64L5.93 26.69L5.93 26.16C9.41 26.14 14.50 26.18 17.69 26.18L17.69 26.69L21.29 26.69C21.55 22.85 22.15 10.92 22.27 8.26ZM5.93 22.82C5.90 18.91 5.83 14.02 5.78 10.51C9.29 10.44 15.07 10.30 18.43 10.10C18.17 12.60 17.90 18.60 17.78 22.78C14.90 22.68 9.72 22.70 5.93 22.82ZM16.58 19.18C16.70 18.96 16.78 18.70 16.78 18.43C16.78 18.10 16.66 17.78 16.46 17.54L16.46 15.07C15.84 15.02 14.62 15.02 13.22 15.02L13.22 14.14C14.83 14.14 16.32 14.14 17.30 14.18L17.30 10.85C15.36 10.73 8.26 10.85 6.19 11.04L6.36 14.33C7.22 14.28 8.69 14.21 10.32 14.18L10.37 15.07C9.07 15.12 7.90 15.17 7.27 15.22L7.39 18.22C8.09 18.17 9.22 18.12 10.51 18.07L10.56 19.18C8.74 19.22 7.06 19.27 6.22 19.32L6.38 22.42C8.62 22.27 14.86 22.22 17.52 22.32L17.52 19.20C17.28 19.20 16.94 19.18 16.58 19.18ZM13.22 18.05L13.99 18.05C13.97 18.17 13.94 18.29 13.94 18.43C13.94 18.70 14.02 18.94 14.14 19.15L13.22 19.15ZM45.77 10.39C44.45 10.32 41.78 10.30 38.81 10.30L38.81 6.22L33.19 6.38L33.24 10.37C30.29 10.42 27.62 10.51 26.23 10.61L26.52 15.82C28.01 15.72 30.53 15.65 33.34 15.60L33.41 20.45C30.77 20.50 28.42 20.59 27.19 20.69L27.46 25.90C30.91 25.66 40.68 25.54 44.81 25.75L44.81 20.47C43.66 20.40 41.38 20.38 38.81 20.38L38.81 15.55C41.54 15.55 44.09 15.60 45.77 15.67ZM70.49 24.50C69.89 23.50 68.90 22.06 67.80 20.95C68.64 20.98 69.38 20.98 70.01 21L70.01 17.54C69.46 17.52 68.64 17.50 67.68 17.50C67.73 17.04 67.75 16.51 67.80 15.96C68.50 15.96 69.12 15.96 69.67 15.98L69.67 12.91C69.24 12.89 68.69 12.89 68.02 12.86L68.09 10.97C68.57 10.97 69 10.99 69.38 10.99L69.38 7.54C66.96 7.42 59.52 7.46 54.86 7.58C55.01 7.01 55.10 6.46 55.20 5.88L52.10 5.14C51.70 7.73 50.71 11.21 49.22 13.30L50.95 14.14L51.12 16.08L53.78 16.01C53.81 16.56 53.83 17.09 53.88 17.57C52.39 17.59 51.17 17.62 50.38 17.66L50.66 21.12C52.32 21.05 55.30 21 58.49 20.98L55.92 22.39C56.66 23.90 57.50 25.39 57.89 26.93L61.32 25.37C60.74 24.10 59.78 22.20 58.58 20.95L62.71 20.95L60.46 22.20C61.18 23.76 62.02 25.22 62.38 26.76L65.81 25.18C65.28 23.98 64.34 22.18 63.26 20.95C64.37 20.93 65.42 20.95 66.43 20.95L64.75 22.18C65.69 23.62 66.72 24.98 67.30 26.45ZM65.18 12.86L64.25 12.86C64.25 12.14 64.22 11.50 64.22 10.94L65.28 10.94C65.26 11.52 65.23 12.17 65.18 12.86ZM60.22 10.94L61.42 10.94C61.42 11.52 61.44 12.17 61.44 12.86L60.19 12.86C60.19 12.17 60.22 11.52 60.22 10.94ZM57.38 12.89C57.07 12.89 56.76 12.89 56.45 12.91C56.42 12.22 56.40 11.57 56.40 10.99C56.71 10.99 57.05 10.99 57.41 10.97C57.38 11.52 57.38 12.17 57.38 12.89ZM53.11 12.96C53.28 12.58 53.45 12.17 53.59 11.76C53.62 12.14 53.62 12.53 53.64 12.94C53.45 12.96 53.28 12.96 53.11 12.96ZM64.87 17.47L64.15 17.47C64.18 17.02 64.18 16.49 64.20 15.94L64.99 15.94C64.97 16.49 64.92 17.02 64.87 17.47ZM61.39 15.94C61.39 16.49 61.37 17.02 61.34 17.47C60.98 17.47 60.62 17.50 60.26 17.50C60.26 17.02 60.24 16.49 60.24 15.94ZM56.57 15.96L57.43 15.96C57.43 16.51 57.46 17.04 57.48 17.52L56.69 17.52C56.64 17.06 56.62 16.54 56.57 15.96ZM52.87 21.70C51.50 21.70 50.38 22.82 50.38 24.22C50.38 25.58 51.50 26.71 52.87 26.71C54.24 26.71 55.37 25.58 55.37 24.22C55.37 22.82 54.24 21.70 52.87 21.70ZM90.77 18.89C91.94 16.27 92.81 13.39 93.43 10.61L92.28 6.82C91.63 7.18 84.91 7.13 84.02 6.96L83.93 9.48L83.11 6.82C82.46 7.18 75.77 7.13 74.88 6.96L74.69 11.76C75.22 11.76 76.01 11.76 76.85 11.78L74.78 13.85C76.10 15.55 77.04 16.87 77.86 18.05C76.75 19.90 75.41 21.46 74.04 22.70L76.01 26.42C77.64 25.27 79.06 23.59 80.23 21.60C80.69 22.27 81.19 23.02 81.79 23.83L84.41 20.69C83.62 19.44 82.92 18.38 82.25 17.40C82.94 15.58 83.54 13.66 84.02 11.76C84.53 11.76 85.25 11.76 86.02 11.78L83.95 13.85C84.62 15.62 85.46 17.38 86.40 19.03C85.44 20.45 84.34 21.70 83.21 22.70L85.15 26.42C86.50 25.49 87.70 24.19 88.73 22.66C89.83 24.14 90.96 25.44 92.09 26.42L93.96 22.63C92.86 21.67 91.80 20.35 90.77 18.89ZM86.66 11.78C87.67 11.78 88.68 11.81 89.38 11.83C89.18 12.96 88.87 14.06 88.49 15.12C87.84 13.99 87.24 12.86 86.66 11.78ZM77.66 11.78C78.62 11.78 79.56 11.81 80.21 11.83C80.09 12.60 79.90 13.34 79.68 14.06C79.10 13.37 78.43 12.62 77.66 11.78Z" transform="translate(0, 0)" />
</svg>