
    <svg xmlns="http://www.w3.org/2000/svg" viewBox="0 0 24 28.8">
      <path d="M19.70 22.30C19.63 22.15 19.54 21.98 19.46 21.79C20.52 20.50 21.46 19.22 22.06 18.38L19.85 15.58C19.44 16.20 19.01 16.80 18.58 17.40C18.41 15.98 18.29 14.40 18.19 12.86C19.51 12.89 20.66 12.91 21.53 12.96L21.55 9.07L21.48 9.07C22.15 8.71 22.61 8.02 22.61 7.20C22.61 6.02 21.67 5.09 20.50 5.09C19.32 5.09 18.38 6.02 18.38 7.20C18.38 7.97 18.79 8.64 19.39 9L18.02 9C18 7.58 18 6.41 18.02 5.69L14.83 6.12C14.86 7.13 14.90 8.09 14.93 9C12.17 9.02 9.36 9.10 8.11 9.19L8.30 13.06C9.70 12.96 12.38 12.89 15.10 12.86C15.24 15.96 15.48 18.50 15.89 20.62C15.53 21 15.14 21.38 14.76 21.77L14.74 21.19C13.56 21.43 10.18 21.65 8.74 21.58L8.81 25.03C9.89 25.10 13.80 24.84 14.90 24.60L14.88 23.88L15.58 25.87C16.03 25.54 16.54 25.08 17.06 24.55C17.54 25.58 18.12 26.47 18.84 27.26L21.36 25.78L22.18 23.54L20.06 21.60ZM6.62 15.62C7.20 15.62 7.70 15.65 8.09 15.70L8.09 11.40C7.78 11.35 7.25 11.33 6.62 11.33L6.62 8.14L3.36 8.26L3.41 11.40C2.66 11.42 2.04 11.50 1.68 11.57L1.75 15.82C2.14 15.74 2.76 15.70 3.46 15.65L3.53 19.85C2.76 20.06 2.09 20.23 1.68 20.30L2.16 24.50C3.41 24.31 7.61 23.04 8.74 22.49L8.11 18.29C7.73 18.46 7.20 18.67 6.62 18.86ZM8.78 13.82C8.78 15.19 8.81 19.34 9 20.78L10.87 20.69C10.87 20.62 10.85 20.54 10.85 20.47C11.45 20.45 12.14 20.45 12.77 20.45L12.74 20.69L14.66 20.69C14.76 19.85 15.02 15.58 15.02 15.07L14.40 13.75C13.82 13.68 12.24 13.70 10.87 13.78L10.87 13.61ZM12.98 16.44C12.96 16.68 12.96 17.09 12.94 17.57C12.26 17.59 11.47 17.59 10.80 17.64L10.80 16.51C11.74 16.46 12.62 16.46 12.98 16.44Z" transform="translate(0, 0)" />
    </svg>
  