<svg xmlns="http://www.w3.org/2000/svg" viewBox="0 0 24 28.8">
  <path d="M12.55 14.93C12.55 14.86 12.58 14.74 12.58 14.62C14.35 14.64 16.32 14.64 17.93 14.66L17.93 14.93L21.05 14.93C21.22 13.99 21.67 8.40 21.53 6.89L20.45 5.90L10.34 6.02L9.19 6.74C9.34 8.57 9.48 13.70 9.53 14.93ZM20.42 18.05C17.86 18.17 15.70 18.22 13.66 18.14C13.70 18.05 13.73 17.95 13.75 17.86C16.51 17.81 19.68 17.83 21.41 17.88L21.41 15.29C19.25 15.19 11.35 15.26 9.05 15.38L9.24 17.98L11.06 17.90C10.70 19.03 10.15 20.14 9.48 21.14L8.88 17.71C8.50 17.86 8.02 18.02 7.44 18.19L7.44 15.07C8.09 15.10 8.64 15.10 9.07 15.14L9.07 11.04C8.74 10.99 8.14 10.97 7.44 10.97L7.44 7.92L3.82 8.04L3.86 11.04C3.02 11.09 2.33 11.14 1.92 11.21L2.02 15.29C2.45 15.22 3.14 15.17 3.91 15.12L3.98 19.15C3.12 19.37 2.38 19.51 1.90 19.58L2.47 23.59C3.62 23.45 7.18 22.54 8.90 21.96L8.33 22.68L10.51 23.64C11.42 22.85 12.10 21.89 12.65 20.81L13.13 20.81C12.41 22.13 11.42 23.38 10.30 24.48L12.36 25.58C13.97 24.41 15 22.82 15.89 20.86C16.08 20.88 16.25 20.88 16.44 20.88C15.70 22.37 14.64 23.74 13.42 24.96L15.48 26.06C17.23 24.79 18.29 23.02 19.22 20.83L19.46 20.81C19.32 22.25 18.74 23.38 18.26 24.50L18.07 24.41L16.03 25.97C16.68 26.45 17.18 26.57 17.93 27.02L20.64 26.11C21.26 24.55 21.77 23.06 22.10 20.98ZM18.12 8.52L18.12 9.12L12.70 9.17L12.70 8.59ZM12.67 12.24L12.67 11.64L18.07 11.59C18.05 11.83 18.05 12.05 18.05 12.29C16.32 12.24 14.28 12.22 12.67 12.24Z" transform="translate(0, 0)" />
</svg>