
    <svg xmlns="http://www.w3.org/2000/svg" viewBox="0 0 96 28.8">
      <path d="M12.55 14.93C12.55 14.86 12.58 14.74 12.58 14.62C14.35 14.64 16.32 14.64 17.93 14.66L17.93 14.93L21.05 14.93C21.22 13.99 21.67 8.40 21.53 6.89L20.45 5.90L10.34 6.02L9.19 6.74C9.34 8.57 9.48 13.70 9.53 14.93ZM20.42 18.05C17.86 18.17 15.70 18.22 13.66 18.14C13.70 18.05 13.73 17.95 13.75 17.86C16.51 17.81 19.68 17.83 21.41 17.88L21.41 15.29C19.25 15.19 11.35 15.26 9.05 15.38L9.24 17.98L11.06 17.90C10.70 19.03 10.15 20.14 9.48 21.14L8.88 17.71C8.50 17.86 8.02 18.02 7.44 18.19L7.44 15.07C8.09 15.10 8.64 15.10 9.07 15.14L9.07 11.04C8.74 10.99 8.14 10.97 7.44 10.97L7.44 7.92L3.82 8.04L3.86 11.04C3.02 11.09 2.33 11.14 1.92 11.21L2.02 15.29C2.45 15.22 3.14 15.17 3.91 15.12L3.98 19.15C3.12 19.37 2.38 19.51 1.90 19.58L2.47 23.59C3.62 23.45 7.18 22.54 8.90 21.96L8.33 22.68L10.51 23.64C11.42 22.85 12.10 21.89 12.65 20.81L13.13 20.81C12.41 22.13 11.42 23.38 10.30 24.48L12.36 25.58C13.97 24.41 15 22.82 15.89 20.86C16.08 20.88 16.25 20.88 16.44 20.88C15.70 22.37 14.64 23.74 13.42 24.96L15.48 26.06C17.23 24.79 18.29 23.02 19.22 20.83L19.46 20.81C19.32 22.25 18.74 23.38 18.26 24.50L18.07 24.41L16.03 25.97C16.68 26.45 17.18 26.57 17.93 27.02L20.64 26.11C21.26 24.55 21.77 23.06 22.10 20.98ZM18.12 8.52L18.12 9.12L12.70 9.17L12.70 8.59ZM12.67 12.24L12.67 11.64L18.07 11.59C18.05 11.83 18.05 12.05 18.05 12.29C16.32 12.24 14.28 12.22 12.67 12.24ZM43.32 25.85C49.03 19.97 45.86 8.83 36.43 8.11C32.69 7.82 27.50 10.66 26.23 15.02C24.96 19.39 26.64 25.10 31.10 25.44C36.94 25.85 38.06 18.86 38.35 13.99L34.22 13.32C34.01 16.87 33.65 21.12 31.32 20.40C28.73 19.58 31.08 12.58 36.29 12.58C41.09 12.58 44.02 19.18 39.55 23.86ZM66.46 15.34C67.58 15.34 68.57 15.36 69.29 15.38L69.26 11.28C68.52 11.26 67.10 11.23 65.52 11.23C65.66 9.62 65.76 7.87 65.76 6L61.80 5.76C61.80 7.92 61.75 9.72 61.61 11.28C60.14 11.28 58.87 11.33 58.15 11.38L58.06 15.43C58.75 15.38 59.78 15.36 60.96 15.34C60.31 17.83 59.26 19.61 57.62 21.94L57.62 5.76L53.83 5.95L53.88 11.64C53.16 10.51 52.30 9.26 51.48 8.57L49.39 10.63C50.30 12.12 51.50 14.11 52.10 15.67L53.90 14.18L53.90 16.15L52.68 15.46C51.82 16.99 50.14 19.61 49.08 20.83L52.06 22.87C52.73 21.91 53.38 20.81 53.95 19.68L54 26.40L57.62 26.40L57.62 23.04L59.62 26.33C61.30 24.46 62.69 22.22 63.72 19.42C64.66 22.37 66 24.72 67.73 26.54L70.30 22.56C68.81 21.17 67.37 18.62 66.46 15.34ZM68.21 10.68C69.43 10.68 70.42 9.70 70.42 8.47C70.42 7.25 69.43 6.26 68.21 6.26C66.98 6.26 66 7.25 66 8.47C66 9.70 66.98 10.68 68.21 10.68ZM94.01 17.59L91.73 17.54L91.66 17.90C90.19 17.98 89.28 17.81 88.85 16.94C91.39 16.68 91.97 16.63 93.65 16.54L93.26 14.09C91.75 14.16 90.96 14.23 88.54 14.47C88.54 14.14 88.58 13.75 88.63 13.34C89.95 13.63 91.56 13.63 93.46 13.49L94.22 12.84L94.01 10.63L91.68 10.58L91.61 10.94C90.14 11.04 89.18 10.87 88.73 9.98C91.34 9.74 91.92 9.67 93.62 9.58L93.24 7.13C91.70 7.20 90.89 7.27 88.42 7.51C88.44 7.08 88.46 6.62 88.54 6.10L84.86 6.07C84.72 7.61 84.77 8.83 84.98 9.82C84.31 8.83 83.47 7.68 82.68 7.06L81.07 8.64C81.22 8.83 81.34 9.05 81.48 9.26C80.52 9.41 79.54 9.60 78.58 9.77C79.54 8.71 80.47 7.68 81.46 6.65L79.18 5.28C78.07 6.19 75.02 9.84 74.59 10.44L76.06 12.67L76.32 12.62L75.62 13.30C75.60 14.95 75.67 18.82 75.77 20.14L78.41 20.02C78.38 19.54 78.38 18.84 78.38 18.07L81.89 18.05L81.89 18.34L81.62 18.29L81.26 19.75L83.11 20.33L80.11 20.28C78.62 26.95 86.59 26.93 93.19 26.18L94.20 25.39L94.18 22.92L90.82 23.04L90.82 23.50C86.33 24.17 83.30 23.14 83.83 20.33L83.38 20.33L84.50 19.39C84.62 17.98 84.62 15.12 84.62 13.75L83.78 12.70L85.54 11.26C86.02 12.12 86.71 12.70 87.60 13.06L85.03 13.03C84.55 18 86.09 19.87 89.09 20.38C88.94 20.62 88.87 20.90 88.87 21.19C88.87 22.13 89.64 22.90 90.58 22.90C91.51 22.90 92.28 22.13 92.28 21.19C92.28 20.95 92.23 20.74 92.14 20.52C92.57 20.52 93.02 20.47 93.48 20.45L94.22 19.82ZM82.97 11.64C83.11 11.93 83.28 12.19 83.40 12.46L76.70 12.55C79.18 12.07 81 11.88 82.97 11.64ZM78.43 14.71L78.43 14.33L81.91 14.30L81.91 14.69ZM78.38 16.54C78.41 16.44 78.41 16.37 78.41 16.30L81.91 16.27C81.91 16.37 81.89 16.44 81.89 16.51ZM85.10 21.72C85.10 22.66 85.87 23.42 86.81 23.42C87.74 23.42 88.51 22.66 88.51 21.72C88.51 20.78 87.74 20.02 86.81 20.02C85.87 20.02 85.10 20.78 85.10 21.72ZM77.06 25.99C78.50 24.94 79.37 23.18 79.75 20.47L76.06 20.30C75.89 22.37 75.19 23.47 73.78 24.98Z" transform="translate(0, 0)" />
    </svg>
  