
    <svg xmlns="http://www.w3.org/2000/svg" viewBox="0 0 24 28.8">
      <path d="M16.68 12.26L16.75 11.95L14.69 11.66C15.14 10.78 15.50 9.84 15.79 8.90L13.87 6.34L9.77 6.34L9.84 6.02L6.31 5.52C5.83 7.80 4.15 10.82 2.66 13.10L5.26 15.17C5.69 14.64 6.14 14.04 6.58 13.39C6.77 14.11 7.39 14.64 8.16 14.69C6.26 16.42 3.79 18.10 1.37 19.30L3.77 21.74C7.01 20.38 9.84 18.24 12 15.70C11.28 17.14 10.27 18.41 9.17 19.54L11.78 21.62C12.19 21.14 12.60 20.57 13.01 19.97C13.18 20.47 13.54 20.88 14.02 21.07C12.12 22.49 9.84 23.86 7.70 24.89L10.03 27.74C16.51 25.20 21.05 20.54 22.63 15.22L20.78 12.26ZM10.03 12.67C9.94 11.81 9.19 11.14 8.28 11.14C8.14 11.14 8.02 11.16 7.90 11.18C8.04 10.92 8.16 10.68 8.28 10.42L11.30 10.34C11.14 11.04 10.70 11.86 10.03 12.67ZM16.44 19.01C16.25 18.24 15.55 17.66 14.71 17.66C14.62 17.66 14.52 17.66 14.42 17.69C14.69 17.26 14.90 16.82 15.14 16.37L18.22 16.30C18.02 17.14 17.38 18.05 16.44 19.01Z" transform="translate(0, 0)" />
    </svg>
  