<svg xmlns="http://www.w3.org/2000/svg" viewBox="0 0 24 28.8">
  <path d="M21.86 16.20C21.53 16.18 21.07 16.18 20.57 16.15C20.95 14.42 21.19 12.58 21.19 10.97L18.31 8.47C17.74 8.54 16.13 8.62 14.28 8.66C14.26 7.90 14.26 7.10 14.23 6.29L9.65 6.05C9.67 7.01 9.72 7.90 9.74 8.74L7.78 8.74C7.80 8.64 7.80 8.54 7.80 8.47L3.36 8.47C3.36 9.34 3.53 13.73 3.77 16.30L2.16 16.37L2.47 20.88C3.43 20.83 4.85 20.78 6.50 20.74C5.45 21.55 4.06 22.32 2.28 23.14L5.33 26.59C8.93 25.20 11.14 23.57 12.43 21.34C13.87 23.52 16.08 25.30 18.82 26.76L21.86 23.28C20.57 22.54 19.32 21.62 18.26 20.66L21.86 20.74ZM16.44 16.10L14.02 16.10C14.14 15.17 14.21 14.14 14.26 13.01C15.41 12.98 16.34 12.96 16.78 12.89C16.78 13.73 16.61 15 16.44 16.10ZM7.82 12.96C8.50 12.98 9.17 13.01 9.86 13.01C9.86 14.18 9.79 15.22 9.58 16.15C9.05 16.15 8.50 16.18 7.99 16.18C7.92 15.17 7.87 14.04 7.82 12.96Z" transform="translate(0, 0)" />
</svg>