<svg xmlns="http://www.w3.org/2000/svg" viewBox="0 0 24 28.8">
  <path d="M22.10 15.62C20.81 15.55 17.64 15.53 14.18 15.55C14.35 14.74 14.50 13.87 14.59 12.98C17.09 12.98 19.37 13.01 20.66 13.08L20.66 8.30C19.70 8.23 17.38 8.21 14.76 8.23C14.76 7.44 14.71 6.62 14.66 5.76L9.82 6C9.86 6.82 9.91 7.56 9.94 8.28C9.48 8.30 9.05 8.30 8.64 8.30C8.71 7.82 8.81 7.30 8.93 6.72L4.30 6.29C3.74 9.94 3.58 11.81 1.94 15.07L3.74 15.72L1.92 15.79L2.18 20.04C3.12 19.99 4.73 19.92 6.62 19.90C5.59 20.74 4.25 21.53 2.52 22.32L5.06 26.38C8.33 24.86 10.66 23.02 12.22 20.54C13.75 22.80 16.73 25.54 18.67 26.66L22.10 22.56C20.86 21.89 19.42 20.93 18.14 19.82C19.75 19.85 21.14 19.87 22.10 19.92ZM7.68 13.08C8.38 13.06 9.14 13.03 9.94 13.03C9.86 13.97 9.74 14.81 9.53 15.60C8.54 15.60 7.58 15.62 6.72 15.65C7.15 14.74 7.44 13.92 7.68 13.08Z" transform="translate(0, 0)" />
</svg>