<svg xmlns="http://www.w3.org/2000/svg" viewBox="0 0 24 28.8">
  <path d="M22.34 16.03C21.29 15.94 18.79 15.89 15.91 15.86C15.43 14.83 14.76 13.94 13.87 13.27L19.22 10.44L18.36 6.19L3.43 6.65L3.53 11.14L10.20 10.68L8.35 12.34L8.06 14.78C8.86 15 9.53 15.38 10.06 15.89C6.31 15.91 2.90 16.01 1.68 16.15L2.06 21.07C4.01 20.95 7.39 20.90 10.90 20.95C10.51 21.53 9.94 21.98 9.12 22.25L7.70 21.96L7.03 26.02L10.37 26.81L12.82 26.33C14.95 25.22 16.15 23.21 16.54 21.02C18.82 21.07 20.81 21.14 22.03 21.22Z" transform="translate(0, 0)" />
</svg>