<svg xmlns="http://www.w3.org/2000/svg" viewBox="0 0 24 28.8">
  <path d="M20.90 7.15C20.54 7.22 17.78 7.27 14.59 7.30L14.59 5.40L9.58 5.47L9.74 7.34C8.16 7.34 6.77 7.32 5.78 7.32C5.74 7.13 5.71 6.98 5.69 6.84L2.47 6.94C2.47 9.34 2.54 12 1.92 13.58L5.69 13.78C5.83 13.22 5.93 12.07 5.93 10.85C9.34 10.85 16.70 10.75 18.34 10.70C18.38 11.35 18.19 12.67 18.02 13.68L21.02 14.04C21.67 12.91 21.86 10.85 22.15 9.60ZM13.75 20.35C15.65 20.30 17.88 20.30 19.08 20.40L19.08 16.34C18.17 16.25 15.79 16.25 13.75 16.32L13.75 14.93C15.31 14.93 16.78 14.95 17.76 15.02L17.76 11.23C15.72 11.09 8.28 11.18 6.12 11.38L6.29 15.12C7.13 15.05 8.57 15 10.15 14.98L10.25 21.26C9.14 21.02 8.04 20.71 6.91 20.33C7.06 19.49 7.15 18.60 7.25 17.62L3.84 17.42C3.70 20.02 3.26 22.18 1.85 25.42L4.99 26.23C5.33 25.56 5.62 24.94 5.86 24.31C10.99 26.23 15.89 26.28 21.02 26.02L21.02 21.84C18.43 22.06 16.06 22.08 13.75 21.84Z" transform="translate(0, 0)" />
</svg>