
    <svg xmlns="http://www.w3.org/2000/svg" viewBox="0 0 24 28.8">
      <path d="M19.54 12.38L21.26 12.53C21.91 11.66 22.13 10.03 22.42 9.07L21.14 7.15C20.78 7.20 17.93 7.25 14.64 7.27L14.64 5.47L9.48 5.57L9.62 7.30C7.99 7.30 6.55 7.30 5.52 7.27L5.45 6.91L2.16 6.96C2.16 8.86 2.23 10.97 1.58 12.17L4.32 12.29L4.49 14.57C5.64 14.52 7.61 14.47 9.79 14.45C9.79 14.66 9.77 14.88 9.77 15.10C7.82 15.12 6.10 15.17 5.18 15.22L5.40 17.95C6.29 17.90 7.70 17.88 9.34 17.86L9.12 18.53C6.41 18.55 4.01 18.60 2.74 18.65L3 21.41C3.98 21.36 5.42 21.34 7.13 21.31C6.10 22.15 4.68 22.82 2.74 23.38L4.80 26.78C8.62 25.27 10.85 23.57 12.14 21.36C13.58 24.17 16.70 26.04 18.31 26.93L21.07 23.88C19.68 23.26 18.26 22.80 16.70 21.26C18.41 21.26 19.94 21.29 21.07 21.31L21.07 18.53C19.66 18.48 16.56 18.48 13.27 18.48L13.42 17.81C15.58 17.81 17.62 17.83 18.94 17.88L18.94 15.10C17.98 15.05 15.98 15.05 13.78 15.05C13.80 14.86 13.80 14.64 13.82 14.42C16.06 14.42 18.17 14.42 19.54 14.47ZM5.57 11.76C5.64 11.28 5.69 10.68 5.69 10.03C9.19 10.06 16.82 9.96 18.50 9.94C18.55 10.34 18.43 11.02 18.31 11.66C17.16 11.64 15.58 11.64 13.90 11.64L13.90 10.34L9.86 10.46L9.86 11.69C8.23 11.69 6.72 11.74 5.57 11.76Z" transform="translate(0, 0)" />
    </svg>
  