
    <svg xmlns="http://www.w3.org/2000/svg" viewBox="0 0 24 28.8">
      <path d="M22.20 9.58C21.84 9.55 21.36 9.55 20.76 9.55L20.78 5.71L16.15 5.78L16.18 9.58C14.18 9.62 12.22 9.72 11.18 9.84L11.42 13.94C12.58 13.90 14.38 13.87 16.22 13.87L16.27 21.94L15.48 21.70L14.52 25.58L18.05 26.76L20.69 24.89L20.74 13.90C21.29 13.92 21.79 13.92 22.20 13.94ZM9.89 13.27C10.30 13.30 10.68 13.30 11.04 13.32L11.11 8.81C10.42 8.81 9.17 8.81 7.80 8.83L7.80 6.38L5.18 6.46L5.28 8.88C3.86 8.90 2.59 8.98 1.85 9.10L1.94 13.39C2.45 13.39 3.02 13.37 3.62 13.34L2.83 14.93C3.48 15.77 4.22 16.82 4.97 17.95C4.06 19.03 2.93 19.63 1.78 20.09L2.78 24.50C4.03 24.07 5.64 22.97 7.03 21.17L9.22 24.74L11.26 21.65C10.49 20.33 9.70 19.06 8.88 17.83C9.38 16.51 9.74 15 9.89 13.27ZM5.78 13.30C6.12 13.30 6.48 13.27 6.84 13.27C6.77 13.70 6.70 14.11 6.60 14.47C6.34 14.09 6.05 13.70 5.78 13.30ZM15.62 17.66C15.62 16.39 14.59 15.36 13.32 15.36C12.02 15.36 10.99 16.39 10.99 17.66C10.99 18.96 12.02 19.99 13.32 19.99C14.59 19.99 15.62 18.96 15.62 17.66Z" transform="translate(0, 0)" />
    </svg>
  