
    <svg xmlns="http://www.w3.org/2000/svg" viewBox="0 0 24 28.8">
      <path d="M15.38 19.20C16.15 19.20 16.92 19.20 17.62 19.20L17.54 19.37L20.90 19.37C21.17 18.82 21.82 16.01 21.82 15.67L20.35 14.81C19.44 14.78 17.50 14.78 15.38 14.81L15.38 14.04C16.73 13.80 18.07 13.46 19.58 13.03L19.06 12.19L21.65 12.19C22.03 10.22 22.27 9.34 22.39 8.18L19.82 5.47C16.51 5.71 9.22 5.78 6.31 5.76L4.66 8.06C4.66 13.10 2.93 20.78 1.63 24.84L5.66 26.09C6.07 25.22 6.43 24.05 6.77 22.66C6.82 24.02 6.89 25.42 7.06 26.38L10.08 26.28C9.96 25.49 9.94 23.57 9.91 21.89L13.01 21.82L13.01 22.56C12.05 22.58 11.14 22.61 10.54 22.58L10.58 24.89C11.62 24.94 15.10 24.82 16.58 24.70C16.63 24.84 16.66 24.98 16.68 25.13L17.64 24.74L17.14 25.82C18.07 26.09 18.82 26.28 19.73 26.57L21.65 25.92C22.03 24.70 22.03 21.29 22.03 20.45L19.99 19.80L15.38 19.85ZM18.26 8.54C18.26 8.83 18.26 9.10 18.24 9.36C15.67 9.34 11.71 9.36 8.71 9.41L8.78 8.59C11.74 8.59 16.63 8.54 18.26 8.54ZM12.94 14.83C12.24 14.83 11.57 14.86 10.92 14.86C10.92 14.81 10.94 14.78 10.94 14.74L8.14 14.86C8.26 13.90 8.38 12.98 8.45 12.12C9.82 12.10 11.42 12.10 13.01 12.07C11.66 12.29 10.27 12.43 8.71 12.53L9.26 14.74C10.63 14.66 11.83 14.57 12.94 14.42ZM18.07 16.58C18.02 16.73 17.98 16.99 17.95 17.30C17.18 17.30 16.30 17.33 15.38 17.33L15.38 16.61C16.61 16.61 17.59 16.58 18.07 16.58ZM10.85 16.63L12.96 16.63L12.96 17.35C12.19 17.35 11.47 17.38 10.82 17.38C10.82 17.14 10.82 16.90 10.85 16.63ZM9.91 19.99L9.91 19.70L7.39 19.70C7.46 19.32 7.54 18.96 7.58 18.58C7.63 18.91 7.70 19.22 7.78 19.44L10.94 19.37C10.94 19.32 10.92 19.27 10.92 19.22C11.54 19.22 12.24 19.22 12.98 19.20L12.98 19.90C11.81 19.92 10.70 19.94 9.91 19.99ZM17.83 24.65L18.67 24.31C18.46 23.66 18.07 22.58 17.59 21.74L18.98 21.74C18.98 22.30 18.98 23.69 18.62 24.79ZM15.38 21.77L16.15 21.77L15.67 22.01C15.72 22.15 15.79 22.30 15.84 22.44C15.70 22.46 15.55 22.46 15.38 22.49Z" transform="translate(0, 0)" />
    </svg>
  