<svg xmlns="http://www.w3.org/2000/svg" viewBox="0 0 24 28.8">
  <path d="M5.86 10.66C7.22 10.66 8.33 9.55 8.33 8.16C8.33 6.79 7.22 5.69 5.86 5.69C4.46 5.69 3.36 6.79 3.36 8.16C3.36 9.55 4.46 10.66 5.86 10.66ZM18 20.93C17.47 18.58 16.44 16.30 15.60 13.99C16.20 11.52 17.09 9.89 17.93 7.44L15.02 6.31C14.38 8.47 12.94 12.14 12.65 13.15L12.65 15C13.22 15.89 14.59 19.73 15.19 21.98C14.35 21.91 13.54 21.84 12.74 21.79L14.26 21.10C13.75 18.77 12.62 16.30 11.76 13.99C12.17 12 13.22 9.72 14.06 7.27L11.18 6.14C10.70 7.66 9.82 10.03 9.22 11.64L9.12 11.02C7.44 11.23 3.89 11.38 2.02 11.38L2.02 14.90C2.02 14.90 4.25 14.86 5.06 14.71C4.25 15.48 3.72 15.74 2.81 16.20L3.17 19.18C6.79 19.94 5.06 22.87 2.23 23.38L4.46 26.02C9.89 24.86 17.28 26.74 21.43 26.14L22.01 22.32C20.04 22.44 17.81 22.22 15.60 22.01ZM16.54 15C17.16 15.91 18.65 19.82 19.25 22.01L22.01 20.76C21.48 18.41 20.35 16.30 19.51 13.99C20.09 11.88 20.98 10.49 21.84 8.04L18.94 6.91C18.29 9.10 16.85 12.14 16.54 13.15ZM8.95 21.84C9.62 20.23 9.82 17.90 8.09 17.28C8.47 16.58 8.74 16.03 8.98 15.53C9.65 16.87 10.78 19.80 11.35 21.74C10.51 21.72 9.70 21.74 8.95 21.84Z" transform="translate(0, 0)" />
</svg>