<svg xmlns="http://www.w3.org/2000/svg" viewBox="0 0 24 28.8">
  <path d="M5.98 6.19C5.98 16.20 6.79 19.22 1.90 23.88L4.34 26.21C9.22 22.49 9.24 18.05 9.24 6.19ZM10.44 14.62C11.33 14.52 14.90 14.47 17.50 14.47C17.47 14.62 17.47 14.74 17.45 14.83L20.28 14.83C20.93 12.89 21.14 10.30 21.24 8.28L19.51 6.19C17.93 6.41 11.64 6.41 10.51 6.36L10.34 9L18.07 9C18.07 9.12 18.07 9.26 18.05 9.43C15.43 9.41 11.23 9.46 10.34 9.55L10.44 11.59C11.38 11.52 15.24 11.47 17.88 11.50C17.86 11.59 17.86 11.71 17.83 11.81C15.19 11.78 11.21 11.86 10.34 11.95ZM5.38 18.24C5.23 15.94 5.16 9.41 5.28 6.65L2.21 6.65C2.09 8.71 2.16 16.22 2.33 18.41ZM21.29 14.98C20.86 15.07 14.57 15.14 11.64 15.10C11.64 14.98 11.62 14.83 11.59 14.74L9.22 14.81C9.22 16.66 9.26 18.72 8.83 19.92L10.39 20.02C10.42 21.77 10.46 23.47 10.63 25.44L13.13 25.30C13.06 24.22 13.03 22.75 13.01 21.24C13.22 21.22 13.44 21.19 13.68 21.19L13.75 26.64L16.56 26.64L16.56 24.58C17.35 25.01 17.98 25.30 18.77 25.73L20.18 24.70C20.42 23.28 20.35 21.53 20.30 20.16L21.36 20.28C21.82 19.42 21.94 17.83 22.13 16.87ZM18.50 17.93C18.12 17.93 17.40 17.95 16.56 17.98L16.56 17.76C17.71 17.76 18.67 17.74 19.10 17.71C19.13 17.86 19.13 18.05 19.10 18.29ZM13.01 18.24L13.01 18L11.76 18L11.76 17.83C12.31 17.83 12.96 17.81 13.63 17.81L13.63 18.17ZM17.02 22.66L16.56 24.46L16.56 21.05C17.06 21.02 17.54 21.02 17.90 21.02C17.90 21.84 17.74 22.82 17.78 22.94Z" transform="translate(0, 0)" />
</svg>