
    <svg xmlns="http://www.w3.org/2000/svg" viewBox="0 0 24 28.8">
      <path d="M6.48 16.46L6.62 15.84C7.46 15.82 8.30 15.77 9.12 15.77C9.12 15.84 9.10 15.91 9.07 15.98L12.84 15.98C13.39 14.38 13.82 10.39 13.99 8.57L12.36 6.48C10.46 6.48 4.78 6.79 2.66 6.79L3.22 10.97C4.99 10.90 8.21 10.78 9.89 10.82C9.86 11.14 9.82 11.54 9.74 12L7.51 12.07C7.56 11.90 7.58 11.76 7.61 11.62L3.53 11.62C3.26 13.06 2.81 16.10 2.66 17.81L4.27 20.64C5.69 20.50 7.06 20.45 8.95 20.57C8.66 21.31 8.45 22.03 8.09 22.61L6.82 22.39L5.78 25.54L9.29 26.45L11.66 25.49C12.79 23.45 14.11 20.14 14.54 17.86L13.32 16.51C10.87 16.44 8.54 16.37 6.48 16.46ZM15.98 26.06L20.88 26.09L21.14 6.74L15.74 6.89Z" transform="translate(0, 0)" />
    </svg>
  