<svg xmlns="http://www.w3.org/2000/svg" viewBox="0 0 120 28.8">
  <path d="M6.48 16.46L6.62 15.84C7.46 15.82 8.30 15.77 9.12 15.77C9.12 15.84 9.10 15.91 9.07 15.98L12.84 15.98C13.39 14.38 13.82 10.39 13.99 8.57L12.36 6.48C10.46 6.48 4.78 6.79 2.66 6.79L3.22 10.97C4.99 10.90 8.21 10.78 9.89 10.82C9.86 11.14 9.82 11.54 9.74 12L7.51 12.07C7.56 11.90 7.58 11.76 7.61 11.62L3.53 11.62C3.26 13.06 2.81 16.10 2.66 17.81L4.27 20.64C5.69 20.50 7.06 20.45 8.95 20.57C8.66 21.31 8.45 22.03 8.09 22.61L6.82 22.39L5.78 25.54L9.29 26.45L11.66 25.49C12.79 23.45 14.11 20.14 14.54 17.86L13.32 16.51C10.87 16.44 8.54 16.37 6.48 16.46ZM15.98 26.06L20.88 26.09L21.14 6.74L15.74 6.89ZM43.03 6.14C41.98 6.14 36.62 6.19 32.57 6.34L32.57 5.98L27.74 6.14C27.77 14.47 28.22 19.49 25.10 23.98L28.92 26.35C30.19 24.72 30.98 22.92 31.51 20.88L34.37 20.81L34.44 25.97L38.54 25.97L38.54 20.78L40.92 20.78C40.87 21.46 40.80 22.06 40.73 22.51L39.58 22.06L38.88 25.06C40.03 25.75 40.97 26.21 42.12 26.90L45.12 25.27C45.58 22.30 45.58 9.82 45.58 7.75ZM41.18 11.95C40.42 11.95 39.50 11.93 38.54 11.93L38.54 10.99C39.72 10.97 40.68 10.97 41.18 10.97ZM34.27 11.98C33.62 12 33.02 12 32.45 12.02C32.45 11.71 32.45 11.40 32.47 11.11C33.05 11.09 33.65 11.06 34.25 11.06ZM38.54 15.96C39.46 15.96 40.34 15.98 41.14 15.98C41.14 16.25 41.11 16.51 41.11 16.75L38.54 16.75ZM32.16 16.85L32.23 16.06C32.90 16.03 33.60 16.01 34.32 16.01L34.32 16.80C33.58 16.82 32.83 16.85 32.16 16.85ZM68.06 6.41C64.70 6.22 55.25 6.34 51.67 6.60L51.96 11.40C55.73 11.16 63.58 11.06 68.06 11.26ZM66.94 21C65.28 21.17 65.40 20.16 65.42 17.14C66.98 17.16 68.38 17.18 69.43 17.23L69.43 12.38C66.07 12.19 53.83 12.31 50.26 12.58L50.57 17.38C51.48 17.33 52.78 17.28 54.31 17.23C53.76 19.85 52.01 20.86 49.92 21.17L51.29 26.28C55.42 25.42 58.58 23.21 59.38 17.21L59.06 17.14L60.79 17.14C60.79 23.95 60.17 26.30 69.07 26.11L70.10 24.29L70.10 20.16L66.72 20.30ZM89.71 12.14C91.01 12.14 92.14 12.17 92.78 12.17L92.78 9.70C92.14 9.65 91.03 9.62 89.76 9.62L89.78 9.26C91.44 9.29 92.93 9.31 93.77 9.31L93.77 6.53C92.93 6.46 91.46 6.43 89.83 6.43L89.86 5.57L86.04 5.69L86.04 6.46C84.41 6.48 82.94 6.50 82.10 6.58L82.30 9.29C83.11 9.26 84.50 9.26 86.06 9.26L86.06 9.65C84.84 9.67 83.76 9.72 83.11 9.77L83.26 12.14C83.88 12.12 84.91 12.12 86.09 12.12L86.09 12.43C84.24 12.46 82.58 12.50 81.65 12.58L81.84 15.31C84.41 15.24 92.04 15.31 94.46 15.34L94.46 12.53C93.48 12.46 91.68 12.41 89.71 12.41ZM82.82 16.75L82.82 17.59C82.27 16.22 81.24 13.73 80.14 12.50L79.97 12.62L79.97 5.90L76.68 6.07L76.73 12.24L75.26 12.05C74.98 14.11 74.35 16.75 73.54 18.89L76.25 20.33C76.46 19.78 76.63 19.10 76.78 18.36L76.85 26.45L79.97 26.45L79.97 17.95C80.11 18.36 80.21 18.74 80.30 19.10L82.82 17.69C82.82 20.28 82.87 24.67 82.97 26.33L86.09 26.18C86.06 25.49 86.06 24.53 86.06 23.45L90.26 23.40L90.26 23.78L89.90 23.76L89.47 25.80L91.90 26.69L93.34 25.30C93.48 23.28 93.48 19.30 93.48 17.38L92.23 15.60L83.71 15.70ZM90.26 18.17L90.26 18.55L86.14 18.58L86.14 18.14ZM90.26 20.78L90.26 21.24L86.09 21.26L86.09 20.83ZM105.67 14.74C106.15 14.76 106.61 14.76 107.04 14.78L107.04 11.18C106.22 11.14 105.19 11.14 104.11 11.14L104.11 10.37C104.98 10.37 105.82 10.39 106.56 10.42L106.56 7.10C105.86 7.06 105.02 7.06 104.11 7.06L104.11 5.88L100.85 6.07L100.90 7.10C99.96 7.13 99.07 7.18 98.38 7.22L98.52 10.49C99.31 10.44 100.18 10.39 101.02 10.37L101.04 11.18C99.84 11.23 98.69 11.28 97.80 11.33L97.94 14.83L99.14 14.76C99.26 15.41 99.38 16.08 99.48 16.73L97.82 16.80L97.97 20.57C98.88 20.50 99.84 20.47 100.82 20.45L100.85 21.22C99.74 21.24 98.69 21.29 97.87 21.34L98.02 24.53C98.95 24.48 99.96 24.43 100.97 24.43L101.04 26.18L104.06 26.18L104.06 24.41L107.06 24.48L107.06 21.22C106.22 21.17 105.17 21.17 104.06 21.17L104.06 20.42C105.14 20.42 106.18 20.47 107.06 20.50L107.06 16.66C106.61 16.63 106.08 16.61 105.50 16.61C105.58 15.98 105.65 15.36 105.67 14.74ZM115.73 21.70C116.42 20.64 117.02 19.54 117.55 18.48L116.57 14.95C115.37 15.14 112.87 15.24 110.86 15.22L110.86 9.91C112.20 9.89 113.52 9.82 114.34 9.74C114.24 10.49 114.26 11.26 114.10 11.78C114.10 11.78 113.76 11.62 113.42 11.28L111.67 12.82C112.54 13.82 113.42 14.54 114.10 15.05L117.19 14.04C117.62 12.53 117.58 11.69 117.98 9.36L116.42 6.07C113.35 6.24 109.49 6.46 107.06 6.29L107.06 9.96L107.52 9.96L107.66 26.26L110.86 26.26L110.86 24.55L111.29 26.26C112.18 25.78 113.02 25.08 113.78 24.24C114.58 25.10 115.39 25.87 116.18 26.42L118.22 23.78C117.50 23.28 116.64 22.54 115.73 21.70ZM101.83 14.71C102.24 14.69 102.65 14.69 103.06 14.71C103.03 15.36 103.01 16.01 102.96 16.61C102.65 16.63 102.36 16.63 102.05 16.63C102 15.98 101.93 15.34 101.83 14.71ZM113.57 19.42C113.35 19.18 113.14 18.94 112.94 18.67C113.40 18.67 113.83 18.62 114.22 18.55C114.05 18.77 113.83 19.08 113.57 19.42ZM110.86 20.57C111.10 20.93 111.38 21.31 111.70 21.72C111.41 22.03 111.12 22.30 110.86 22.51Z" transform="translate(0, 0)" />
</svg>