<svg xmlns="http://www.w3.org/2000/svg" viewBox="0 0 24 28.8">
  <path d="M22.32 24.58C21.14 24.05 19.97 23.42 18.94 22.78C19.10 22.82 19.30 22.85 19.49 22.85C20.50 22.85 21.31 22.03 21.31 21.02C21.31 20.40 21 19.87 20.54 19.54C21.19 19.56 21.77 19.56 22.25 19.58L22.25 16.42C20.86 16.32 17.04 16.32 13.92 16.39L13.92 15.70C16.08 15.62 19.20 15.60 20.71 15.70L20.71 13.08C19.58 13.01 16.18 13.01 13.87 13.08C13.87 12.89 13.87 12.72 13.85 12.53C16.03 12.46 19.18 12.43 20.71 12.53L20.71 9.91C19.58 9.84 16.18 9.84 13.85 9.91L13.85 9.26C16.42 9.19 19.70 9.22 21.41 9.29L21.41 6.22C19.58 6.07 12.84 6.19 10.87 6.34L11.04 9.38C11.14 9.38 11.23 9.36 11.35 9.36C11.33 11.47 11.38 14.57 11.42 16.46L9.94 16.54L9.98 17.21L9.70 16.58C8.45 16.51 5.71 16.42 4.66 16.51C4.68 16.32 4.70 16.10 4.73 15.91L6.41 15.84C6.41 15.91 6.38 15.96 6.38 16.03L9.31 16.03C9.60 14.42 9.82 10.34 9.91 8.47L9.07 6.34C8.14 6.34 3.10 6.67 2.02 6.67L2.30 10.94C3.22 10.87 5.98 10.73 6.82 10.78C6.79 11.11 6.77 11.57 6.74 12.10L5.16 12.17C5.16 11.98 5.18 11.76 5.21 11.57L2.23 11.59C2.11 13.06 1.75 16.61 1.68 18.36L2.83 20.81C3.55 20.64 5.76 20.62 6.72 20.71C6.58 21.48 6.46 22.22 6.26 22.80L5.42 22.49L4.58 25.78L6.86 26.71L8.83 25.73C9.29 24.12 9.79 21.67 10.10 19.58L10.10 19.68C10.42 19.66 10.78 19.63 11.21 19.63L11.26 25.94L12.60 26.64L15.94 25.58L15.36 23.47C16.75 24.70 18.55 25.99 20.52 26.69ZM13.94 21.50L13.94 19.56C15.38 19.54 16.97 19.51 18.43 19.51C17.95 19.85 17.64 20.40 17.64 21.02C17.64 21.46 17.78 21.86 18.05 22.18C17.09 21.48 16.25 20.78 15.65 20.09ZM13.94 22.15C14.28 22.49 14.69 22.90 15.14 23.28L13.92 23.71Z" transform="translate(0, 0)" />
</svg>