<svg xmlns="http://www.w3.org/2000/svg" viewBox="0 0 24 28.8">
  <path d="M19.51 5.93C17.74 7.66 14.78 9.72 12.62 10.70L13.15 15.26C15.74 14.52 19.08 12.07 20.66 10.18ZM12.60 14.02C12.26 13.99 11.76 13.97 11.14 13.97L11.16 11.11C11.52 11.11 11.83 11.14 12.12 11.16L12.12 6.89C10.39 6.72 4.13 6.84 2.28 7.06L2.45 11.30C2.74 11.28 3.10 11.23 3.50 11.21C3.53 12.24 3.55 13.18 3.55 14.06C2.83 14.11 2.21 14.14 1.80 14.18L1.97 18.43C2.35 18.38 2.86 18.36 3.46 18.34C3.24 20.81 2.69 22.75 1.25 24.62L4.49 26.83C6.05 24.60 6.65 21.94 6.91 18.22L7.85 18.22L7.85 26.83L11.02 26.83L11.09 18.24C11.66 18.24 12.19 18.26 12.60 18.29ZM7.10 13.97C7.13 13.06 7.13 12.10 7.15 11.09L7.85 11.09L7.85 13.97ZM20.62 11.59C18.60 13.49 14.38 15.82 12.62 16.30L13.15 20.83C16.39 19.51 19.92 17.52 21.74 15.38ZM21.17 17.09C19.46 19.08 14.11 21.77 12.34 22.25L12.89 26.81C16.20 25.80 20.04 23.95 22.75 21.41Z" transform="translate(0, 0)" />
</svg>