<svg xmlns="http://www.w3.org/2000/svg" viewBox="0 0 24 28.8">
  <path d="M7.25 5.14C6.41 7.18 3.82 10.87 1.58 12.77L3.91 15.65C6.12 13.68 9 9.91 10.37 7.42ZM22.44 12.07C21.65 12.02 20.06 12 18.29 12L18.29 11.16C19.58 11.18 20.76 11.21 21.58 11.26L21.58 7.03C20.93 6.98 19.70 6.96 18.29 6.96L18.29 5.86L14.09 5.95L14.11 7.03C12.72 7.08 11.47 7.13 10.80 7.20L10.97 11.38C11.69 11.30 12.86 11.26 14.21 11.21L14.23 12.05C12.58 12.10 11.09 12.17 10.27 12.24L8.40 10.87C7.54 12.91 4.80 16.18 2.33 18.38L4.68 21.26L5.26 20.81C5.23 22.46 5.23 24.19 5.33 26.38L8.90 26.38C8.93 23.06 8.81 19.94 8.93 16.94C9.43 16.32 9.89 15.72 10.30 15.12L10.34 16.42C11.66 16.32 14.33 16.22 16.92 16.22L16.94 16.85C14.40 16.87 11.66 16.97 10.51 17.09L10.68 21.26C11.95 21.14 14.52 21.07 16.99 21.05L17.02 23.02L16.66 22.87L15.77 25.70L18.58 26.76L20.69 25.70L20.69 21.07C21.12 21.10 21.53 21.10 21.86 21.12L21.86 16.92C21.58 16.90 21.17 16.87 20.66 16.87L20.66 16.22L22.44 16.30ZM13.32 21.58C12.19 21.58 11.28 22.49 11.28 23.59C11.28 24.70 12.19 25.61 13.32 25.61C14.42 25.61 15.34 24.70 15.34 23.59C15.34 22.49 14.42 21.58 13.32 21.58Z" transform="translate(0, 0)" />
</svg>