<svg xmlns="http://www.w3.org/2000/svg" viewBox="0 0 24 28.8">
  <path d="M6.98 4.82C6.10 6.84 3.43 10.54 1.13 12.43L3.55 15.34C5.83 13.37 8.78 9.62 10.20 7.10ZM20.50 16.73L22.87 15.94C22.06 14.50 20.50 12.74 19.49 11.86L17.81 12.50C18.96 11.88 20.16 11.16 20.88 10.49L18.10 8.78C17.76 9.05 17.06 9.50 16.22 10.06C15.94 9.91 15.60 9.77 15.22 9.65C16.63 8.86 18.31 7.82 19.51 7.01L15.96 4.90C14.35 6.02 12.02 7.70 10.03 8.83L9.72 11.04C10.51 11.40 11.69 11.83 12.84 12.24C12.22 12.62 11.62 13.01 11.11 13.32L11.40 12.82L8.18 10.54C7.30 12.60 4.46 15.89 1.90 18.07L4.32 20.98C4.51 20.83 4.73 20.66 4.92 20.50C4.90 22.18 4.90 23.93 4.99 26.09L8.69 26.09C8.71 23.86 8.64 21.67 8.64 19.56L10.51 22.15C10.97 21.89 11.42 21.58 11.90 21.22C12.12 21.46 12.43 21.72 12.79 22.01C11.59 22.66 10.37 23.16 9.29 23.38L10.82 26.33C12.14 25.94 13.97 25.06 15.72 24C17.45 25.03 19.25 25.97 20.26 26.33L21.96 23.38C21.07 23.06 19.90 22.58 18.67 22.01C19.80 21.14 20.74 20.30 21.26 19.58ZM17.06 13.78C16.56 13.82 16.06 13.82 15.31 13.82C15.60 13.66 16.08 13.42 16.63 13.13ZM8.64 19.56C8.64 18.58 8.66 17.62 8.71 16.66C9.12 16.15 9.53 15.65 9.89 15.14L10.10 16.61C10.68 16.61 11.26 16.58 11.81 16.58C10.97 17.62 10.03 18.43 8.64 19.56ZM16.39 16.46C17.21 16.44 18.02 16.39 18.84 16.34C18.91 16.46 18.98 16.58 19.03 16.70C18.17 16.75 17.06 16.85 16.10 16.90ZM14.59 19.66C15.38 19.61 16.18 19.51 16.58 19.42C16.25 19.70 15.89 19.99 15.50 20.28C15.19 20.06 14.88 19.87 14.59 19.66Z" transform="translate(0, 0)" />
</svg>