<svg xmlns="http://www.w3.org/2000/svg" viewBox="0 0 24 28.8">
  <path d="M6.74 21.29C7.25 18.12 7.56 14.90 7.80 11.98C12.48 11.90 19.13 11.88 22.27 12L22.27 7.90C21 7.85 18.70 7.82 16.15 7.82L16.44 5.78L10.44 5.78L10.61 7.90C8.35 7.92 6.34 7.99 5.11 8.06L3.72 10.32C3.72 15.07 3.02 19.58 1.63 25.46L5.81 26.16C5.98 25.49 6.12 24.79 6.26 24.10L8.47 25.15C9.72 23.76 10.94 18.50 11.28 14.93L8.09 14.66C8.02 16.54 7.46 19.18 6.74 21.29ZM18.82 22.01C15.10 22.66 14.88 17.93 15.29 12.31L11.62 12.31C10.06 25.44 15.70 26.71 20.90 26.02L21.77 24.74L21.72 21.12L18.82 21.29ZM21.22 13.61C20.16 13.61 19.30 14.47 19.30 15.53C19.30 16.61 20.16 17.47 21.22 17.47C22.27 17.47 23.14 16.61 23.14 15.53C23.14 14.47 22.27 13.61 21.22 13.61ZM15.65 17.47C15.65 18.55 16.51 19.42 17.57 19.42C18.62 19.42 19.49 18.55 19.49 17.47C19.49 16.42 18.62 15.55 17.57 15.55C16.51 15.55 15.65 16.42 15.65 17.47Z" transform="translate(0, 0)" />
</svg>