
    <svg xmlns="http://www.w3.org/2000/svg" viewBox="0 0 24 28.8">
      <path d="M4.22 17.40C4.78 17.04 5.26 16.66 5.66 16.25L5.64 18.53L9.26 18.70L9.34 15.43C9.74 15.74 10.13 16.06 10.39 16.37L12 14.21C12.02 16.37 12.07 18.26 12.07 18.96L14.76 18.96C14.76 18.84 14.78 18.72 14.78 18.55C16.03 18.55 17.40 18.55 18.55 18.60L18.55 18.86C17.78 19.03 17.18 19.73 17.18 20.54C17.18 21.48 17.95 22.25 18.89 22.25C19.82 22.25 20.59 21.48 20.59 20.54C20.59 19.82 20.14 19.20 19.51 18.96L21.24 18.96C21.36 17.71 21.74 9.58 21.62 7.58L20.74 6.26L14.83 6.50L14.83 6.29L11.81 6.38C11.88 7.75 11.95 10.97 12 13.82C11.33 13.25 10.46 12.67 9.41 12.12L9.43 10.85C10.32 10.85 11.09 10.87 11.66 10.90L11.66 7.78C11.23 7.75 10.44 7.73 9.50 7.73L9.55 6.02L5.78 6.14L5.76 7.78C4.46 7.80 3.31 7.85 2.71 7.92L2.86 10.99C3.48 10.94 4.54 10.90 5.74 10.87L5.71 11.42C4.68 12.96 2.98 14.38 1.92 15.24ZM18.70 9.38L18.70 9.91L14.88 9.96L14.88 9.46ZM18.70 12.24C18.67 12.46 18.67 12.65 18.67 12.86L14.88 12.91L14.88 12.26ZM14.86 15.65L14.86 15.22L18.62 15.19L18.62 15.70C17.40 15.65 16.01 15.65 14.86 15.65ZM18.84 23.06C14.33 23.86 11.28 22.25 11.81 18.98L8.09 18.89C6.60 26.71 14.59 27.07 21.22 26.21L22.22 25.27L22.22 22.37L18.84 22.51ZM5.06 25.97C6.48 24.74 7.42 22.32 7.80 19.15L4.10 18.94C3.96 21.36 3.17 23.04 1.78 24.79ZM13.32 21.14C13.32 22.08 14.09 22.85 15.02 22.85C15.96 22.85 16.73 22.08 16.73 21.14C16.73 20.21 15.96 19.44 15.02 19.44C14.09 19.44 13.32 20.21 13.32 21.14Z" transform="translate(0, 0)" />
    </svg>
  