<svg xmlns="http://www.w3.org/2000/svg" viewBox="0 0 24 28.8">
  <path d="M19.27 22.06L19.13 21.74C20.28 20.42 21.29 19.08 22.01 17.95L18.86 15.43C18.48 15.96 18.12 16.46 17.76 16.94C17.57 15.82 17.42 14.59 17.30 13.27C18.65 13.32 19.85 13.37 20.78 13.39L20.98 9.79C21.72 9.38 22.22 8.62 22.22 7.70C22.22 6.38 21.17 5.33 19.85 5.33C18.53 5.33 17.47 6.38 17.47 7.70C17.47 8.16 17.59 8.59 17.83 8.95L17.11 8.95C17.09 7.94 17.09 6.91 17.11 5.83L12 6.36L12.14 8.98C9.02 9 5.95 9.07 4.34 9.17L2.98 11.42C2.98 16.15 2.64 20.09 1.30 25.94L5.69 26.35C5.90 25.44 6.07 24.55 6.24 23.66C6.82 24.24 7.54 24.74 7.99 25.10L11.09 24.07C11.59 23.23 12.77 20.16 13.13 18.43L11.59 15.22C9.98 15.31 8.54 15.34 7.22 15.34C7.27 14.62 7.34 13.90 7.39 13.18C9 13.15 10.75 13.15 12.50 13.18C12.86 16.42 13.37 18.98 14.09 21.02C13.46 21.58 12.77 22.13 12 22.66L14.54 26.02C15.05 25.68 15.55 25.27 16.06 24.84C16.66 25.58 17.33 26.21 18.07 26.74L21.55 25.34L22.68 23.23L19.80 21.38ZM9.19 18.96C9.02 19.99 8.52 21.34 7.99 21.84C7.99 21.84 7.66 21.67 7.32 21.34L6.50 22.08C6.65 21.05 6.77 20.04 6.89 19.03C7.70 19.03 8.52 19.03 9.19 18.96Z" transform="translate(0, 0)" />
</svg>