
    <svg xmlns="http://www.w3.org/2000/svg" viewBox="0 0 24 28.8">
      <path d="M21.70 5.71C18.62 5.59 7.39 5.66 4.10 5.83L4.39 9.05C7.82 8.88 17.59 8.81 21.70 8.93ZM16.90 20.86C18.58 20.86 20.11 20.86 21.14 20.88L20.93 17.88L16.27 17.88C16.34 17.33 16.37 16.73 16.37 16.13L12.26 15.96C12.26 16.68 12.24 17.33 12.17 17.90C10.51 17.93 9.07 17.95 8.23 18L8.11 20.93C8.88 20.90 10.01 20.88 11.28 20.88C10.51 22.13 9.17 22.99 7.06 24.24C7.78 21.82 8.04 18.67 8.23 15.86C10.87 15.79 14.38 15.77 17.04 15.79C17.02 15.86 16.99 15.94 16.99 15.98L21.05 15.98C21.43 14.16 21.86 12.70 21.98 11.62L19.51 9.12C16.32 9.36 8.90 9.41 6.12 9.38L3.84 11.81C3.84 16.46 3.26 21.82 2.02 25.54L6.41 25.99C6.60 25.58 6.79 25.10 6.96 24.62L9.26 26.74C11.38 25.78 13.01 24.58 14.16 23.11C15.53 24.62 17.40 25.80 19.54 26.76L21.98 24.43C20.06 23.71 18.12 22.51 16.90 20.86ZM17.54 12.22C17.54 12.46 17.52 12.72 17.52 12.96C15.05 12.94 11.28 12.96 8.45 13.01C8.45 12.74 8.47 12.50 8.50 12.26C11.30 12.26 15.96 12.22 17.54 12.22Z" transform="translate(0, 0)" />
    </svg>
  