
    <svg xmlns="http://www.w3.org/2000/svg" viewBox="0 0 24 28.8">
      <path d="M21.91 17.11L15.72 17.11C15.72 16.92 15.70 16.70 15.67 16.49C17.62 16.51 19.49 16.56 21.14 16.58L20.74 12.02L14.83 12.02C14.62 11.35 14.40 10.73 14.16 10.22C15.67 9.79 17.04 9.24 18.02 8.59L15.02 5.02C12.82 6.50 7.46 7.34 4.87 7.73L5.52 11.71C6.38 11.69 7.97 11.54 9.77 11.23C9.86 11.50 9.98 11.78 10.08 12.07C7.78 12.12 5.40 12.17 3.07 12.24L3.07 16.75C5.14 16.58 7.97 16.51 10.94 16.49C10.94 16.70 10.97 16.94 10.97 17.16C7.92 17.18 4.73 17.23 1.66 17.33L1.66 22.01C3.91 21.84 6.98 21.77 10.22 21.74C10.10 22.08 9.96 22.42 9.82 22.73L9.22 22.44L6.65 24.82L9.96 26.88L12.38 26.59C13.99 25.39 14.93 23.66 15.38 21.74C17.86 21.74 20.28 21.79 22.37 21.82Z" transform="translate(0, 0)" />
    </svg>
  