
    <svg xmlns="http://www.w3.org/2000/svg" viewBox="0 0 48 28.8">
      <path d="M21.91 17.11L15.72 17.11C15.72 16.92 15.70 16.70 15.67 16.49C17.62 16.51 19.49 16.56 21.14 16.58L20.74 12.02L14.83 12.02C14.62 11.35 14.40 10.73 14.16 10.22C15.67 9.79 17.04 9.24 18.02 8.59L15.02 5.02C12.82 6.50 7.46 7.34 4.87 7.73L5.52 11.71C6.38 11.69 7.97 11.54 9.77 11.23C9.86 11.50 9.98 11.78 10.08 12.07C7.78 12.12 5.40 12.17 3.07 12.24L3.07 16.75C5.14 16.58 7.97 16.51 10.94 16.49C10.94 16.70 10.97 16.94 10.97 17.16C7.92 17.18 4.73 17.23 1.66 17.33L1.66 22.01C3.91 21.84 6.98 21.77 10.22 21.74C10.10 22.08 9.96 22.42 9.82 22.73L9.22 22.44L6.65 24.82L9.96 26.88L12.38 26.59C13.99 25.39 14.93 23.66 15.38 21.74C17.86 21.74 20.28 21.79 22.37 21.82ZM43.37 18.31C43.49 18.31 43.61 18.31 43.73 18.31L43.73 18.53L46.15 18.60C46.30 17.45 46.63 11.47 46.49 10.32L45.29 8.47L41.88 8.54C42.26 7.90 42.62 7.20 43.13 6.43L40.15 5.35C39.46 6.67 38.83 7.66 38.11 8.62L36.02 8.66L35.09 9.62C35.18 11.83 35.30 17.04 35.35 18.74L37.68 18.67C37.68 18.55 37.68 18.43 37.68 18.29L37.92 18.29C37.73 18.91 37.44 19.42 37.10 19.87C36.24 19.90 35.50 19.92 35.02 19.97L35.18 23.30C36.29 23.23 38.40 23.16 40.56 23.14C40.56 24.24 40.58 25.30 40.66 26.26L43.42 26.26C43.44 25.49 43.44 24.36 43.44 23.14C44.64 23.14 45.74 23.16 46.51 23.18L46.51 19.85C45.89 19.80 44.74 19.78 43.39 19.78C43.39 19.27 43.37 18.77 43.37 18.31ZM33.48 16.25C32.74 16.32 31.58 16.32 30.48 16.32L30.55 15.12C32.14 15.07 34.03 15.07 35.02 15.17L35.02 10.80C34.75 10.75 34.34 10.73 33.82 10.73L33.82 6.17L31.10 6.26L31.18 10.75L30.65 10.75C30.67 9.36 30.67 7.92 30.70 6.46L27.48 6.38C27.48 14.28 28.08 20.16 25.46 23.98L27.89 26.42C28.97 25.15 29.62 23.30 30 21C30.55 20.95 31.10 20.90 31.58 20.88C31.56 22.10 31.63 23.74 31.58 26.35L34.46 26.35C34.54 23.93 34.56 21.14 34.54 19.39ZM43.87 12.19C43.34 12.17 42.74 12.14 42.12 12.14L42.12 11.54L43.87 11.52ZM39.50 11.59L39.53 12.17C38.83 12.17 38.18 12.19 37.61 12.22C37.58 12.02 37.58 11.83 37.58 11.64ZM37.66 14.93C38.23 14.90 38.90 14.90 39.60 14.90L39.62 15.55C38.95 15.55 38.28 15.58 37.66 15.60ZM42.05 14.90L43.82 14.90C43.80 15.14 43.80 15.36 43.80 15.58C43.30 15.58 42.70 15.55 42.05 15.55ZM40.51 18.29L40.56 18.29C40.56 18.77 40.56 19.27 40.56 19.80L39.96 19.80C40.18 19.34 40.34 18.84 40.51 18.29Z" transform="translate(0, 0)" />
    </svg>
  