
    <svg xmlns="http://www.w3.org/2000/svg" viewBox="0 0 24 28.8">
      <path d="M11.40 14.98C10.94 15.12 10.25 15.26 9.43 15.46L9.43 13.46C10.20 13.46 10.90 13.49 11.40 13.54L11.40 9.48C10.99 9.43 10.27 9.43 9.43 9.41L9.43 6.17L5.54 6.38L5.54 9.46C4.10 9.50 2.78 9.55 2.11 9.65L2.26 13.66C2.98 13.58 4.20 13.51 5.57 13.49L5.57 16.20C4.18 16.46 2.86 16.66 1.99 16.75L2.33 20.66C2.95 20.62 4.20 20.42 5.59 20.16L5.59 22.15L4.73 21.89L3.89 25.27L7.61 26.57L9.46 25.27L9.46 19.42C10.49 19.20 11.35 18.98 11.88 18.84ZM22.01 6.86C20.16 6.70 13.44 6.82 11.47 7.06L11.62 11.52C12.41 11.45 13.73 11.38 15.22 11.33L15.26 22.22L14.28 21.98L13.32 25.37L17.57 26.66L19.66 25.37L19.66 11.30C20.57 11.33 21.38 11.35 22.01 11.40Z" transform="translate(0, 0)" />
    </svg>
  