
    <svg xmlns="http://www.w3.org/2000/svg" viewBox="0 0 120 28.8">
      <path d="M16.10 6.60C16.20 6.34 16.32 6.07 16.39 5.83L13.66 5.40C12.94 6.98 10.78 10.08 8.76 12.14L8.76 9.02C8.45 8.98 7.94 8.95 7.32 8.95L7.32 5.62L4.01 5.83L4.01 8.98C2.93 9.02 1.92 9.10 1.42 9.17L1.54 13.30C2.09 13.22 3 13.18 4.03 13.13L4.03 15.96C3.05 16.18 2.14 16.37 1.54 16.46L1.80 20.50C2.23 20.45 3.07 20.26 4.06 20.04L4.06 22.01L3.31 21.74L2.59 25.22L5.76 26.54L7.34 25.22L7.34 19.15C7.94 18.96 8.45 18.79 8.76 18.67L8.38 14.71L7.32 15.07L7.32 13.10C7.56 13.10 7.80 13.10 8.02 13.13L9.48 15.58C10.06 15.34 10.70 14.81 11.38 14.06L11.42 15.05C11.95 15 12.79 14.95 13.78 14.93L13.80 15.82C12.24 15.84 10.85 15.89 10.13 15.94L10.27 18.67C12.24 18.55 17.78 18.48 20.14 18.60L20.14 15.82C19.46 15.77 18.07 15.77 16.54 15.77L16.54 14.90C17.45 14.90 18.26 14.93 18.84 14.95L18.84 13.39C19.70 14.16 20.47 14.78 20.93 15.10L22.56 12.07C21.10 10.87 17.88 8.16 16.10 6.60ZM14.06 10.46C14.28 10.10 14.50 9.74 14.69 9.41L15.70 10.44ZM12.89 12.22C13.15 11.83 13.44 11.45 13.68 11.04L13.70 12.19C13.42 12.19 13.15 12.19 12.89 12.22ZM16.54 11.26C16.85 11.54 17.16 11.86 17.47 12.14L16.54 12.14ZM12.98 18.96C13.01 18.89 13.01 18.82 13.01 18.77L9.72 19.01C9.72 20.45 9.77 24.79 10.08 26.33L13.01 26.21C13.01 26.14 12.98 26.06 12.98 25.99C14.21 25.94 15.70 25.94 16.97 25.94C16.94 26.04 16.94 26.14 16.92 26.21L19.87 26.21C20.04 25.34 20.50 20.83 20.50 20.28L19.49 18.91C18.50 18.82 15.46 18.89 12.98 18.96ZM12.91 22.99L12.91 21.82C14.78 21.77 16.66 21.77 17.26 21.74C17.23 21.98 17.21 22.39 17.18 22.90C15.86 22.92 14.21 22.94 12.91 22.99ZM43.10 20.28C40.73 20.64 35.71 20.93 35.28 18.62C34.85 16.34 40.42 14.14 43.30 13.22L42.34 7.39C40.30 7.39 29.69 8.06 27.10 8.47L27.43 13.25C31.06 13.03 32.16 12.86 35.66 12.43C31.70 14.42 30.02 16.61 30.58 20.11C31.42 25.39 39.19 25.80 43.49 25.32ZM67.37 18.31C67.49 18.31 67.61 18.31 67.73 18.31L67.73 18.53L70.15 18.60C70.30 17.45 70.63 11.47 70.49 10.32L69.29 8.47L65.88 8.54C66.26 7.90 66.62 7.20 67.13 6.43L64.15 5.35C63.46 6.67 62.83 7.66 62.11 8.62L60.02 8.66L59.09 9.62C59.18 11.83 59.30 17.04 59.35 18.74L61.68 18.67C61.68 18.55 61.68 18.43 61.68 18.29L61.92 18.29C61.73 18.91 61.44 19.42 61.10 19.87C60.24 19.90 59.50 19.92 59.02 19.97L59.18 23.30C60.29 23.23 62.40 23.16 64.56 23.14C64.56 24.24 64.58 25.30 64.66 26.26L67.42 26.26C67.44 25.49 67.44 24.36 67.44 23.14C68.64 23.14 69.74 23.16 70.51 23.18L70.51 19.85C69.89 19.80 68.74 19.78 67.39 19.78C67.39 19.27 67.37 18.77 67.37 18.31ZM57.48 16.25C56.74 16.32 55.58 16.32 54.48 16.32L54.55 15.12C56.14 15.07 58.03 15.07 59.02 15.17L59.02 10.80C58.75 10.75 58.34 10.73 57.82 10.73L57.82 6.17L55.10 6.26L55.18 10.75L54.65 10.75C54.67 9.36 54.67 7.92 54.70 6.46L51.48 6.38C51.48 14.28 52.08 20.16 49.46 23.98L51.89 26.42C52.97 25.15 53.62 23.30 54 21C54.55 20.95 55.10 20.90 55.58 20.88C55.56 22.10 55.63 23.74 55.58 26.35L58.46 26.35C58.54 23.93 58.56 21.14 58.54 19.39ZM67.87 12.19C67.34 12.17 66.74 12.14 66.12 12.14L66.12 11.54L67.87 11.52ZM63.50 11.59L63.53 12.17C62.83 12.17 62.18 12.19 61.61 12.22C61.58 12.02 61.58 11.83 61.58 11.64ZM61.66 14.93C62.23 14.90 62.90 14.90 63.60 14.90L63.62 15.55C62.95 15.55 62.28 15.58 61.66 15.60ZM66.05 14.90L67.82 14.90C67.80 15.14 67.80 15.36 67.80 15.58C67.30 15.58 66.70 15.55 66.05 15.55ZM64.51 18.29L64.56 18.29C64.56 18.77 64.56 19.27 64.56 19.80L63.96 19.80C64.18 19.34 64.34 18.84 64.51 18.29ZM94.49 15L93.17 14.93C93.38 13.39 93.50 11.78 93.50 10.37L91.54 7.85C91.18 7.92 90.07 7.97 88.75 8.02C88.75 7.25 88.73 6.46 88.73 5.64L85.08 5.52C85.03 6.41 85.01 7.27 84.98 8.09C83.50 8.11 82.22 8.09 81.79 8.02L81.65 12.26C82.49 12.34 83.64 12.38 84.86 12.41C84.82 13.32 84.74 14.16 84.67 14.98C82.87 15.02 81.29 15.10 80.42 15.17L80.64 19.70C81.34 19.66 82.37 19.61 83.57 19.56C82.94 21 82.01 22.25 80.62 23.38L82.70 26.86C84.94 25.20 86.40 23.21 87.34 20.42C88.39 23.02 90.14 25.30 92.16 26.86L94.25 23.38C93.10 22.39 91.90 20.95 90.98 19.49C92.38 19.49 93.60 19.51 94.49 19.56ZM77.83 11.62C79.32 11.62 80.54 10.42 80.54 8.90C80.54 7.42 79.32 6.22 77.83 6.22C76.34 6.22 75.12 7.42 75.12 8.90C75.12 10.42 76.34 11.62 77.83 11.62ZM76.37 17.52C77.86 17.52 79.08 16.32 79.08 14.81C79.08 13.32 77.86 12.12 76.37 12.12C74.88 12.12 73.66 13.32 73.66 14.81C73.66 16.32 74.88 17.52 76.37 17.52ZM88.63 12.41C89.52 12.38 90.19 12.34 90.48 12.29C90.48 12.96 90.41 13.97 90.31 14.90L88.44 14.90C88.51 14.11 88.58 13.30 88.63 12.41ZM78.70 17.50C77.42 19.32 75.41 21.89 73.97 22.78L76.30 26.64C78.29 24.72 79.85 22.42 80.74 20.50ZM116.90 7.15C116.54 7.22 113.78 7.27 110.59 7.30L110.59 5.40L105.58 5.47L105.74 7.34C104.16 7.34 102.77 7.32 101.78 7.32C101.74 7.13 101.71 6.98 101.69 6.84L98.47 6.94C98.47 9.34 98.54 12 97.92 13.58L101.69 13.78C101.83 13.22 101.93 12.07 101.93 10.85C105.34 10.85 112.70 10.75 114.34 10.70C114.38 11.35 114.19 12.67 114.02 13.68L117.02 14.04C117.67 12.91 117.86 10.85 118.15 9.60ZM109.75 20.35C111.65 20.30 113.88 20.30 115.08 20.40L115.08 16.34C114.17 16.25 111.79 16.25 109.75 16.32L109.75 14.93C111.31 14.93 112.78 14.95 113.76 15.02L113.76 11.23C111.72 11.09 104.28 11.18 102.12 11.38L102.29 15.12C103.13 15.05 104.57 15 106.15 14.98L106.25 21.26C105.14 21.02 104.04 20.71 102.91 20.33C103.06 19.49 103.15 18.60 103.25 17.62L99.84 17.42C99.70 20.02 99.26 22.18 97.85 25.42L100.99 26.23C101.33 25.56 101.62 24.94 101.86 24.31C106.99 26.23 111.89 26.28 117.02 26.02L117.02 21.84C114.43 22.06 112.06 22.08 109.75 21.84Z" transform="translate(0, 0)" />
    </svg>
  