<svg xmlns="http://www.w3.org/2000/svg" viewBox="0 0 24 28.8">
  <path d="M8.98 14.54C8.66 14.66 8.23 14.78 7.73 14.95L7.73 12.96L8.95 13.03L8.95 8.90C8.69 8.86 8.26 8.83 7.73 8.83L7.73 5.52L4.61 5.74L4.61 8.86C3.46 8.90 2.38 8.98 1.85 9.07L1.97 13.15C2.52 13.08 3.53 13.01 4.63 12.98L4.63 15.74C3.50 15.98 2.45 16.20 1.75 16.30L2.02 20.30C2.52 20.26 3.53 20.04 4.66 19.78L4.66 21.82L3.96 21.58L3.29 25.01L6.26 26.33L7.73 25.01L7.73 18.98C8.42 18.79 9 18.62 9.36 18.48ZM11.90 11.50C11.98 11.06 12.02 10.37 12.05 9.58C14.18 9.60 18.43 9.50 19.54 9.46C19.56 10.08 19.44 10.44 19.32 11.40L21.36 11.71C21.82 10.66 21.96 9.58 22.15 8.40L21.29 6.10C20.81 6.19 14.50 6.31 11.95 6.24C11.95 6.07 11.93 5.93 11.90 5.78L9.67 5.88C9.67 8.16 9.74 9.82 9.29 11.30ZM10.87 15.70C13.18 15.22 14.93 13.58 15.36 10.37L12.62 9.86C12.46 11.66 11.40 12.74 10.10 12.94ZM16.18 10.25C16.15 13.97 15.77 15.70 20.76 15.60L21.34 14.62L21.34 12.41L19.46 12.48L19.58 12.84C18.62 12.94 18.74 11.88 18.74 10.10ZM18.74 20.06C19.66 20.09 20.52 20.09 21.24 20.11L21.34 16.68C20.47 16.68 18.94 16.66 17.21 16.68L17.21 15.34L13.94 15.36L13.92 16.70C12.12 16.75 10.49 16.80 9.55 16.90L9.65 20.16C10.39 20.16 11.26 20.14 12.22 20.11C11.23 21.10 9.96 22.01 8.76 22.63L10.25 25.42C11.35 24.94 12.62 24.14 13.73 23.21L13.66 26.28L17.21 26.26L17.21 22.63C18.05 23.71 18.98 24.77 19.58 25.27L22.22 23.35C21.26 22.70 19.80 21.24 18.74 20.06Z" transform="translate(0, 0)" />
</svg>