<svg xmlns="http://www.w3.org/2000/svg" viewBox="0 0 24 28.8">
  <path d="M19.03 22.15C20.23 22.15 21.29 22.18 22.08 22.20L22.08 18.70C21.10 18.62 19.01 18.62 16.73 18.62C16.78 18.24 16.80 17.83 16.80 17.40L13.87 17.35C13.82 17.83 13.78 18.26 13.68 18.67C11.69 18.70 9.86 18.77 8.86 18.84C8.95 18.79 9.02 18.77 9.10 18.74L8.74 14.86C8.45 14.98 8.04 15.10 7.54 15.24L7.54 13.32C8.11 13.32 8.62 13.34 9 13.39L9 11.38L9.38 11.81C9.48 11.78 9.55 11.74 9.65 11.71C9.65 14.06 9.65 17.09 9.62 18.14L11.64 18.12C11.66 17.66 11.66 16.78 11.69 15.72L11.83 16.49C13.54 16.03 14.86 14.88 15.19 11.74L15 11.69L15.77 11.69C15.77 15.26 15.53 16.51 19.20 16.42L19.34 16.08C19.37 16.92 19.37 17.62 19.39 18.02L21.41 18.02L21.50 10.75L20.50 9.19L17.50 9.19C18.05 8.69 18.53 8.14 19.13 7.18L18.19 5.93C17.38 5.98 15.74 6.02 14.21 6.05L14.35 5.74L11.14 5.59C10.97 6.70 9.98 8.06 8.88 9.26C8.54 9.24 8.09 9.24 7.54 9.22L7.54 5.95L4.30 6.17L4.30 9.26C3.29 9.31 2.38 9.38 1.90 9.46L1.99 13.51C2.52 13.44 3.36 13.37 4.32 13.34L4.32 16.10C3.34 16.34 2.42 16.54 1.80 16.63L2.04 20.59C2.50 20.54 3.36 20.35 4.34 20.11L4.34 22.10L3.60 21.84L2.93 25.25L6 26.57L7.56 25.25L7.56 19.25C8.02 19.10 8.45 18.98 8.76 18.86L8.95 22.30L11.09 22.22C10.44 22.66 9.67 23.14 8.74 23.69L9.94 26.74C12.10 25.63 13.99 24.34 15.24 22.56C16.49 24.05 19.08 25.87 20.71 26.83L22.22 24.02C21.14 23.45 19.94 22.78 19.03 22.15ZM15.48 8.71C15.38 8.88 15.24 9.05 15.10 9.22L12.26 9.22C12.38 9.07 12.50 8.90 12.62 8.74C13.66 8.74 14.62 8.76 15.48 8.71ZM18.22 13.37L18.31 13.73C17.64 13.80 17.71 13.27 17.71 11.66C18.38 11.66 18.98 11.64 19.39 11.64C19.37 12.12 19.34 12.70 19.34 13.30ZM11.69 13.68C11.69 13.01 11.69 12.31 11.69 11.69L13.10 11.69C12.91 12.86 12.38 13.44 11.69 13.68Z" transform="translate(0, 0)" />
</svg>