
    <svg xmlns="http://www.w3.org/2000/svg" viewBox="0 0 24 28.8">
      <path d="M8.45 14.95C8.16 15.07 7.75 15.19 7.27 15.36L7.27 13.37C7.73 13.37 8.11 13.39 8.42 13.42L8.42 9.26C8.16 9.24 7.75 9.22 7.27 9.19L7.27 5.88L4.01 6.10L4.01 9.24C3.02 9.29 2.16 9.36 1.70 9.43L1.80 13.56C2.28 13.49 3.10 13.44 4.01 13.39L4.03 16.22C3.07 16.46 2.21 16.63 1.61 16.73L1.85 20.74C2.28 20.69 3.10 20.52 4.03 20.28L4.03 22.27L3.29 22.01L2.59 25.49L5.71 26.81L7.27 25.49L7.27 19.42C7.92 19.22 8.47 19.06 8.81 18.91ZM13.92 11.71C13.92 11.66 13.90 11.59 13.90 11.52C14.83 11.52 15.91 11.50 16.90 11.52L16.85 11.71L19.68 11.71C19.82 11.04 20.26 7.68 20.26 7.27L19.30 6.22C18.38 6.17 15.98 6.19 13.90 6.26C13.92 6.22 13.92 6.17 13.92 6.14L10.78 6.29C10.78 7.39 10.80 10.63 11.11 11.81ZM17.18 8.38C17.16 8.54 17.14 8.86 17.11 9.24C16.08 9.24 14.86 9.26 13.82 9.29L13.82 8.42C15.26 8.38 16.63 8.38 17.18 8.38ZM10.90 17.52C10.90 17.47 10.90 17.40 10.87 17.33C11.52 17.33 12.29 17.30 12.96 17.33C12.96 17.40 12.94 17.45 12.94 17.52L14.95 17.52C15.05 16.87 15.36 13.49 15.36 13.08L14.69 12.05C14.04 12 12.34 12.02 10.87 12.07C10.90 12.02 10.90 12 10.90 11.95L8.66 12.12C8.66 13.20 8.69 16.44 8.90 17.62ZM15.67 12.12C15.67 13.20 15.70 16.44 15.91 17.62L17.90 17.52C17.90 17.47 17.90 17.40 17.88 17.33C18.55 17.33 19.30 17.30 19.97 17.33C19.97 17.40 19.94 17.45 19.94 17.52L21.96 17.52C22.08 16.87 22.37 13.49 22.37 13.08L21.70 12.05C21.05 12 19.34 12.02 17.90 12.07L17.90 11.95ZM13.18 14.18C13.15 14.35 13.13 14.66 13.10 15.05C12.38 15.05 11.54 15.07 10.82 15.10L10.82 14.23C11.83 14.18 12.79 14.18 13.18 14.18ZM20.18 14.18C20.16 14.35 20.14 14.66 20.14 15.05C19.42 15.05 18.55 15.07 17.83 15.10L17.83 14.23C18.84 14.18 19.80 14.18 20.18 14.18ZM21.46 19.01L17.16 19.01L17.16 17.86L13.75 17.88L13.70 19.03C11.83 19.06 10.13 19.10 9.14 19.18L9.26 21.65C10.06 21.65 11.02 21.62 12.02 21.62C10.99 22.44 9.62 23.18 8.33 23.71L9.91 25.92C11.06 25.56 12.38 24.91 13.54 24.17L13.46 26.62L17.16 26.62L17.16 23.74C18.02 24.58 19.01 25.42 19.63 25.82L22.37 24.26C21.34 23.74 19.78 22.54 18.65 21.58C19.63 21.58 20.57 21.58 21.36 21.60Z" transform="translate(0, 0)" />
    </svg>
  