
    <svg xmlns="http://www.w3.org/2000/svg" viewBox="0 0 24 28.8">
      <path d="M18.74 20.21C19.87 18.10 20.69 15.58 20.95 12.60C21.41 12.62 21.84 12.62 22.18 12.65L22.18 8.88C21.17 8.78 18.50 8.78 16.25 8.86C16.42 7.92 16.54 6.98 16.61 6.07L13.01 5.71C12.65 8.09 11.98 11.98 10.70 14.78C10.92 12.94 11.09 10.94 11.09 9.55L8.98 7.01C7.37 7.18 4.27 7.18 2.59 7.18L2.45 11.52L7.37 11.52C7.37 11.90 7.34 12.48 7.30 13.13C5.71 13.10 4.03 13.18 2.88 13.30L1.87 14.88C1.46 23.54 4.30 25.13 10.30 24.24L10.66 23.66L13.49 26.30C14.52 25.54 15.53 24.65 16.44 23.57C17.45 24.77 18.53 25.78 19.66 26.62L22.51 23.93C21.19 22.82 19.87 21.65 18.74 20.21ZM16.51 15.98C16.20 14.98 15.98 13.87 15.89 12.62C16.32 12.62 16.78 12.60 17.23 12.60C17.11 13.85 16.87 14.98 16.51 15.98ZM11.11 22.92L11.09 19.13L8.40 19.34L8.40 20.09C5.42 20.40 5.30 18.77 5.26 17.26C5.90 17.23 6.43 17.21 6.86 17.21C6.84 17.38 6.84 17.52 6.82 17.62L10.25 17.62C10.27 17.47 10.30 17.33 10.34 17.16L12.53 18.43C12.74 18.22 12.96 17.95 13.15 17.66C13.46 18.55 13.80 19.37 14.18 20.14C13.15 21.46 11.93 22.56 10.70 23.57Z" transform="translate(0, 0)" />
    </svg>
  