<svg xmlns="http://www.w3.org/2000/svg" viewBox="0 0 24 28.8">
  <path d="M19.08 20.30C20.11 18.19 20.88 15.70 21.12 12.72L22.25 12.79L22.25 9C21.31 8.90 18.86 8.90 16.78 8.98C16.92 8.04 17.04 7.10 17.11 6.19L13.78 5.86C13.42 8.47 12.70 12.91 11.23 15.74C11.33 12.62 11.40 9.22 11.35 7.90L10.56 6.26L5.35 6.55L5.35 6.31L2.71 6.41C2.78 9.43 2.88 19.58 2.90 21.62L3.38 21.62C2.62 22.49 1.97 23.54 1.46 24.31L4.10 26.30C4.66 24.98 5.42 23.76 6.34 22.51L5.28 21.60C5.28 21.53 5.28 21.43 5.30 21.36C6.41 21.36 7.61 21.38 8.64 21.41L8.64 21.62L8.83 21.62L7.82 22.51C8.71 23.76 9.46 24.98 10.03 26.30L12.38 24.53L14.23 26.42C15.17 25.66 16.10 24.74 16.94 23.66C17.88 24.86 18.89 25.87 19.90 26.71L22.54 24.05C21.31 22.94 20.11 21.77 19.08 20.30ZM8.76 10.06L8.76 10.75L5.38 10.80L5.38 10.15ZM17.02 16.03C16.73 15.05 16.54 13.94 16.44 12.74C16.85 12.74 17.26 12.72 17.66 12.72C17.54 13.94 17.33 15.02 17.02 16.03ZM8.76 13.61L8.76 14.35L5.38 14.40L5.38 13.63ZM12.05 23.33C11.66 22.75 11.26 22.15 10.75 21.62L11.02 21.62C11.06 21.05 11.11 19.30 11.18 17.21L13.34 18.55C13.54 18.34 13.73 18.07 13.92 17.78C14.21 18.65 14.52 19.49 14.88 20.26C14.02 21.41 13.03 22.39 12.05 23.33ZM5.35 17.81L5.35 17.23L8.71 17.21L8.71 17.86C7.63 17.81 6.38 17.81 5.35 17.81Z" transform="translate(0, 0)" />
</svg>