<svg xmlns="http://www.w3.org/2000/svg" viewBox="0 0 24 28.8">
  <path d="M19.15 20.18C20.18 18.07 20.93 15.55 21.19 12.60C21.55 12.60 21.89 12.62 22.15 12.65L22.15 8.88C21.24 8.78 18.86 8.78 16.82 8.86C16.94 7.94 17.06 7.01 17.14 6.07L13.78 5.71C13.46 7.85 13.03 10.75 12.14 13.20C11.64 12.74 11.09 12.17 10.58 11.64C11.30 11.64 11.98 11.64 12.55 11.66L12.67 9.05L11.30 9.05C11.95 8.62 12.48 8.18 13.01 7.68L11.06 5.54C10.30 6.36 9.67 6.96 8.88 7.63L8.88 5.59L6.12 5.62L6.10 7.01C5.83 6.34 5.16 5.86 4.39 5.86C3.36 5.86 2.54 6.67 2.54 7.68C2.54 8.28 2.83 8.81 3.26 9.14L2.14 9.22L2.21 11.71C2.78 11.71 3.46 11.69 4.20 11.69C3.31 12.46 2.26 13.13 1.37 13.66L2.81 16.18C3.82 15.67 4.97 14.83 5.95 13.87L5.93 15.41L5.11 15.26C4.94 15.91 4.73 16.66 4.49 17.47C3.07 17.47 1.97 17.50 1.70 17.52L1.94 20.21C2.45 20.18 3 20.16 3.60 20.14L3.10 21.46L4.10 23.04L4.80 23.28C4.20 23.52 3.53 23.74 2.74 23.93L4.63 26.35C6.05 25.99 7.22 25.44 8.16 24.74C9.10 25.18 9.96 25.61 10.70 25.97L11.90 23.93L14.26 26.30C15.22 25.54 16.13 24.62 16.99 23.57C17.93 24.77 18.94 25.78 19.97 26.62L22.63 23.93C21.38 22.82 20.16 21.62 19.15 20.18ZM6.05 9.10L5.57 9.10C5.78 8.90 5.95 8.69 6.07 8.42ZM9.26 9.05L8.88 9.05L8.88 8.59ZM17.06 15.94C16.78 14.93 16.58 13.85 16.49 12.62C16.90 12.60 17.30 12.60 17.74 12.58C17.62 13.82 17.40 14.93 17.06 15.94ZM11.88 23.35C11.42 23.11 10.85 22.80 10.25 22.51C10.70 21.79 11.02 20.98 11.26 20.14L12.86 20.21L13.06 17.47C12.84 17.45 12.31 17.45 11.62 17.45L11.62 16.78L8.57 16.78C8.54 16.99 8.52 17.23 8.50 17.45L7.58 17.45C7.68 17.04 7.78 16.66 7.85 16.30L8.88 16.30L8.88 13.68C9.58 14.71 10.34 15.67 10.85 16.18L10.99 16.03L13.49 17.62C13.61 17.50 13.70 17.35 13.82 17.21C14.11 18.26 14.50 19.22 14.90 20.14C13.99 21.36 12.94 22.39 11.88 23.35ZM7.94 20.09C7.80 20.50 7.63 20.88 7.42 21.24C7.08 21.10 6.77 20.98 6.48 20.88C6.60 20.64 6.72 20.38 6.82 20.09Z" transform="translate(0, 0)" />
</svg>