
    <svg xmlns="http://www.w3.org/2000/svg" viewBox="0 0 24 28.8">
      <path d="M21.94 12.17C21 12.05 18.36 12.07 16.34 12.17L16.34 11.83C18.31 11.52 19.99 10.82 21.50 9.53L19.85 4.97C17.40 6.58 16.32 7.01 14.16 7.46L12.53 10.15C12.60 13.58 12.53 16.37 12.12 18.65L12.17 16.70C11.47 16.70 10.22 16.68 8.86 16.70L8.86 16.13C10.08 16.10 11.26 16.13 12.19 16.15L12.26 12.65L10.99 12.65C11.30 12.14 11.59 11.57 11.83 10.97L11.06 10.68C11.47 10.68 11.83 10.70 12.19 10.70L12.26 7.32C11.59 7.32 10.42 7.30 9.10 7.32L9.10 5.81L5.66 5.90L5.81 7.34C4.46 7.39 3.24 7.44 2.54 7.51L2.62 10.78C2.88 10.78 3.14 10.78 3.46 10.75L3.19 10.92C3.53 11.52 3.86 12.12 4.08 12.74C3.41 12.77 2.81 12.79 2.40 12.84L2.50 16.22L6.05 16.15L6.05 16.73C4.56 16.78 3.17 16.82 2.40 16.92L2.50 20.23C3.10 20.21 3.82 20.21 4.58 20.18C3.77 21.12 2.74 22.03 1.75 22.63L3 25.46C3.91 24.98 4.99 24.17 5.93 23.26L5.86 26.35L8.86 26.33L8.86 22.66C9.55 23.74 10.34 24.79 10.82 25.32L11.69 24.58L13.27 26.57C15 24.24 15.74 21.31 16.10 16.92C16.46 16.90 16.85 16.87 17.23 16.87C17.28 20.16 17.28 24.22 17.18 26.35L20.66 26.35C20.74 24.77 20.74 20.38 20.66 16.87C21.17 16.87 21.60 16.90 21.94 16.94ZM6.07 10.70C6.94 10.70 7.85 10.68 8.74 10.68C8.52 11.30 8.16 12.02 7.75 12.65C7.25 12.67 6.74 12.67 6.24 12.67L6.82 12.34C6.65 11.74 6.43 11.28 6.07 10.70ZM11.81 20.16C11.69 20.66 11.52 21.14 11.35 21.58C10.94 21.10 10.54 20.59 10.18 20.11C10.78 20.14 11.33 20.14 11.81 20.16Z" transform="translate(0, 0)" />
    </svg>
  