<svg xmlns="http://www.w3.org/2000/svg" viewBox="0 0 24 28.8">
  <path d="M20.18 6.34L8.83 6.58L7.56 7.80C7.73 11.04 8.11 23.64 8.18 25.78L11.90 25.78C11.90 25.63 11.93 25.46 11.93 25.22C13.70 25.25 15.65 25.25 17.28 25.30L17.28 25.78L21.10 25.78C21.26 24.14 21.58 10.73 21.41 8.09ZM2.62 6.53C2.45 9.94 2.54 22.30 2.78 25.92L7.15 25.63C6.94 21.84 6.84 11.06 7.01 6.53ZM17.21 11.28C17.21 11.78 17.23 12.67 17.26 13.80L11.81 13.87C11.78 12.94 11.78 12.10 11.78 11.38ZM11.90 20.71C11.90 20.04 11.88 19.37 11.88 18.67L17.28 18.62C17.30 19.34 17.30 20.06 17.30 20.74C15.55 20.69 13.54 20.69 11.90 20.71Z" transform="translate(0, 0)" />
</svg>