<svg xmlns="http://www.w3.org/2000/svg" viewBox="0 0 24 28.8">
  <path d="M22.25 16.03C22.03 16.01 21.77 16.01 21.43 15.98C21.67 14.18 21.84 12.22 21.84 10.54L20.02 7.92C19.68 7.99 18.79 8.06 17.71 8.11C17.69 7.22 17.62 6.26 17.54 5.26L14.54 5.45C14.57 6.43 14.57 7.34 14.59 8.21C14.14 8.21 13.73 8.21 13.39 8.21L13.39 7.92L10.61 7.92C10.61 8.86 10.70 13.46 10.85 16.15L9.84 16.22L10.03 20.98C10.58 20.93 11.35 20.88 12.24 20.83C11.64 21.67 10.87 22.49 9.91 23.33L11.83 27C13.75 25.34 15.26 23.74 16.27 21.36C17.18 23.71 18.60 25.63 20.33 27.17L22.25 23.50C21.43 22.73 20.64 21.77 19.97 20.74C20.86 20.76 21.65 20.78 22.25 20.83ZM2.69 8.04L1.97 9.26C2.04 12.50 2.14 21.60 2.16 23.76L4.54 23.76C4.54 23.62 4.56 23.42 4.56 23.21C5.35 23.21 6.14 23.23 6.86 23.26L6.86 23.76L9.53 23.76C9.62 22.08 9.91 12.22 9.82 9.55L9.12 7.78ZM6.98 12.43L6.98 13.49L4.63 13.54L4.63 12.55ZM18.84 15.96L17.59 15.96C17.69 14.98 17.76 13.87 17.78 12.67C18.36 12.65 18.82 12.62 19.06 12.55C19.06 13.42 18.94 14.81 18.84 15.96ZM13.51 16.03C13.46 14.98 13.42 13.78 13.39 12.62L14.54 12.70C14.47 13.92 14.38 15.02 14.21 16.01C13.97 16.01 13.73 16.03 13.51 16.03ZM4.61 18.98L4.61 17.90L6.94 17.86L6.94 19.03C6.19 18.98 5.38 18.98 4.61 18.98Z" transform="translate(0, 0)" />
</svg>