<svg xmlns="http://www.w3.org/2000/svg" viewBox="0 0 24 28.8">
  <path d="M21.50 23.02C17.98 22.54 15.24 22.06 12.94 21.48C13.32 20.86 13.63 20.21 13.87 19.49C14.71 19.51 15.50 19.51 16.25 19.51C16.22 19.63 16.22 19.70 16.22 19.80L20.40 19.80C20.64 18.79 21.34 12.84 21.12 11.23L19.46 10.18L14.57 10.22L14.57 9.86C17.16 9.86 19.56 9.89 21.17 9.94L21.17 6.19C17.90 6.05 6 6.14 2.52 6.36L2.81 10.06C4.30 9.98 6.89 9.91 9.74 9.89C9.74 10.01 9.77 10.15 9.77 10.27L4.25 10.32L2.52 11.06C2.74 13.03 2.95 18.50 3.02 19.80L5.74 19.80L4.13 21.84C4.32 21.96 4.51 22.08 4.73 22.20C4.08 22.42 3.34 22.58 2.52 22.73L3 26.42C5.83 25.97 7.99 25.32 9.65 24.43C12.96 25.61 16.80 26.47 20.16 26.71ZM16.51 12.98L16.51 13.61L14.66 13.61L14.66 13.01ZM9.91 13.03L9.91 13.63L7.18 13.66L7.18 13.06ZM14.45 16.94C14.50 16.73 14.52 16.49 14.54 16.25L16.42 16.25C16.42 16.49 16.39 16.75 16.37 16.99C15.77 16.97 15.12 16.97 14.45 16.94ZM9.74 16.27C9.70 16.49 9.67 16.70 9.62 16.92C8.74 16.92 7.90 16.92 7.15 16.94L7.15 16.30ZM8.30 19.87C8.02 19.75 7.75 19.61 7.49 19.46L8.59 19.46C8.50 19.61 8.40 19.75 8.30 19.87Z" transform="translate(0, 0)" />
</svg>