
    <svg xmlns="http://www.w3.org/2000/svg" viewBox="0 0 96 28.8">
      <path d="M21.50 23.02C17.98 22.54 15.24 22.06 12.94 21.48C13.32 20.86 13.63 20.21 13.87 19.49C14.71 19.51 15.50 19.51 16.25 19.51C16.22 19.63 16.22 19.70 16.22 19.80L20.40 19.80C20.64 18.79 21.34 12.84 21.12 11.23L19.46 10.18L14.57 10.22L14.57 9.86C17.16 9.86 19.56 9.89 21.17 9.94L21.17 6.19C17.90 6.05 6 6.14 2.52 6.36L2.81 10.06C4.30 9.98 6.89 9.91 9.74 9.89C9.74 10.01 9.77 10.15 9.77 10.27L4.25 10.32L2.52 11.06C2.74 13.03 2.95 18.50 3.02 19.80L5.74 19.80L4.13 21.84C4.32 21.96 4.51 22.08 4.73 22.20C4.08 22.42 3.34 22.58 2.52 22.73L3 26.42C5.83 25.97 7.99 25.32 9.65 24.43C12.96 25.61 16.80 26.47 20.16 26.71ZM16.51 12.98L16.51 13.61L14.66 13.61L14.66 13.01ZM9.91 13.03L9.91 13.63L7.18 13.66L7.18 13.06ZM14.45 16.94C14.50 16.73 14.52 16.49 14.54 16.25L16.42 16.25C16.42 16.49 16.39 16.75 16.37 16.99C15.77 16.97 15.12 16.97 14.45 16.94ZM9.74 16.27C9.70 16.49 9.67 16.70 9.62 16.92C8.74 16.92 7.90 16.92 7.15 16.94L7.15 16.30ZM8.30 19.87C8.02 19.75 7.75 19.61 7.49 19.46L8.59 19.46C8.50 19.61 8.40 19.75 8.30 19.87ZM45.94 12.17C45 12.05 42.36 12.07 40.34 12.17L40.34 11.83C42.31 11.52 43.99 10.82 45.50 9.53L43.85 4.97C41.40 6.58 40.32 7.01 38.16 7.46L36.53 10.15C36.60 13.58 36.53 16.37 36.12 18.65L36.17 16.70C35.47 16.70 34.22 16.68 32.86 16.70L32.86 16.13C34.08 16.10 35.26 16.13 36.19 16.15L36.26 12.65L34.99 12.65C35.30 12.14 35.59 11.57 35.83 10.97L35.06 10.68C35.47 10.68 35.83 10.70 36.19 10.70L36.26 7.32C35.59 7.32 34.42 7.30 33.10 7.32L33.10 5.81L29.66 5.90L29.81 7.34C28.46 7.39 27.24 7.44 26.54 7.51L26.62 10.78C26.88 10.78 27.14 10.78 27.46 10.75L27.19 10.92C27.53 11.52 27.86 12.12 28.08 12.74C27.41 12.77 26.81 12.79 26.40 12.84L26.50 16.22L30.05 16.15L30.05 16.73C28.56 16.78 27.17 16.82 26.40 16.92L26.50 20.23C27.10 20.21 27.82 20.21 28.58 20.18C27.77 21.12 26.74 22.03 25.75 22.63L27 25.46C27.91 24.98 28.99 24.17 29.93 23.26L29.86 26.35L32.86 26.33L32.86 22.66C33.55 23.74 34.34 24.79 34.82 25.32L35.69 24.58L37.27 26.57C39 24.24 39.74 21.31 40.10 16.92C40.46 16.90 40.85 16.87 41.23 16.87C41.28 20.16 41.28 24.22 41.18 26.35L44.66 26.35C44.74 24.77 44.74 20.38 44.66 16.87C45.17 16.87 45.60 16.90 45.94 16.94ZM30.07 10.70C30.94 10.70 31.85 10.68 32.74 10.68C32.52 11.30 32.16 12.02 31.75 12.65C31.25 12.67 30.74 12.67 30.24 12.67L30.82 12.34C30.65 11.74 30.43 11.28 30.07 10.70ZM35.81 20.16C35.69 20.66 35.52 21.14 35.35 21.58C34.94 21.10 34.54 20.59 34.18 20.11C34.78 20.14 35.33 20.14 35.81 20.16ZM69.43 20.93C69.14 20.93 67.32 21.02 65.93 21.10C66.17 20.86 66.38 20.62 66.58 20.35C66.89 20.38 67.20 20.38 67.49 20.38L67.49 20.52L69.72 20.52C69.84 19.99 70.18 16.90 70.06 16.08L69.29 15.53L62.93 15.60C62.98 15.50 63 15.41 63.05 15.34C65.26 15.26 68.50 15.26 70.08 15.31L70.08 13.06C69.05 12.98 66.17 13.01 63.86 13.06L64.08 12.36L62.42 11.88C63.53 11.88 64.58 11.88 65.57 11.90L65.50 12.22L69.82 12.22C70.22 10.25 70.49 9.36 70.61 8.21L67.92 5.47C64.49 5.69 56.93 5.76 53.88 5.74L52.18 8.06C52.18 13.18 50.71 20.98 49.37 25.08L53.35 26.33C53.81 24.84 54.24 22.94 54.67 20.93L56.23 22.66L56.71 22.32C56.69 23.45 56.71 24.62 56.78 26.11L59.66 26.11C59.69 23.81 59.57 21.62 59.69 19.54C60.19 18.98 60.62 18.43 60.98 17.93L61.34 18.07C61.39 19.10 61.42 20.16 61.44 20.52L62.98 20.52C62.16 21.29 61.34 21.79 59.98 22.58L61.46 24C61.82 23.86 62.21 23.66 62.59 23.47C62.76 23.59 63 23.76 63.31 23.93C62.33 24.29 61.37 24.55 60.50 24.67L61.75 26.33C62.81 26.11 64.22 25.61 65.64 25.03C67.01 25.61 68.45 26.14 69.24 26.33L70.61 24.67C69.91 24.50 68.98 24.24 68.02 23.90C68.90 23.45 69.62 22.97 70.06 22.58ZM65.86 8.23C65.86 8.52 65.86 8.83 65.83 9.12C63.24 9.10 59.50 9.12 56.57 9.17L56.64 8.28C59.71 8.28 64.18 8.23 65.86 8.23ZM54.77 20.42L55.20 18.29L55.68 18.82C57.36 17.47 59.59 14.90 60.62 13.20L58.66 11.90C59.59 11.90 60.55 11.88 61.51 11.88C61.18 13.25 60.62 14.59 59.86 16.03L59.14 15.55C58.51 16.87 56.59 18.94 54.77 20.42ZM56.23 11.93C56.81 11.93 57.46 11.90 58.10 11.90C57.62 12.79 56.74 13.99 55.75 15.07C55.92 13.99 56.09 12.94 56.23 11.93ZM67.61 16.97L67.61 17.30L63.72 17.35L63.72 16.99ZM63.70 19.01L63.70 18.70L67.58 18.67C67.56 18.79 67.56 18.91 67.56 19.03C66.31 19.01 64.85 19.01 63.70 19.01ZM64.75 22.63C65.38 22.61 66 22.54 66.34 22.49C66.07 22.66 65.78 22.80 65.47 22.97ZM88.15 22.13C89.88 22.08 92.02 22.08 93.12 22.15L93.12 19.27C92.28 19.20 90 19.20 88.15 19.27L88.15 18.22L84.60 18.22L84.60 23.14L83.66 23.14C83.64 21.94 83.64 20.62 83.74 19.87L79.99 19.87C79.90 20.42 79.90 21.89 79.97 23.18C78.98 23.21 78.17 23.23 77.57 23.28C77.90 21.17 78.19 18.84 78.41 16.61L78.96 17.78C79.56 17.50 80.26 17.02 80.90 16.49L80.86 18.19L83.47 18.17L83.47 15.70C83.78 16.08 84.12 16.44 84.46 16.75L86.16 15.36C85.46 14.81 84.74 14.14 84.17 13.51C84.89 13.51 85.54 13.51 86.09 13.54L86.16 11.02L83.47 11.02L83.47 10.15L81.05 10.18L81.02 11.06C80.18 11.09 79.44 11.11 78.89 11.16C78.91 10.68 78.96 10.25 78.98 9.82C83.57 9.74 91.03 9.77 94.13 9.89L94.13 6.22C90.84 6.07 80.33 6.14 76.85 6.36L75.48 8.64C75.48 13.39 74.81 19.97 73.44 25.87L76.99 26.33C77.16 25.58 77.33 24.77 77.47 23.90L77.66 26.33C81.02 26.16 90.55 26.11 94.56 26.23L94.56 23.16C93.36 23.11 90.89 23.09 88.15 23.11ZM91.51 16.06C91.99 16.73 92.50 17.35 92.86 17.69L94.56 16.30C93.84 15.74 92.69 14.38 91.99 13.51C92.71 13.51 93.38 13.51 93.94 13.54L93.98 11.02L91.51 11.02L91.51 10.03L89.02 10.06L88.99 11.06C87.89 11.09 86.90 11.11 86.33 11.18L86.40 13.58C86.95 13.56 87.65 13.56 88.37 13.54C87.72 14.38 86.74 15.22 85.80 15.74L86.81 17.78C87.46 17.47 88.18 16.97 88.85 16.39L88.80 18.10L91.51 18.10ZM80.57 13.54C80.02 14.23 79.27 14.90 78.50 15.43C78.58 14.81 78.62 14.18 78.67 13.58C79.22 13.56 79.87 13.56 80.57 13.54Z" transform="translate(0, 0)" />
    </svg>
  