<svg xmlns="http://www.w3.org/2000/svg" viewBox="0 0 24 28.8">
  <path d="M22.27 10.56C21.65 10.51 20.14 10.51 18.48 10.51C18.50 10.27 18.55 10.03 18.58 9.77C19.80 9.77 20.93 9.79 21.55 9.84L21.55 6.98C21.07 6.94 19.92 6.91 18.65 6.94C18.62 6.58 18.62 6.24 18.60 5.88L15.60 6.10C15.62 6.41 15.62 6.70 15.65 6.96C14.64 7.01 13.80 7.03 13.39 7.08L13.49 9.94C13.92 9.89 14.74 9.84 15.70 9.82L15.62 10.54C14.16 10.56 12.89 10.61 12.29 10.66L12.43 13.32C12.82 13.30 13.42 13.27 14.14 13.25C13.63 13.68 12.98 14.09 12.12 14.52L13.61 16.68L10.58 16.73L11.90 14.76C11.21 14.35 10.39 13.82 9.72 13.22C10.61 13.22 11.40 13.25 11.90 13.27L11.90 10.58C11.28 10.54 9.77 10.54 8.11 10.54C8.14 10.30 8.18 10.06 8.21 9.79C9.43 9.79 10.56 9.82 11.18 9.86L11.18 7.01C10.70 6.96 9.58 6.94 8.28 6.96C8.26 6.60 8.26 6.26 8.23 5.90L5.23 6.12C5.26 6.43 5.26 6.72 5.28 6.98C4.27 7.03 3.43 7.06 3.02 7.10L3.14 9.96C3.58 9.91 4.39 9.86 5.33 9.84C5.33 10.10 5.30 10.34 5.28 10.56C3.82 10.58 2.54 10.63 1.94 10.68L2.06 13.34C2.45 13.32 3.07 13.30 3.79 13.27C3.29 13.70 2.62 14.11 1.75 14.54L3.50 17.06C4.99 16.32 6.07 15.41 6.84 14.23C7.51 15.12 8.62 16.06 9.50 16.73L5.06 16.78L3.48 17.54C3.67 19.54 3.86 25.15 3.94 26.47L8.11 26.47C8.14 26.38 8.14 26.26 8.16 26.14C10.58 26.14 13.32 26.14 15.55 26.18C15.53 26.28 15.53 26.38 15.53 26.47L19.82 26.47C20.06 25.44 20.71 19.37 20.50 17.71L18.98 16.63L14.52 16.68C15.67 16.01 16.54 15.22 17.18 14.23C18.07 15.36 19.66 16.61 20.57 17.21L22.27 14.74C21.55 14.33 20.74 13.80 20.09 13.20C20.98 13.20 21.74 13.22 22.27 13.25ZM8.30 20.18L8.30 19.56L15.82 19.49L15.82 20.14ZM8.26 23.52C8.28 23.30 8.28 23.09 8.28 22.87L15.72 22.85C15.70 23.09 15.70 23.33 15.67 23.57C13.32 23.52 10.49 23.52 8.26 23.52Z" transform="translate(0, 0)" />
</svg>