
    <svg xmlns="http://www.w3.org/2000/svg" viewBox="0 0 24 28.8">
      <path d="M8.33 14.40C8.35 14.33 8.35 14.23 8.38 14.11C10.85 14.11 13.61 14.11 15.89 14.14C15.86 14.23 15.86 14.33 15.86 14.40L20.21 14.40C20.45 13.49 21.10 8.14 20.90 6.70L19.37 5.74L5.26 5.88L3.65 6.53C3.84 8.30 4.03 13.22 4.10 14.40ZM16.15 8.26L16.15 8.81L8.52 8.88L8.52 8.33ZM8.50 11.81L8.50 11.23L16.06 11.21C16.06 11.42 16.03 11.64 16.01 11.86C13.61 11.81 10.75 11.81 8.50 11.81ZM22.15 23.95C21.36 23.71 20.42 23.38 19.44 22.94C20.40 22.13 21.24 21.26 21.84 20.45L20.69 17.59C19.01 17.78 15.31 17.86 12.84 17.81L12.72 20.52C13.13 20.52 13.66 20.54 14.23 20.57L12.65 21.98C12.82 22.20 13.32 22.58 14.02 23.06C13.68 23.26 13.34 23.45 13.03 23.59L12.91 22.54C12.62 22.56 12.22 22.58 11.71 22.63C11.76 20.86 11.76 18.89 11.71 17.50C15.43 17.50 19.10 17.47 22.01 17.45L22.01 14.64C17.14 14.66 9.34 14.57 1.87 14.78L2.18 17.59C2.50 17.59 2.83 17.59 3.14 17.57C3.17 19.49 3.24 21.98 3.38 23.16C2.90 23.18 2.52 23.21 2.28 23.21L2.47 25.39C3.53 25.32 6.19 25.20 8.62 25.06C8.59 25.51 8.57 25.90 8.52 26.18L11.54 26.35C11.59 25.99 11.62 25.49 11.64 24.89L12.65 24.82L13.34 26.66C14.50 26.23 15.72 25.61 16.87 24.86C18.41 25.73 20.02 26.50 20.98 26.62ZM8.76 17.52L8.76 18.05L5.98 18.10L5.98 17.54C6.89 17.54 7.82 17.52 8.76 17.52ZM8.76 19.99L8.76 20.50L6.05 20.54C6.05 20.35 6.02 20.18 6.02 19.99ZM15.48 20.62C16.32 20.62 17.18 20.59 17.88 20.50C17.62 20.71 17.16 21.07 16.61 21.43C16.20 21.17 15.84 20.90 15.48 20.62ZM6.17 22.99C6.17 22.82 6.14 22.66 6.14 22.49L8.71 22.49L8.71 22.82C7.87 22.87 7.01 22.94 6.17 22.99Z" transform="translate(0, 0)" />
    </svg>
  