
    <svg xmlns="http://www.w3.org/2000/svg" viewBox="0 0 72 28.8">
      <path d="M8.33 14.40C8.35 14.33 8.35 14.23 8.38 14.11C10.85 14.11 13.61 14.11 15.89 14.14C15.86 14.23 15.86 14.33 15.86 14.40L20.21 14.40C20.45 13.49 21.10 8.14 20.90 6.70L19.37 5.74L5.26 5.88L3.65 6.53C3.84 8.30 4.03 13.22 4.10 14.40ZM16.15 8.26L16.15 8.81L8.52 8.88L8.52 8.33ZM8.50 11.81L8.50 11.23L16.06 11.21C16.06 11.42 16.03 11.64 16.01 11.86C13.61 11.81 10.75 11.81 8.50 11.81ZM22.15 23.95C21.36 23.71 20.42 23.38 19.44 22.94C20.40 22.13 21.24 21.26 21.84 20.45L20.69 17.59C19.01 17.78 15.31 17.86 12.84 17.81L12.72 20.52C13.13 20.52 13.66 20.54 14.23 20.57L12.65 21.98C12.82 22.20 13.32 22.58 14.02 23.06C13.68 23.26 13.34 23.45 13.03 23.59L12.91 22.54C12.62 22.56 12.22 22.58 11.71 22.63C11.76 20.86 11.76 18.89 11.71 17.50C15.43 17.50 19.10 17.47 22.01 17.45L22.01 14.64C17.14 14.66 9.34 14.57 1.87 14.78L2.18 17.59C2.50 17.59 2.83 17.59 3.14 17.57C3.17 19.49 3.24 21.98 3.38 23.16C2.90 23.18 2.52 23.21 2.28 23.21L2.47 25.39C3.53 25.32 6.19 25.20 8.62 25.06C8.59 25.51 8.57 25.90 8.52 26.18L11.54 26.35C11.59 25.99 11.62 25.49 11.64 24.89L12.65 24.82L13.34 26.66C14.50 26.23 15.72 25.61 16.87 24.86C18.41 25.73 20.02 26.50 20.98 26.62ZM8.76 17.52L8.76 18.05L5.98 18.10L5.98 17.54C6.89 17.54 7.82 17.52 8.76 17.52ZM8.76 19.99L8.76 20.50L6.05 20.54C6.05 20.35 6.02 20.18 6.02 19.99ZM15.48 20.62C16.32 20.62 17.18 20.59 17.88 20.50C17.62 20.71 17.16 21.07 16.61 21.43C16.20 21.17 15.84 20.90 15.48 20.62ZM6.17 22.99C6.17 22.82 6.14 22.66 6.14 22.49L8.71 22.49L8.71 22.82C7.87 22.87 7.01 22.94 6.17 22.99ZM42.96 14.64C44.04 13.54 44.98 12.46 45.55 11.50L44.50 7.08C44.11 7.08 42.41 7.18 40.87 7.22C40.90 7.13 40.94 7.01 40.99 6.89L38.18 5.16C36.77 8.38 36.05 9.43 33.84 11.54L35.45 14.93C35.93 14.57 36.36 14.18 36.79 13.78C37.03 14.04 37.32 14.30 37.63 14.59C36.62 15.34 35.59 15.98 34.66 16.42C34.25 15.38 33.82 14.45 33.38 13.85L31.70 14.90C32.35 14.16 33.07 13.27 33.67 12.38L31.51 10.20C31.30 10.46 30.96 10.87 30.53 11.38C30.38 11.28 30.24 11.18 30.07 11.11C31.18 10.13 32.50 8.83 33.41 7.80L30.67 5.16C29.40 6.58 27.58 8.66 26.02 10.08L25.78 12.84C26.35 13.25 27.22 13.78 28.06 14.23C27.05 15.38 26.14 16.42 25.78 16.78L26.06 19.80C27.10 19.78 28.06 19.75 28.99 19.70L28.94 21.29C28.54 20.86 27.96 20.59 27.34 20.59C26.09 20.59 25.06 21.67 25.06 22.97C25.06 24.29 26.09 25.37 27.34 25.37C27.91 25.37 28.44 25.13 28.85 24.77L28.80 26.45L31.92 26.45L31.90 23.18C32.28 23.95 32.64 24.72 32.78 25.44L35.78 24.22C35.14 22.68 34.30 21.34 33.46 20.30L34.44 19.78L34.70 20.47C36.31 19.87 38.42 18.50 40.39 16.92C42.41 18.48 44.57 19.92 45.67 20.47L47.11 17.30C46.01 16.82 44.50 15.82 42.96 14.64ZM38.93 11.14C38.93 11.11 38.95 11.09 38.95 11.09C40.18 10.99 41.52 10.87 42 10.70C41.50 11.26 40.92 11.86 40.30 12.43C39.79 11.98 39.34 11.54 38.93 11.14ZM31.49 16.25C31.20 16.27 30.86 16.27 30.41 16.27C30.62 16.06 30.89 15.79 31.18 15.50ZM42.36 19.54C42.36 18.43 41.45 17.52 40.34 17.52C39.24 17.52 38.33 18.43 38.33 19.54C38.33 20.64 39.24 21.55 40.34 21.55C41.45 21.55 42.36 20.64 42.36 19.54ZM31.85 19.56C32.11 19.56 32.38 19.54 32.62 19.51L32.76 20.06L31.87 20.69ZM36.60 24.22C38.52 25.18 40.87 25.99 42.58 27.07L43.78 23.54C42.53 22.80 39.24 21.46 37.46 20.88ZM67.51 5.93C65.74 7.66 62.78 9.72 60.62 10.70L61.15 15.26C63.74 14.52 67.08 12.07 68.66 10.18ZM60.60 14.02C60.26 13.99 59.76 13.97 59.14 13.97L59.16 11.11C59.52 11.11 59.83 11.14 60.12 11.16L60.12 6.89C58.39 6.72 52.13 6.84 50.28 7.06L50.45 11.30C50.74 11.28 51.10 11.23 51.50 11.21C51.53 12.24 51.55 13.18 51.55 14.06C50.83 14.11 50.21 14.14 49.80 14.18L49.97 18.43C50.35 18.38 50.86 18.36 51.46 18.34C51.24 20.81 50.69 22.75 49.25 24.62L52.49 26.83C54.05 24.60 54.65 21.94 54.91 18.22L55.85 18.22L55.85 26.83L59.02 26.83L59.09 18.24C59.66 18.24 60.19 18.26 60.60 18.29ZM55.10 13.97C55.13 13.06 55.13 12.10 55.15 11.09L55.85 11.09L55.85 13.97ZM68.62 11.59C66.60 13.49 62.38 15.82 60.62 16.30L61.15 20.83C64.39 19.51 67.92 17.52 69.74 15.38ZM69.17 17.09C67.46 19.08 62.11 21.77 60.34 22.25L60.89 26.81C64.20 25.80 68.04 23.95 70.75 21.41Z" transform="translate(0, 0)" />
    </svg>
  