
    <svg xmlns="http://www.w3.org/2000/svg" viewBox="0 0 24 28.8">
      <path d="M22.10 8.02C20.42 7.92 16.49 7.90 12.53 7.94C12.70 7.22 12.84 6.50 12.96 5.83L8.06 5.38C7.92 6.26 7.73 7.13 7.51 8.02C5.52 8.06 3.82 8.11 2.81 8.18L3.12 12.31C3.86 12.26 4.90 12.24 6.10 12.22C4.97 14.90 3.46 17.50 1.56 19.82L5.45 22.30C5.95 21.84 6.48 21.24 6.98 20.52C7.03 23.04 7.08 25.51 7.15 26.76L10.82 26.57C10.78 25.68 10.78 24.46 10.80 23.09L17.30 23.04L17.30 23.57L16.90 23.52L16.42 26.14L19.25 27.29L20.95 25.51C21.12 22.94 21.12 17.83 21.12 15.36L19.63 13.08L10.85 13.15C10.99 12.82 11.11 12.48 11.23 12.12C15.26 12.10 19.63 12.10 22.10 12.19ZM17.30 16.37L17.30 16.92L10.90 16.97L10.90 16.34ZM17.30 19.80L17.30 20.26L10.82 20.30L10.82 19.85Z" transform="translate(0, 0)" />
    </svg>
  