<svg xmlns="http://www.w3.org/2000/svg" viewBox="0 0 24 28.8">
  <path d="M20.30 6L13.44 6L12.48 7.46C12.53 13.20 12.89 16.63 12.02 20.30L12.02 18.22C11.74 18.19 11.30 18.19 10.78 18.19C10.82 16.63 10.87 13.58 10.90 10.87C11.30 10.87 11.69 10.87 12.02 10.90L12.02 7.56C11.74 7.54 11.35 7.51 10.87 7.51C10.85 6.94 10.85 6.46 10.82 6.12L8.06 6.12C8.09 6.50 8.09 6.98 8.11 7.49C7.32 7.49 6.53 7.51 5.74 7.54L5.74 6.10L2.95 6.19C2.95 6.55 2.95 7.03 2.98 7.61L2.02 7.68L2.18 11.02C2.42 10.99 2.74 10.99 3.07 10.97C3.17 13.68 3.34 16.70 3.46 18.26C2.71 18.29 2.06 18.31 1.66 18.36L1.82 21.38C2.40 21.34 3.26 21.31 4.27 21.29C3.17 22.25 2.06 23.88 1.46 24.82L4.51 26.23C4.92 25.06 5.95 23.64 6.72 22.46L4.61 21.26C6.12 21.24 7.92 21.22 9.46 21.24L7.20 22.46C7.97 23.66 8.95 25.06 9.38 26.26L12.24 24.94L13.44 25.75C14.35 24.07 14.90 22.22 15.24 20.23L18.17 20.23C18.14 20.90 18.14 21.48 18.12 21.89L17.64 21.62L16.73 24.89L19.34 26.50L21.24 24.74C21.41 20.33 21.41 11.64 21.36 7.92ZM18.05 10.78C18.05 11.06 18.07 11.40 18.07 11.76L15.89 11.78C15.89 11.45 15.91 11.11 15.91 10.78ZM8.14 10.85L8.14 11.71C7.42 11.71 6.60 11.74 5.88 11.76C5.86 11.47 5.86 11.18 5.83 10.87C6.58 10.87 7.37 10.85 8.14 10.85ZM6.02 14.83C6 14.57 5.98 14.30 5.98 14.04C6.65 14.02 7.42 14.02 8.11 14.02L8.11 14.81C7.44 14.81 6.70 14.81 6.02 14.83ZM18.14 15.53L18.14 16.34L15.67 16.44L15.74 15.48ZM6.14 17.11L8.04 17.11C8.04 17.50 8.02 17.88 7.99 18.17C7.42 18.19 6.82 18.19 6.24 18.19C6.19 17.90 6.17 17.52 6.14 17.11ZM9.58 21.24C10.42 21.24 11.16 21.26 11.76 21.29C11.59 21.84 11.40 22.39 11.18 22.99C10.70 22.34 10.15 21.70 9.58 21.24Z" transform="translate(0, 0)" />
</svg>