
    <svg xmlns="http://www.w3.org/2000/svg" viewBox="0 0 24 28.8">
      <path d="M18.46 19.44C19.68 19.44 20.81 19.46 21.79 19.49L21.96 14.54L14.78 14.54L14.78 12.86C16.90 12.86 18.89 12.86 20.47 12.91L20.62 8.02C19.39 8.02 17.21 8.02 14.78 8.04L14.78 6.07L9.55 6.12L9.50 8.09C6.89 8.14 4.46 8.21 3.10 8.33L3.24 13.01C4.94 12.98 7.10 12.94 9.41 12.91L9.38 14.62C6.31 14.66 3.53 14.74 1.92 14.86L2.11 19.58C3.10 19.56 4.25 19.56 5.50 19.54C4.18 20.57 2.71 21.50 1.30 22.20L3.24 25.99C5.14 25.22 7.34 23.88 9.22 22.37L9.12 26.71L14.78 26.66L14.78 22.03C16.10 23.66 17.59 25.20 18.55 25.99L22.73 23.09C21.55 22.34 19.92 20.88 18.46 19.44Z" transform="translate(0, 0)" />
    </svg>
  