
    <svg xmlns="http://www.w3.org/2000/svg" viewBox="0 0 24 28.8">
      <path d="M18.72 20.47C19.87 18.31 20.66 15.72 20.93 12.67C21.41 12.67 21.84 12.70 22.18 12.72L22.18 8.86C21.19 8.76 18.50 8.76 16.20 8.81C16.37 7.85 16.49 6.89 16.58 5.95L12.91 5.59C12.53 8.21 11.78 12.58 10.32 15.50C9.89 15.10 9.43 14.69 8.93 14.28L8.93 12.60C9.79 12.60 10.56 12.62 11.11 12.67L11.09 8.28C10.66 8.23 9.89 8.21 8.98 8.21L9 5.69L5.26 5.88L5.26 8.28C4.22 8.33 3.34 8.40 2.83 8.47L2.98 12.84C3.48 12.77 4.30 12.70 5.23 12.65L5.23 13.15C4.22 15.43 2.50 17.52 1.46 18.82L3.77 22.03C4.34 21.48 4.82 20.86 5.23 20.26L5.21 26.21L8.81 26.33L8.88 19.22C9.26 19.66 9.62 20.09 9.89 20.54L11.18 17.90L12.46 18.67C12.67 18.43 12.89 18.17 13.08 17.88C13.39 18.77 13.73 19.61 14.14 20.40C13.03 21.79 11.78 22.92 10.51 24L13.42 26.74C14.45 25.97 15.46 25.03 16.39 23.93C17.40 25.15 18.50 26.18 19.63 27.05L22.51 24.31C21.17 23.18 19.85 21.96 18.72 20.47ZM15.84 12.70C16.27 12.67 16.73 12.67 17.21 12.65C17.09 13.94 16.82 15.07 16.49 16.10C16.18 15.07 15.94 13.94 15.84 12.70Z" transform="translate(0, 0)" />
    </svg>
  