<svg xmlns="http://www.w3.org/2000/svg" viewBox="0 0 24 28.8">
  <path d="M21.70 23.14C20.69 22.63 19.13 21.91 17.64 21.14L21.10 21.22L21.10 17.86C19.80 17.81 17.06 17.78 14.04 17.81L14.04 16.94C14.90 16.94 15.70 16.97 16.46 16.99C16.44 17.09 16.44 17.18 16.44 17.28L20.33 17.28C20.54 16.10 21.24 9.05 21.02 7.15L19.42 5.88L4.42 6.07L2.71 6.96C2.93 9.26 3.12 15.77 3.19 17.28L7.15 17.28C7.18 17.18 7.18 17.06 7.20 16.92L9.41 16.92L9.43 17.83C6.58 17.88 4.01 17.93 2.69 18L2.98 21.31C3.77 21.26 4.90 21.24 6.22 21.22C4.78 21.96 3.29 22.66 2.30 23.14L4.61 26.06C6.02 25.46 7.80 24.53 9.50 23.50L9.53 26.09L14.04 26.09L14.04 23.21C15.86 24.36 17.86 25.42 19.37 26.06ZM14.04 9.96L14.04 9.24L16.75 9.22L16.75 9.94ZM9.31 9.98L7.37 10.01L7.37 9.29L9.31 9.26ZM14.04 13.13L16.66 13.10C16.63 13.39 16.61 13.68 16.61 13.97C15.79 13.94 14.93 13.94 14.04 13.92ZM7.34 13.92L7.34 13.15L9.36 13.13L9.36 13.90C8.64 13.90 7.97 13.92 7.34 13.92Z" transform="translate(0, 0)" />
</svg>