<svg xmlns="http://www.w3.org/2000/svg" viewBox="0 0 24 28.8">
  <path d="M16.94 20.47L17.69 20.47C17.66 20.57 17.66 20.62 17.64 20.69L20.30 20.69C20.54 19.97 21.07 16.22 21.07 15.77L19.90 14.59C19.34 14.57 18.31 14.54 17.09 14.57C17.09 14.38 17.11 14.18 17.11 13.99C17.90 13.99 18.62 14.02 19.13 14.04L19.13 13.46C20.02 14.23 20.81 14.86 21.29 15.17L22.97 12.05C21.38 10.90 18.48 8.47 16.58 6.86C16.78 6.48 16.92 6.12 17.04 5.78L13.58 5.26C12.86 6.77 10.75 9.72 8.71 11.81L8.71 8.30C8.45 8.26 7.94 8.23 7.32 8.23L7.34 5.64L4.15 5.83L4.15 8.26C3.29 8.30 2.54 8.38 2.18 8.45L2.28 12.84C2.64 12.77 3.34 12.72 4.13 12.70L4.13 13.34C3.26 15.58 1.87 17.62 1.03 18.89L2.95 22.10C3.41 21.58 3.79 21.02 4.13 20.45L4.10 26.33L7.15 26.45L7.22 18.17C7.66 18.72 8.06 19.30 8.38 19.90L9.70 16.61C9.74 18.12 9.82 19.94 9.98 20.78L12.53 20.69L12.50 20.52C12.62 20.52 12.74 20.52 12.89 20.50C12.14 22.22 10.87 23.50 8.86 24.79L11.90 26.90C13.32 26.06 14.38 25.03 15.14 23.76C16.44 25.20 17.95 26.26 18.94 26.90L21.79 24.50C19.94 23.64 18.22 22.03 16.94 20.47ZM16.25 10.87C15.55 10.87 14.81 10.87 14.11 10.90C14.42 10.49 14.71 10.06 15 9.65C15.38 10.03 15.79 10.44 16.25 10.87ZM7.27 12.67C7.46 12.67 7.63 12.67 7.80 12.67L7.56 12.89L9.38 15.34L9.67 15.19C9.67 15.46 9.67 15.77 9.70 16.10C9.10 15.17 8.26 14.23 7.27 13.32ZM10.54 14.62C10.90 14.35 11.26 14.04 11.62 13.70L11.64 14.14C12.14 14.09 12.94 14.04 13.87 14.02L13.87 14.62C13.39 14.64 12.94 14.64 12.50 14.66C12.53 14.59 12.53 14.54 12.53 14.50ZM18.05 16.97C18 17.16 17.98 17.52 17.95 17.95L16.87 17.95C16.90 17.64 16.94 17.30 16.97 16.97ZM12.43 18.05L12.43 17.04C12.86 17.02 13.30 17.02 13.73 17.02C13.68 17.35 13.66 17.69 13.58 18C13.18 18.02 12.79 18.02 12.43 18.05Z" transform="translate(0, 0)" />
</svg>