
    <svg xmlns="http://www.w3.org/2000/svg" viewBox="0 0 24 28.8">
      <path d="M19.25 23.18C20.28 23.18 21.24 23.18 21.91 23.21L21.91 21.36C21.38 21.34 20.40 21.34 19.25 21.34L19.25 20.98C20.28 20.98 21.24 20.98 21.91 21L21.91 19.18C21.38 19.15 20.40 19.15 19.25 19.15L19.25 18.74C20.45 18.74 21.55 18.77 22.32 18.79L22.32 16.34C21.86 16.32 21.10 16.32 20.18 16.32C20.28 16.18 20.38 16.03 20.47 15.86L18.14 15.07C19.73 15.07 21.22 15.10 22.20 15.14L22.20 11.74C21.36 11.69 19.61 11.66 17.71 11.69C17.83 11.28 17.95 10.85 18.02 10.42C19.58 10.42 21.05 10.44 22.01 10.49L22.01 7.06C20.71 7.01 16.92 7.01 14.11 7.08C14.18 6.60 14.23 6.12 14.26 5.64L11.38 5.57C11.30 7.75 10.87 9.82 10.08 11.95L10.08 8.18C9.70 8.14 9.05 8.11 8.28 8.11L8.30 5.57L4.90 5.76L4.90 8.18C3.96 8.23 3.17 8.30 2.71 8.38L2.83 12.77C3.29 12.70 4.03 12.65 4.87 12.60L4.87 13.08C3.96 15.38 2.42 17.50 1.49 18.79L3.55 22.01C4.06 21.46 4.49 20.86 4.87 20.23L4.85 26.21L8.09 26.33L8.16 19.18C8.52 19.61 8.83 20.06 9.07 20.54L9.82 18.89L11.16 20.64C11.40 20.45 11.66 20.26 11.90 20.04C11.86 22.42 11.90 24.96 12.05 26.33L14.52 26.33C14.52 26.23 14.50 26.14 14.50 26.02C17.06 25.97 20.74 25.97 22.51 26.04L22.51 23.59C21.89 23.57 20.66 23.54 19.25 23.54ZM14.88 10.44C14.78 10.90 14.66 11.30 14.52 11.71C14.02 11.74 13.54 11.74 13.10 11.76C13.22 11.33 13.34 10.92 13.44 10.49C13.90 10.46 14.38 10.46 14.88 10.44ZM10.56 16.82C9.96 15.94 9.19 15.07 8.21 14.23L8.23 12.53C8.83 12.53 9.41 12.55 9.84 12.58L9.41 13.58L10.78 14.06L10.82 15.24L12.38 15.17C11.86 15.72 11.23 16.27 10.56 16.82ZM17.40 15.07C17.11 15.55 16.85 15.96 16.58 16.34C16.18 16.34 15.77 16.34 15.38 16.37C15.67 15.94 15.96 15.53 16.22 15.07ZM14.38 19.20C14.40 19.06 14.40 18.94 14.40 18.79C14.95 18.77 15.58 18.77 16.20 18.77L16.20 19.18C15.55 19.18 14.93 19.20 14.38 19.20ZM16.25 21.36C15.55 21.36 14.93 21.36 14.35 21.38L14.35 21.02C14.93 21.02 15.55 21 16.22 21ZM14.38 23.23C14.95 23.21 15.58 23.21 16.27 23.18L16.27 23.57C15.60 23.57 14.98 23.59 14.38 23.59Z" transform="translate(0, 0)" />
    </svg>
  