
    <svg xmlns="http://www.w3.org/2000/svg" viewBox="0 0 24 28.8">
      <path d="M9.82 13.82C12.31 13.68 19.42 13.63 22.39 13.73L22.39 10.99C21.82 10.97 20.88 10.94 19.75 10.94C19.78 10.61 19.80 10.25 19.85 9.89C20.59 9.91 21.24 9.91 21.77 9.94L21.77 7.22C21.38 7.20 20.76 7.20 20.04 7.18C20.09 6.60 20.09 6.12 20.09 5.81L17.23 5.64C17.23 6.05 17.21 6.58 17.16 7.18C16.46 7.18 15.74 7.20 15.02 7.20C15 6.62 14.98 6.10 14.98 5.71L12.07 5.88C12.07 6.19 12.10 6.67 12.12 7.25C11.35 7.27 10.68 7.30 10.25 7.32L10.42 10.03L12.34 9.96C12.36 10.32 12.38 10.68 12.43 11.02C11.23 11.04 10.25 11.06 9.62 11.11ZM10.01 17.21C9.46 16.27 8.69 15.36 7.75 14.47L7.78 12.77C8.45 12.77 9.05 12.79 9.48 12.84L9.48 8.42C9.14 8.38 8.52 8.35 7.80 8.35L7.82 5.86L4.70 6.02L4.70 8.45C3.84 8.50 3.10 8.54 2.69 8.62L2.81 13.01C3.24 12.94 3.91 12.89 4.68 12.84L4.68 13.34C3.82 15.65 2.40 17.71 1.56 19.01L3.46 22.20C3.94 21.65 4.32 21.05 4.68 20.42L4.66 26.38L7.66 26.50L7.70 19.39C8.04 19.82 8.33 20.28 8.54 20.74ZM15.22 9.91C15.79 9.89 16.39 9.89 16.97 9.89C16.92 10.25 16.90 10.61 16.85 10.94C16.34 10.97 15.84 10.97 15.31 10.97C15.29 10.63 15.24 10.27 15.22 9.91ZM21.38 22.80C21.55 21.86 21.89 16.90 21.72 15.96L20.54 14.40L17.42 14.45L17.42 13.87L14.78 13.87L14.78 14.50L11.40 14.57L10.46 15.38C10.56 17.21 10.68 21.55 10.70 22.92L11.83 22.90C11.04 23.50 10.30 23.93 9.74 24.29L11.16 26.74C12.26 26.14 13.42 24.98 14.42 23.86L13.80 22.58C15.26 22.56 17.04 22.58 18.41 22.58L17.78 23.86C18.79 24.98 19.94 26.14 21.05 26.74L22.46 24.29C21.86 23.90 21.07 23.42 20.21 22.78ZM18.98 16.92L18.98 17.50C18.50 17.47 17.95 17.47 17.38 17.47L17.38 16.94ZM14.83 17.47C14.26 17.47 13.70 17.47 13.22 17.50C13.20 17.35 13.20 17.18 13.20 17.04L14.83 17.02ZM13.27 19.75C13.75 19.75 14.30 19.73 14.86 19.73L14.86 20.28C14.33 20.30 13.78 20.30 13.27 20.30ZM17.35 19.75L18.94 19.75C18.91 19.94 18.91 20.14 18.91 20.33C18.46 20.30 17.90 20.30 17.35 20.30Z" transform="translate(0, 0)" />
    </svg>
  