<svg xmlns="http://www.w3.org/2000/svg" viewBox="0 0 24 28.8">
  <path d="M20.83 23.06C20.71 22.99 20.62 22.92 20.52 22.82C20.93 22.37 21.26 21.91 21.55 21.46L20.40 20.16C21.14 20.18 21.82 20.18 22.34 20.21L22.34 16.70L22.13 16.70C22.15 16.63 22.15 16.56 22.15 16.49C22.15 16.22 22.08 15.96 21.96 15.74L22.61 15.38C22.27 14.11 21.86 12.74 21.38 11.50L19.85 12.46C19.92 12.67 19.99 12.96 20.06 13.27C19.75 13.30 19.46 13.34 19.13 13.34C19.58 12.77 20.47 11.50 21.22 10.34L19.90 8.83C19.78 9.02 19.58 9.34 19.32 9.72C19.22 9.58 19.10 9.43 18.96 9.26C19.56 8.54 20.18 7.46 20.66 6.70L19.44 5.11C18.74 6.14 17.78 7.70 16.92 8.76L16.80 10.80C17.09 11.09 17.52 11.45 17.98 11.76C17.57 12.36 17.18 12.91 16.92 13.32C16.75 11.21 16.66 8.86 16.54 6.31L13.54 6.86C13.66 8.88 13.80 10.66 13.97 12.26C13.90 12.14 13.85 12 13.80 11.86L12.24 12.82C12.31 13.03 12.38 13.32 12.46 13.63C12.14 13.66 11.86 13.70 11.54 13.70C11.98 13.13 12.89 11.86 13.63 10.70L12.29 9.22L11.74 10.08C11.62 9.94 11.50 9.79 11.38 9.62C11.98 8.90 12.58 7.82 13.08 7.06L11.83 5.47C11.16 6.50 10.18 8.06 9.34 9.12L9.22 11.16C9.50 11.45 9.94 11.81 10.37 12.14C9.77 13.06 9.19 13.87 9 14.16L9.12 16.08C8.66 15.46 8.14 14.83 7.51 14.26L7.51 12.82C8.21 12.84 8.81 12.86 9.19 12.91L9.19 8.47C8.88 8.42 8.28 8.40 7.56 8.40L7.58 5.86L4.44 6.02L4.44 8.47C3.60 8.50 2.88 8.57 2.52 8.64L2.62 13.03C2.98 12.96 3.65 12.89 4.42 12.86L4.42 13.51C3.58 15.74 2.23 17.76 1.39 19.03L3.29 22.25C3.72 21.74 4.08 21.17 4.42 20.59L4.39 26.42L7.39 26.54L7.46 19.18C7.78 19.61 8.06 20.06 8.28 20.52L8.81 19.20L8.88 20.33C9.22 20.30 9.62 20.28 10.10 20.28C9.77 21.89 9.29 23.42 8.45 25.27L10.87 26.62C11.30 25.68 11.66 24.74 11.95 23.83C12.65 24.62 13.34 25.46 13.82 26.23L14.54 24.79L15.53 26.71C16.37 26.26 17.18 25.73 17.95 25.18C18.43 25.70 18.96 26.18 19.54 26.64L21.36 26.04L22.51 24L21.41 22.18ZM19.37 15.84C19.27 16.03 19.22 16.25 19.22 16.49C19.22 16.54 19.22 16.61 19.22 16.66L17.35 16.66C17.30 16.44 17.28 16.22 17.23 16.01C17.93 15.96 18.67 15.91 19.37 15.84ZM13.03 16.08C13.06 16.30 13.10 16.49 13.13 16.70C11.78 16.73 10.54 16.75 9.60 16.80C9.50 16.66 9.43 16.51 9.34 16.39C10.56 16.32 11.86 16.22 13.03 16.08ZM14.42 16.08C14.45 16.30 14.50 16.49 14.52 16.68C14.11 16.68 13.73 16.70 13.32 16.70ZM18.79 20.88C18.65 20.64 18.53 20.40 18.41 20.16L19.37 20.16C19.20 20.40 19.01 20.64 18.79 20.88ZM15.29 23.33C14.71 22.66 13.68 21.50 12.74 20.76C12.77 20.57 12.82 20.38 12.84 20.18C13.63 20.18 14.47 20.16 15.31 20.16C15.62 21.24 15.98 22.15 16.42 22.97C15.96 23.33 15.46 23.66 14.95 24.02Z" transform="translate(0, 0)" />
</svg>