
    <svg xmlns="http://www.w3.org/2000/svg" viewBox="0 0 24 28.8">
      <path d="M14.74 18.46C16.70 18.41 18.79 18.41 19.99 18.50L19.99 13.56C19.08 13.46 16.85 13.44 14.74 13.49L14.74 11.78C17.28 11.78 19.66 11.81 21.24 11.88L21.24 6.91C18.05 6.72 6.36 6.84 2.95 7.10L3.22 12.05C4.56 11.95 6.79 11.88 9.29 11.83L9.46 21.12C9.12 21.12 8.81 21.14 8.50 21.14C8.40 18.82 8.38 15.74 8.50 14.18L3.86 14.18C3.72 15.38 3.74 18.77 3.86 21.26C3.17 21.29 2.59 21.34 2.14 21.36L2.45 26.28C6.31 26.04 17.26 25.92 21.89 26.14L21.89 21.17C20.54 21.10 17.81 21.07 14.74 21.07Z" transform="translate(0, 0)" />
    </svg>
  