<svg xmlns="http://www.w3.org/2000/svg" viewBox="0 0 24 28.8">
  <path d="M19.37 22.90C19.13 22.78 18.89 22.63 18.67 22.44C20.14 21.10 21.34 19.80 21.72 19.01L20.71 18.19C20.90 18.17 21.07 18.17 21.24 18.17L21.12 15.50C20.23 15.50 18.29 15.60 16.20 15.74L16.13 15.02C17.83 14.90 19.51 14.83 20.54 14.81L20.42 12.12C19.61 12.12 17.83 12.22 15.96 12.34C15.96 12.12 15.94 11.88 15.94 11.64C17.74 11.52 19.49 11.42 20.59 11.40L20.45 8.74L19.87 8.74C20.21 8.40 20.42 7.92 20.42 7.37C20.42 6.29 19.56 5.42 18.48 5.42C17.38 5.42 16.51 6.29 16.51 7.37C16.51 7.97 16.78 8.52 17.21 8.88C16.78 8.90 16.37 8.93 15.91 8.95L15.98 6.46L12.36 6.53C12.34 7.39 12.34 8.30 12.36 9.22L10.13 9.41L10.13 6.46C8.76 6.34 3.74 6.41 2.26 6.60L2.38 10.15L3.38 10.08C3.02 12.55 2.42 14.90 1.58 17.33L3.94 19.49C4.03 19.32 4.13 19.10 4.22 18.89C4.54 19.18 4.94 19.34 5.40 19.34C5.59 19.34 5.78 19.32 5.95 19.25C5.26 21 4.15 22.75 2.33 23.98L4.42 26.76C7.25 24.91 8.76 21.65 9.72 17.40L9.89 18.94C10.66 18.84 11.88 18.74 13.27 18.62C13.56 20.02 13.94 21.29 14.45 22.44C13.42 23.23 12.41 23.90 11.59 24.29L13.03 26.66C13.85 26.21 14.81 25.56 15.79 24.82C16.39 25.63 17.11 26.26 17.93 26.66L21.14 25.37L22.44 23.14L20.23 21.84ZM6.14 11.11C6.22 10.73 6.26 10.34 6.34 9.96C7.54 9.96 8.74 9.96 9.60 10.01L9.84 12.12C10.44 12.05 11.38 11.98 12.43 11.88C12.46 12.12 12.46 12.38 12.48 12.62C11.57 12.70 10.80 12.79 10.32 12.86L10.37 13.46L9.26 11.09ZM9.96 16.25C10.13 15.41 10.27 14.54 10.39 13.66L10.58 15.50C11.09 15.43 11.86 15.36 12.72 15.29C12.74 15.53 12.79 15.77 12.82 15.98C11.66 16.08 10.66 16.18 9.96 16.25ZM5.40 15.89C5.30 15.89 5.23 15.89 5.16 15.91L5.38 15L7.03 14.98C6.96 15.46 6.86 15.96 6.74 16.54C6.43 16.13 5.95 15.89 5.40 15.89ZM16.66 18.38L19.01 18.24C18.50 18.79 17.88 19.42 17.16 20.09C16.97 19.58 16.80 19.03 16.66 18.38Z" transform="translate(0, 0)" />
</svg>