<svg xmlns="http://www.w3.org/2000/svg" viewBox="0 0 48 28.8">
  <path d="M22.49 15L21.17 14.93C21.38 13.39 21.50 11.78 21.50 10.37L19.54 7.85C19.18 7.92 18.07 7.97 16.75 8.02C16.75 7.25 16.73 6.46 16.73 5.64L13.08 5.52C13.03 6.41 13.01 7.27 12.98 8.09C11.50 8.11 10.22 8.09 9.79 8.02L9.65 12.26C10.49 12.34 11.64 12.38 12.86 12.41C12.82 13.32 12.74 14.16 12.67 14.98C10.87 15.02 9.29 15.10 8.42 15.17L8.64 19.70C9.34 19.66 10.37 19.61 11.57 19.56C10.94 21 10.01 22.25 8.62 23.38L10.70 26.86C12.94 25.20 14.40 23.21 15.34 20.42C16.39 23.02 18.14 25.30 20.16 26.86L22.25 23.38C21.10 22.39 19.90 20.95 18.98 19.49C20.38 19.49 21.60 19.51 22.49 19.56ZM5.83 11.62C7.32 11.62 8.54 10.42 8.54 8.90C8.54 7.42 7.32 6.22 5.83 6.22C4.34 6.22 3.12 7.42 3.12 8.90C3.12 10.42 4.34 11.62 5.83 11.62ZM4.37 17.52C5.86 17.52 7.08 16.32 7.08 14.81C7.08 13.32 5.86 12.12 4.37 12.12C2.88 12.12 1.66 13.32 1.66 14.81C1.66 16.32 2.88 17.52 4.37 17.52ZM16.63 12.41C17.52 12.38 18.19 12.34 18.48 12.29C18.48 12.96 18.41 13.97 18.31 14.90L16.44 14.90C16.51 14.11 16.58 13.30 16.63 12.41ZM6.70 17.50C5.42 19.32 3.41 21.89 1.97 22.78L4.30 26.64C6.29 24.72 7.85 22.42 8.74 20.50ZM44.90 7.15C44.54 7.22 41.78 7.27 38.59 7.30L38.59 5.40L33.58 5.47L33.74 7.34C32.16 7.34 30.77 7.32 29.78 7.32C29.74 7.13 29.71 6.98 29.69 6.84L26.47 6.94C26.47 9.34 26.54 12 25.92 13.58L29.69 13.78C29.83 13.22 29.93 12.07 29.93 10.85C33.34 10.85 40.70 10.75 42.34 10.70C42.38 11.35 42.19 12.67 42.02 13.68L45.02 14.04C45.67 12.91 45.86 10.85 46.15 9.60ZM37.75 20.35C39.65 20.30 41.88 20.30 43.08 20.40L43.08 16.34C42.17 16.25 39.79 16.25 37.75 16.32L37.75 14.93C39.31 14.93 40.78 14.95 41.76 15.02L41.76 11.23C39.72 11.09 32.28 11.18 30.12 11.38L30.29 15.12C31.13 15.05 32.57 15 34.15 14.98L34.25 21.26C33.14 21.02 32.04 20.71 30.91 20.33C31.06 19.49 31.15 18.60 31.25 17.62L27.84 17.42C27.70 20.02 27.26 22.18 25.85 25.42L28.99 26.23C29.33 25.56 29.62 24.94 29.86 24.31C34.99 26.23 39.89 26.28 45.02 26.02L45.02 21.84C42.43 22.06 40.06 22.08 37.75 21.84Z" transform="translate(0, 0)" />
</svg>