
    <svg xmlns="http://www.w3.org/2000/svg" viewBox="0 0 24 28.8">
      <path d="M22.49 24.50C21.89 23.50 20.90 22.06 19.80 20.95C20.64 20.98 21.38 20.98 22.01 21L22.01 17.54C21.46 17.52 20.64 17.50 19.68 17.50C19.73 17.04 19.75 16.51 19.80 15.96C20.50 15.96 21.12 15.96 21.67 15.98L21.67 12.91C21.24 12.89 20.69 12.89 20.02 12.86L20.09 10.97C20.57 10.97 21 10.99 21.38 10.99L21.38 7.54C18.96 7.42 11.52 7.46 6.86 7.58C7.01 7.01 7.10 6.46 7.20 5.88L4.10 5.14C3.70 7.73 2.71 11.21 1.22 13.30L2.95 14.14L3.12 16.08L5.78 16.01C5.81 16.56 5.83 17.09 5.88 17.57C4.39 17.59 3.17 17.62 2.38 17.66L2.66 21.12C4.32 21.05 7.30 21 10.49 20.98L7.92 22.39C8.66 23.90 9.50 25.39 9.89 26.93L13.32 25.37C12.74 24.10 11.78 22.20 10.58 20.95L14.71 20.95L12.46 22.20C13.18 23.76 14.02 25.22 14.38 26.76L17.81 25.18C17.28 23.98 16.34 22.18 15.26 20.95C16.37 20.93 17.42 20.95 18.43 20.95L16.75 22.18C17.69 23.62 18.72 24.98 19.30 26.45ZM17.18 12.86L16.25 12.86C16.25 12.14 16.22 11.50 16.22 10.94L17.28 10.94C17.26 11.52 17.23 12.17 17.18 12.86ZM12.22 10.94L13.42 10.94C13.42 11.52 13.44 12.17 13.44 12.86L12.19 12.86C12.19 12.17 12.22 11.52 12.22 10.94ZM9.38 12.89C9.07 12.89 8.76 12.89 8.45 12.91C8.42 12.22 8.40 11.57 8.40 10.99C8.71 10.99 9.05 10.99 9.41 10.97C9.38 11.52 9.38 12.17 9.38 12.89ZM5.11 12.96C5.28 12.58 5.45 12.17 5.59 11.76C5.62 12.14 5.62 12.53 5.64 12.94C5.45 12.96 5.28 12.96 5.11 12.96ZM16.87 17.47L16.15 17.47C16.18 17.02 16.18 16.49 16.20 15.94L16.99 15.94C16.97 16.49 16.92 17.02 16.87 17.47ZM13.39 15.94C13.39 16.49 13.37 17.02 13.34 17.47C12.98 17.47 12.62 17.50 12.26 17.50C12.26 17.02 12.24 16.49 12.24 15.94ZM8.57 15.96L9.43 15.96C9.43 16.51 9.46 17.04 9.48 17.52L8.69 17.52C8.64 17.06 8.62 16.54 8.57 15.96ZM4.87 21.70C3.50 21.70 2.38 22.82 2.38 24.22C2.38 25.58 3.50 26.71 4.87 26.71C6.24 26.71 7.37 25.58 7.37 24.22C7.37 22.82 6.24 21.70 4.87 21.70Z" transform="translate(0, 0)" />
    </svg>
  