
    <svg xmlns="http://www.w3.org/2000/svg" viewBox="0 0 24 28.8">
      <path d="M19.37 18.31C19.49 18.31 19.61 18.31 19.73 18.31L19.73 18.53L22.15 18.60C22.30 17.45 22.63 11.47 22.49 10.32L21.29 8.47L17.88 8.54C18.26 7.90 18.62 7.20 19.13 6.43L16.15 5.35C15.46 6.67 14.83 7.66 14.11 8.62L12.02 8.66L11.09 9.62C11.18 11.83 11.30 17.04 11.35 18.74L13.68 18.67C13.68 18.55 13.68 18.43 13.68 18.29L13.92 18.29C13.73 18.91 13.44 19.42 13.10 19.87C12.24 19.90 11.50 19.92 11.02 19.97L11.18 23.30C12.29 23.23 14.40 23.16 16.56 23.14C16.56 24.24 16.58 25.30 16.66 26.26L19.42 26.26C19.44 25.49 19.44 24.36 19.44 23.14C20.64 23.14 21.74 23.16 22.51 23.18L22.51 19.85C21.89 19.80 20.74 19.78 19.39 19.78C19.39 19.27 19.37 18.77 19.37 18.31ZM9.48 16.25C8.74 16.32 7.58 16.32 6.48 16.32L6.55 15.12C8.14 15.07 10.03 15.07 11.02 15.17L11.02 10.80C10.75 10.75 10.34 10.73 9.82 10.73L9.82 6.17L7.10 6.26L7.18 10.75L6.65 10.75C6.67 9.36 6.67 7.92 6.70 6.46L3.48 6.38C3.48 14.28 4.08 20.16 1.46 23.98L3.89 26.42C4.97 25.15 5.62 23.30 6 21C6.55 20.95 7.10 20.90 7.58 20.88C7.56 22.10 7.63 23.74 7.58 26.35L10.46 26.35C10.54 23.93 10.56 21.14 10.54 19.39ZM19.87 12.19C19.34 12.17 18.74 12.14 18.12 12.14L18.12 11.54L19.87 11.52ZM15.50 11.59L15.53 12.17C14.83 12.17 14.18 12.19 13.61 12.22C13.58 12.02 13.58 11.83 13.58 11.64ZM13.66 14.93C14.23 14.90 14.90 14.90 15.60 14.90L15.62 15.55C14.95 15.55 14.28 15.58 13.66 15.60ZM18.05 14.90L19.82 14.90C19.80 15.14 19.80 15.36 19.80 15.58C19.30 15.58 18.70 15.55 18.05 15.55ZM16.51 18.29L16.56 18.29C16.56 18.77 16.56 19.27 16.56 19.80L15.96 19.80C16.18 19.34 16.34 18.84 16.51 18.29Z" transform="translate(0, 0)" />
    </svg>
  