<svg xmlns="http://www.w3.org/2000/svg" viewBox="0 0 96 28.8">
  <path d="M19.37 18.31C19.49 18.31 19.61 18.31 19.73 18.31L19.73 18.53L22.15 18.60C22.30 17.45 22.63 11.47 22.49 10.32L21.29 8.47L17.88 8.54C18.26 7.90 18.62 7.20 19.13 6.43L16.15 5.35C15.46 6.67 14.83 7.66 14.11 8.62L12.02 8.66L11.09 9.62C11.18 11.83 11.30 17.04 11.35 18.74L13.68 18.67C13.68 18.55 13.68 18.43 13.68 18.29L13.92 18.29C13.73 18.91 13.44 19.42 13.10 19.87C12.24 19.90 11.50 19.92 11.02 19.97L11.18 23.30C12.29 23.23 14.40 23.16 16.56 23.14C16.56 24.24 16.58 25.30 16.66 26.26L19.42 26.26C19.44 25.49 19.44 24.36 19.44 23.14C20.64 23.14 21.74 23.16 22.51 23.18L22.51 19.85C21.89 19.80 20.74 19.78 19.39 19.78C19.39 19.27 19.37 18.77 19.37 18.31ZM9.48 16.25C8.74 16.32 7.58 16.32 6.48 16.32L6.55 15.12C8.14 15.07 10.03 15.07 11.02 15.17L11.02 10.80C10.75 10.75 10.34 10.73 9.82 10.73L9.82 6.17L7.10 6.26L7.18 10.75L6.65 10.75C6.67 9.36 6.67 7.92 6.70 6.46L3.48 6.38C3.48 14.28 4.08 20.16 1.46 23.98L3.89 26.42C4.97 25.15 5.62 23.30 6 21C6.55 20.95 7.10 20.90 7.58 20.88C7.56 22.10 7.63 23.74 7.58 26.35L10.46 26.35C10.54 23.93 10.56 21.14 10.54 19.39ZM19.87 12.19C19.34 12.17 18.74 12.14 18.12 12.14L18.12 11.54L19.87 11.52ZM15.50 11.59L15.53 12.17C14.83 12.17 14.18 12.19 13.61 12.22C13.58 12.02 13.58 11.83 13.58 11.64ZM13.66 14.93C14.23 14.90 14.90 14.90 15.60 14.90L15.62 15.55C14.95 15.55 14.28 15.58 13.66 15.60ZM18.05 14.90L19.82 14.90C19.80 15.14 19.80 15.36 19.80 15.58C19.30 15.58 18.70 15.55 18.05 15.55ZM16.51 18.29L16.56 18.29C16.56 18.77 16.56 19.27 16.56 19.80L15.96 19.80C16.18 19.34 16.34 18.84 16.51 18.29ZM40.30 14.93C40.44 16.20 40.54 18.17 40.58 20.21C39.96 20.23 39.29 20.23 38.64 20.26L38.76 6.96L33.17 7.15L33.60 20.40C32.62 20.42 31.80 20.45 31.32 20.47C31.27 19.22 31.42 16.20 31.46 14.86L26.30 14.62C26.18 16.66 26.30 22.08 26.50 23.86L28.82 26.02C30.79 26.06 36.53 25.82 40.63 25.75L40.63 26.28L45.65 26.16C45.74 23.78 45.77 16.94 45.65 14.64ZM53.33 11.42C54.94 11.42 56.26 10.10 56.26 8.50C56.26 6.89 54.94 5.57 53.33 5.57C51.72 5.57 50.40 6.89 50.40 8.50C50.40 10.10 51.72 11.42 53.33 11.42ZM63.53 12.82L63.53 10.87L61.68 10.97L61.68 11.30C59.66 11.42 59.57 10.97 59.54 10.30C59.98 10.27 60.34 10.27 60.65 10.27C60.62 10.34 60.60 10.42 60.60 10.46L62.95 10.46C63.24 9.50 63.53 7.85 63.53 6.89L62.09 5.76C60.98 5.83 58.90 5.83 57.74 5.83L57.65 7.75L60.98 7.75C60.98 7.92 60.96 8.18 60.94 8.47C59.86 8.47 58.73 8.50 57.94 8.54L57.26 9.24C56.98 13.08 58.90 13.78 62.98 13.39ZM69.94 12.94L69.94 10.99L68.09 11.09L68.09 11.40C66.07 11.54 65.98 11.09 65.95 10.42C66.38 10.39 66.74 10.39 67.06 10.39C67.03 10.46 67.01 10.54 67.01 10.58L69.36 10.58C69.65 9.62 69.94 7.97 69.94 7.01L68.50 5.86C67.39 5.95 65.30 5.95 64.15 5.95L64.06 7.87L67.39 7.87C67.39 8.04 67.37 8.30 67.34 8.59C66.26 8.59 65.14 8.62 64.34 8.66L63.67 9.36C63.38 13.20 65.30 13.90 69.38 13.51ZM70.08 22.27C69.60 21.79 68.66 20.83 67.78 20.16C68.66 20.16 69.43 20.16 70.06 20.18L70.06 17.86C69.50 17.83 68.59 17.83 67.51 17.83C67.54 17.50 67.54 17.16 67.56 16.82C68.33 16.85 69 16.85 69.53 16.87L69.53 14.54C69.10 14.52 68.42 14.52 67.63 14.50C67.63 14.18 67.63 13.94 67.61 13.75L64.63 13.73C64.63 13.94 64.66 14.21 64.66 14.50C63.91 14.50 63.14 14.52 62.38 14.52C62.38 14.21 62.40 13.94 62.40 13.73L59.54 13.75C59.52 13.94 59.52 14.23 59.52 14.57C58.58 14.59 57.82 14.62 57.31 14.64L57.48 16.94L59.59 16.87C59.59 17.21 59.62 17.54 59.64 17.88C58.42 17.90 57.38 17.93 56.76 17.95L56.98 20.28L59.02 20.21C58.15 20.95 57.26 21.94 56.83 22.44L57.48 22.78C56.98 22.78 56.50 22.82 56.04 22.87C56.74 21.24 56.76 18.48 55.03 17.83C55.58 16.94 56.64 15.94 57.17 14.98L56.40 11.59C54.70 11.81 51.79 11.90 49.90 11.90L49.90 15.46C49.90 15.46 52.13 15.43 52.99 15.26C52.18 16.06 51.62 16.32 50.69 16.78L51.07 19.78C54.72 20.57 52.97 23.52 50.14 24.02L52.39 26.71C57.84 25.54 65.30 27.41 69.50 26.83L69.72 23.30C69.26 23.33 68.81 23.33 68.30 23.33ZM62.42 16.82L64.58 16.82C64.58 17.16 64.56 17.50 64.54 17.83L62.47 17.83C62.47 17.52 62.45 17.18 62.42 16.82ZM65.16 20.90C65.90 21.62 66.82 22.49 67.54 23.30C65.11 23.23 62.40 22.92 59.93 22.80C60.53 22.08 61.18 21.41 61.75 20.81L60.91 20.18C62.54 20.16 64.39 20.16 66.07 20.16ZM94.13 24.17C91.32 21.24 90.31 19.44 89.95 15.50L90.38 15.50C90.38 15.65 90.36 15.77 90.36 15.86L93.50 15.86C93.74 13.94 93.84 9.60 93.91 8.47L92.26 5.83C90.12 6.05 85.10 6.12 83.26 6.10L81.72 8.66C81.72 10.70 81.60 13.15 81.36 15.65L81.26 14.54C80.93 14.66 80.47 14.81 79.92 14.98L79.92 13.06C80.54 13.06 81.10 13.08 81.53 13.13L81.53 9.07C81.19 9.02 80.62 9 79.92 9L79.92 5.76L76.56 5.98L76.56 9.02C75.46 9.07 74.47 9.14 73.97 9.22L74.09 13.25C74.64 13.18 75.55 13.13 76.58 13.08L76.58 15.79C75.53 16.03 74.54 16.22 73.87 16.32L74.14 20.26C74.62 20.21 75.55 20.02 76.61 19.78L76.61 21.72L75.86 21.48L75.12 24.86L78.36 26.14L79.94 24.86L79.94 18.94L81.05 18.60C80.74 21.14 80.33 23.57 79.87 25.49L83.50 26.42C84.26 23.90 84.84 19.51 85.20 15.58C85.58 15.55 85.99 15.55 86.40 15.53C86.74 20.64 88.25 23.88 91.10 26.78ZM85.66 9.65C87.53 9.65 89.45 9.55 90.50 9.55C90.50 10.15 90.50 11.16 90.48 12.22C88.94 12.22 87.02 12.24 85.49 12.29C85.56 11.30 85.61 10.39 85.66 9.65Z" transform="translate(0, 0)" />
</svg>