
    <svg xmlns="http://www.w3.org/2000/svg" viewBox="0 0 144 28.8">
      <path d="M19.37 18.31C19.49 18.31 19.61 18.31 19.73 18.31L19.73 18.53L22.15 18.60C22.30 17.45 22.63 11.47 22.49 10.32L21.29 8.47L17.88 8.54C18.26 7.90 18.62 7.20 19.13 6.43L16.15 5.35C15.46 6.67 14.83 7.66 14.11 8.62L12.02 8.66L11.09 9.62C11.18 11.83 11.30 17.04 11.35 18.74L13.68 18.67C13.68 18.55 13.68 18.43 13.68 18.29L13.92 18.29C13.73 18.91 13.44 19.42 13.10 19.87C12.24 19.90 11.50 19.92 11.02 19.97L11.18 23.30C12.29 23.23 14.40 23.16 16.56 23.14C16.56 24.24 16.58 25.30 16.66 26.26L19.42 26.26C19.44 25.49 19.44 24.36 19.44 23.14C20.64 23.14 21.74 23.16 22.51 23.18L22.51 19.85C21.89 19.80 20.74 19.78 19.39 19.78C19.39 19.27 19.37 18.77 19.37 18.31ZM9.48 16.25C8.74 16.32 7.58 16.32 6.48 16.32L6.55 15.12C8.14 15.07 10.03 15.07 11.02 15.17L11.02 10.80C10.75 10.75 10.34 10.73 9.82 10.73L9.82 6.17L7.10 6.26L7.18 10.75L6.65 10.75C6.67 9.36 6.67 7.92 6.70 6.46L3.48 6.38C3.48 14.28 4.08 20.16 1.46 23.98L3.89 26.42C4.97 25.15 5.62 23.30 6 21C6.55 20.95 7.10 20.90 7.58 20.88C7.56 22.10 7.63 23.74 7.58 26.35L10.46 26.35C10.54 23.93 10.56 21.14 10.54 19.39ZM19.87 12.19C19.34 12.17 18.74 12.14 18.12 12.14L18.12 11.54L19.87 11.52ZM15.50 11.59L15.53 12.17C14.83 12.17 14.18 12.19 13.61 12.22C13.58 12.02 13.58 11.83 13.58 11.64ZM13.66 14.93C14.23 14.90 14.90 14.90 15.60 14.90L15.62 15.55C14.95 15.55 14.28 15.58 13.66 15.60ZM18.05 14.90L19.82 14.90C19.80 15.14 19.80 15.36 19.80 15.58C19.30 15.58 18.70 15.55 18.05 15.55ZM16.51 18.29L16.56 18.29C16.56 18.77 16.56 19.27 16.56 19.80L15.96 19.80C16.18 19.34 16.34 18.84 16.51 18.29ZM29.33 11.42C30.94 11.42 32.26 10.10 32.26 8.50C32.26 6.89 30.94 5.57 29.33 5.57C27.72 5.57 26.40 6.89 26.40 8.50C26.40 10.10 27.72 11.42 29.33 11.42ZM39.53 12.82L39.53 10.87L37.68 10.97L37.68 11.30C35.66 11.42 35.57 10.97 35.54 10.30C35.98 10.27 36.34 10.27 36.65 10.27C36.62 10.34 36.60 10.42 36.60 10.46L38.95 10.46C39.24 9.50 39.53 7.85 39.53 6.89L38.09 5.76C36.98 5.83 34.90 5.83 33.74 5.83L33.65 7.75L36.98 7.75C36.98 7.92 36.96 8.18 36.94 8.47C35.86 8.47 34.73 8.50 33.94 8.54L33.26 9.24C32.98 13.08 34.90 13.78 38.98 13.39ZM45.94 12.94L45.94 10.99L44.09 11.09L44.09 11.40C42.07 11.54 41.98 11.09 41.95 10.42C42.38 10.39 42.74 10.39 43.06 10.39C43.03 10.46 43.01 10.54 43.01 10.58L45.36 10.58C45.65 9.62 45.94 7.97 45.94 7.01L44.50 5.86C43.39 5.95 41.30 5.95 40.15 5.95L40.06 7.87L43.39 7.87C43.39 8.04 43.37 8.30 43.34 8.59C42.26 8.59 41.14 8.62 40.34 8.66L39.67 9.36C39.38 13.20 41.30 13.90 45.38 13.51ZM46.08 22.27C45.60 21.79 44.66 20.83 43.78 20.16C44.66 20.16 45.43 20.16 46.06 20.18L46.06 17.86C45.50 17.83 44.59 17.83 43.51 17.83C43.54 17.50 43.54 17.16 43.56 16.82C44.33 16.85 45 16.85 45.53 16.87L45.53 14.54C45.10 14.52 44.42 14.52 43.63 14.50C43.63 14.18 43.63 13.94 43.61 13.75L40.63 13.73C40.63 13.94 40.66 14.21 40.66 14.50C39.91 14.50 39.14 14.52 38.38 14.52C38.38 14.21 38.40 13.94 38.40 13.73L35.54 13.75C35.52 13.94 35.52 14.23 35.52 14.57C34.58 14.59 33.82 14.62 33.31 14.64L33.48 16.94L35.59 16.87C35.59 17.21 35.62 17.54 35.64 17.88C34.42 17.90 33.38 17.93 32.76 17.95L32.98 20.28L35.02 20.21C34.15 20.95 33.26 21.94 32.83 22.44L33.48 22.78C32.98 22.78 32.50 22.82 32.04 22.87C32.74 21.24 32.76 18.48 31.03 17.83C31.58 16.94 32.64 15.94 33.17 14.98L32.40 11.59C30.70 11.81 27.79 11.90 25.90 11.90L25.90 15.46C25.90 15.46 28.13 15.43 28.99 15.26C28.18 16.06 27.62 16.32 26.69 16.78L27.07 19.78C30.72 20.57 28.97 23.52 26.14 24.02L28.39 26.71C33.84 25.54 41.30 27.41 45.50 26.83L45.72 23.30C45.26 23.33 44.81 23.33 44.30 23.33ZM38.42 16.82L40.58 16.82C40.58 17.16 40.56 17.50 40.54 17.83L38.47 17.83C38.47 17.52 38.45 17.18 38.42 16.82ZM41.16 20.90C41.90 21.62 42.82 22.49 43.54 23.30C41.11 23.23 38.40 22.92 35.93 22.80C36.53 22.08 37.18 21.41 37.75 20.81L36.91 20.18C38.54 20.16 40.39 20.16 42.07 20.16ZM70.13 24.17C67.32 21.24 66.31 19.44 65.95 15.50L66.38 15.50C66.38 15.65 66.36 15.77 66.36 15.86L69.50 15.86C69.74 13.94 69.84 9.60 69.91 8.47L68.26 5.83C66.12 6.05 61.10 6.12 59.26 6.10L57.72 8.66C57.72 10.70 57.60 13.15 57.36 15.65L57.26 14.54C56.93 14.66 56.47 14.81 55.92 14.98L55.92 13.06C56.54 13.06 57.10 13.08 57.53 13.13L57.53 9.07C57.19 9.02 56.62 9 55.92 9L55.92 5.76L52.56 5.98L52.56 9.02C51.46 9.07 50.47 9.14 49.97 9.22L50.09 13.25C50.64 13.18 51.55 13.13 52.58 13.08L52.58 15.79C51.53 16.03 50.54 16.22 49.87 16.32L50.14 20.26C50.62 20.21 51.55 20.02 52.61 19.78L52.61 21.72L51.86 21.48L51.12 24.86L54.36 26.14L55.94 24.86L55.94 18.94L57.05 18.60C56.74 21.14 56.33 23.57 55.87 25.49L59.50 26.42C60.26 23.90 60.84 19.51 61.20 15.58C61.58 15.55 61.99 15.55 62.40 15.53C62.74 20.64 64.25 23.88 67.10 26.78ZM61.66 9.65C63.53 9.65 65.45 9.55 66.50 9.55C66.50 10.15 66.50 11.16 66.48 12.22C64.94 12.22 63.02 12.24 61.49 12.29C61.56 11.30 61.61 10.39 61.66 9.65ZM92.74 11.93C91.92 11.81 91.30 11.16 91.13 10.34C89.93 11.69 87.67 11.06 87.29 9.29L86.18 9.29L86.18 7.01L81.65 7.01L81.65 9.31L75.74 9.34L75.46 13.99L81.65 13.97L81.65 25.51L86.18 25.51L86.18 13.94L92.74 13.92ZM89.50 10.63C90.48 10.63 91.30 9.84 91.30 8.83C91.30 7.85 90.48 7.03 89.50 7.03C88.49 7.03 87.67 7.85 87.67 8.83C87.67 9.84 88.49 10.63 89.50 10.63ZM94.32 9.19C93.86 8.47 92.90 8.28 92.23 8.74C91.54 9.19 91.32 10.15 91.80 10.82C92.26 11.52 93.17 11.74 93.86 11.26C94.58 10.80 94.78 9.89 94.32 9.19ZM76.99 24.17C78.14 22.92 79.97 19.44 80.57 16.70L76.68 15.65C75.84 17.66 75.10 19.90 73.42 22.27ZM87.10 17.57C87.96 19.10 89.40 22.58 90 23.90L94.06 22.66C93.02 20.30 92.04 17.74 90.86 15.91ZM113.98 7.32C112.82 7.46 109.32 7.49 106.68 7.51C106.70 7.20 106.70 6.84 106.70 6.50L102.12 6.50C101.98 9.67 101.11 13.90 98.50 16.68L102.22 18.77C103.85 16.54 105.24 14.30 106.03 11.57C108.70 11.52 111.60 11.45 112.75 11.38C112.49 12.86 112.08 14.42 111.38 15.98C109.90 15.02 107.95 14.26 106.70 13.70L105.07 17.30C105.98 17.69 107.86 18.65 109.32 19.44C108.19 20.90 106.73 22.32 104.78 23.62L108.07 26.42C111.26 24.65 116.06 18.82 117.53 11.11ZM132.05 11.23C130.01 10.10 126.38 8.66 123.34 7.75L121.85 12.14C124.85 13.20 126.96 13.78 130.08 15.48ZM124.80 25.68C132.82 24.72 139.99 19.39 142.15 11.30L137.47 9.84C135.86 15.17 131.06 19.87 123.60 21.41Z" transform="translate(0, 0)" />
    </svg>
  