<svg xmlns="http://www.w3.org/2000/svg" viewBox="0 0 24 28.8">
  <path d="M19.03 6.14C17.98 6.14 12.62 6.19 8.57 6.34L8.57 5.98L3.74 6.14C3.77 14.47 4.22 19.49 1.10 23.98L4.92 26.35C6.19 24.72 6.98 22.92 7.51 20.88L10.37 20.81L10.44 25.97L14.54 25.97L14.54 20.78L16.92 20.78C16.87 21.46 16.80 22.06 16.73 22.51L15.58 22.06L14.88 25.06C16.03 25.75 16.97 26.21 18.12 26.90L21.12 25.27C21.58 22.30 21.58 9.82 21.58 7.75ZM17.18 11.95C16.42 11.95 15.50 11.93 14.54 11.93L14.54 10.99C15.72 10.97 16.68 10.97 17.18 10.97ZM10.27 11.98C9.62 12 9.02 12 8.45 12.02C8.45 11.71 8.45 11.40 8.47 11.11C9.05 11.09 9.65 11.06 10.25 11.06ZM14.54 15.96C15.46 15.96 16.34 15.98 17.14 15.98C17.14 16.25 17.11 16.51 17.11 16.75L14.54 16.75ZM8.16 16.85L8.23 16.06C8.90 16.03 9.60 16.01 10.32 16.01L10.32 16.80C9.58 16.82 8.83 16.85 8.16 16.85Z" transform="translate(0, 0)" />
</svg>