<svg xmlns="http://www.w3.org/2000/svg" viewBox="0 0 24 28.8">
  <path d="M10.08 11.59L6.79 11.64L5.62 12.43C5.74 14.28 5.76 20.86 5.81 22.30L8.83 22.25L8.83 21.82C10.68 21.77 13.34 21.79 15.14 21.82L15.14 22.30L18.05 22.34C18.24 21.38 18.67 14.02 18.50 13.06L17.18 11.50L13.90 11.54L13.92 10.78C16.80 10.75 19.54 10.75 21.34 10.75L21.34 6.94C17.90 6.84 6.77 6.96 2.88 7.10L2.98 10.92C4.61 10.87 7.22 10.82 10.06 10.80ZM19.03 13.82C18.98 15.19 18.94 19.39 18.94 22.56C15.22 22.54 7.54 22.56 5.16 22.63C5.28 19.90 5.21 15.48 5.16 13.94L2.09 13.94C2.09 15.91 2.02 21.60 1.94 23.86L3.48 26.02C5.57 26.04 14.95 26.02 18.96 25.99L18.96 26.18L22.03 26.18C22.03 23.78 22.01 15.91 22.03 13.80ZM15.36 14.45C15.36 14.69 15.36 15.07 15.34 15.55C14.90 15.53 14.40 15.53 13.87 15.53L13.87 14.47ZM10.15 15.53C9.70 15.53 9.24 15.53 8.83 15.55C8.83 15.19 8.81 14.86 8.81 14.57L10.13 14.54ZM8.86 18C9.26 18 9.72 17.98 10.20 17.98L10.22 19.10C9.74 19.10 9.29 19.10 8.86 19.13ZM13.85 18C14.35 18 14.86 18 15.26 18.02C15.26 18.38 15.24 18.74 15.24 19.13C14.81 19.10 14.33 19.10 13.85 19.08Z" transform="translate(0, 0)" />
</svg>