<svg xmlns="http://www.w3.org/2000/svg" viewBox="0 0 24 28.8">
  <path d="M19.49 6.50L8.47 6.86L8.47 6.53L2.83 6.65C3.02 10.46 3.24 23.47 3.31 26.02L8.33 26.02C8.35 25.85 8.35 25.63 8.38 25.39C10.70 25.42 13.22 25.42 15.38 25.46C15.36 25.66 15.36 25.85 15.36 26.02L20.38 26.02C20.62 24.07 21.31 11.54 21.12 8.52ZM15.67 11.26L15.67 12.10L8.54 12.14L8.54 11.38ZM15.65 15.67C15.62 15.98 15.62 16.30 15.62 16.63L8.54 16.70L8.54 15.70ZM8.50 20.95C8.50 20.71 8.50 20.50 8.52 20.26L15.53 20.23C15.53 20.50 15.50 20.76 15.50 21.02C13.25 20.95 10.66 20.93 8.50 20.95Z" transform="translate(0, 0)" />
</svg>