
    <svg xmlns="http://www.w3.org/2000/svg" viewBox="0 0 24 28.8">
      <path d="M20.33 6.60C17.47 6.43 7.01 6.55 3.96 6.79L4.20 11.47C7.39 11.23 16.51 11.14 20.33 11.33ZM18.19 17.14C19.73 17.14 21.12 17.16 22.18 17.21L22.18 12.48C18.74 12.31 6.14 12.43 2.45 12.67L2.74 17.35L4.54 17.28C4.56 17.16 4.61 17.04 4.63 16.92L5.14 17.26C6.50 17.21 8.16 17.18 9.91 17.16L9.98 21.22L8.98 20.95L7.87 25.46L12.29 26.74L14.47 25.46L14.45 17.11C15.65 17.11 16.85 17.11 17.93 17.14L15.34 19.80C16.75 22.01 17.81 23.69 18.79 25.70L22.46 22.49C21.43 20.74 20.02 18.74 18.19 17.14ZM4.85 25.68C6.55 23.78 7.68 21.79 8.66 19.63L5.14 17.26C4.92 17.26 4.73 17.28 4.54 17.28C3.74 19.80 2.76 21.14 1.54 23.30Z" transform="translate(0, 0)" />
    </svg>
  