
    <svg xmlns="http://www.w3.org/2000/svg" viewBox="0 0 24 28.8">
      <path d="M22.56 10.61C21.62 10.56 19.68 10.54 17.52 10.56L17.52 9.07C18.84 8.66 20.11 8.14 21.50 7.49L20.16 5.33C16.75 6.82 13.99 7.51 10.39 7.92L10.61 10.42C11.98 10.30 13.22 10.13 14.40 9.89L14.40 10.58C12.14 10.61 10.03 10.66 9 10.73L9.10 12C8.59 12 7.97 12.02 7.32 12.02L7.27 10.46C8.26 10.06 9.14 9.50 9.79 8.88L7.87 5.40C6.31 6.55 5.04 7.03 2.35 7.49L2.71 11.45C3.29 11.45 3.91 11.38 4.61 11.26L4.58 12.14C3.34 12.22 2.28 12.29 1.99 12.31L2.18 16.13L3.91 16.06C3.36 17.93 2.66 19.22 1.44 21.02L2.88 23.54C3.48 23.02 4.03 22.32 4.54 21.48L4.51 26.71L7.63 26.66L7.49 19.94C7.80 20.62 8.06 21.36 8.18 22.18L10.44 20.40L10.44 20.64L13.27 20.64C13.27 20.57 13.30 20.50 13.30 20.40C13.68 20.40 14.09 20.40 14.50 20.42L14.50 20.93C12.89 20.95 11.42 21 10.66 21.05L10.82 23.47C11.62 23.42 13.01 23.40 14.52 23.38L14.54 23.93C12.22 23.95 10.06 23.98 9 24.05L9.22 26.47C11.86 26.33 19.37 26.28 22.56 26.38L22.56 23.95C21.62 23.90 19.68 23.90 17.52 23.90L17.52 23.35C18.96 23.35 20.33 23.38 21.22 23.40L21.22 20.95C20.52 20.90 19.10 20.90 17.52 20.90L17.52 20.42C17.78 20.42 18.05 20.42 18.29 20.45L18.29 20.64L21.22 20.64C21.36 19.92 21.82 15.58 21.65 14.38L20.64 13.61L17.52 13.63L17.52 13.34C19.49 13.34 21.34 13.34 22.56 13.39ZM11.23 13.70L10.15 14.26C10.25 15.43 10.34 18.26 10.42 19.82C9.60 18.05 9.17 17.45 8.04 16.01C8.64 16.01 9.22 16.03 9.74 16.06L9.74 13.46C10.90 13.42 12.60 13.39 14.42 13.37L14.42 13.68ZM18.50 15.67L18.50 16.13L17.52 16.13L17.52 15.67ZM14.45 15.72L14.45 16.15L13.39 16.18L13.39 15.72ZM17.52 18.05L18.43 18.05C18.41 18.22 18.41 18.41 18.41 18.58C18.12 18.58 17.81 18.55 17.52 18.55ZM13.37 18.55C13.39 18.38 13.39 18.24 13.39 18.07L14.47 18.07L14.47 18.53C14.09 18.55 13.73 18.55 13.37 18.55Z" transform="translate(0, 0)" />
    </svg>
  