<svg xmlns="http://www.w3.org/2000/svg" viewBox="0 0 24 28.8">
  <path d="M22.39 20.90C21.02 20.88 19.61 20.86 18.17 20.86L18.17 20.23L19.68 20.23C19.87 19.34 20.47 13.37 20.30 11.90L19.39 11.30C20.14 10.56 20.59 9.70 20.90 9.05C21.46 9.05 21.96 9.05 22.34 9.07L22.34 6.79C21.36 6.72 18.70 6.74 16.51 6.79C16.56 6.46 16.63 6.14 16.68 5.81L13.27 5.30C13.10 6.31 12.89 7.22 12.53 8.11L12.53 6.72C11.54 6.65 8.90 6.65 6.70 6.70C6.77 6.38 6.84 6.05 6.89 5.71L3.48 5.23C3.17 7.03 2.69 8.42 1.63 10.20L5.02 10.68C5.45 10.10 5.76 9.55 6.02 9C6.41 8.98 6.82 8.98 7.25 8.98C7.54 9.58 7.85 10.30 7.99 10.94L4.34 11.02C4.49 12.82 4.66 19.06 4.70 20.23L6.74 20.23C6.74 20.47 6.77 20.71 6.77 20.93C5.23 20.93 3.74 20.98 2.28 21L2.28 23.69L6.07 23.62C5.57 24.19 4.70 24.70 3.22 25.20L6.58 26.50C9 25.75 10.08 24.84 10.58 23.57L14.09 23.57L14.16 26.40L18.17 26.40L18.17 23.57C19.49 23.59 20.88 23.59 22.39 23.62ZM14.83 10.75C15.26 10.20 15.58 9.65 15.84 9.07C16.32 9.07 16.87 9.05 17.42 9.05C17.06 9.55 16.63 10.06 16.08 10.63L17.14 10.97L8.47 11.14L8.47 11.04L11.21 10.63C11.02 9.94 10.82 9.41 10.61 8.95C11.18 8.95 11.71 8.98 12.14 8.98C11.93 9.41 11.69 9.82 11.42 10.27ZM8.52 13.66L8.52 13.27L15.91 13.22L15.91 13.63ZM15.89 15.31C15.86 15.46 15.86 15.62 15.86 15.77L8.52 15.82L8.52 15.34ZM8.50 17.83L8.50 17.50L15.79 17.47C15.79 17.62 15.77 17.74 15.77 17.86C13.42 17.83 10.63 17.81 8.50 17.83ZM11.04 20.86C11.06 20.57 11.09 20.26 11.09 19.94C12.07 19.94 13.06 19.94 13.99 19.97L14.02 20.86Z" transform="translate(0, 0)" />
</svg>