
    <svg xmlns="http://www.w3.org/2000/svg" viewBox="0 0 24 28.8">
      <path d="M21.98 22.15C21.60 21.67 20.66 20.81 19.63 20.02L19.63 19.99L19.61 19.99C19.13 19.61 18.60 19.22 18.12 18.91L16.18 19.90L13.90 19.90C16.03 18.86 18.02 17.86 18.98 17.33L16.15 15.34C15.29 15.74 13.58 16.63 11.66 17.59C11.40 17.40 11.16 17.23 11.02 17.11C12.10 16.66 13.68 15.74 15.05 14.88L13.90 13.97C15.96 13.94 17.74 13.92 18.43 13.90C18.48 14.47 18.29 15.67 18.10 16.58L21.14 16.90C21.82 15.86 22.03 14.02 22.32 12.89L21.05 10.68C20.66 10.73 17.57 10.80 14.11 10.82L14.11 9.96C16.97 9.94 19.66 9.96 21.41 10.01L21.41 6.96C20.06 6.91 17.23 6.89 14.11 6.91L14.11 5.45L9.43 5.52L9.48 6.94C6.58 6.96 3.94 7.01 2.59 7.08L2.88 10.10C4.32 10.06 6.82 10.01 9.58 9.98L9.60 10.85C8.02 10.85 6.60 10.85 5.62 10.82C5.59 10.66 5.54 10.51 5.52 10.39L2.26 10.46C2.26 12.65 2.33 15.07 1.68 16.49L5.52 16.66C5.66 16.15 5.76 15.12 5.76 14.02C6.91 14.02 8.47 14.02 10.13 13.99C8.76 14.78 7.25 15.67 5.95 16.37L5.35 17.59C6.26 18.02 7.32 18.67 8.28 19.22C7.66 19.51 7.08 19.80 6.50 20.04C5.33 20.06 4.18 20.11 3.17 20.16L3.58 22.92L4.68 22.92C4.30 23.30 4.08 23.81 4.08 24.38C4.08 25.56 5.04 26.52 6.22 26.52C7.39 26.52 8.35 25.56 8.35 24.38C8.35 23.78 8.11 23.26 7.70 22.85C8.38 22.85 9.10 22.82 9.82 22.82L9.82 26.42L14.14 26.42L13.97 22.75C14.64 22.73 15.31 22.73 15.96 22.73L14.16 23.64C14.78 24.17 16.03 25.13 16.87 26.40L20.40 25.08C19.39 24.19 18.62 23.35 17.66 22.73L18.53 22.73C18.72 22.94 18.91 23.18 19.08 23.42Z" transform="translate(0, 0)" />
    </svg>
  