
    <svg xmlns="http://www.w3.org/2000/svg" viewBox="0 0 288 28.8">
      <path d="M21.98 22.15C21.60 21.67 20.66 20.81 19.63 20.02L19.63 19.99L19.61 19.99C19.13 19.61 18.60 19.22 18.12 18.91L16.18 19.90L13.90 19.90C16.03 18.86 18.02 17.86 18.98 17.33L16.15 15.34C15.29 15.74 13.58 16.63 11.66 17.59C11.40 17.40 11.16 17.23 11.02 17.11C12.10 16.66 13.68 15.74 15.05 14.88L13.90 13.97C15.96 13.94 17.74 13.92 18.43 13.90C18.48 14.47 18.29 15.67 18.10 16.58L21.14 16.90C21.82 15.86 22.03 14.02 22.32 12.89L21.05 10.68C20.66 10.73 17.57 10.80 14.11 10.82L14.11 9.96C16.97 9.94 19.66 9.96 21.41 10.01L21.41 6.96C20.06 6.91 17.23 6.89 14.11 6.91L14.11 5.45L9.43 5.52L9.48 6.94C6.58 6.96 3.94 7.01 2.59 7.08L2.88 10.10C4.32 10.06 6.82 10.01 9.58 9.98L9.60 10.85C8.02 10.85 6.60 10.85 5.62 10.82C5.59 10.66 5.54 10.51 5.52 10.39L2.26 10.46C2.26 12.65 2.33 15.07 1.68 16.49L5.52 16.66C5.66 16.15 5.76 15.12 5.76 14.02C6.91 14.02 8.47 14.02 10.13 13.99C8.76 14.78 7.25 15.67 5.95 16.37L5.35 17.59C6.26 18.02 7.32 18.67 8.28 19.22C7.66 19.51 7.08 19.80 6.50 20.04C5.33 20.06 4.18 20.11 3.17 20.16L3.58 22.92L4.68 22.92C4.30 23.30 4.08 23.81 4.08 24.38C4.08 25.56 5.04 26.52 6.22 26.52C7.39 26.52 8.35 25.56 8.35 24.38C8.35 23.78 8.11 23.26 7.70 22.85C8.38 22.85 9.10 22.82 9.82 22.82L9.82 26.42L14.14 26.42L13.97 22.75C14.64 22.73 15.31 22.73 15.96 22.73L14.16 23.64C14.78 24.17 16.03 25.13 16.87 26.40L20.40 25.08C19.39 24.19 18.62 23.35 17.66 22.73L18.53 22.73C18.72 22.94 18.91 23.18 19.08 23.42ZM46.34 16.03C45.29 15.94 42.79 15.89 39.91 15.86C39.43 14.83 38.76 13.94 37.87 13.27L43.22 10.44L42.36 6.19L27.43 6.65L27.53 11.14L34.20 10.68L32.35 12.34L32.06 14.78C32.86 15 33.53 15.38 34.06 15.89C30.31 15.91 26.90 16.01 25.68 16.15L26.06 21.07C28.01 20.95 31.39 20.90 34.90 20.95C34.51 21.53 33.94 21.98 33.12 22.25L31.70 21.96L31.03 26.02L34.37 26.81L36.82 26.33C38.95 25.22 40.15 23.21 40.54 21.02C42.82 21.07 44.81 21.14 46.03 21.22ZM64.68 12.26L64.75 11.95L62.69 11.66C63.14 10.78 63.50 9.84 63.79 8.90L61.87 6.34L57.77 6.34L57.84 6.02L54.31 5.52C53.83 7.80 52.15 10.82 50.66 13.10L53.26 15.17C53.69 14.64 54.14 14.04 54.58 13.39C54.77 14.11 55.39 14.64 56.16 14.69C54.26 16.42 51.79 18.10 49.37 19.30L51.77 21.74C55.01 20.38 57.84 18.24 60 15.70C59.28 17.14 58.27 18.41 57.17 19.54L59.78 21.62C60.19 21.14 60.60 20.57 61.01 19.97C61.18 20.47 61.54 20.88 62.02 21.07C60.12 22.49 57.84 23.86 55.70 24.89L58.03 27.74C64.51 25.20 69.05 20.54 70.63 15.22L68.78 12.26ZM58.03 12.67C57.94 11.81 57.19 11.14 56.28 11.14C56.14 11.14 56.02 11.16 55.90 11.18C56.04 10.92 56.16 10.68 56.28 10.42L59.30 10.34C59.14 11.04 58.70 11.86 58.03 12.67ZM64.44 19.01C64.25 18.24 63.55 17.66 62.71 17.66C62.62 17.66 62.52 17.66 62.42 17.69C62.69 17.26 62.90 16.82 63.14 16.37L66.22 16.30C66.02 17.14 65.38 18.05 64.44 19.01ZM93.84 6.50C90.50 6.34 77.74 6.41 74.16 6.62L74.45 10.61C75.79 10.54 78.05 10.49 80.59 10.46C80.26 10.90 79.92 11.30 79.56 11.71C79.08 11.71 78.62 11.71 78.19 11.74L78.19 11.30L74.18 11.40C74.09 13.92 74.30 23.71 74.59 26.40L78.58 26.26C78.58 26.16 78.55 26.04 78.55 25.92C81.72 25.82 85.90 25.80 89.16 25.85C89.16 25.97 89.14 26.09 89.14 26.21L93.02 26.21C93.43 23.33 93.77 15.82 93.84 14.35L90.96 11.66C89.59 11.71 87.22 11.71 84.70 11.71C84.98 11.30 85.25 10.90 85.54 10.44C88.80 10.42 91.92 10.44 93.84 10.51ZM89.45 21.82L88.06 21.82C88.10 19.82 88.13 17.38 88.10 15.46C88.80 15.46 89.38 15.43 89.76 15.43C89.76 16.82 89.59 19.44 89.45 21.82ZM85.13 16.32C84.36 16.32 83.52 16.32 82.73 16.34L82.73 15.48C83.52 15.48 84.34 15.48 85.13 15.48ZM78.19 15.50L79.75 15.50C79.78 17.42 79.87 19.90 79.97 21.89C79.42 21.89 78.86 21.91 78.34 21.91C78.26 19.90 78.22 17.57 78.19 15.50ZM85.10 19.08C84.38 19.08 83.59 19.08 82.82 19.10C82.82 18.89 82.82 18.65 82.80 18.43C83.54 18.43 84.36 18.43 85.10 18.43ZM82.92 21.19L85.06 21.19C85.06 21.41 85.06 21.62 85.03 21.82C84.36 21.84 83.66 21.84 82.97 21.84C82.94 21.62 82.94 21.41 82.92 21.19ZM118.32 24.58C117.14 24.05 115.97 23.42 114.94 22.78C115.10 22.82 115.30 22.85 115.49 22.85C116.50 22.85 117.31 22.03 117.31 21.02C117.31 20.40 117 19.87 116.54 19.54C117.19 19.56 117.77 19.56 118.25 19.58L118.25 16.42C116.86 16.32 113.04 16.32 109.92 16.39L109.92 15.70C112.08 15.62 115.20 15.60 116.71 15.70L116.71 13.08C115.58 13.01 112.18 13.01 109.87 13.08C109.87 12.89 109.87 12.72 109.85 12.53C112.03 12.46 115.18 12.43 116.71 12.53L116.71 9.91C115.58 9.84 112.18 9.84 109.85 9.91L109.85 9.26C112.42 9.19 115.70 9.22 117.41 9.29L117.41 6.22C115.58 6.07 108.84 6.19 106.87 6.34L107.04 9.38C107.14 9.38 107.23 9.36 107.35 9.36C107.33 11.47 107.38 14.57 107.42 16.46L105.94 16.54L105.98 17.21L105.70 16.58C104.45 16.51 101.71 16.42 100.66 16.51C100.68 16.32 100.70 16.10 100.73 15.91L102.41 15.84C102.41 15.91 102.38 15.96 102.38 16.03L105.31 16.03C105.60 14.42 105.82 10.34 105.91 8.47L105.07 6.34C104.14 6.34 99.10 6.67 98.02 6.67L98.30 10.94C99.22 10.87 101.98 10.73 102.82 10.78C102.79 11.11 102.77 11.57 102.74 12.10L101.16 12.17C101.16 11.98 101.18 11.76 101.21 11.57L98.23 11.59C98.11 13.06 97.75 16.61 97.68 18.36L98.83 20.81C99.55 20.64 101.76 20.62 102.72 20.71C102.58 21.48 102.46 22.22 102.26 22.80L101.42 22.49L100.58 25.78L102.86 26.71L104.83 25.73C105.29 24.12 105.79 21.67 106.10 19.58L106.10 19.68C106.42 19.66 106.78 19.63 107.21 19.63L107.26 25.94L108.60 26.64L111.94 25.58L111.36 23.47C112.75 24.70 114.55 25.99 116.52 26.69ZM109.94 21.50L109.94 19.56C111.38 19.54 112.97 19.51 114.43 19.51C113.95 19.85 113.64 20.40 113.64 21.02C113.64 21.46 113.78 21.86 114.05 22.18C113.09 21.48 112.25 20.78 111.65 20.09ZM109.94 22.15C110.28 22.49 110.69 22.90 111.14 23.28L109.92 23.71ZM131.81 8.50C128.93 7.46 127.99 7.25 125.23 6.77L124.18 10.94C125.74 11.21 128.40 11.95 130.25 12.50ZM126.34 25.90C136.51 24.12 140.02 20.90 141.46 10.18L136.30 9.62C135 17.42 133.20 19.44 124.94 20.47ZM130.15 13.51C127.27 12.48 126.34 12.29 123.58 11.81L122.52 15.96C124.08 16.25 126.74 16.97 128.57 17.52ZM164.18 9.34C157.06 7.54 154.08 7.06 149.52 6.53L148.99 11.06C153.12 11.66 157.54 12.50 163.06 14.02ZM162.22 15.29C155.09 13.51 154.44 13.56 149.90 13.03L149.38 17.57C153.48 18.14 155.57 18.48 161.09 19.99ZM163.01 21.70C155.88 19.90 152.90 19.42 148.34 18.89L147.82 23.42C151.94 24.02 156.36 24.86 161.88 26.38ZM184.22 20.38C184.44 19.06 184.68 17.62 185.02 15.98L183.48 13.20C182.11 13.46 176.04 13.78 173.78 13.68L173.78 17.21C175.01 17.21 178.70 17.16 181.13 17.02C181.01 18.60 180.94 19.44 180.74 20.45L172.78 20.59L172.78 24.41L186.53 24.17L186.53 20.33ZM201.65 25.68C206.95 23.33 210.46 20.76 213.58 17.35L209.30 13.97C206.74 16.10 204.94 17.47 200.86 19.85C200.71 15.05 200.81 11.52 200.50 6.82L194.64 7.08C195.14 12.48 195.36 20.66 195.62 24.14ZM221.76 18.82C224.71 18.05 231.17 18.17 234.96 18.82L235.49 13.61C231.46 12.72 225.43 12.60 220.92 13.61ZM257.98 7.32C256.82 7.46 253.32 7.49 250.68 7.51C250.70 7.20 250.70 6.84 250.70 6.50L246.12 6.50C245.98 9.67 245.11 13.90 242.50 16.68L246.22 18.77C247.85 16.54 249.24 14.30 250.03 11.57C252.70 11.52 255.60 11.45 256.75 11.38C256.49 12.86 256.08 14.42 255.38 15.98C253.90 15.02 251.95 14.26 250.70 13.70L249.07 17.30C249.98 17.69 251.86 18.65 253.32 19.44C252.19 20.90 250.73 22.32 248.78 23.62L252.07 26.42C255.26 24.65 260.06 18.82 261.53 11.11ZM269.76 18.82C272.71 18.05 279.17 18.17 282.96 18.82L283.49 13.61C279.46 12.72 273.43 12.60 268.92 13.61Z" transform="translate(0, 0)" />
    </svg>
  