<svg xmlns="http://www.w3.org/2000/svg" viewBox="0 0 24 28.8">
  <path d="M14.66 17.52L14.66 17.11L13.49 17.11C13.51 16.97 13.51 16.85 13.51 16.70C15.24 16.66 17.54 16.63 19.30 16.66C19.27 16.73 19.27 16.78 19.27 16.82L21.89 16.82C22.15 14.81 22.42 13.18 22.49 12L20.88 9.19C18.82 9.43 13.99 9.50 12.19 9.48L10.70 12.17C10.70 14.04 10.66 15.74 10.56 17.35C10.08 15.96 9.55 14.47 9.02 13.66L7.51 14.71C8.09 13.99 8.74 13.10 9.26 12.24L7.37 10.10L6.48 11.26C6.36 11.16 6.22 11.06 6.07 10.99C7.06 10.03 8.23 8.76 9.05 7.73L6.60 5.16C5.47 6.53 3.86 8.59 2.47 9.98L2.26 12.70C2.76 13.10 3.53 13.61 4.30 14.06C3.41 15.19 2.59 16.20 2.28 16.54L2.52 19.49L5.11 19.42L5.09 21.22C4.70 20.81 4.18 20.54 3.58 20.54C2.42 20.54 1.46 21.53 1.46 22.73C1.46 23.95 2.42 24.94 3.58 24.94C4.15 24.94 4.66 24.70 5.04 24.31L5.02 26.23L7.78 26.23L7.73 22.92C8.06 23.64 8.35 24.36 8.47 25.03L9.72 24.48C9.67 24.84 9.60 25.18 9.53 25.54L12.26 26.50C12.43 25.92 12.58 25.30 12.70 24.65C12.72 25.32 12.74 25.92 12.79 26.45L14.76 26.30C14.74 25.75 14.71 24.77 14.69 23.64C14.90 23.62 15.17 23.62 15.43 23.62C15.43 24.67 15.48 25.61 15.50 26.11L17.21 25.99C17.18 25.44 17.16 24.55 17.14 23.54L17.78 23.54C17.76 24.55 17.74 25.44 17.71 25.99L19.42 26.11C19.42 25.99 19.44 25.87 19.44 25.70C19.99 26.06 20.30 26.33 20.90 26.69L22.25 25.80C22.49 24.10 22.49 19.32 22.49 18.14L21.14 17.23C20.42 17.23 16.44 17.33 14.66 17.52ZM22.25 5.93C20.23 5.81 12.79 5.88 10.66 6.05L10.82 9.05C13.06 8.90 19.56 8.83 22.25 8.95ZM19.61 12.36C19.61 12.82 19.58 13.32 19.56 13.82C17.95 13.82 15.50 13.85 13.66 13.90L13.73 12.41C15.58 12.38 18.58 12.36 19.61 12.36ZM7.32 16.03C7.08 16.06 6.79 16.06 6.38 16.06C6.58 15.84 6.82 15.60 7.06 15.29ZM10.42 19.20C10.34 20.04 10.27 20.88 10.15 21.70C9.82 21.07 9.46 20.50 9.07 20.02ZM7.68 19.27C7.90 19.27 8.14 19.25 8.35 19.22L8.47 19.78L7.68 20.38ZM20.40 20.64C20.14 20.62 19.85 20.62 19.51 20.62L19.51 19.97C19.90 19.97 20.21 19.97 20.40 19.97ZM17.81 20.64C17.57 20.64 17.35 20.64 17.14 20.64L17.14 20.04C17.35 20.04 17.57 20.02 17.78 20.02C17.81 20.21 17.81 20.42 17.81 20.64ZM14.66 20.16C14.88 20.14 15.12 20.14 15.41 20.11L15.41 20.69C15.14 20.71 14.88 20.71 14.66 20.74ZM19.46 25.15C19.46 24.70 19.49 24.14 19.49 23.54C19.75 23.54 20.02 23.54 20.26 23.57L20.16 24.24L19.73 23.98Z" transform="translate(0, 0)" />
</svg>