
    <svg xmlns="http://www.w3.org/2000/svg" viewBox="0 0 24 28.8">
      <path d="M22.30 11.14C21.67 11.14 21 11.11 20.28 11.11L18.96 10.18C19.22 10.20 19.49 10.20 19.73 10.20L19.73 6.70C18.34 6.65 16.61 6.65 14.76 6.65L14.76 5.45L9.31 5.66L9.38 6.70C7.32 6.72 5.40 6.77 3.89 6.82L4.15 10.25C5.88 10.18 7.73 10.15 9.60 10.13L9.65 11.14C6.65 11.16 3.77 11.21 1.58 11.26L1.92 14.66C4.13 14.59 6.46 14.57 8.81 14.54C6.77 15.46 4.46 16.30 1.97 16.90L3.50 20.09C4.25 19.94 4.99 19.75 5.71 19.56C5.83 22.25 5.93 25.56 5.98 26.59L9.65 26.59C9.65 26.50 9.67 26.35 9.67 26.21C11.83 26.21 14.23 26.21 16.20 26.26L16.20 26.59L19.99 26.59C20.18 25.42 20.76 18.58 20.57 16.70L19.25 15.48L15.10 15.53C15.70 15.22 16.25 14.88 16.75 14.54L22.30 14.62ZM14.76 10.13L16.10 10.13C15.72 10.44 15.29 10.78 14.83 11.09C14.81 11.09 14.78 11.09 14.76 11.11ZM9.82 19.51L9.82 18.79L16.44 18.72L16.44 19.44ZM9.77 23.26C9.79 23.02 9.79 22.78 9.79 22.54L16.37 22.49C16.34 22.78 16.34 23.04 16.32 23.30C14.23 23.26 11.74 23.26 9.77 23.26Z" transform="translate(0, 0)" />
    </svg>
  