<svg xmlns="http://www.w3.org/2000/svg" viewBox="0 0 24 28.8">
  <path d="M11.09 10.08C11.76 10.03 12.89 9.98 14.16 9.96L14.21 11.23L12.65 11.30C12.67 11.18 12.67 11.11 12.67 11.04L10.30 11.28C10.30 12.70 10.32 17.02 10.54 18.58L12.67 18.46C12.67 18.41 12.67 18.34 12.65 18.26C14.26 18.22 16.92 18.19 18.72 18.19C18.70 18.29 18.70 18.38 18.67 18.46L20.93 18.46C21.14 17.59 21.65 13.10 21.65 12.55L20.50 11.18C19.92 11.14 18.82 11.14 17.52 11.14L17.52 9.94C18.82 9.94 20.02 9.96 20.83 9.98L20.83 7.27C20.21 7.22 18.94 7.20 17.52 7.20L17.52 6.41L14.02 6.46L14.04 7.25C12.72 7.27 11.57 7.32 10.94 7.37ZM9.70 23.98C9.70 23.88 9.70 23.78 9.72 23.69L9.74 23.69L9.72 23.16C9.79 19.22 9.82 13.51 9.74 10.56L10.78 10.56L10.78 6.82C8.69 6.82 5.38 6.70 2.18 6.98L2.33 10.73C2.52 10.73 2.74 10.70 2.93 10.70C2.95 13.94 3 18.79 3.12 20.98L2.23 21.07L2.38 24.77C3.19 24.60 5.47 24.34 7.30 24.10L7.22 26.04L9.62 26.38C9.65 26.06 9.65 25.70 9.67 25.30L11.52 26.28C12.58 24.98 13.22 22.46 13.51 19.15L10.85 18.94C10.75 20.98 10.37 22.51 9.70 23.98ZM7.39 10.61L7.39 11.78L5.18 11.88C5.18 11.42 5.18 11.02 5.21 10.63C5.93 10.61 6.67 10.61 7.39 10.61ZM19.10 14.02C19.06 14.26 19.03 14.66 19.01 15.17L17.90 15.17C17.95 14.78 17.98 14.40 17.98 14.02ZM16.27 14.04C16.25 14.42 16.25 14.83 16.22 15.19C15.86 15.22 15.50 15.22 15.14 15.22C15.14 14.83 15.12 14.45 15.12 14.06C15.50 14.04 15.89 14.04 16.27 14.04ZM12.60 14.11C12.86 14.11 13.13 14.09 13.42 14.09C13.42 14.47 13.44 14.88 13.46 15.29C13.15 15.29 12.86 15.31 12.60 15.31ZM7.39 15.05L7.39 15.89L5.23 15.91C5.23 15.62 5.23 15.34 5.21 15.05ZM19.37 23.50C16.27 24.02 15.96 22.10 16.37 18.70L13.68 18.60C12.62 26.78 16.75 27.19 21.10 26.59L21.84 25.63L21.82 22.78L19.39 22.92ZM21.19 18.70C20.30 18.70 19.58 19.42 19.58 20.30C19.58 21.19 20.30 21.91 21.19 21.91C22.08 21.91 22.80 21.19 22.80 20.30C22.80 19.42 22.08 18.70 21.19 18.70ZM5.35 20.64C5.33 20.18 5.30 19.68 5.30 19.15L7.37 19.15L7.37 20.33C6.72 20.42 6.02 20.54 5.35 20.64ZM16.34 21.05C16.34 21.94 17.06 22.66 17.95 22.66C18.84 22.66 19.56 21.94 19.56 21.05C19.56 20.16 18.84 19.44 17.95 19.44C17.06 19.44 16.34 20.16 16.34 21.05Z" transform="translate(0, 0)" />
</svg>