<svg xmlns="http://www.w3.org/2000/svg" viewBox="0 0 24 28.8">
  <path d="M19.68 22.99C18.17 23.11 17.18 22.87 16.70 21.65C19.42 21.29 20.02 21.17 21.82 21.07L21.43 17.59C19.82 17.69 18.98 17.86 16.37 18.14C16.39 17.66 16.42 17.16 16.46 16.58C17.88 16.99 19.63 16.99 21.62 16.80L22.46 15.89L22.20 12.74L19.70 12.67L19.66 13.20C18.10 13.32 17.09 13.08 16.61 11.86C19.37 11.50 19.97 11.40 21.82 11.28L21.41 7.80C19.78 7.90 18.91 8.04 16.27 8.35C16.30 7.78 16.34 7.10 16.42 6.38L12.46 6.34C12.34 8.06 12.34 9.53 12.48 10.78C11.78 9.55 10.92 8.21 10.13 7.46L8.45 9.55C8.59 9.79 8.74 10.06 8.88 10.32C7.85 10.51 6.79 10.75 5.78 10.97L8.86 6.96L6.43 5.18C5.21 6.38 1.99 11.04 1.54 11.83L3.10 14.71L3.41 14.64L2.64 15.70C2.62 18.22 2.69 24.10 2.76 26.09L5.59 25.94C5.57 25.20 5.57 24.14 5.57 22.97L9.34 22.94L9.34 23.35L9.05 23.30L8.64 25.51L10.80 26.50L12.10 24.96C12.24 22.80 12.24 18.46 12.24 16.34L11.30 14.76L12.96 13.08C13.46 14.62 14.30 15.58 15.41 16.15L12.65 16.13C11.95 26.04 15.53 27.19 21.65 26.59L22.46 25.68L22.20 22.56L19.75 22.49ZM3.84 14.54C6.46 13.94 8.38 13.68 10.46 13.37C10.63 13.73 10.78 14.09 10.92 14.42ZM5.64 17.83L5.64 17.23L9.34 17.21L9.34 17.81ZM9.34 20.23L9.34 20.57L5.59 20.62L5.59 20.28Z" transform="translate(0, 0)" />
</svg>