
    <svg xmlns="http://www.w3.org/2000/svg" viewBox="0 0 24 28.8">
      <path d="M18.12 6.89C18.24 6.53 18.38 6.17 18.50 5.81L14.21 5.62C14.18 6.02 14.11 6.43 14.02 6.89C12.60 6.89 11.16 6.91 9.74 6.91C9.60 6.41 9.48 5.90 9.41 5.50L5.28 5.98C5.42 6.31 5.57 6.62 5.69 6.96C3.94 6.98 2.47 7.01 1.54 7.06L1.87 9.79C3.02 9.74 4.75 9.72 6.79 9.70C6.96 10.08 7.13 10.42 7.32 10.73L10.90 10.42C10.82 10.18 10.75 9.91 10.66 9.67C11.52 9.65 12.41 9.65 13.30 9.65L13.06 10.46L16.58 10.58C16.75 10.32 16.92 10.01 17.06 9.65C19.20 9.65 21.12 9.67 22.49 9.70L22.49 6.94C21.55 6.91 19.99 6.89 18.12 6.89ZM13.82 19.18C14.47 19.18 15.10 19.20 15.67 19.20L15.67 19.46L19.99 19.46C20.21 18.55 20.83 13.18 20.62 11.74L19.13 10.75L5.18 10.90L3.60 11.57C3.79 13.34 3.98 18.29 4.03 19.46L8.26 19.46C8.26 19.39 8.28 19.27 8.28 19.15C8.93 19.15 9.62 19.18 10.30 19.18L10.30 19.87C8.74 19.90 7.30 19.94 6.38 19.97L6.38 19.68L2.95 19.68C2.95 21.38 2.95 24.70 3.29 26.52L6.58 26.42C6.46 25.61 6.41 23.64 6.38 21.94C7.25 21.91 8.71 21.86 10.34 21.84L10.34 23.26C9 23.38 7.70 23.47 6.86 23.52L7.18 25.70C8.54 25.66 13.20 25.20 15.38 24.91C15.43 25.08 15.48 25.22 15.50 25.39L16.73 25.01L16.18 25.94C17.38 26.23 18.31 26.42 19.51 26.71L21.34 26.04C21.79 24.79 21.79 21.29 21.79 20.42L19.20 19.75L13.82 19.80ZM13.82 13.90L13.82 13.32L15.94 13.30L15.94 13.87ZM10.22 13.90L8.42 13.92L8.42 13.34L10.22 13.34ZM13.82 16.25L15.84 16.25C15.84 16.46 15.82 16.70 15.82 16.92C15.17 16.90 14.50 16.90 13.82 16.90ZM8.38 16.87C8.38 16.68 8.38 16.46 8.40 16.27L10.25 16.27L10.27 16.87ZM18.29 24.29C17.98 23.52 17.50 22.56 16.85 21.77L18.55 21.77C18.55 22.22 18.55 23.28 18.29 24.29ZM13.82 21.82C14.42 21.79 15.02 21.79 15.58 21.79L14.28 22.27C14.35 22.46 14.45 22.63 14.52 22.82L13.82 22.90ZM18.22 24.55L18.10 24.89L17.47 24.79Z" transform="translate(0, 0)" />
    </svg>
  