
    <svg xmlns="http://www.w3.org/2000/svg" viewBox="0 0 24 28.8">
      <path d="M18.07 6.62C18.19 6.26 18.34 5.93 18.46 5.57L14.18 5.38C14.16 5.76 14.09 6.17 13.99 6.62L9.77 6.62C9.62 6.12 9.50 5.66 9.43 5.26L5.35 5.71C5.50 6.02 5.64 6.36 5.76 6.67C4.03 6.70 2.57 6.74 1.66 6.77L1.97 9.48C3.10 9.46 4.82 9.41 6.84 9.38C7.01 9.77 7.18 10.13 7.37 10.44L10.92 10.15C10.85 9.89 10.75 9.62 10.66 9.36C11.52 9.36 12.38 9.36 13.25 9.36L13.01 10.18L16.54 10.30C16.70 10.03 16.87 9.70 17.04 9.36C19.13 9.36 21 9.38 22.37 9.41L22.37 6.67C21.46 6.65 19.92 6.62 18.07 6.62ZM18.82 13.90L19.56 13.90L19.56 11.18C18.19 11.16 16.49 11.14 14.66 11.14L14.66 10.34L9.29 10.39L9.36 11.18C7.32 11.21 5.42 11.26 3.94 11.28L4.20 13.94C5.90 13.90 7.73 13.87 9.58 13.85L9.62 14.62C6.65 14.64 3.82 14.69 1.66 14.71L1.99 17.38C4.18 17.33 6.48 17.28 8.81 17.28C6.79 18 4.51 18.62 2.04 19.10L3.55 21.58C4.27 21.46 5.02 21.31 5.74 21.17C5.86 23.26 5.95 25.80 6 26.62L9.62 26.62C9.62 26.54 9.65 26.42 9.65 26.30C11.78 26.33 14.16 26.33 16.08 26.35L16.08 26.62L19.82 26.62C20.02 25.70 20.59 20.40 20.40 18.94L19.10 18L15.02 18.05L16.63 17.28C18.60 17.28 20.45 17.30 22.10 17.33L22.10 14.64C21.50 14.64 20.86 14.62 20.16 14.62ZM14.66 13.85L15.98 13.85C15.62 14.09 15.19 14.35 14.74 14.59L14.66 14.59ZM9.79 21.12L9.79 20.57L16.32 20.52L16.32 21.07ZM9.74 24.02C9.77 23.86 9.77 23.66 9.77 23.47L16.25 23.42C16.22 23.64 16.22 23.86 16.20 24.07C14.14 24.02 11.69 24.02 9.74 24.02Z" transform="translate(0, 0)" />
    </svg>
  