<svg xmlns="http://www.w3.org/2000/svg" viewBox="0 0 24 28.8">
  <path d="M22.80 23.33C21 22.70 19.25 21.96 17.66 21.14C17.76 21.17 17.88 21.17 17.98 21.17C19.20 21.17 20.18 20.18 20.18 18.94C20.18 17.93 19.51 17.09 18.60 16.82C19.94 16.82 21.10 16.85 22.03 16.87L22.03 13.82C20.69 13.78 17.98 13.78 14.95 13.78L14.95 13.39C17.04 13.39 18.96 13.42 20.26 13.44L20.26 10.42C19.22 10.39 17.23 10.37 14.95 10.37L14.95 9.98C17.33 9.98 19.54 10.01 21.02 10.03L21.02 7.03C19.87 6.98 17.57 6.96 14.95 6.98L14.95 5.35L9.41 5.42L9.46 7.01C6.72 7.03 4.27 7.08 3 7.15L3.26 10.13C4.63 10.08 6.96 10.03 9.53 10.01L9.55 10.42C7.25 10.44 5.23 10.49 4.15 10.56L4.39 13.54C5.54 13.49 7.46 13.44 9.62 13.42L9.62 13.82C6.43 13.85 3.53 13.90 2.04 13.94L2.35 16.94L5.74 16.87C4.54 17.98 3.02 18.98 1.22 20.16L4.85 22.51L5.33 22.22L5.47 25.66L7.56 26.52L12.91 25.20L11.81 22.22L9.70 22.80L9.60 20.30C11.81 22.20 15.29 25.03 19.61 26.26ZM9.58 19.03C10.37 18.29 11.06 17.54 11.64 16.80L17.35 16.80C16.42 17.06 15.74 17.93 15.74 18.94C15.74 19.51 15.96 20.04 16.30 20.42C14.66 19.51 13.27 18.55 12.29 17.62L9.58 19.42Z" transform="translate(0, 0)" />
</svg>