
    <svg xmlns="http://www.w3.org/2000/svg" viewBox="0 0 24 28.8">
      <path d="M19.39 22.03C19.39 21.26 18.96 20.59 18.29 20.26C19.68 20.26 20.93 20.28 21.89 20.30L21.89 17.42C20.47 17.38 17.45 17.38 14.16 17.38L14.18 16.32L10.51 16.32L10.51 5.71L6.67 5.81L6.72 8.95C6.02 8.30 5.16 7.58 4.34 7.20L2.23 8.38C3.17 9.24 4.34 10.37 4.97 11.28L6.74 10.44L6.77 11.57L5.54 11.16C4.68 12.05 2.98 13.56 1.92 14.28L4.92 15.43C5.59 14.88 6.24 14.23 6.82 13.58L6.86 16.51L10.15 16.51L10.25 17.40C6.96 17.45 3.89 17.47 2.38 17.54L2.69 20.40C3.55 20.38 4.75 20.33 6.17 20.30C4.94 21.14 3.43 21.86 1.56 22.75L5.04 24.36L5.42 24.19L5.50 26.09L7.51 26.66L12.67 25.75L11.74 23.95C13.87 24.98 16.66 26.11 19.68 26.74L22.39 24.89C21.02 24.55 19.68 24.17 18.41 23.76C19.01 23.40 19.39 22.78 19.39 22.03ZM18.67 5.93L14.62 6.17L14.69 7.97C13.25 8.02 11.90 8.04 10.85 8.09L11.02 11.21C12.24 11.16 13.51 11.11 14.81 11.11L14.88 12.65C13.75 12.67 12.70 12.70 11.86 12.74L12 16.13C15.07 15.94 18.67 15.98 21.31 16.08L21.31 12.62C20.57 12.60 19.66 12.58 18.67 12.58L18.67 11.09L22.42 11.16L22.42 7.97C21.36 7.92 20.06 7.92 18.67 7.92ZM9.58 21.98C10.46 21.41 11.21 20.83 11.81 20.26C13.39 20.26 15 20.23 16.51 20.26C15.86 20.57 15.41 21.24 15.41 22.03C15.41 22.25 15.46 22.49 15.50 22.68C14.18 22.13 13.08 21.55 12.24 21.02L9.58 22.25ZM9.58 22.80C10.10 23.09 10.70 23.42 11.40 23.78L9.58 24.14Z" transform="translate(0, 0)" />
    </svg>
  