<svg xmlns="http://www.w3.org/2000/svg" viewBox="0 0 24 28.8">
  <path d="M2.54 9.19C6.41 9.07 17.33 9.02 21.94 9.12L21.94 6.82C20.52 6.77 17.54 6.77 14.30 6.77L14.33 5.50L9.86 5.50L10.01 6.79C6.74 6.82 3.74 6.86 2.23 6.91ZM22.54 24.94C21.07 24.58 19.61 24.14 18.26 23.69C18.91 23.35 19.34 22.70 19.34 21.94C19.34 20.86 18.48 19.99 17.40 19.99C16.32 19.99 15.46 20.86 15.46 21.94C15.46 22.20 15.50 22.44 15.60 22.66C14.26 22.10 13.13 21.53 12.29 20.95L9.60 22.22L9.60 21.96C10.68 21.24 11.59 20.52 12.22 19.82C15.86 19.80 19.54 19.82 21.74 19.85L21.74 17.90C20.30 17.88 17.26 17.86 13.92 17.88L13.92 17.47C16.25 17.45 18.46 17.47 19.90 17.50L19.90 15.65C18.79 15.62 16.46 15.60 13.92 15.62L13.92 15.19C14.69 15.19 15.43 15.22 16.10 15.22C16.08 15.26 16.08 15.34 16.08 15.38L19.58 15.38C19.78 14.76 20.42 11.02 20.23 10.01L18.74 9.34L5.23 9.43L3.70 9.91C3.89 11.14 4.08 14.57 4.15 15.38L7.22 15.38C7.25 15.34 7.25 15.26 7.27 15.17C8.06 15.17 8.88 15.17 9.74 15.19L9.74 15.62C7.37 15.65 5.23 15.67 4.13 15.72L4.37 17.54C5.54 17.52 7.56 17.50 9.79 17.47L9.82 17.88C6.50 17.90 3.46 17.93 1.94 17.98L2.26 19.92L6.70 19.85C5.40 20.88 3.67 21.70 1.49 22.75L5.02 24.38L5.40 24.22L5.47 26.16L7.51 26.76L12.72 25.82L11.76 23.95C13.92 25.03 16.73 26.18 19.80 26.81ZM13.92 11.50L13.92 11.11L16.34 11.11L16.34 11.50ZM9.65 11.52L7.42 11.52L7.42 11.14L9.65 11.14ZM13.92 13.15L16.27 13.15L16.22 13.63C15.50 13.61 14.71 13.61 13.92 13.58ZM7.39 13.58L7.39 13.18L9.70 13.18L9.70 13.58ZM9.60 22.78C10.13 23.09 10.75 23.45 11.47 23.81L9.60 24.17Z" transform="translate(0, 0)" />
</svg>