
    <svg xmlns="http://www.w3.org/2000/svg" viewBox="0 0 24 28.8">
      <path d="M21.62 8.06C21.50 8.06 21.36 8.04 21.19 8.04C21.31 7.80 21.38 7.51 21.38 7.20C21.38 6.22 20.59 5.42 19.61 5.42C18.60 5.42 17.81 6.22 17.81 7.20C17.81 7.49 17.88 7.75 17.98 7.99L17.30 7.99L17.30 6.17L14.35 6.34L14.38 8.04C12.60 8.06 11.02 8.14 10.20 8.21L10.39 11.69C11.26 11.62 12.74 11.57 14.40 11.54L14.40 12.43C13.85 12.48 13.34 12.50 12.91 12.55L12.91 12.24L10.34 12.24L10.34 16.56C10.08 16.39 9.77 16.30 9.43 16.30C8.88 16.30 8.40 16.54 8.09 16.94C8.04 16.87 7.99 16.82 7.94 16.78C8.81 15.41 9.55 13.97 10.08 12.55L9.19 8.69C8.74 8.76 8.14 8.83 7.44 8.90L7.54 6.60L4.56 6.48L4.56 9.07C3.67 9.10 2.86 9.12 2.28 9.12L2.38 13.25C3.58 13.22 5.93 13.06 6.58 13.06C5.74 14.88 3.22 18.05 1.66 20.14L3.22 22.90C3.62 22.49 4.10 21.96 4.66 21.31L4.61 26.42L7.49 26.42L7.42 20.81C7.97 21.62 8.52 22.49 8.88 23.21L10.37 20.38C10.42 22.82 10.46 25.15 10.58 26.45L13.01 26.28C12.98 25.68 12.96 24.46 12.94 22.94C13.39 22.92 13.92 22.92 14.47 22.90L14.50 25.90L17.30 25.92L17.30 22.85C17.88 22.87 18.43 22.87 18.91 22.87C18.89 23.23 18.84 23.52 18.82 23.76L18.17 23.45L17.78 25.49C18.43 25.97 18.96 26.28 19.58 26.76L21.26 25.66C21.53 23.59 21.53 14.78 21.53 13.34L20.11 12.24C19.78 12.24 18.65 12.26 17.30 12.31L17.30 11.52C18.98 11.52 20.59 11.54 21.62 11.59ZM19.08 15.55L19.08 16.22C18.60 16.20 17.98 16.20 17.30 16.20L17.30 15.60C18.10 15.58 18.74 15.55 19.08 15.55ZM14.42 16.25C13.87 16.25 13.34 16.27 12.91 16.30L12.91 15.79C13.34 15.74 13.87 15.72 14.42 15.70ZM17.30 19.10C17.95 19.13 18.55 19.13 19.06 19.15C19.06 19.42 19.03 19.68 19.03 19.97C18.55 19.94 17.95 19.94 17.30 19.94ZM12.91 20.04C12.91 19.78 12.91 19.49 12.91 19.22L14.45 19.15L14.45 19.99C13.90 20.02 13.37 20.02 12.91 20.04ZM9.94 19.63C10.08 19.58 10.22 19.51 10.37 19.42L10.37 20.33C10.25 20.11 10.08 19.87 9.94 19.63Z" transform="translate(0, 0)" />
    </svg>
  