<svg xmlns="http://www.w3.org/2000/svg" viewBox="0 0 86.088 28.8">
  <path d="M12.12 8.78C11.47 8.74 10.20 8.71 8.76 8.71C8.98 8.35 9.10 7.94 9.10 7.49C9.10 6.19 8.04 5.14 6.74 5.14C5.45 5.14 4.39 6.19 4.39 7.49C4.39 7.97 4.54 8.40 4.78 8.78C3.50 8.81 2.42 8.86 1.80 8.93L1.94 12.43C3.96 12.26 9.70 12.19 12.12 12.31ZM22.20 12.82C21.19 12.74 20.14 12.72 19.08 12.70L19.08 6.19L14.59 6.36L14.66 12.72C13.68 12.74 12.70 12.77 11.66 12.82L11.95 17.86C12.91 17.86 13.82 17.83 14.71 17.83L14.81 26.28L19.08 26.28L19.08 17.81C20.04 17.83 21.05 17.86 22.20 17.90ZM11.16 12.72C9.70 12.60 4.32 12.67 2.74 12.84L2.88 15.82C4.51 15.67 9.19 15.60 11.16 15.72ZM11.28 16.10C9.82 16.01 4.44 16.08 2.88 16.22L3 19.20C4.66 19.06 9.31 19.01 11.28 19.10ZM4.92 19.58L4.92 19.39L2.40 19.61C2.40 20.98 2.42 25.13 2.66 26.59L4.94 26.47C4.94 26.42 4.94 26.35 4.92 26.28C6.05 26.26 7.56 26.23 8.76 26.23C8.76 26.33 8.74 26.40 8.74 26.47L11.09 26.47C11.23 25.66 11.66 21.36 11.66 20.83L10.73 19.51C9.77 19.44 7.03 19.49 4.92 19.58ZM4.85 23.42L4.85 22.32C6.60 22.25 8.45 22.25 9.05 22.22C9.02 22.44 9 22.85 8.98 23.33C7.73 23.35 6.07 23.38 4.85 23.42ZM46.39 20.90C45.02 20.88 43.61 20.86 42.17 20.86L42.17 20.23L43.68 20.23C43.87 19.34 44.47 13.37 44.30 11.90L43.39 11.30C44.14 10.56 44.59 9.70 44.90 9.05C45.46 9.05 45.96 9.05 46.34 9.07L46.34 6.79C45.36 6.72 42.70 6.74 40.51 6.79C40.56 6.46 40.63 6.14 40.68 5.81L37.27 5.30C37.10 6.31 36.89 7.22 36.53 8.11L36.53 6.72C35.54 6.65 32.90 6.65 30.70 6.70C30.77 6.38 30.84 6.05 30.89 5.71L27.48 5.23C27.17 7.03 26.69 8.42 25.63 10.20L29.02 10.68C29.45 10.10 29.76 9.55 30.02 9C30.41 8.98 30.82 8.98 31.25 8.98C31.54 9.58 31.85 10.30 31.99 10.94L28.34 11.02C28.49 12.82 28.66 19.06 28.70 20.23L30.74 20.23C30.74 20.47 30.77 20.71 30.77 20.93C29.23 20.93 27.74 20.98 26.28 21L26.28 23.69L30.07 23.62C29.57 24.19 28.70 24.70 27.22 25.20L30.58 26.50C33 25.75 34.08 24.84 34.58 23.57L38.09 23.57L38.16 26.40L42.17 26.40L42.17 23.57C43.49 23.59 44.88 23.59 46.39 23.62ZM38.83 10.75C39.26 10.20 39.58 9.65 39.84 9.07C40.32 9.07 40.87 9.05 41.42 9.05C41.06 9.55 40.63 10.06 40.08 10.63L41.14 10.97L32.47 11.14L32.47 11.04L35.21 10.63C35.02 9.94 34.82 9.41 34.61 8.95C35.18 8.95 35.71 8.98 36.14 8.98C35.93 9.41 35.69 9.82 35.42 10.27ZM32.52 13.66L32.52 13.27L39.91 13.22L39.91 13.63ZM39.89 15.31C39.86 15.46 39.86 15.62 39.86 15.77L32.52 15.82L32.52 15.34ZM32.50 17.83L32.50 17.50L39.79 17.47C39.79 17.62 39.77 17.74 39.77 17.86C37.42 17.83 34.63 17.81 32.50 17.83ZM35.04 20.86C35.06 20.57 35.09 20.26 35.09 19.94C36.07 19.94 37.06 19.94 37.99 19.97L38.02 20.86ZM62.74 9.50L62.83 5.62L57.10 5.71L57.14 9.60L51.22 9.67L49.73 10.97C49.90 13.56 50.18 17.64 50.23 20.57L55.25 20.57C55.25 20.45 55.27 20.30 55.27 20.18L57.26 20.18L57.34 26.64L62.33 26.54L62.47 20.21C63.17 20.23 63.82 20.23 64.42 20.23L64.42 20.57L69.29 20.74C69.74 18.48 70.22 13.08 70.30 11.33L68.81 9.43ZM62.64 13.80L64.54 13.78C64.54 14.26 64.51 15.12 64.49 16.10L62.59 16.03ZM55.34 16.06C55.34 15.34 55.34 14.62 55.32 13.90L57.19 13.87L57.22 16.01C56.57 16.03 55.94 16.03 55.34 16.06ZM75 23.71C75.84 23.71 76.56 23.02 76.56 22.15C76.56 21.29 75.84 20.59 75 20.59C74.14 20.59 73.44 21.29 73.44 22.15C73.44 23.02 74.14 23.71 75 23.71ZM79.08 23.71C79.92 23.71 80.64 23.02 80.64 22.15C80.64 21.29 79.92 20.59 79.08 20.59C78.22 20.59 77.52 21.29 77.52 22.15C77.52 23.02 78.22 23.71 79.08 23.71ZM83.09 23.71C83.93 23.71 84.65 23.02 84.65 22.15C84.65 21.29 83.93 20.59 83.09 20.59C82.22 20.59 81.53 21.29 81.53 22.15C81.53 23.02 82.22 23.71 83.09 23.71Z" transform="translate(0, 0)" />
</svg>