
    <svg xmlns="http://www.w3.org/2000/svg" viewBox="0 0 24 28.8">
      <path d="M10.66 9C10.20 8.98 9.36 8.95 8.40 8.95C8.54 8.64 8.62 8.30 8.62 7.97C8.62 6.67 7.56 5.62 6.26 5.62C4.97 5.62 3.91 6.67 3.91 7.97C3.91 8.33 4.01 8.69 4.15 9C3.12 9.05 2.23 9.10 1.70 9.14L1.85 12.55C3.62 12.41 8.54 12.34 10.66 12.46ZM22.32 24.22C19.78 21.29 18.89 19.51 18.55 15.58C18.67 15.60 18.79 15.60 18.91 15.60C18.91 15.74 18.89 15.86 18.89 15.96L21.74 15.96C21.96 14.06 22.06 9.77 22.13 8.64L20.62 6C18.67 6.22 14.18 6.29 12.48 6.26L11.09 8.81C11.09 12.22 10.78 16.75 10.25 20.74L9.43 19.49C8.62 19.39 6.24 19.44 4.42 19.54L4.42 19.34L2.23 19.56C2.23 20.88 2.26 24.91 2.47 26.35L4.44 26.26C4.44 26.18 4.44 26.11 4.42 26.04C5.40 26.02 6.72 25.99 7.75 25.99C7.75 26.09 7.73 26.18 7.73 26.26L9.74 26.26L9.84 25.61L12.70 26.45C13.39 23.93 13.90 19.56 14.23 15.65C14.59 15.65 14.95 15.62 15.36 15.62C15.65 20.71 16.97 23.93 19.58 26.81ZM14.64 9.79C16.37 9.79 18.07 9.72 19.03 9.72C19.03 10.30 19.03 11.30 19.01 12.36C17.62 12.36 15.86 12.38 14.50 12.43C14.54 11.45 14.62 10.54 14.64 9.79ZM9.82 12.84C8.54 12.72 3.89 12.79 2.54 12.96L2.66 15.86C4.08 15.72 8.14 15.65 9.82 15.77ZM9.94 16.15C8.64 16.03 4.01 16.10 2.66 16.27L2.76 19.18C4.18 19.03 8.23 18.96 9.94 19.08ZM4.37 23.28C4.34 22.92 4.34 22.54 4.37 22.18C5.88 22.13 7.46 22.13 8.02 22.13C7.99 22.34 7.97 22.73 7.94 23.18C6.86 23.18 5.40 23.21 4.37 23.28Z" transform="translate(0, 0)" />
    </svg>
  