
    <svg xmlns="http://www.w3.org/2000/svg" viewBox="0 0 24 28.8">
      <path d="M10.08 8.78C9.70 8.74 9.05 8.74 8.26 8.71C8.33 8.47 8.38 8.23 8.38 7.97C8.38 6.67 7.32 5.62 6.02 5.62C4.73 5.62 3.67 6.67 3.67 7.97C3.67 8.26 3.72 8.52 3.82 8.78C2.98 8.81 2.26 8.86 1.82 8.90L1.92 12.31C3.55 12.14 8.14 12.07 10.08 12.22ZM20.52 6.70C19.85 6.70 16.34 6.74 13.68 6.89L13.68 6.55L10.51 6.70C10.51 12.65 10.70 16.85 9.96 20.38L9.24 19.22C8.42 19.13 6.17 19.18 4.42 19.27L4.42 19.08L2.30 19.30C2.30 20.64 2.33 24.67 2.54 26.09L4.42 25.99C4.42 25.92 4.42 25.87 4.39 25.80C5.35 25.75 6.60 25.75 7.61 25.75C7.61 25.85 7.58 25.92 7.58 25.99L9.53 25.99C9.58 25.75 9.62 25.25 9.70 24.62L11.28 26.09C13.32 22.27 13.54 17.52 13.63 10.78C15.77 10.68 18.48 10.63 19.32 10.63C19.32 11.98 19.32 20.14 19.01 22.80L18.26 22.37L17.81 24.86C18.58 25.51 19.18 25.97 19.92 26.62L21.89 25.06C22.18 22.20 22.18 10.22 22.18 8.23ZM13.78 16.78C14.81 16.66 17.78 16.61 19.03 16.70L19.03 14.40C18.70 14.38 18.02 14.35 17.28 14.35L17.28 13.92C17.86 13.92 18.36 13.94 18.72 13.97L18.72 11.66C18.43 11.64 17.90 11.64 17.28 11.64L17.28 11.06L15.43 11.11L15.43 11.66C14.83 11.69 14.28 11.71 13.99 11.74L14.06 14.04C14.38 13.99 14.90 13.97 15.50 13.94L15.50 14.40C14.74 14.42 14.04 14.45 13.68 14.50ZM9.60 12.62C8.38 12.50 3.91 12.58 2.62 12.72L2.71 15.60C4.10 15.46 7.94 15.41 9.60 15.53ZM9.72 15.91C8.50 15.79 4.03 15.86 2.71 16.03L2.83 18.91C4.20 18.77 8.06 18.72 9.72 18.84ZM18.79 22.30C18.89 21.67 19.15 18.43 19.15 18.02L18.58 17.04C17.98 16.97 16.34 17.02 15.07 17.09L15.07 16.92L13.56 17.11C13.56 18.14 13.58 21.26 13.73 22.37L15.07 22.30L15.07 22.13C15.74 22.10 16.66 22.08 17.40 22.10C17.40 22.18 17.38 22.22 17.38 22.30ZM15.02 19.99L15.02 19.13C16.08 19.08 17.21 19.08 17.57 19.08C17.54 19.25 17.52 19.56 17.52 19.92ZM4.34 23.02L4.34 21.94C5.81 21.89 7.34 21.86 7.85 21.86C7.82 22.08 7.80 22.46 7.80 22.92C6.74 22.94 5.38 22.97 4.34 23.02Z" transform="translate(0, 0)" />
    </svg>
  