
    <svg xmlns="http://www.w3.org/2000/svg" viewBox="0 0 24 28.8">
      <path d="M22.46 22.01C21.05 21.67 19.20 20.83 17.50 19.92C18.62 19.46 19.51 18.91 20.59 18.26L18.98 16.46L20.40 16.46C20.74 15.67 21.60 11.52 21.60 11.02L19.66 9.77C18.84 9.72 17.42 9.72 15.74 9.72C16.68 9.10 17.50 8.45 18.46 7.22L17.09 5.81C15.89 5.88 13.44 5.93 11.18 5.95C11.26 5.83 11.33 5.71 11.38 5.59L6.62 5.45C6.36 6.74 4.78 8.40 3 9.82L2.40 9.84C2.40 9.96 2.40 10.10 2.40 10.27L1.90 10.63L2.40 11.09C2.45 12.82 2.54 15.48 2.86 16.58L6.62 16.46L6.60 16.30C6.84 16.30 7.10 16.27 7.37 16.27C5.52 17.04 3.55 17.69 1.80 18.24L2.74 20.33C4.25 20.06 7.54 18.89 10.22 17.71C10.30 17.81 10.39 17.90 10.46 18.02C8.38 19.06 4.97 20.11 2.74 20.95L3.48 23.09C5.54 22.54 9.17 21.29 11.54 20.14C11.59 20.28 11.62 20.42 11.66 20.57C9.22 21.70 5.21 23.16 3.19 23.83L3.89 25.90C5.95 25.32 9.34 24.17 11.83 23.14C11.76 23.62 11.59 24.07 11.35 24.50L10.92 24.31L9.48 26.18L12.29 27.19L14.59 26.21C15.36 25.08 15.70 23.81 15.72 22.51C17.11 23.38 18.58 24.29 20.54 24.94ZM12.05 8.98C11.83 9.26 11.52 9.50 11.16 9.77C10.10 9.77 9.05 9.79 8.04 9.82L8.83 9C9.94 9 10.85 9.02 12.05 8.98ZM17.23 12.38C17.16 12.60 17.11 12.96 17.06 13.44L14.04 13.44L14.04 12.41C15.50 12.38 16.68 12.38 17.23 12.38ZM6.50 12.48C7.54 12.46 8.64 12.46 9.72 12.43L9.77 13.49C8.57 13.49 7.42 13.51 6.50 13.54ZM14.90 18.41C14.57 17.59 14.11 16.85 13.63 16.22C14.71 16.22 15.74 16.22 16.63 16.25L16.56 16.46L17.93 16.46C16.97 17.23 15.84 17.86 14.90 18.41Z" transform="translate(0, 0)" />
    </svg>
  