
    <svg xmlns="http://www.w3.org/2000/svg" viewBox="0 0 24 28.8">
      <path d="M8.83 22.25C9.50 20.69 9.72 18.41 8.04 17.78C8.71 16.56 9.02 15.79 9.48 14.93C9.50 17.81 9.58 20.74 9.70 22.03L13.46 21.82C13.46 21.72 13.44 21.62 13.44 21.50C14.78 21.50 16.87 21.53 18.50 21.58C18.48 21.67 18.48 21.77 18.46 21.84L21.29 21.84C21.48 21.05 21.91 16.97 21.91 16.46L20.93 15.19C19.85 15.10 15.89 15.10 13.27 15.14L13.27 14.42C14.42 14.40 16.22 14.38 17.71 14.38C17.69 14.45 17.69 14.52 17.66 14.59L20.52 14.59C20.66 13.85 21.12 9.98 21.12 9.50L20.14 8.33C19.70 8.30 18.89 8.28 17.90 8.28C18.29 7.70 18.65 7.08 19.15 6.34L15.84 5.23C15.07 6.50 14.40 7.46 13.61 8.40C13.51 8.40 13.42 8.40 13.34 8.40L13.34 8.23L9.55 8.23C9.48 9.34 9.46 11.76 9.48 14.33L9.02 11.66C7.39 11.86 3.89 12 2.09 12L2.09 15.46C2.09 15.46 4.22 15.41 5.06 15.26C4.27 16.03 3.72 16.27 2.83 16.73L3.22 19.66C6.74 20.40 5.06 23.28 2.28 23.76L4.49 26.35C9.77 25.22 17.02 27.05 21.10 26.47L21.65 22.73C17.66 22.97 12.60 21.82 8.83 22.25ZM5.57 11.66C7.18 11.66 8.50 10.34 8.50 8.74C8.50 7.13 7.18 5.81 5.57 5.81C3.96 5.81 2.64 7.13 2.64 8.74C2.64 10.34 3.96 11.66 5.57 11.66ZM17.93 11.76C16.42 11.78 14.50 11.81 13.27 11.86L13.27 10.85C15.19 10.80 17.33 10.78 18 10.78C17.98 10.97 17.95 11.33 17.93 11.76ZM18.79 17.81C18.77 18.02 18.74 18.38 18.72 18.82C17.04 18.79 14.76 18.77 13.34 18.82C13.32 18.46 13.32 18.12 13.32 17.76C15.48 17.74 18.12 17.81 18.79 17.81Z" transform="translate(0, 0)" />
    </svg>
  