
    <svg xmlns="http://www.w3.org/2000/svg" viewBox="0 0 24 28.8">
      <path d="M9.22 10.56C10.18 10.49 11.83 10.44 13.68 10.42L13.68 10.92C13.10 10.92 12.53 10.94 12 10.97C12.02 10.87 12.02 10.80 12.02 10.75L9.46 10.97C9.46 12.17 9.50 15.82 9.74 17.11L12.02 17.02C12.02 16.97 12.02 16.92 12 16.85L12.53 16.85C11.16 18.14 9.60 19.01 8.45 19.49L9.65 22.37C11.16 21.67 12.60 20.78 13.75 19.78L13.78 22.80L16.68 22.80L16.68 20.14C17.76 21 19.01 21.77 20.35 22.37L21.55 19.49C20.38 18.98 18.82 18.14 17.42 16.80L17.98 16.80C17.95 16.87 17.95 16.94 17.93 17.02L20.52 17.02C20.74 16.30 21.26 12.50 21.26 12.05L20.06 10.87C19.42 10.85 18.14 10.85 16.68 10.85L16.68 10.39C18.48 10.39 20.16 10.42 21.26 10.46L21.26 7.03C20.40 6.98 18.65 6.96 16.68 6.96L16.68 5.57L13.63 5.52L13.66 7.01C11.69 7.03 9.94 7.08 9.02 7.15ZM5.33 12.14C6.94 12.14 8.26 10.82 8.26 9.22C8.26 7.61 6.94 6.29 5.33 6.29C3.72 6.29 2.40 7.61 2.40 9.22C2.40 10.82 3.72 12.14 5.33 12.14ZM7.80 22.99C8.47 21.43 9.02 18.79 7.32 18.17C8.02 16.90 8.35 16.15 8.86 15.22L8.33 12.12C6.67 12.31 3.74 12.46 1.90 12.43L1.90 15.86C1.90 15.86 4.08 15.84 4.90 15.67C4.10 16.44 3.58 16.68 2.66 17.14L3.05 20.02C6.60 20.78 4.90 23.62 2.11 24.10L4.32 26.66C9.65 25.54 17.54 27.29 21.62 26.74L22.13 23.50C18.12 23.71 11.59 22.56 7.80 22.99ZM18.34 13.27C18.29 13.46 18.26 13.82 18.24 14.26L16.68 14.26L16.68 13.30C17.42 13.30 18.02 13.27 18.34 13.27ZM11.95 13.37C12.50 13.34 13.10 13.34 13.70 13.32L13.70 14.30C13.06 14.33 12.46 14.35 11.95 14.38Z" transform="translate(0, 0)" />
    </svg>
  