<svg xmlns="http://www.w3.org/2000/svg" viewBox="0 0 24 28.8">
  <path d="M7.80 22.54C8.47 20.98 9 18.34 7.30 17.71C7.97 16.44 8.33 15.72 8.78 14.83L9.72 16.06L10.08 15.65C10.08 18.29 10.13 20.86 10.27 22.37L13.44 22.37C13.44 22.22 13.42 22.10 13.42 21.96C16.10 21.86 19.94 21.84 21.84 21.96L21.84 18.38C21.17 18.34 19.87 18.31 18.38 18.31L18.38 17.78C19.49 17.78 20.50 17.81 21.19 17.83L21.19 15.17C20.64 15.14 19.58 15.12 18.38 15.12L18.38 14.59C19.49 14.59 20.50 14.62 21.19 14.64L21.19 11.98C20.64 11.95 19.58 11.93 18.38 11.93L18.38 11.35C19.66 11.35 20.81 11.38 21.62 11.42L21.62 7.85C21.14 7.82 20.33 7.80 19.37 7.80C19.46 7.58 19.58 7.37 19.68 7.15L16.58 5.69C16.25 6.53 15.91 7.20 15.60 7.80C15.07 7.82 14.57 7.82 14.09 7.85L14.52 6.43L11.50 5.78C10.54 8.21 9.72 9.84 8.35 11.86L8.33 11.64C6.67 11.86 3.72 11.98 1.87 11.98L1.87 15.41C1.87 15.41 4.06 15.36 4.90 15.22C4.10 15.98 3.55 16.22 2.64 16.66L3.02 19.56C6.60 20.30 4.87 23.14 2.09 23.64L4.30 26.21C9.62 25.08 17.52 26.83 21.62 26.28L22.10 23.02C18.12 23.26 11.57 22.10 7.80 22.54ZM5.33 11.66C6.94 11.66 8.26 10.34 8.26 8.74C8.26 7.13 6.94 5.81 5.33 5.81C3.72 5.81 2.40 7.13 2.40 8.74C2.40 10.34 3.72 11.66 5.33 11.66ZM13.30 12.02C13.30 11.81 13.32 11.62 13.32 11.40C13.92 11.40 14.54 11.38 15.19 11.38L15.19 11.98C14.52 11.98 13.87 12 13.30 12.02ZM13.25 15.22L13.25 14.64C13.85 14.64 14.52 14.62 15.24 14.62L15.24 15.17C14.52 15.17 13.85 15.19 13.25 15.22ZM13.27 18.41C13.27 18.22 13.27 18.02 13.25 17.83C13.85 17.83 14.54 17.81 15.26 17.81L15.29 18.36C14.57 18.36 13.90 18.38 13.27 18.41Z" transform="translate(0, 0)" />
</svg>