<svg xmlns="http://www.w3.org/2000/svg" viewBox="0 0 24 28.8">
  <path d="M16.73 22.78L16.73 21.84C18.34 21.84 19.82 21.89 21.02 21.94L21.26 19.39C20.76 19.37 18.89 19.34 16.73 19.37L16.73 18.70C16.99 18.70 17.23 18.72 17.45 18.72C17.45 18.82 17.42 18.94 17.42 19.03L20.11 19.03C20.35 17.02 20.33 14.69 20.35 13.20L18.91 12.43L16.73 12.43L16.73 12.12C18.19 12.14 19.56 12.19 20.64 12.24L20.74 10.99L21.53 11.09C22.01 10.22 22.15 8.64 22.37 7.70L21.46 5.81C20.95 5.90 13.30 5.98 10.46 5.93L10.39 5.57L8.06 5.64C8.06 7.49 8.11 9.55 7.66 10.75L8.88 10.82L9.02 12.24C10.20 12.17 11.66 12.12 13.22 12.12L13.22 12.46L10.06 12.46L9.46 12.98C9.46 14.81 9.58 17.30 9.79 19.03L12.53 19.03C12.53 18.94 12.50 18.84 12.50 18.72C12.79 18.72 13.08 18.72 13.39 18.70L13.42 19.37C11.04 19.39 8.93 19.42 8.54 19.44L8.81 21.94C10.13 21.86 11.76 21.84 13.49 21.82L13.51 22.68C11.28 22.51 9.12 22.42 7.49 22.58C8.16 21.07 8.69 18.50 7.03 17.88C7.70 16.66 8.04 15.91 8.54 15.02L8.02 12C6.38 12.19 3.46 12.34 1.66 12.31L1.66 15.65C1.66 15.65 3.82 15.62 4.63 15.48C3.84 16.22 3.31 16.44 2.40 16.87L2.78 19.70C6.31 20.42 4.61 23.18 1.87 23.66L4.06 26.16C9.31 25.06 17.14 26.76 21.19 26.21L21.67 23.06C19.78 23.16 17.30 22.97 14.81 22.78ZM4.85 11.90C6.46 11.90 7.78 10.58 7.78 8.98C7.78 7.37 6.46 6.05 4.85 6.05C3.24 6.05 1.92 7.37 1.92 8.98C1.92 10.58 3.24 11.90 4.85 11.90ZM10.54 9.67C10.56 9.36 10.56 9 10.56 8.64C13.03 8.66 18.41 8.59 19.58 8.54C19.61 8.81 19.58 9.22 19.54 9.65C18.79 9.65 17.81 9.62 16.73 9.65L16.73 8.86L13.13 8.98L13.15 9.65C12.17 9.65 11.28 9.67 10.54 9.67ZM17.57 14.28L17.57 14.86L16.73 14.86L16.73 14.28ZM13.30 14.81L12.48 14.78L12.48 14.33L13.27 14.33ZM12.46 16.87L12.46 16.49L13.34 16.49L13.34 16.90C13.03 16.87 12.74 16.87 12.46 16.87ZM16.73 16.49L17.57 16.49C17.57 16.66 17.54 16.82 17.54 16.99C17.30 16.99 17.02 16.97 16.73 16.97Z" transform="translate(0, 0)" />
</svg>