<svg xmlns="http://www.w3.org/2000/svg" viewBox="0 0 24 28.8">
  <path d="M22.15 24.58C20.28 24.07 18.43 23.50 16.78 22.85C18.36 22.30 19.70 21.67 20.95 21.12L19.13 19.56C20.26 19.56 21.24 19.58 22.06 19.61L22.06 16.46C19.75 16.39 13.54 16.39 8.42 16.44C8.40 16.22 8.40 16.01 8.38 15.77C11.95 15.70 17.06 15.67 19.56 15.77L19.56 13.18C17.69 13.10 12.12 13.10 8.30 13.18L8.30 12.60C11.88 12.53 17.04 12.50 19.56 12.60L19.56 10.01C17.69 9.94 12.10 9.94 8.30 10.01L8.30 9.36C12.50 9.29 17.90 9.31 20.69 9.38L20.69 6.34C17.66 6.22 6.62 6.31 3.41 6.46L3.67 9.48C3.84 9.48 4.01 9.46 4.20 9.46C4.15 11.54 4.22 14.62 4.32 16.51L1.85 16.58L2.14 19.70C2.64 19.68 3.26 19.66 3.96 19.66L4.03 25.94L6.22 26.62L11.71 25.58L10.70 23.47C13.01 24.67 15.98 25.97 19.25 26.66ZM8.47 19.58C11.09 19.54 14.02 19.54 16.61 19.54C15.46 20.16 14.30 20.69 12.98 21.17C12.34 20.83 11.74 20.47 11.26 20.14L8.45 21.53ZM8.42 22.18C9 22.51 9.65 22.90 10.39 23.30L8.40 23.71Z" transform="translate(0, 0)" />
</svg>