<svg xmlns="http://www.w3.org/2000/svg" viewBox="0 0 24 28.8">
  <path d="M11.76 12.62L13.54 11.88L13.51 5.40L9.77 5.52L9.89 9.41L9.02 9.26L8.16 11.88ZM4.90 6.98C4.06 8.81 2.52 11.14 1.20 12.62L4.58 14.21C6.34 12.67 8.02 10.22 8.98 8.78ZM22.78 11.66C21.67 10.46 19.54 8.06 17.57 6.98L14.78 8.86C16.20 10.32 18.02 12.26 18.94 13.80ZM17.11 23.28C18.86 23.28 20.42 23.30 21.22 23.33L21.22 21.43C20.59 21.41 18.98 21.38 17.11 21.41L17.11 21C18.86 21 20.42 21.02 21.22 21.05L21.22 19.15C20.59 19.13 18.98 19.10 17.11 19.13L17.11 18.70C19.03 18.70 20.74 18.72 21.65 18.74L21.65 16.20C21.12 16.18 19.97 16.15 18.55 16.15C18.74 15.91 18.91 15.65 19.10 15.38L16.34 14.47C17.11 13.99 17.76 13.56 18.17 13.22L15.24 10.70C12.70 13.22 6.22 16.08 1.97 17.47L3.70 20.35C4.37 20.18 5.09 19.94 5.83 19.66C5.78 22.22 5.86 25.08 6.05 26.57L9.77 26.57C9.77 26.47 9.74 26.38 9.74 26.28C13.25 26.21 19.75 26.18 21.89 26.28L21.89 23.71C21.14 23.69 19.27 23.66 17.11 23.66ZM15.46 15C15.19 15.41 14.88 15.79 14.59 16.15C14.18 16.15 13.80 16.15 13.39 16.18C14.14 15.77 14.83 15.36 15.46 15ZM9.58 19.18C9.58 19.03 9.58 18.89 9.60 18.74C10.73 18.72 12.12 18.72 13.56 18.70L13.58 19.13C12.05 19.15 10.58 19.15 9.58 19.18ZM9.53 21.07C10.56 21.05 12.05 21.02 13.63 21.02L13.63 21.41C12.05 21.43 10.56 21.46 9.53 21.46ZM9.55 23.35C10.58 23.33 12.07 23.30 13.68 23.30L13.68 23.69L9.58 23.76C9.58 23.62 9.58 23.50 9.55 23.35Z" transform="translate(0, 0)" />
</svg>