
    <svg xmlns="http://www.w3.org/2000/svg" viewBox="0 0 200.256 28.8">
      <path d="M11.76 12.62L13.54 11.88L13.51 5.40L9.77 5.52L9.89 9.41L9.02 9.26L8.16 11.88ZM4.90 6.98C4.06 8.81 2.52 11.14 1.20 12.62L4.58 14.21C6.34 12.67 8.02 10.22 8.98 8.78ZM22.78 11.66C21.67 10.46 19.54 8.06 17.57 6.98L14.78 8.86C16.20 10.32 18.02 12.26 18.94 13.80ZM17.11 23.28C18.86 23.28 20.42 23.30 21.22 23.33L21.22 21.43C20.59 21.41 18.98 21.38 17.11 21.41L17.11 21C18.86 21 20.42 21.02 21.22 21.05L21.22 19.15C20.59 19.13 18.98 19.10 17.11 19.13L17.11 18.70C19.03 18.70 20.74 18.72 21.65 18.74L21.65 16.20C21.12 16.18 19.97 16.15 18.55 16.15C18.74 15.91 18.91 15.65 19.10 15.38L16.34 14.47C17.11 13.99 17.76 13.56 18.17 13.22L15.24 10.70C12.70 13.22 6.22 16.08 1.97 17.47L3.70 20.35C4.37 20.18 5.09 19.94 5.83 19.66C5.78 22.22 5.86 25.08 6.05 26.57L9.77 26.57C9.77 26.47 9.74 26.38 9.74 26.28C13.25 26.21 19.75 26.18 21.89 26.28L21.89 23.71C21.14 23.69 19.27 23.66 17.11 23.66ZM15.46 15C15.19 15.41 14.88 15.79 14.59 16.15C14.18 16.15 13.80 16.15 13.39 16.18C14.14 15.77 14.83 15.36 15.46 15ZM9.58 19.18C9.58 19.03 9.58 18.89 9.60 18.74C10.73 18.72 12.12 18.72 13.56 18.70L13.58 19.13C12.05 19.15 10.58 19.15 9.58 19.18ZM9.53 21.07C10.56 21.05 12.05 21.02 13.63 21.02L13.63 21.41C12.05 21.43 10.56 21.46 9.53 21.46ZM9.55 23.35C10.58 23.33 12.07 23.30 13.68 23.30L13.68 23.69L9.58 23.76C9.58 23.62 9.58 23.50 9.55 23.35ZM46.49 21.91C46.20 21.02 45.77 19.66 45.24 18.89L44.38 19.85C44.42 20.02 44.50 20.18 44.54 20.35C44.23 20.42 43.94 20.54 43.56 20.66C43.97 19.85 44.26 19.49 44.64 18.72L45.05 18.74C45.22 17.47 45.55 10.92 45.38 9.67L44.23 7.63L43.03 7.66C43.22 7.49 43.42 7.30 43.58 7.13L41.50 4.80C40.30 6.14 39.26 6.96 37.94 7.78L35.18 7.82L34.30 8.90C34.39 11.30 34.51 17.04 34.54 18.89L36.70 18.82C36.46 21.31 35.90 22.61 34.08 23.18C33.77 21.53 33.36 19.75 32.50 16.78L30.02 18.29C30.26 19.06 30.50 19.94 30.72 20.86C30.12 21.07 29.54 21.29 28.97 21.53C29.42 19.66 30 18.17 30.55 16.46C31.97 16.46 33.31 16.46 34.18 16.54L34.18 12.98C32.64 12.84 27.12 12.94 25.49 13.10L25.63 16.66C26.11 16.61 26.83 16.56 27.67 16.54C26.88 19.03 26.02 21.70 25.87 22.80L27.22 25.82C28.87 25.06 30.14 24.53 31.39 24.10C31.51 24.65 31.61 25.20 31.70 25.70L34.37 24.89L34.73 27C37.20 26.11 38.78 24.53 39.29 18.38L39.43 18.38C39.43 25.22 39.91 27.22 45.19 27L45.84 25.03L45.79 22.85L45.46 22.85ZM33.60 8.42C32.30 8.28 27.50 8.38 26.09 8.57L26.18 12.10C27.65 11.90 31.85 11.83 33.60 11.98ZM42.86 10.97L42.86 11.71C42.36 11.69 41.76 11.66 41.14 11.66L41.14 11.02ZM38.59 11.66C37.99 11.69 37.42 11.69 36.89 11.71C36.86 11.52 36.86 11.30 36.86 11.11L38.59 11.06ZM36.94 14.69C37.46 14.66 38.06 14.66 38.69 14.66L38.71 15.38C38.09 15.38 37.49 15.41 36.94 15.41ZM41.06 14.69L42.82 14.69C42.82 14.95 42.82 15.19 42.79 15.43C42.31 15.41 41.71 15.38 41.06 15.38ZM42.74 18.41L42.74 18.67L42.79 18.67L41.93 20.23C41.93 19.70 41.93 19.10 41.93 18.41ZM43.92 23.47C43.18 23.59 42.72 23.45 42.41 23.04C43.51 22.70 44.33 22.54 45.19 22.37L45.31 22.85L43.92 22.85ZM58.80 19.51C60.19 19.46 61.97 19.42 63.84 19.42C65.18 19.42 66.58 19.44 67.90 19.49L67.97 15.22C66.34 15.12 64.75 15.07 63.19 15.07C61.66 15.07 60.12 15.12 58.56 15.22ZM84.62 18.12C82.97 21.70 78.26 21.70 78.12 17.83C78.02 15.26 78.19 9.22 78.26 7.18L73.13 6.79C73.13 9.89 72.82 17.90 73.13 20.62C73.80 26.57 84.55 28.42 88.92 20.93ZM82.82 11.54C83.88 11.54 84.72 10.70 84.72 9.67C84.72 8.64 83.88 7.80 82.82 7.80C81.79 7.80 80.95 8.64 80.95 9.67C80.95 10.70 81.79 11.54 82.82 11.54ZM86.23 12.43C87.07 12.60 87.89 12.05 88.08 11.21C88.25 10.37 87.72 9.53 86.86 9.36C86.02 9.17 85.18 9.72 85.01 10.56C84.84 11.40 85.37 12.24 86.23 12.43ZM108.50 13.06C108.46 12.34 108.38 11.64 108.34 10.94L105.05 11.26C105.14 11.86 105.26 12.60 105.36 13.37C104.23 13.61 103.06 13.92 101.78 14.28C101.45 13.34 101.16 12.46 100.92 11.64L97.90 12.77C98.21 13.66 98.47 14.47 98.76 15.24C98.16 15.43 97.56 15.65 96.94 15.86L97.82 19.22C98.57 18.96 99.29 18.70 99.98 18.48C100.90 20.81 101.93 23.02 103.46 25.94L106.46 24.77C105.19 22.61 104.02 20.04 103.01 17.57C103.99 17.28 104.86 17.06 105.60 16.87C105.60 17.35 105.58 17.81 105.50 18.17L105.05 18.10L104.47 20.33L106.54 21.24L108.22 20.35C108.53 19.01 108.65 17.78 108.67 16.58C109.54 16.94 109.68 17.95 108.48 19.49L110.76 20.83C113.50 18.19 112.20 13.49 108.50 13.06ZM132.58 25.75C135.24 26.76 138.12 23.54 139.51 20.47L135.89 17.59C134.76 20.04 133.56 19.97 133.18 18.86C132.58 17.04 131.86 15.50 130.42 15.02C128.74 14.45 127.25 14.95 126.07 16.10C127.32 13.06 128.06 10.70 128.95 7.58L124.22 6.46C123.10 10.85 120.58 19.73 118.70 24.10L123.48 25.46C125.11 22.49 126.62 19.39 128.76 20.16C131.18 21.05 129.17 24.48 132.58 25.75ZM155.47 8.76L151.75 8.90C151.87 7.97 151.97 7.10 152.04 6.34L147.60 5.98C147.55 6.70 147.43 7.78 147.24 9.07L144.38 9.17L144.38 12.98L146.59 12.96C145.80 17.14 144.67 21.94 143.45 24.60L148.37 25.54C149.23 23.16 150.38 17.83 151.18 12.89L155.47 12.82ZM152.71 17.90C154.94 17.35 156.26 17.11 158.14 17.06L156.82 18.77L159.77 20.42C160.42 19.92 161.45 18.41 162.38 17.18L161.23 12.98C159.43 13.06 154.30 13.51 152.04 14.26ZM151.06 22.08C152.78 24.48 156.67 25.85 161.74 25.85L161.74 21.72C158.21 21.94 156.02 21.43 153.82 18.91ZM185.38 7.68L179.66 7.75C179.64 7.06 179.64 6.48 179.62 6.02L175.32 6.02C175.27 6.26 175.25 6.91 175.27 7.82L168.62 7.92L168.62 11.69L175.42 11.59C175.42 11.83 175.42 12.07 175.44 12.29L169.73 12.41L169.73 16.13L175.61 16.03C175.63 16.37 175.66 16.68 175.66 16.99C174.43 17.06 173.30 17.18 172.46 17.40C168.12 18.53 167.90 23.14 169.63 24.72C172.22 27.14 179.57 26.74 179.83 23.14C179.86 22.78 179.88 22.01 179.88 21C181.37 21.24 182.74 21.53 183.46 21.67L183.72 17.26C182.57 17.11 181.22 17.02 179.83 16.97L179.83 15.98L184.27 15.91L184.27 12.12L179.76 12.22C179.76 11.98 179.76 11.76 179.74 11.54L185.38 11.47ZM175.82 21.77C175.80 23.16 172.87 22.87 173.35 21.38C173.52 20.78 174.50 20.59 175.80 20.59C175.82 21.10 175.82 21.48 175.82 21.77ZM190.13 19.51C191.52 19.46 193.30 19.42 195.17 19.42C196.51 19.42 197.90 19.44 199.22 19.49L199.30 15.22C197.66 15.12 196.08 15.07 194.52 15.07C192.98 15.07 191.45 15.12 189.89 15.22Z" transform="translate(0, 0)" />
    </svg>
  