
    <svg xmlns="http://www.w3.org/2000/svg" viewBox="0 0 24 28.8">
      <path d="M21.84 6.50C18.50 6.34 5.74 6.41 2.16 6.62L2.45 10.61C3.79 10.54 6.05 10.49 8.59 10.46C8.26 10.90 7.92 11.30 7.56 11.71C7.08 11.71 6.62 11.71 6.19 11.74L6.19 11.30L2.18 11.40C2.09 13.92 2.30 23.71 2.59 26.40L6.58 26.26C6.58 26.16 6.55 26.04 6.55 25.92C9.72 25.82 13.90 25.80 17.16 25.85C17.16 25.97 17.14 26.09 17.14 26.21L21.02 26.21C21.43 23.33 21.77 15.82 21.84 14.35L18.96 11.66C17.59 11.71 15.22 11.71 12.70 11.71C12.98 11.30 13.25 10.90 13.54 10.44C16.80 10.42 19.92 10.44 21.84 10.51ZM17.45 21.82L16.06 21.82C16.10 19.82 16.13 17.38 16.10 15.46C16.80 15.46 17.38 15.43 17.76 15.43C17.76 16.82 17.59 19.44 17.45 21.82ZM13.13 16.32C12.36 16.32 11.52 16.32 10.73 16.34L10.73 15.48C11.52 15.48 12.34 15.48 13.13 15.48ZM6.19 15.50L7.75 15.50C7.78 17.42 7.87 19.90 7.97 21.89C7.42 21.89 6.86 21.91 6.34 21.91C6.26 19.90 6.22 17.57 6.19 15.50ZM13.10 19.08C12.38 19.08 11.59 19.08 10.82 19.10C10.82 18.89 10.82 18.65 10.80 18.43C11.54 18.43 12.36 18.43 13.10 18.43ZM10.92 21.19L13.06 21.19C13.06 21.41 13.06 21.62 13.03 21.82C12.36 21.84 11.66 21.84 10.97 21.84C10.94 21.62 10.94 21.41 10.92 21.19Z" transform="translate(0, 0)" />
    </svg>
  