
    <svg xmlns="http://www.w3.org/2000/svg" viewBox="0 0 72 28.8">
      <path d="M21.84 6.50C18.50 6.34 5.74 6.41 2.16 6.62L2.45 10.61C3.79 10.54 6.05 10.49 8.59 10.46C8.26 10.90 7.92 11.30 7.56 11.71C7.08 11.71 6.62 11.71 6.19 11.74L6.19 11.30L2.18 11.40C2.09 13.92 2.30 23.71 2.59 26.40L6.58 26.26C6.58 26.16 6.55 26.04 6.55 25.92C9.72 25.82 13.90 25.80 17.16 25.85C17.16 25.97 17.14 26.09 17.14 26.21L21.02 26.21C21.43 23.33 21.77 15.82 21.84 14.35L18.96 11.66C17.59 11.71 15.22 11.71 12.70 11.71C12.98 11.30 13.25 10.90 13.54 10.44C16.80 10.42 19.92 10.44 21.84 10.51ZM17.45 21.82L16.06 21.82C16.10 19.82 16.13 17.38 16.10 15.46C16.80 15.46 17.38 15.43 17.76 15.43C17.76 16.82 17.59 19.44 17.45 21.82ZM13.13 16.32C12.36 16.32 11.52 16.32 10.73 16.34L10.73 15.48C11.52 15.48 12.34 15.48 13.13 15.48ZM6.19 15.50L7.75 15.50C7.78 17.42 7.87 19.90 7.97 21.89C7.42 21.89 6.86 21.91 6.34 21.91C6.26 19.90 6.22 17.57 6.19 15.50ZM13.10 19.08C12.38 19.08 11.59 19.08 10.82 19.10C10.82 18.89 10.82 18.65 10.80 18.43C11.54 18.43 12.36 18.43 13.10 18.43ZM10.92 21.19L13.06 21.19C13.06 21.41 13.06 21.62 13.03 21.82C12.36 21.84 11.66 21.84 10.97 21.84C10.94 21.62 10.94 21.41 10.92 21.19ZM46.34 16.03C45.29 15.94 42.79 15.89 39.91 15.86C39.43 14.83 38.76 13.94 37.87 13.27L43.22 10.44L42.36 6.19L27.43 6.65L27.53 11.14L34.20 10.68L32.35 12.34L32.06 14.78C32.86 15 33.53 15.38 34.06 15.89C30.31 15.91 26.90 16.01 25.68 16.15L26.06 21.07C28.01 20.95 31.39 20.90 34.90 20.95C34.51 21.53 33.94 21.98 33.12 22.25L31.70 21.96L31.03 26.02L34.37 26.81L36.82 26.33C38.95 25.22 40.15 23.21 40.54 21.02C42.82 21.07 44.81 21.14 46.03 21.22ZM69.91 17.11L63.72 17.11C63.72 16.92 63.70 16.70 63.67 16.49C65.62 16.51 67.49 16.56 69.14 16.58L68.74 12.02L62.83 12.02C62.62 11.35 62.40 10.73 62.16 10.22C63.67 9.79 65.04 9.24 66.02 8.59L63.02 5.02C60.82 6.50 55.46 7.34 52.87 7.73L53.52 11.71C54.38 11.69 55.97 11.54 57.77 11.23C57.86 11.50 57.98 11.78 58.08 12.07C55.78 12.12 53.40 12.17 51.07 12.24L51.07 16.75C53.14 16.58 55.97 16.51 58.94 16.49C58.94 16.70 58.97 16.94 58.97 17.16C55.92 17.18 52.73 17.23 49.66 17.33L49.66 22.01C51.91 21.84 54.98 21.77 58.22 21.74C58.10 22.08 57.96 22.42 57.82 22.73L57.22 22.44L54.65 24.82L57.96 26.88L60.38 26.59C61.99 25.39 62.93 23.66 63.38 21.74C65.86 21.74 68.28 21.79 70.37 21.82Z" transform="translate(0, 0)" />
    </svg>
  