<svg xmlns="http://www.w3.org/2000/svg" viewBox="0 0 24 28.8">
  <path d="M21.70 22.20C21.82 20.88 22.30 12.84 22.22 11.86L21.55 9.91L18.89 9.96C19.15 9.62 19.44 9.24 19.80 8.86C20.74 8.86 21.55 8.88 22.15 8.90L22.15 5.86C20.35 5.74 13.70 5.81 11.76 5.98L11.90 9C12.67 8.93 13.99 8.88 15.46 8.86C15.10 9.29 14.74 9.70 14.35 10.06L12.67 10.10L11.76 11.69C11.98 14.28 12.10 19.61 12.22 22.20L13.68 22.20C13.08 23.18 12.31 24 11.40 24.79L11.40 6.84L9.02 7.01L9.12 26.09L11.40 26.09L11.40 25.20L13.56 27.10C14.54 25.87 15.43 25.08 16.46 23.02L14.76 22.20L14.86 22.20L14.86 21.79L18.91 21.79C18.91 21.89 18.89 21.98 18.89 22.06L17.33 23.47C18 24.31 19.27 25.44 20.33 27.12L22.46 24.72C21.46 23.71 20.69 22.94 19.78 22.20ZM3.02 7.56C3.36 12.65 3.55 19.94 1.56 23.26L3.55 26.09C6.10 21.84 5.81 13.42 5.78 7.37ZM8.64 23.09L8.64 7.92L6.17 8.06L6.29 23.09ZM14.71 13.25L14.71 12.86L19.22 12.82L19.22 13.25ZM19.18 15.55C19.15 15.72 19.15 15.89 19.15 16.06L14.78 16.06L14.78 15.55ZM14.83 19.10L14.83 18.50L19.06 18.50C19.03 18.67 19.03 18.84 19.03 19.01Z" transform="translate(0, 0)" />
</svg>