<svg xmlns="http://www.w3.org/2000/svg" viewBox="0 0 24 28.8">
  <path d="M21.79 22.22C21.89 20.93 22.37 12.98 22.30 12L21.65 10.08L19.01 10.13C19.30 9.82 19.58 9.46 19.94 9.10C20.83 9.10 21.65 9.12 22.25 9.14L22.25 5.90C20.45 5.78 13.90 5.86 11.98 6.02L12.14 9.24C12.91 9.17 14.21 9.12 15.65 9.10C15.29 9.50 14.90 9.89 14.52 10.25L12.91 10.27L11.98 11.83C12 12.07 12.02 12.31 12.02 12.58C10.90 11.04 9.29 8.78 8.18 7.22C8.33 6.79 8.45 6.38 8.54 6L6.05 5.40C5.42 7.46 2.93 11.40 1.22 13.63L2.18 17.21C2.83 16.63 3.60 15.72 4.34 14.66L4.37 15.72C5.45 15.55 8.54 15.48 9.84 15.60L9.84 14.78C10.58 15.84 11.23 16.70 11.62 17.09L12.19 15.53C12.29 17.93 12.36 20.62 12.43 22.25L13.70 22.25C12.98 23.02 11.90 23.95 10.94 24.48L13.66 26.26C15.10 25.18 15.91 24.07 16.94 22.70L15.02 22.08L15.02 21.82L19.03 21.82L19.03 21.98L17.14 23.11C17.81 23.66 19.39 25.13 20.45 26.23L22.78 24.12C21.91 23.42 21 22.75 20.11 22.22ZM5.78 12.36C6.19 11.66 6.58 10.92 6.94 10.22L8.21 12.31C7.44 12.29 6.55 12.31 5.78 12.36ZM14.88 13.37L14.88 13.01L19.34 12.96L19.34 13.37ZM19.27 15.65L19.27 16.15L14.95 16.15L14.95 15.65ZM9.79 16.13C9.07 16.13 3.96 16.39 3.24 16.73L3.34 20.21C3.58 20.14 4.30 20.04 5.18 19.97L5.28 25.90L7.90 25.90L7.90 19.80C8.35 19.78 8.74 19.75 8.95 19.75C8.95 20.81 8.86 21.60 8.86 21.60L8.33 21.24L8.02 23.50C8.54 24.02 8.95 24.36 9.48 24.89L10.56 23.40C10.78 21.14 10.94 18.89 10.94 17.33ZM15 19.15L15 18.58L19.18 18.58C19.18 18.74 19.15 18.89 19.15 19.06Z" transform="translate(0, 0)" />
</svg>