<svg xmlns="http://www.w3.org/2000/svg" viewBox="0 0 192 28.8">
  <path d="M21.79 22.22C21.89 20.93 22.37 12.98 22.30 12L21.65 10.08L19.01 10.13C19.30 9.82 19.58 9.46 19.94 9.10C20.83 9.10 21.65 9.12 22.25 9.14L22.25 5.90C20.45 5.78 13.90 5.86 11.98 6.02L12.14 9.24C12.91 9.17 14.21 9.12 15.65 9.10C15.29 9.50 14.90 9.89 14.52 10.25L12.91 10.27L11.98 11.83C12 12.07 12.02 12.31 12.02 12.58C10.90 11.04 9.29 8.78 8.18 7.22C8.33 6.79 8.45 6.38 8.54 6L6.05 5.40C5.42 7.46 2.93 11.40 1.22 13.63L2.18 17.21C2.83 16.63 3.60 15.72 4.34 14.66L4.37 15.72C5.45 15.55 8.54 15.48 9.84 15.60L9.84 14.78C10.58 15.84 11.23 16.70 11.62 17.09L12.19 15.53C12.29 17.93 12.36 20.62 12.43 22.25L13.70 22.25C12.98 23.02 11.90 23.95 10.94 24.48L13.66 26.26C15.10 25.18 15.91 24.07 16.94 22.70L15.02 22.08L15.02 21.82L19.03 21.82L19.03 21.98L17.14 23.11C17.81 23.66 19.39 25.13 20.45 26.23L22.78 24.12C21.91 23.42 21 22.75 20.11 22.22ZM5.78 12.36C6.19 11.66 6.58 10.92 6.94 10.22L8.21 12.31C7.44 12.29 6.55 12.31 5.78 12.36ZM14.88 13.37L14.88 13.01L19.34 12.96L19.34 13.37ZM19.27 15.65L19.27 16.15L14.95 16.15L14.95 15.65ZM9.79 16.13C9.07 16.13 3.96 16.39 3.24 16.73L3.34 20.21C3.58 20.14 4.30 20.04 5.18 19.97L5.28 25.90L7.90 25.90L7.90 19.80C8.35 19.78 8.74 19.75 8.95 19.75C8.95 20.81 8.86 21.60 8.86 21.60L8.33 21.24L8.02 23.50C8.54 24.02 8.95 24.36 9.48 24.89L10.56 23.40C10.78 21.14 10.94 18.89 10.94 17.33ZM15 19.15L15 18.58L19.18 18.58C19.18 18.74 19.15 18.89 19.15 19.06ZM43.70 22.30C43.63 22.15 43.54 21.98 43.46 21.79C44.52 20.50 45.46 19.22 46.06 18.38L43.85 15.58C43.44 16.20 43.01 16.80 42.58 17.40C42.41 15.98 42.29 14.40 42.19 12.86C43.51 12.89 44.66 12.91 45.53 12.96L45.55 9.07L45.48 9.07C46.15 8.71 46.61 8.02 46.61 7.20C46.61 6.02 45.67 5.09 44.50 5.09C43.32 5.09 42.38 6.02 42.38 7.20C42.38 7.97 42.79 8.64 43.39 9L42.02 9C42 7.58 42 6.41 42.02 5.69L38.83 6.12C38.86 7.13 38.90 8.09 38.93 9C36.17 9.02 33.36 9.10 32.11 9.19L32.30 13.06C33.70 12.96 36.38 12.89 39.10 12.86C39.24 15.96 39.48 18.50 39.89 20.62C39.53 21 39.14 21.38 38.76 21.77L38.74 21.19C37.56 21.43 34.18 21.65 32.74 21.58L32.81 25.03C33.89 25.10 37.80 24.84 38.90 24.60L38.88 23.88L39.58 25.87C40.03 25.54 40.54 25.08 41.06 24.55C41.54 25.58 42.12 26.47 42.84 27.26L45.36 25.78L46.18 23.54L44.06 21.60ZM30.62 15.62C31.20 15.62 31.70 15.65 32.09 15.70L32.09 11.40C31.78 11.35 31.25 11.33 30.62 11.33L30.62 8.14L27.36 8.26L27.41 11.40C26.66 11.42 26.04 11.50 25.68 11.57L25.75 15.82C26.14 15.74 26.76 15.70 27.46 15.65L27.53 19.85C26.76 20.06 26.09 20.23 25.68 20.30L26.16 24.50C27.41 24.31 31.61 23.04 32.74 22.49L32.11 18.29C31.73 18.46 31.20 18.67 30.62 18.86ZM32.78 13.82C32.78 15.19 32.81 19.34 33 20.78L34.87 20.69C34.87 20.62 34.85 20.54 34.85 20.47C35.45 20.45 36.14 20.45 36.77 20.45L36.74 20.69L38.66 20.69C38.76 19.85 39.02 15.58 39.02 15.07L38.40 13.75C37.82 13.68 36.24 13.70 34.87 13.78L34.87 13.61ZM36.98 16.44C36.96 16.68 36.96 17.09 36.94 17.57C36.26 17.59 35.47 17.59 34.80 17.64L34.80 16.51C35.74 16.46 36.62 16.46 36.98 16.44ZM67.37 18.31C67.49 18.31 67.61 18.31 67.73 18.31L67.73 18.53L70.15 18.60C70.30 17.45 70.63 11.47 70.49 10.32L69.29 8.47L65.88 8.54C66.26 7.90 66.62 7.20 67.13 6.43L64.15 5.35C63.46 6.67 62.83 7.66 62.11 8.62L60.02 8.66L59.09 9.62C59.18 11.83 59.30 17.04 59.35 18.74L61.68 18.67C61.68 18.55 61.68 18.43 61.68 18.29L61.92 18.29C61.73 18.91 61.44 19.42 61.10 19.87C60.24 19.90 59.50 19.92 59.02 19.97L59.18 23.30C60.29 23.23 62.40 23.16 64.56 23.14C64.56 24.24 64.58 25.30 64.66 26.26L67.42 26.26C67.44 25.49 67.44 24.36 67.44 23.14C68.64 23.14 69.74 23.16 70.51 23.18L70.51 19.85C69.89 19.80 68.74 19.78 67.39 19.78C67.39 19.27 67.37 18.77 67.37 18.31ZM57.48 16.25C56.74 16.32 55.58 16.32 54.48 16.32L54.55 15.12C56.14 15.07 58.03 15.07 59.02 15.17L59.02 10.80C58.75 10.75 58.34 10.73 57.82 10.73L57.82 6.17L55.10 6.26L55.18 10.75L54.65 10.75C54.67 9.36 54.67 7.92 54.70 6.46L51.48 6.38C51.48 14.28 52.08 20.16 49.46 23.98L51.89 26.42C52.97 25.15 53.62 23.30 54 21C54.55 20.95 55.10 20.90 55.58 20.88C55.56 22.10 55.63 23.74 55.58 26.35L58.46 26.35C58.54 23.93 58.56 21.14 58.54 19.39ZM67.87 12.19C67.34 12.17 66.74 12.14 66.12 12.14L66.12 11.54L67.87 11.52ZM63.50 11.59L63.53 12.17C62.83 12.17 62.18 12.19 61.61 12.22C61.58 12.02 61.58 11.83 61.58 11.64ZM61.66 14.93C62.23 14.90 62.90 14.90 63.60 14.90L63.62 15.55C62.95 15.55 62.28 15.58 61.66 15.60ZM66.05 14.90L67.82 14.90C67.80 15.14 67.80 15.36 67.80 15.58C67.30 15.58 66.70 15.55 66.05 15.55ZM64.51 18.29L64.56 18.29C64.56 18.77 64.56 19.27 64.56 19.80L63.96 19.80C64.18 19.34 64.34 18.84 64.51 18.29ZM94.80 23.33C93 22.70 91.25 21.96 89.66 21.14C89.76 21.17 89.88 21.17 89.98 21.17C91.20 21.17 92.18 20.18 92.18 18.94C92.18 17.93 91.51 17.09 90.60 16.82C91.94 16.82 93.10 16.85 94.03 16.87L94.03 13.82C92.69 13.78 89.98 13.78 86.95 13.78L86.95 13.39C89.04 13.39 90.96 13.42 92.26 13.44L92.26 10.42C91.22 10.39 89.23 10.37 86.95 10.37L86.95 9.98C89.33 9.98 91.54 10.01 93.02 10.03L93.02 7.03C91.87 6.98 89.57 6.96 86.95 6.98L86.95 5.35L81.41 5.42L81.46 7.01C78.72 7.03 76.27 7.08 75 7.15L75.26 10.13C76.63 10.08 78.96 10.03 81.53 10.01L81.55 10.42C79.25 10.44 77.23 10.49 76.15 10.56L76.39 13.54C77.54 13.49 79.46 13.44 81.62 13.42L81.62 13.82C78.43 13.85 75.53 13.90 74.04 13.94L74.35 16.94L77.74 16.87C76.54 17.98 75.02 18.98 73.22 20.16L76.85 22.51L77.33 22.22L77.47 25.66L79.56 26.52L84.91 25.20L83.81 22.22L81.70 22.80L81.60 20.30C83.81 22.20 87.29 25.03 91.61 26.26ZM81.58 19.03C82.37 18.29 83.06 17.54 83.64 16.80L89.35 16.80C88.42 17.06 87.74 17.93 87.74 18.94C87.74 19.51 87.96 20.04 88.30 20.42C86.66 19.51 85.27 18.55 84.29 17.62L81.58 19.42ZM116.33 6.60C113.47 6.43 103.01 6.55 99.96 6.79L100.20 11.47C103.39 11.23 112.51 11.14 116.33 11.33ZM114.19 17.14C115.73 17.14 117.12 17.16 118.18 17.21L118.18 12.48C114.74 12.31 102.14 12.43 98.45 12.67L98.74 17.35L100.54 17.28C100.56 17.16 100.61 17.04 100.63 16.92L101.14 17.26C102.50 17.21 104.16 17.18 105.91 17.16L105.98 21.22L104.98 20.95L103.87 25.46L108.29 26.74L110.47 25.46L110.45 17.11C111.65 17.11 112.85 17.11 113.93 17.14L111.34 19.80C112.75 22.01 113.81 23.69 114.79 25.70L118.46 22.49C117.43 20.74 116.02 18.74 114.19 17.14ZM100.85 25.68C102.55 23.78 103.68 21.79 104.66 19.63L101.14 17.26C100.92 17.26 100.73 17.28 100.54 17.28C99.74 19.80 98.76 21.14 97.54 23.30ZM132.77 12.86C131.71 10.01 130.56 7.94 129.48 6.24L126.14 7.94C126.94 9.48 128.30 11.76 129.14 14.45ZM127.13 25.94C135.43 23.83 142.39 18 142.39 8.33L137.14 8.02C136.39 15.55 133.32 19.32 125.16 21.17ZM128.23 14.95C127.18 12.10 126.02 10.03 124.94 8.33L121.61 10.03C122.40 11.57 123.77 13.85 124.61 16.54ZM149.76 18.82C152.71 18.05 159.17 18.17 162.96 18.82L163.49 13.61C159.46 12.72 153.43 12.60 148.92 13.61ZM172.82 25.54C176.76 22.13 179.18 15.79 179.18 7.46L173.64 7.46C173.81 13.97 172.68 17.98 168.58 21.98ZM185.26 25.13C187.20 23.42 189.72 21.05 191.45 18.96L187.99 16.10L185.26 18.36L185.35 7.46L180.22 7.68L180.82 24.43Z" transform="translate(0, 0)" />
</svg>