
    <svg xmlns="http://www.w3.org/2000/svg" viewBox="0 0 264 28.8">
      <path d="M21.79 22.22C21.89 20.93 22.37 12.98 22.30 12L21.65 10.08L19.01 10.13C19.30 9.82 19.58 9.46 19.94 9.10C20.83 9.10 21.65 9.12 22.25 9.14L22.25 5.90C20.45 5.78 13.90 5.86 11.98 6.02L12.14 9.24C12.91 9.17 14.21 9.12 15.65 9.10C15.29 9.50 14.90 9.89 14.52 10.25L12.91 10.27L11.98 11.83C12 12.07 12.02 12.31 12.02 12.58C10.90 11.04 9.29 8.78 8.18 7.22C8.33 6.79 8.45 6.38 8.54 6L6.05 5.40C5.42 7.46 2.93 11.40 1.22 13.63L2.18 17.21C2.83 16.63 3.60 15.72 4.34 14.66L4.37 15.72C5.45 15.55 8.54 15.48 9.84 15.60L9.84 14.78C10.58 15.84 11.23 16.70 11.62 17.09L12.19 15.53C12.29 17.93 12.36 20.62 12.43 22.25L13.70 22.25C12.98 23.02 11.90 23.95 10.94 24.48L13.66 26.26C15.10 25.18 15.91 24.07 16.94 22.70L15.02 22.08L15.02 21.82L19.03 21.82L19.03 21.98L17.14 23.11C17.81 23.66 19.39 25.13 20.45 26.23L22.78 24.12C21.91 23.42 21 22.75 20.11 22.22ZM5.78 12.36C6.19 11.66 6.58 10.92 6.94 10.22L8.21 12.31C7.44 12.29 6.55 12.31 5.78 12.36ZM14.88 13.37L14.88 13.01L19.34 12.96L19.34 13.37ZM19.27 15.65L19.27 16.15L14.95 16.15L14.95 15.65ZM9.79 16.13C9.07 16.13 3.96 16.39 3.24 16.73L3.34 20.21C3.58 20.14 4.30 20.04 5.18 19.97L5.28 25.90L7.90 25.90L7.90 19.80C8.35 19.78 8.74 19.75 8.95 19.75C8.95 20.81 8.86 21.60 8.86 21.60L8.33 21.24L8.02 23.50C8.54 24.02 8.95 24.36 9.48 24.89L10.56 23.40C10.78 21.14 10.94 18.89 10.94 17.33ZM15 19.15L15 18.58L19.18 18.58C19.18 18.74 19.15 18.89 19.15 19.06ZM43.70 22.30C43.63 22.15 43.54 21.98 43.46 21.79C44.52 20.50 45.46 19.22 46.06 18.38L43.85 15.58C43.44 16.20 43.01 16.80 42.58 17.40C42.41 15.98 42.29 14.40 42.19 12.86C43.51 12.89 44.66 12.91 45.53 12.96L45.55 9.07L45.48 9.07C46.15 8.71 46.61 8.02 46.61 7.20C46.61 6.02 45.67 5.09 44.50 5.09C43.32 5.09 42.38 6.02 42.38 7.20C42.38 7.97 42.79 8.64 43.39 9L42.02 9C42 7.58 42 6.41 42.02 5.69L38.83 6.12C38.86 7.13 38.90 8.09 38.93 9C36.17 9.02 33.36 9.10 32.11 9.19L32.30 13.06C33.70 12.96 36.38 12.89 39.10 12.86C39.24 15.96 39.48 18.50 39.89 20.62C39.53 21 39.14 21.38 38.76 21.77L38.74 21.19C37.56 21.43 34.18 21.65 32.74 21.58L32.81 25.03C33.89 25.10 37.80 24.84 38.90 24.60L38.88 23.88L39.58 25.87C40.03 25.54 40.54 25.08 41.06 24.55C41.54 25.58 42.12 26.47 42.84 27.26L45.36 25.78L46.18 23.54L44.06 21.60ZM30.62 15.62C31.20 15.62 31.70 15.65 32.09 15.70L32.09 11.40C31.78 11.35 31.25 11.33 30.62 11.33L30.62 8.14L27.36 8.26L27.41 11.40C26.66 11.42 26.04 11.50 25.68 11.57L25.75 15.82C26.14 15.74 26.76 15.70 27.46 15.65L27.53 19.85C26.76 20.06 26.09 20.23 25.68 20.30L26.16 24.50C27.41 24.31 31.61 23.04 32.74 22.49L32.11 18.29C31.73 18.46 31.20 18.67 30.62 18.86ZM32.78 13.82C32.78 15.19 32.81 19.34 33 20.78L34.87 20.69C34.87 20.62 34.85 20.54 34.85 20.47C35.45 20.45 36.14 20.45 36.77 20.45L36.74 20.69L38.66 20.69C38.76 19.85 39.02 15.58 39.02 15.07L38.40 13.75C37.82 13.68 36.24 13.70 34.87 13.78L34.87 13.61ZM36.98 16.44C36.96 16.68 36.96 17.09 36.94 17.57C36.26 17.59 35.47 17.59 34.80 17.64L34.80 16.51C35.74 16.46 36.62 16.46 36.98 16.44ZM69.29 9.50C68.38 9.31 65.98 9.41 63.91 9.58C63.94 9.43 63.94 9.31 63.94 9.22L60.84 9.67C60.84 11.62 60.94 17.42 61.10 21.70C60.14 20.47 58.75 17.90 57.89 16.13C58.97 16.13 59.95 16.15 60.77 16.18L60.84 12.10C60.12 12.10 58.87 12.10 57.46 12.12L57.46 10.25C58.44 9.98 59.50 9.65 60.84 9.19L59.35 5.52C56.18 6.77 54.14 7.10 50.38 7.49L51.31 11.28C52.25 11.18 53.04 11.09 53.76 10.97L53.74 12.17C52.44 12.22 51.29 12.26 50.59 12.36L50.69 16.25L53.23 16.18C52.37 18 51.02 19.82 49.78 20.98L50.81 24.82C51.67 24.14 52.68 23.04 53.59 21.77L53.52 26.50L57.46 26.47L57.46 21.89C58.03 23.11 58.61 24.19 59.02 24.82L61.10 22.08C61.18 23.66 61.25 25.03 61.32 25.82L64.10 25.58C64.10 25.46 64.08 25.30 64.08 25.15C64.99 25.10 66.07 25.08 67.01 25.08C67.01 25.27 67.01 25.44 66.98 25.58L69.79 25.58C69.94 23.95 70.22 13.20 70.22 12.14ZM63.94 19.42C63.94 17.98 63.91 16.46 63.91 15.05C65.30 15 66.62 14.98 67.18 14.95C67.13 15.58 67.13 17.35 67.13 19.30C66.10 19.32 64.94 19.34 63.94 19.42ZM90.94 6.22L91.73 11.09L86.50 13.82C88.97 16.73 88.85 23.26 85.49 25.58L83.09 26.09L79.82 25.30L80.50 21.43L81.86 21.65C84.02 20.64 83.47 16.08 80.78 15.24L81.07 12.89L82.90 11.33L76.58 11.59L76.30 6.70ZM107.81 8.50C104.93 7.46 103.99 7.25 101.23 6.77L100.18 10.94C101.74 11.21 104.40 11.95 106.25 12.50ZM102.34 25.90C112.51 24.12 116.02 20.90 117.46 10.18L112.30 9.62C111 17.42 109.20 19.44 100.94 20.47ZM106.15 13.51C103.27 12.48 102.34 12.29 99.58 11.81L98.52 15.96C100.08 16.25 102.74 16.97 104.57 17.52ZM140.18 9.34C133.06 7.54 130.08 7.06 125.52 6.53L124.99 11.06C129.12 11.66 133.54 12.50 139.06 14.02ZM138.22 15.29C131.09 13.51 130.44 13.56 125.90 13.03L125.38 17.57C129.48 18.14 131.57 18.48 137.09 19.99ZM139.01 21.70C131.88 19.90 128.90 19.42 124.34 18.89L123.82 23.42C127.94 24.02 132.36 24.86 137.88 26.38ZM160.22 20.38C160.44 19.06 160.68 17.62 161.02 15.98L159.48 13.20C158.11 13.46 152.04 13.78 149.78 13.68L149.78 17.21C151.01 17.21 154.70 17.16 157.13 17.02C157.01 18.60 156.94 19.44 156.74 20.45L148.78 20.59L148.78 24.41L162.53 24.17L162.53 20.33ZM177.65 25.68C182.95 23.33 186.46 20.76 189.58 17.35L185.30 13.97C182.74 16.10 180.94 17.47 176.86 19.85C176.71 15.05 176.81 11.52 176.50 6.82L170.64 7.08C171.14 12.48 171.36 20.66 171.62 24.14ZM197.76 18.82C200.71 18.05 207.17 18.17 210.96 18.82L211.49 13.61C207.46 12.72 201.43 12.60 196.92 13.61ZM233.98 7.32C232.82 7.46 229.32 7.49 226.68 7.51C226.70 7.20 226.70 6.84 226.70 6.50L222.12 6.50C221.98 9.67 221.11 13.90 218.50 16.68L222.22 18.77C223.85 16.54 225.24 14.30 226.03 11.57C228.70 11.52 231.60 11.45 232.75 11.38C232.49 12.86 232.08 14.42 231.38 15.98C229.90 15.02 227.95 14.26 226.70 13.70L225.07 17.30C225.98 17.69 227.86 18.65 229.32 19.44C228.19 20.90 226.73 22.32 224.78 23.62L228.07 26.42C231.26 24.65 236.06 18.82 237.53 11.11ZM245.76 18.82C248.71 18.05 255.17 18.17 258.96 18.82L259.49 13.61C255.46 12.72 249.43 12.60 244.92 13.61Z" transform="translate(0, 0)" />
    </svg>
  