
    <svg xmlns="http://www.w3.org/2000/svg" viewBox="0 0 24 28.8">
      <path d="M21.50 6.82C20.23 6.77 17.66 6.74 14.76 6.77L15 5.38L9.17 5.38L9.29 6.79C6.31 6.84 3.60 6.89 2.21 6.96L2.50 10.18C6.26 10.03 16.99 9.96 21.50 10.08ZM18.26 16.46C18.50 15.74 19.15 11.98 19.15 11.50L17.74 10.34C16.27 10.27 12.10 10.32 8.83 10.39L8.86 10.22L4.99 10.42C4.99 11.64 5.04 15.26 5.42 16.58L8.88 16.46L8.86 16.30C10.58 16.25 12.89 16.25 14.71 16.25C14.71 16.32 14.69 16.39 14.66 16.46ZM8.76 13.78L8.76 12.79C11.42 12.74 14.23 12.74 15.19 12.72C15.14 12.91 15.10 13.27 15.05 13.70C13.15 13.70 10.61 13.73 8.76 13.78ZM19.22 16.73C17.83 16.73 9.91 16.82 6.53 17.06L6.53 16.80L2.66 16.94C2.66 19.63 2.66 23.93 3.05 26.76L6.72 26.62C6.60 25.32 6.55 22.54 6.53 20.06C9.36 19.94 16.06 19.85 17.86 19.85C17.86 20.74 17.86 22.44 17.40 24.24L16.63 24.02C16.80 22.87 16.94 21.55 16.94 21.29L15.96 20.21C14.95 20.14 12.10 20.18 9.86 20.26C9.89 20.18 9.89 20.14 9.89 20.09L7.22 20.28C7.22 21.41 7.25 24.77 7.49 25.97L9.89 25.87L9.86 25.70C11.06 25.68 12.62 25.66 13.90 25.68L13.85 25.87L15.55 25.87C16.68 26.30 17.64 26.62 18.77 27.05L21.31 26.02C21.77 24.07 21.77 19.10 21.77 17.76ZM9.79 23.40L9.79 22.46C11.62 22.42 13.56 22.42 14.21 22.42C14.18 22.61 14.16 22.92 14.14 23.30C12.82 23.33 11.06 23.35 9.79 23.40Z" transform="translate(0, 0)" />
    </svg>
  