<svg xmlns="http://www.w3.org/2000/svg" viewBox="0 0 24 28.8">
  <path d="M22.49 21.91C22.20 21.02 21.77 19.66 21.24 18.89L20.38 19.85C20.42 20.02 20.50 20.18 20.54 20.35C20.23 20.42 19.94 20.54 19.56 20.66C19.97 19.85 20.26 19.49 20.64 18.72L21.05 18.74C21.22 17.47 21.55 10.92 21.38 9.67L20.23 7.63L19.03 7.66C19.22 7.49 19.42 7.30 19.58 7.13L17.50 4.80C16.30 6.14 15.26 6.96 13.94 7.78L11.18 7.82L10.30 8.90C10.39 11.30 10.51 17.04 10.54 18.89L12.70 18.82C12.46 21.31 11.90 22.61 10.08 23.18C9.77 21.53 9.36 19.75 8.50 16.78L6.02 18.29C6.26 19.06 6.50 19.94 6.72 20.86C6.12 21.07 5.54 21.29 4.97 21.53C5.42 19.66 6 18.17 6.55 16.46C7.97 16.46 9.31 16.46 10.18 16.54L10.18 12.98C8.64 12.84 3.12 12.94 1.49 13.10L1.63 16.66C2.11 16.61 2.83 16.56 3.67 16.54C2.88 19.03 2.02 21.70 1.87 22.80L3.22 25.82C4.87 25.06 6.14 24.53 7.39 24.10C7.51 24.65 7.61 25.20 7.70 25.70L10.37 24.89L10.73 27C13.20 26.11 14.78 24.53 15.29 18.38L15.43 18.38C15.43 25.22 15.91 27.22 21.19 27L21.84 25.03L21.79 22.85L21.46 22.85ZM9.60 8.42C8.30 8.28 3.50 8.38 2.09 8.57L2.18 12.10C3.65 11.90 7.85 11.83 9.60 11.98ZM18.86 10.97L18.86 11.71C18.36 11.69 17.76 11.66 17.14 11.66L17.14 11.02ZM14.59 11.66C13.99 11.69 13.42 11.69 12.89 11.71C12.86 11.52 12.86 11.30 12.86 11.11L14.59 11.06ZM12.94 14.69C13.46 14.66 14.06 14.66 14.69 14.66L14.71 15.38C14.09 15.38 13.49 15.41 12.94 15.41ZM17.06 14.69L18.82 14.69C18.82 14.95 18.82 15.19 18.79 15.43C18.31 15.41 17.71 15.38 17.06 15.38ZM18.74 18.41L18.74 18.67L18.79 18.67L17.93 20.23C17.93 19.70 17.93 19.10 17.93 18.41ZM19.92 23.47C19.18 23.59 18.72 23.45 18.41 23.04C19.51 22.70 20.33 22.54 21.19 22.37L21.31 22.85L19.92 22.85Z" transform="translate(0, 0)" />
</svg>