
    <svg xmlns="http://www.w3.org/2000/svg" viewBox="0 0 192 28.8">
      <path d="M23.04 25.22C17.95 18.50 18.19 13.06 23.04 6.94L18 5.71C13.34 11.28 11.83 20.18 18.46 27.24ZM36.77 12.86C35.71 10.01 34.56 7.94 33.48 6.24L30.14 7.94C30.94 9.48 32.30 11.76 33.14 14.45ZM31.13 25.94C39.43 23.83 46.39 18 46.39 8.33L41.14 8.02C40.39 15.55 37.32 19.32 29.16 21.17ZM32.23 14.95C31.18 12.10 30.02 10.03 28.94 8.33L25.61 10.03C26.40 11.57 27.77 13.85 28.61 16.54ZM68.62 20.93C62.74 21.77 61.42 20.90 61.25 18.02L68.78 18.02L68.78 13.20L61.22 13.37L61.22 12.10L67.75 12.10L67.75 7.25L51.02 7.68L51.02 12.10L56.45 12.10L56.45 13.49L49.99 13.63L49.99 18.02L56.42 18.02C56.40 18.74 56.40 19.37 56.40 19.80C56.38 23.71 59.76 27.34 68.95 25.97ZM91.37 18.31C91.49 18.31 91.61 18.31 91.73 18.31L91.73 18.53L94.15 18.60C94.30 17.45 94.63 11.47 94.49 10.32L93.29 8.47L89.88 8.54C90.26 7.90 90.62 7.20 91.13 6.43L88.15 5.35C87.46 6.67 86.83 7.66 86.11 8.62L84.02 8.66L83.09 9.62C83.18 11.83 83.30 17.04 83.35 18.74L85.68 18.67C85.68 18.55 85.68 18.43 85.68 18.29L85.92 18.29C85.73 18.91 85.44 19.42 85.10 19.87C84.24 19.90 83.50 19.92 83.02 19.97L83.18 23.30C84.29 23.23 86.40 23.16 88.56 23.14C88.56 24.24 88.58 25.30 88.66 26.26L91.42 26.26C91.44 25.49 91.44 24.36 91.44 23.14C92.64 23.14 93.74 23.16 94.51 23.18L94.51 19.85C93.89 19.80 92.74 19.78 91.39 19.78C91.39 19.27 91.37 18.77 91.37 18.31ZM81.48 16.25C80.74 16.32 79.58 16.32 78.48 16.32L78.55 15.12C80.14 15.07 82.03 15.07 83.02 15.17L83.02 10.80C82.75 10.75 82.34 10.73 81.82 10.73L81.82 6.17L79.10 6.26L79.18 10.75L78.65 10.75C78.67 9.36 78.67 7.92 78.70 6.46L75.48 6.38C75.48 14.28 76.08 20.16 73.46 23.98L75.89 26.42C76.97 25.15 77.62 23.30 78 21C78.55 20.95 79.10 20.90 79.58 20.88C79.56 22.10 79.63 23.74 79.58 26.35L82.46 26.35C82.54 23.93 82.56 21.14 82.54 19.39ZM91.87 12.19C91.34 12.17 90.74 12.14 90.12 12.14L90.12 11.54L91.87 11.52ZM87.50 11.59L87.53 12.17C86.83 12.17 86.18 12.19 85.61 12.22C85.58 12.02 85.58 11.83 85.58 11.64ZM85.66 14.93C86.23 14.90 86.90 14.90 87.60 14.90L87.62 15.55C86.95 15.55 86.28 15.58 85.66 15.60ZM90.05 14.90L91.82 14.90C91.80 15.14 91.80 15.36 91.80 15.58C91.30 15.58 90.70 15.55 90.05 15.55ZM88.51 18.29L88.56 18.29C88.56 18.77 88.56 19.27 88.56 19.80L87.96 19.80C88.18 19.34 88.34 18.84 88.51 18.29ZM101.33 11.42C102.94 11.42 104.26 10.10 104.26 8.50C104.26 6.89 102.94 5.57 101.33 5.57C99.72 5.57 98.40 6.89 98.40 8.50C98.40 10.10 99.72 11.42 101.33 11.42ZM111.53 12.82L111.53 10.87L109.68 10.97L109.68 11.30C107.66 11.42 107.57 10.97 107.54 10.30C107.98 10.27 108.34 10.27 108.65 10.27C108.62 10.34 108.60 10.42 108.60 10.46L110.95 10.46C111.24 9.50 111.53 7.85 111.53 6.89L110.09 5.76C108.98 5.83 106.90 5.83 105.74 5.83L105.65 7.75L108.98 7.75C108.98 7.92 108.96 8.18 108.94 8.47C107.86 8.47 106.73 8.50 105.94 8.54L105.26 9.24C104.98 13.08 106.90 13.78 110.98 13.39ZM117.94 12.94L117.94 10.99L116.09 11.09L116.09 11.40C114.07 11.54 113.98 11.09 113.95 10.42C114.38 10.39 114.74 10.39 115.06 10.39C115.03 10.46 115.01 10.54 115.01 10.58L117.36 10.58C117.65 9.62 117.94 7.97 117.94 7.01L116.50 5.86C115.39 5.95 113.30 5.95 112.15 5.95L112.06 7.87L115.39 7.87C115.39 8.04 115.37 8.30 115.34 8.59C114.26 8.59 113.14 8.62 112.34 8.66L111.67 9.36C111.38 13.20 113.30 13.90 117.38 13.51ZM118.08 22.27C117.60 21.79 116.66 20.83 115.78 20.16C116.66 20.16 117.43 20.16 118.06 20.18L118.06 17.86C117.50 17.83 116.59 17.83 115.51 17.83C115.54 17.50 115.54 17.16 115.56 16.82C116.33 16.85 117 16.85 117.53 16.87L117.53 14.54C117.10 14.52 116.42 14.52 115.63 14.50C115.63 14.18 115.63 13.94 115.61 13.75L112.63 13.73C112.63 13.94 112.66 14.21 112.66 14.50C111.91 14.50 111.14 14.52 110.38 14.52C110.38 14.21 110.40 13.94 110.40 13.73L107.54 13.75C107.52 13.94 107.52 14.23 107.52 14.57C106.58 14.59 105.82 14.62 105.31 14.64L105.48 16.94L107.59 16.87C107.59 17.21 107.62 17.54 107.64 17.88C106.42 17.90 105.38 17.93 104.76 17.95L104.98 20.28L107.02 20.21C106.15 20.95 105.26 21.94 104.83 22.44L105.48 22.78C104.98 22.78 104.50 22.82 104.04 22.87C104.74 21.24 104.76 18.48 103.03 17.83C103.58 16.94 104.64 15.94 105.17 14.98L104.40 11.59C102.70 11.81 99.79 11.90 97.90 11.90L97.90 15.46C97.90 15.46 100.13 15.43 100.99 15.26C100.18 16.06 99.62 16.32 98.69 16.78L99.07 19.78C102.72 20.57 100.97 23.52 98.14 24.02L100.39 26.71C105.84 25.54 113.30 27.41 117.50 26.83L117.72 23.30C117.26 23.33 116.81 23.33 116.30 23.33ZM110.42 16.82L112.58 16.82C112.58 17.16 112.56 17.50 112.54 17.83L110.47 17.83C110.47 17.52 110.45 17.18 110.42 16.82ZM113.16 20.90C113.90 21.62 114.82 22.49 115.54 23.30C113.11 23.23 110.40 22.92 107.93 22.80C108.53 22.08 109.18 21.41 109.75 20.81L108.91 20.18C110.54 20.16 112.39 20.16 114.07 20.16ZM142.13 24.17C139.32 21.24 138.31 19.44 137.95 15.50L138.38 15.50C138.38 15.65 138.36 15.77 138.36 15.86L141.50 15.86C141.74 13.94 141.84 9.60 141.91 8.47L140.26 5.83C138.12 6.05 133.10 6.12 131.26 6.10L129.72 8.66C129.72 10.70 129.60 13.15 129.36 15.65L129.26 14.54C128.93 14.66 128.47 14.81 127.92 14.98L127.92 13.06C128.54 13.06 129.10 13.08 129.53 13.13L129.53 9.07C129.19 9.02 128.62 9 127.92 9L127.92 5.76L124.56 5.98L124.56 9.02C123.46 9.07 122.47 9.14 121.97 9.22L122.09 13.25C122.64 13.18 123.55 13.13 124.58 13.08L124.58 15.79C123.53 16.03 122.54 16.22 121.87 16.32L122.14 20.26C122.62 20.21 123.55 20.02 124.61 19.78L124.61 21.72L123.86 21.48L123.12 24.86L126.36 26.14L127.94 24.86L127.94 18.94L129.05 18.60C128.74 21.14 128.33 23.57 127.87 25.49L131.50 26.42C132.26 23.90 132.84 19.51 133.20 15.58C133.58 15.55 133.99 15.55 134.40 15.53C134.74 20.64 136.25 23.88 139.10 26.78ZM133.66 9.65C135.53 9.65 137.45 9.55 138.50 9.55C138.50 10.15 138.50 11.16 138.48 12.22C136.94 12.22 135.02 12.24 133.49 12.29C133.56 11.30 133.61 10.39 133.66 9.65ZM158.74 9.50L158.83 5.62L153.10 5.71L153.14 9.60L147.22 9.67L145.73 10.97C145.90 13.56 146.18 17.64 146.23 20.57L151.25 20.57C151.25 20.45 151.27 20.30 151.27 20.18L153.26 20.18L153.34 26.64L158.33 26.54L158.47 20.21C159.17 20.23 159.82 20.23 160.42 20.23L160.42 20.57L165.29 20.74C165.74 18.48 166.22 13.08 166.30 11.33L164.81 9.43ZM158.64 13.80L160.54 13.78C160.54 14.26 160.51 15.12 160.49 16.10L158.59 16.03ZM151.34 16.06C151.34 15.34 151.34 14.62 151.32 13.90L153.19 13.87L153.22 16.01C152.57 16.03 151.94 16.03 151.34 16.06ZM173.54 27.24C180.17 20.18 178.66 11.28 174 5.71L168.96 6.94C173.81 13.06 174.05 18.50 168.96 25.22Z" transform="translate(0, 0)" />
    </svg>
  